<?xml version="1.0" standalone="no"?>
<!DOCTYPE svg PUBLIC "-//W3C//DTD SVG 20010904//EN"
 "http://www.w3.org/TR/2001/REC-SVG-20010904/DTD/svg10.dtd">
<svg version="1.0" xmlns="http://www.w3.org/2000/svg"
 width="136.000000pt" height="128.000000pt" viewBox="0 0 136.000000 128.000000"
 preserveAspectRatio="xMidYMid meet">

<g transform="translate(0.000000,128.000000) scale(0.100000,-0.100000)"
fill="#000000" stroke="none">
<path d="M303 1046 c-60 -19 -99 -51 -130 -104 -14 -26 -43 -63 -65 -83 -54
-51 -50 -103 10 -128 42 -17 60 -69 64 -176 5 -108 36 -186 101 -254 49 -51
142 -98 210 -107 52 -7 52 -7 36 -53 -11 -31 -14 -32 -49 -26 -43 7 -107 -15
-117 -41 -9 -25 17 -35 50 -17 28 14 47 14 104 -3 18 -5 25 1 41 33 11 21 23
53 27 70 6 31 9 33 48 33 23 0 59 5 80 11 22 6 41 8 44 5 3 -3 0 -25 -7 -49
l-12 -45 -52 2 c-59 1 -106 -19 -106 -45 0 -25 20 -28 57 -11 27 13 39 13 75
3 38 -12 43 -11 55 5 17 23 43 109 43 141 0 33 58 56 138 54 123 -4 219 28
298 101 76 70 55 111 -65 122 -41 3 -106 14 -145 22 -68 16 -74 20 -146 93
-41 42 -117 138 -169 214 -52 76 -114 155 -138 177 -75 65 -181 87 -280 56z
m195 -65 c50 -26 89 -69 197 -226 99 -141 178 -233 231 -265 36 -23 194 -60
256 -60 53 0 54 -15 3 -50 -70 -48 -119 -61 -224 -61 -80 0 -100 -3 -142 -25
-76 -38 -172 -57 -265 -51 -139 8 -232 64 -285 172 -27 54 -32 79 -36 157 -6
120 -25 168 -77 198 l-40 23 41 36 c23 20 44 46 48 58 29 101 182 150 293 94z"/>
<path d="M336 864 c-20 -20 -20 -48 0 -68 30 -30 74 -10 74 34 0 44 -44 64
-74 34z"/>
</g>
</svg>
