<?xml version="1.0" encoding="utf-8"?>
<!-- Generator: Adobe Illustrator 24.0.0, SVG Export Plug-In . SVG Version: 6.00 Build 0)  -->
<svg version="1.1" xmlns="http://www.w3.org/2000/svg" xmlns:xlink="http://www.w3.org/1999/xlink" x="0px" y="0px"
	 viewBox="0 0 64 64" enable-background="new 0 0 64 64" xml:space="preserve">
<g id="Captions">
</g>
<g id="Icons">
	<g>
		<g>
			<path fill="#FAB400" d="M21,50H11c-0.056,0-0.112,0.002-0.167,0.005L8,47.172V40H4v8c0,0.53,0.211,1.039,0.586,1.414l3.419,3.419
				C8.002,52.888,8,52.944,8,53v7h16v-7C24,51.343,22.657,50,21,50z"/>
			<g>
				<path fill="#F0C8A0" d="M8,40H4v-2c0-1.105,0.895-2,2-2h0c1.105,0,2,0.895,2,2V40z"/>
			</g>
			<g>
				<path fill="#D2AA82" d="M16,52L16,52c-1.105,0-2-0.895-2-2v-3h4v3C18,51.105,17.105,52,16,52z"/>
			</g>
			<g>
				<path fill="#F0C8A0" d="M17,48h-2c-1.657,0-3-1.343-3-3v-3c0-1.105,0.895-2,2-2h4c1.105,0,2,0.895,2,2v3
					C20,46.657,18.657,48,17,48z"/>
			</g>
			<g>
				<path fill="#C80A50" d="M18,40h-4c-1.105,0-2,0.895-2,2v0v-2c0-1.105,0.895-2,2-2h4c1.105,0,2,0.895,2,2v2v0
					C20,40.895,19.105,40,18,40z"/>
			</g>
		</g>
		<g>
			<path fill="#C80A50" d="M56,40v7.172l-2.833,2.833C53.112,50.002,53.056,50,53,50H43c-1.657,0-3,1.343-3,3v7h16v-7
				c0-0.056-0.002-0.112-0.005-0.167l3.419-3.419C59.789,49.039,60,48.53,60,48v-8H56z"/>
			<g>
				<path fill="#F0C8A0" d="M56,40h4v-2c0-1.105-0.895-2-2-2h0c-1.105,0-2,0.895-2,2V40z"/>
			</g>
			<g>
				<path fill="#D2AA82" d="M48,52L48,52c-1.105,0-2-0.895-2-2v-3h4v3C50,51.105,49.105,52,48,52z"/>
			</g>
			<g>
				<path fill="#F0C8A0" d="M49,48h-2c-1.657,0-3-1.343-3-3v-3c0-1.105,0.895-2,2-2h4c1.105,0,2,0.895,2,2v3
					C52,46.657,50.657,48,49,48z"/>
			</g>
			<g>
				<path fill="#FAB400" d="M50,40h-4c-1.105,0-2,0.895-2,2v0v-2c0-1.105,0.895-2,2-2h4c1.105,0,2,0.895,2,2v2v0
					C52,40.895,51.105,40,50,40z"/>
			</g>
		</g>
		<g>
			<g>
				<path fill="#F0C8A0" d="M40,42h-4v-8c0-1.105,0.895-2,2-2h0c1.105,0,2,0.895,2,2V42z"/>
			</g>
			<path fill="#00A0C8" d="M36,38v12h-9c-1.657,0-3,1.343-3,3v7h16V38H36z"/>
			<g>
				<path fill="#D2AA82" d="M32,52L32,52c-1.105,0-2-0.895-2-2v-3h4v3C34,51.105,33.105,52,32,52z"/>
			</g>
			<g>
				<path fill="#F0C8A0" d="M33,48h-2c-1.657,0-3-1.343-3-3v-3c0-1.105,0.895-2,2-2h4c1.105,0,2,0.895,2,2v3
					C36,46.657,34.657,48,33,48z"/>
			</g>
			<g>
				<path fill="#0A5078" d="M34,40h-4c-1.105,0-2,0.895-2,2v0v-2c0-1.105,0.895-2,2-2h4c1.105,0,2,0.895,2,2v2v0
					C36,40.895,35.105,40,34,40z"/>
			</g>
		</g>
		<g>
			<path fill="#A00028" d="M40,53v7h1v-9.235C40.386,51.314,40,52.112,40,53z"/>
		</g>
		<g>
			<path fill="#DC9600" d="M23,50.765V60h1v-7C24,52.112,23.614,51.314,23,50.765z"/>
		</g>
		<path fill="#C80A50" d="M39.561,4.172c-0.276-0.186-0.627-0.225-0.932-0.101l-10,4C28.249,8.224,28,8.591,28,9v11.535
			C27.412,20.195,26.729,20,26,20c-2.209,0-4,1.791-4,4c0,2.209,1.791,4,4,4s4-1.791,4-4V12.677l8-3.2v7.058
			C37.412,16.195,36.729,16,36,16c-2.209,0-4,1.791-4,4c0,2.209,1.791,4,4,4s4-1.791,4-4V5C40,4.668,39.835,4.358,39.561,4.172z"/>
		<path fill="#00A0C8" d="M14.8,16.601l-1.6-1.2C12.448,14.836,12,13.939,12,13c0-0.553-0.447-1-1-1s-1,0.447-1,1v11.535
			C9.412,24.195,8.729,24,8,24c-2.209,0-4,1.791-4,4c0,2.209,1.791,4,4,4s4-1.791,4-4v-8h1c0.552,0,1,0.448,1,1c0,0.553,0.447,1,1,1
			s1-0.447,1-1v-2C16,18.061,15.552,17.163,14.8,16.601z"/>
		<path fill="#00A0C8" d="M58.8,16.601l-1.6-1.2C56.448,14.836,56,13.939,56,13c0-0.553-0.447-1-1-1s-1,0.447-1,1v11.535
			C53.412,24.195,52.729,24,52,24c-2.209,0-4,1.791-4,4c0,2.209,1.791,4,4,4s4-1.791,4-4v-8h1c0.552,0,1,0.448,1,1
			c0,0.553,0.447,1,1,1s1-0.447,1-1v-2C60,18.061,59.552,17.163,58.8,16.601z"/>
	</g>
</g>
</svg>
