<svg xmlns="http://www.w3.org/2000/svg" xmlns:xlink="http://www.w3.org/1999/xlink" viewBox="0 0 48 48" width="48px" height="48px" fill-rule="evenodd"><defs><radialGradient id="6Jc5RRShVJxJksIVCeGINg" cx="467.955" cy="497.687" r=".851" gradientTransform="matrix(1 0 0 .61882 -443.634 -297.517)" gradientUnits="userSpaceOnUse"><stop offset=".004" stop-color="#fff" stop-opacity=".5"/><stop offset=".147" stop-color="#fff" stop-opacity=".462"/><stop offset=".385" stop-color="#fff" stop-opacity=".361"/><stop offset=".69" stop-color="#fff" stop-opacity=".195"/><stop offset="1" stop-color="#fff" stop-opacity="0"/></radialGradient><radialGradient id="6Jc5RRShVJxJksIVCeGINi" cx="24.074" cy="35.816" r="28.493" data-name="Безымянный градиент 433" gradientTransform="matrix(.99251 -.12214 .06549 .53216 -2.165 19.697)" gradientUnits="userSpaceOnUse"><stop offset="0" stop-color="#63150b"/><stop offset=".794" stop-color="#932315"/><stop offset=".998" stop-color="#a02718"/></radialGradient><radialGradient id="6Jc5RRShVJxJksIVCeGINa" cx="19.185" cy="42.88" r="2.992" data-name="Новый образец градиента 1" gradientTransform="translate(0 .559)" gradientUnits="userSpaceOnUse"><stop offset="0" stop-color="#ffe16e"/><stop offset=".393" stop-color="#ffd226"/><stop offset=".59" stop-color="#fdcd23"/><stop offset=".836" stop-color="#f6bd1b"/><stop offset=".999" stop-color="#f0af13"/></radialGradient><radialGradient id="6Jc5RRShVJxJksIVCeGINd" cx="18.932" cy="44.33" r="4.008" gradientUnits="userSpaceOnUse"><stop offset=".002" stop-color="#f5432c"/><stop offset=".206" stop-color="#e83e28"/><stop offset="1" stop-color="#b82c1a"/></radialGradient><radialGradient id="6Jc5RRShVJxJksIVCeGINe" cx="35.749" cy="41.263" r="13.001" data-name="Безымянный градиент 438" gradientTransform="rotate(49.138 15.193 31.865) scale(1 .54448)" gradientUnits="userSpaceOnUse"><stop offset="0" stop-color="#ffd226"/><stop offset=".325" stop-color="#fdcd23"/><stop offset=".73" stop-color="#f6bd1b"/><stop offset=".999" stop-color="#f0af13"/></radialGradient><radialGradient id="6Jc5RRShVJxJksIVCeGINk" cx="34.748" cy="39.842" r="9.304" gradientTransform="matrix(.6376 .77037 -.50013 .41393 32.519 -3.419)" xlink:href="#6Jc5RRShVJxJksIVCeGINa"/><radialGradient id="6Jc5RRShVJxJksIVCeGINQ" cx="13.806" cy="26.22" r="3.589" gradientTransform="rotate(-44.664 29.883 19.616) scale(1 .49626)" xlink:href="#6Jc5RRShVJxJksIVCeGINa"/><radialGradient id="6Jc5RRShVJxJksIVCeGINl" cx="36.266" cy="41.845" r="4.536" data-name="Безымянный градиент 439" gradientUnits="userSpaceOnUse"><stop offset=".393" stop-color="#ffd226"/><stop offset=".59" stop-color="#fdcd23"/><stop offset=".836" stop-color="#f6bd1b"/><stop offset=".999" stop-color="#f0af13"/></radialGradient><radialGradient id="6Jc5RRShVJxJksIVCeGINc" cx="18.468" cy="12.37" r="3.634" gradientTransform="rotate(-119.999 19.962 9.782) scale(1 .58155)" gradientUnits="userSpaceOnUse"><stop offset="0" stop-color="#ffd226"/><stop offset=".659" stop-color="#f0af13"/><stop offset="1" stop-color="#dea00f"/></radialGradient><radialGradient id="6Jc5RRShVJxJksIVCeGINO" cx="14.161" cy="24.978" r="2.602" xlink:href="#6Jc5RRShVJxJksIVCeGINa"/><radialGradient id="6Jc5RRShVJxJksIVCeGINn" cx="19.873" cy="5.651" r="4.443" gradientTransform="rotate(-30.724 24.475 4.387) scale(1 .55251)" xlink:href="#6Jc5RRShVJxJksIVCeGINc"/><radialGradient id="6Jc5RRShVJxJksIVCeGINo" cx="30.937" cy="-.05" r="10.766" data-name="Безымянный градиент 40" gradientUnits="userSpaceOnUse"><stop offset="0" stop-color="#c49a6d"/><stop offset=".135" stop-color="#c2986b"/><stop offset=".183" stop-color="#bb9265"/><stop offset=".218" stop-color="#b0875b"/><stop offset=".232" stop-color="#a88054"/><stop offset=".474" stop-color="#916a40"/><stop offset=".629" stop-color="#8a6239"/><stop offset=".734" stop-color="#865d34"/><stop offset=".865" stop-color="#774e28"/><stop offset=".999" stop-color="#5f3813"/></radialGradient><radialGradient id="6Jc5RRShVJxJksIVCeGINN" cx="17.542" cy="222.609" r="4.608" gradientTransform="matrix(.37715 -.45738 .94811 .19067 -200.133 -12.555)" xlink:href="#6Jc5RRShVJxJksIVCeGINa"/><radialGradient id="6Jc5RRShVJxJksIVCeGINM" cx="22.554" cy="212.868" r="3.802" gradientTransform="matrix(.48816 -.43101 1.0501 .29007 -211.99 -34.97)" xlink:href="#6Jc5RRShVJxJksIVCeGINa"/><radialGradient id="6Jc5RRShVJxJksIVCeGINr" cx="15.467" cy="23.623" r="18.553" xlink:href="#6Jc5RRShVJxJksIVCeGINd"/><radialGradient id="6Jc5RRShVJxJksIVCeGINs" cx="21.133" cy="12.24" r="4.634" data-name="Безымянный градиент 431" xlink:href="#6Jc5RRShVJxJksIVCeGINe"/><radialGradient id="6Jc5RRShVJxJksIVCeGINL" cx="40.616" cy="45.559" r="1.99" xlink:href="#6Jc5RRShVJxJksIVCeGINd"/><radialGradient id="6Jc5RRShVJxJksIVCeGINt" cx="21.499" cy="13.635" r="3.285" xlink:href="#6Jc5RRShVJxJksIVCeGINe"/><radialGradient id="6Jc5RRShVJxJksIVCeGINu" cx="23.179" cy="13.037" r="2.127" data-name="Безымянный градиент 432" gradientTransform="matrix(1 0 0 .8378 0 2.115)" gradientUnits="userSpaceOnUse"><stop offset="0" stop-color="#8c6239" stop-opacity=".9"/><stop offset=".199" stop-color="#8c6239" stop-opacity=".875"/><stop offset=".375" stop-color="#8c6239" stop-opacity=".798"/><stop offset=".542" stop-color="#8c6239" stop-opacity=".668"/><stop offset=".704" stop-color="#8c6239" stop-opacity=".486"/><stop offset=".861" stop-color="#8c6239" stop-opacity=".254"/><stop offset="1" stop-color="#8c6239" stop-opacity="0"/></radialGradient><radialGradient id="6Jc5RRShVJxJksIVCeGINf" cx="459.821" cy="478.057" r=".485" gradientTransform="matrix(1.00795 .02276 -.13229 2.15032 -374.573 -1027.665)" gradientUnits="userSpaceOnUse"><stop offset="0" stop-color="#fddf6e"/><stop offset=".625" stop-color="#fdd026"/><stop offset=".749" stop-color="#fbcc24"/><stop offset=".882" stop-color="#f6bf1d"/><stop offset=".999" stop-color="#eead14"/></radialGradient><radialGradient id="6Jc5RRShVJxJksIVCeGINv" cx="-1157.324" cy="478.057" r=".485" gradientTransform="matrix(-.95812 .31383 .74965 2.01975 -1446.966 -590.78)" xlink:href="#6Jc5RRShVJxJksIVCeGINf"/><radialGradient id="6Jc5RRShVJxJksIVCeGINw" cx="557.704" cy="415.092" r="3.702" gradientTransform="matrix(.86364 -.12786 .16037 1.08329 -525.368 -367.913)" gradientUnits="userSpaceOnUse"><stop offset="0" stop-color="#fddf6e"/><stop offset=".629" stop-color="#fdd026"/><stop offset=".75" stop-color="#fbcb23"/><stop offset=".899" stop-color="#f4bb1b"/><stop offset=".999" stop-color="#eead14"/></radialGradient><radialGradient id="6Jc5RRShVJxJksIVCeGINx" cx="254.473" cy="484.246" r="2.196" gradientTransform="matrix(.14061 1.02829 1.45293 -.19761 -716.772 -157.61)" gradientUnits="userSpaceOnUse"><stop offset="0" stop-color="#c49a6d"/><stop offset=".232" stop-color="#a88054"/><stop offset=".474" stop-color="#916a40"/><stop offset=".629" stop-color="#8a6239"/><stop offset=".734" stop-color="#865d34"/><stop offset=".865" stop-color="#774e28"/><stop offset=".999" stop-color="#5f3813"/></radialGradient><radialGradient id="6Jc5RRShVJxJksIVCeGINy" cx="466.509" cy="439.75" r=".665" gradientTransform="matrix(.99994 -.01104 .00593 .53707 -446.025 -219.201)" gradientUnits="userSpaceOnUse"><stop offset=".479" stop-color="#fed53f"/><stop offset=".673" stop-color="#fed53f" stop-opacity=".993"/><stop offset=".743" stop-color="#fed53f" stop-opacity=".966"/><stop offset=".793" stop-color="#fed53e" stop-opacity=".919"/><stop offset=".833" stop-color="#fed43e" stop-opacity=".853"/><stop offset=".868" stop-color="#fed43d" stop-opacity=".766"/><stop offset=".899" stop-color="#fdd43d" stop-opacity=".659"/><stop offset=".926" stop-color="#fdd33c" stop-opacity=".531"/><stop offset=".952" stop-color="#fdd33b" stop-opacity=".383"/><stop offset=".976" stop-color="#fcd239" stop-opacity=".213"/><stop offset=".997" stop-color="#fcd138" stop-opacity=".032"/><stop offset="1" stop-color="#fcd138" stop-opacity="0"/></radialGradient><radialGradient id="6Jc5RRShVJxJksIVCeGINz" cx="466.508" cy="668.587" r=".352" gradientTransform="matrix(1 0 0 .55775 -443.446 -361.068)" gradientUnits="userSpaceOnUse"><stop offset=".004" stop-color="#fdf2c7"/><stop offset=".112" stop-color="#fdf2c7" stop-opacity=".881"/><stop offset=".556" stop-color="#fdf2c7" stop-opacity=".412"/><stop offset=".86" stop-color="#fdf2c7" stop-opacity=".116"/><stop offset="1" stop-color="#fdf2c7" stop-opacity="0"/></radialGradient><radialGradient id="6Jc5RRShVJxJksIVCeGINA" cx="466.514" cy="439.947" r=".531" gradientTransform="matrix(.14858 .9889 -1.19731 .17989 480.535 -528.458)" gradientUnits="userSpaceOnUse"><stop offset=".415" stop-opacity=".3"/><stop offset="1" stop-opacity="0"/></radialGradient><radialGradient id="6Jc5RRShVJxJksIVCeGINK" cx="37.618" cy="43.625" r="1.115" data-name="Безымянный градиент 440" gradientUnits="userSpaceOnUse"><stop offset=".002" stop-color="#f5432c"/><stop offset=".28" stop-color="#e93e28"/><stop offset=".785" stop-color="#c8321f"/><stop offset="1" stop-color="#b82c1a"/></radialGradient><radialGradient id="6Jc5RRShVJxJksIVCeGINB" cx="-523.062" cy="497.687" r=".851" gradientTransform="matrix(-1 0 0 .61882 -501.603 -297.093)" xlink:href="#6Jc5RRShVJxJksIVCeGINg"/><radialGradient id="6Jc5RRShVJxJksIVCeGINC" cx="389.852" cy="513.07" r=".747" gradientTransform="matrix(1.01802 -.15071 .19176 1.29529 -472.037 -592.843)" gradientUnits="userSpaceOnUse"><stop offset=".696" stop-opacity=".2"/><stop offset="1" stop-opacity="0"/></radialGradient><radialGradient id="6Jc5RRShVJxJksIVCeGIND" cx="748.974" cy="750.595" r="1.152" gradientTransform="matrix(.68594 -.10155 .06979 .47144 -542.903 -264.773)" gradientUnits="userSpaceOnUse"><stop offset=".58" stop-color="#fff" stop-opacity=".4"/><stop offset="1" stop-color="#fff" stop-opacity="0"/></radialGradient><radialGradient id="6Jc5RRShVJxJksIVCeGINE" cx="776.111" cy="577.602" r=".987" gradientTransform="matrix(.65857 -.0975 .09817 .66312 -544.6 -294.376)" gradientUnits="userSpaceOnUse"><stop offset="0" stop-color="#1c1910"/><stop offset=".999" stop-color="#171714"/></radialGradient><radialGradient id="6Jc5RRShVJxJksIVCeGINF" cx="28.008" cy="3.853" r="1.783" xlink:href="#6Jc5RRShVJxJksIVCeGINc"/><radialGradient id="6Jc5RRShVJxJksIVCeGING" cx="28.28" cy="2.916" r="1.783" xlink:href="#6Jc5RRShVJxJksIVCeGINc"/><radialGradient id="6Jc5RRShVJxJksIVCeGINH" cx="27.861" cy="1.556" r="2.744" xlink:href="#6Jc5RRShVJxJksIVCeGINc"/><radialGradient id="6Jc5RRShVJxJksIVCeGINI" cx="24.31" cy="28.361" r="16.192" xlink:href="#6Jc5RRShVJxJksIVCeGINa"/><linearGradient id="6Jc5RRShVJxJksIVCeGINR" x1="4.079" x2="19.906" y1="29.562" y2="29.336" xlink:href="#6Jc5RRShVJxJksIVCeGINh"/><linearGradient id="6Jc5RRShVJxJksIVCeGINJ" x1="15.101" x2="15.101" y1="30.717" y2="26.367" xlink:href="#6Jc5RRShVJxJksIVCeGINh"/><linearGradient id="6Jc5RRShVJxJksIVCeGINh" x1="21.667" x2="24.359" y1="17.263" y2="22.905" data-name="Безымянный градиент 15" gradientUnits="userSpaceOnUse"><stop offset="0" stop-color="#661c1c" stop-opacity=".5"/><stop offset=".042" stop-color="#611c1c" stop-opacity=".466"/><stop offset=".411" stop-color="#3c1d1b" stop-opacity=".21"/><stop offset=".741" stop-color="#251d1b" stop-opacity=".055"/><stop offset="1" stop-color="#1d1d1b" stop-opacity="0"/></linearGradient><linearGradient id="6Jc5RRShVJxJksIVCeGINq" x1="19.867" x2="20.535" y1="40.61" y2="42.387" xlink:href="#6Jc5RRShVJxJksIVCeGINb"/><linearGradient id="6Jc5RRShVJxJksIVCeGINp" x1="26.403" x2="26.144" y1="11.461" y2="16.533" data-name="Безымянный градиент 420" gradientUnits="userSpaceOnUse"><stop offset=".001" stop-color="#321604" stop-opacity="0"/><stop offset="1" stop-color="#321604"/></linearGradient><linearGradient id="6Jc5RRShVJxJksIVCeGINm" x1="22.82" x2="18.556" y1="15.694" y2="9.751" xlink:href="#6Jc5RRShVJxJksIVCeGINb"/><linearGradient id="6Jc5RRShVJxJksIVCeGINP" x1="15.814" x2="14.853" y1="26.432" y2="25.342" xlink:href="#6Jc5RRShVJxJksIVCeGINb"/><linearGradient id="6Jc5RRShVJxJksIVCeGINb" x1="22.964" x2="30.92" y1="25.849" y2="33.805" data-name="New Gradient Swatch 2" gradientUnits="userSpaceOnUse"><stop offset="0" stop-color="#8c6239" stop-opacity=".9"/><stop offset="1" stop-color="#8c6239" stop-opacity="0"/></linearGradient><linearGradient id="6Jc5RRShVJxJksIVCeGINj" x1="5.666" x2="18.51" y1="38.447" y2="38.447" data-name="Безымянный градиент 435" gradientUnits="userSpaceOnUse"><stop offset=".002" stop-color="#a02718"/><stop offset=".206" stop-color="#932315"/><stop offset="1" stop-color="#63150b"/></linearGradient><linearGradient id="6Jc5RRShVJxJksIVCeGINS" x1="5.758" x2="20.423" y1="36.253" y2="29.114" xlink:href="#6Jc5RRShVJxJksIVCeGINh"/><linearGradient id="6Jc5RRShVJxJksIVCeGINT" x1="10.619" x2="20.794" y1="42.38" y2="29.492" xlink:href="#6Jc5RRShVJxJksIVCeGINh"/><linearGradient id="6Jc5RRShVJxJksIVCeGINU" x1="18.023" x2="19.993" y1="44.4" y2="32.804" xlink:href="#6Jc5RRShVJxJksIVCeGINh"/><linearGradient id="6Jc5RRShVJxJksIVCeGINV" x1="27.915" x2="22.069" y1="44.603" y2="31.036" xlink:href="#6Jc5RRShVJxJksIVCeGINh"/><linearGradient id="6Jc5RRShVJxJksIVCeGINW" x1="38.628" x2="33.288" y1="24.291" y2="31.871" xlink:href="#6Jc5RRShVJxJksIVCeGINh"/><linearGradient id="6Jc5RRShVJxJksIVCeGINX" x1="31.67" x2="24.435" y1="38.58" y2="31.603" xlink:href="#6Jc5RRShVJxJksIVCeGINh"/><linearGradient id="6Jc5RRShVJxJksIVCeGINY" x1="30.473" x2="24.464" y1="33.681" y2="29.826" xlink:href="#6Jc5RRShVJxJksIVCeGINh"/><linearGradient id="6Jc5RRShVJxJksIVCeGINZ" x1="23.148" x2="22.329" y1="36.279" y2="23.057" xlink:href="#6Jc5RRShVJxJksIVCeGINh"/></defs><path fill="url(#6Jc5RRShVJxJksIVCeGINi)" d="M9.08885,36.19646c.619.68283-.00527,1.28756.114,1.78632s1.09077.6201,1.42448,1.22265c.20433.36894.23718,1.94044.92189,2.67236.44335.47392,1.85027.403,2.54253.655s.82025,1.29188,1.61666,1.56838,1.731-.63,2.40323-.85,2.03094.7266,2.67392.896,1.81519-.67117,2.5328-.72729,2.02331.61511,3.2726.6914,1.63157-.78567,2.42077-.8333,1.4877.87635,1.9393.0916.62755-.62894,1.72391-.777,1.00618-1.00618,1.50686-2.15288,1.46359-.58143,1.69162-1.76872.90676-1.108,1.28477-1.486.37312-1.03294.49734-1.52394,1.02341-.977,1.1436-1.26234c.18651-.46818.38515-1.49419.16044-1.6915C30.75353,25.50146,22.07807,24.87284,9.08885,36.19646Z"/><path fill="url(#6Jc5RRShVJxJksIVCeGINj)" d="M38.975,32.72517a3.96409,3.96409,0,0,1-.175.60729c-.12019.28529-1.01938.77133-1.1436,1.26232s-.11934,1.14593-.49734,1.52395-1.05674.29871-1.28478,1.486-1.19094.622-1.69161,1.76873-.41049,2.00478-1.50686,2.15288-1.2723-.00771-1.72391.777-1.1501-.13922-1.93931-.09159-1.17147.90958-2.42076.8333-2.555-.74754-3.2726-.69141-1.88983.89673-2.53281.72729-2.0017-1.116-2.67392-.896-1.60681,1.12653-2.40322.85-.9244-1.31642-1.61665-1.56839-2.09919-.181-2.54254-.65494c-.68471-.73192-.71756-2.30342-.92189-2.67236-.27571-.49785-.98559-.66766-1.29168-.99279a2.11247,2.11247,0,0,0-.1328.83629c.11928.49876,1.09077.62009,1.42448,1.22264.20433.36894.23718,1.94044.92189,2.67236.44335.47391,1.85028.403,2.54254.65494s.82024,1.29189,1.61665,1.56839,1.731-.63,2.40322-.85,2.031.72658,2.67392.896,1.8152-.67117,2.53281-.72728,2.0233.61509,3.2726.69139,1.63157-.78568,2.42076-.83329,1.48771.87635,1.93931.09158.62755-.62893,1.72391-.777,1.00619-1.00617,1.50686-2.15288,1.46359-.58141,1.69161-1.7687.90676-1.108,1.28478-1.486.37312-1.033.49734-1.524,1.02341-.977,1.1436-1.26234C38.982,33.94182,39.17437,32.95625,38.975,32.72517Z"/><path fill="url(#6Jc5RRShVJxJksIVCeGINa)" fill-rule="evenodd" d="M23.52708,43.15894c-.01741.033-.033.06681-.0476.09977a3.69877,3.69877,0,0,1-4.814,1.89722,7.98841,7.98841,0,0,0,.84016-.50611,4.02034,4.02034,0,0,0,.91246-.83924,1.97508,1.97508,0,0,0,.26084-.45119,1.38544,1.38544,0,0,0,.10707-.52533c0-1.48171-3.05678-2.90578-3.05678-2.90578h3.74046a4.006,4.006,0,0,0,1.60984,2.78314l.02379.01921A2.08455,2.08455,0,0,1,23.52708,43.15894Z"/><path fill="url(#6Jc5RRShVJxJksIVCeGINd)" d="M23.71012,43.8838a1.21021,1.21021,0,0,0-.6068-1.15317l-.02379-.01921a1.79891,1.79891,0,0,1-.55315,1.17361,2.045,2.045,0,0,0-1.84744-.52564,1.97508,1.97508,0,0,1-.26084.45119,1.67466,1.67466,0,0,1,1.789.33912,4.18041,4.18041,0,0,1-.93087.47787,2.20182,2.20182,0,0,1-1.77062.02225,10.1443,10.1443,0,0,1-1.77641.94725c0,.41459,1.46433.39446,2.14341.39446,0,0,.80355-.00458,1.31516-.00641a.54749.54749,0,0,0,.43106-.20684,4.68155,4.68155,0,0,1,1.03236-.93809.18384.18384,0,0,1,.27181.08419,2.46431,2.46431,0,0,1,.06956,1.06074h.49329A6.5667,6.5667,0,0,1,23.71012,43.8838Z"/><path fill="url(#6Jc5RRShVJxJksIVCeGINe)" d="M31.48422,34.31a4.43757,4.43757,0,0,1,1.12992.56673,6.277,6.277,0,0,1,.90558.746A7.87309,7.87309,0,0,1,34.88927,37.468c.36848.68544.67292,1.42208,1.05928,2.09322a17.39383,17.39383,0,0,0,1.27155,1.92353.73223.73223,0,0,1-1.14376.91438A17.39511,17.39511,0,0,0,34.48,40.7353c-.56961-.52464-1.22116-.98378-1.80865-1.49414A7.87231,7.87231,0,0,1,31.1729,37.499a6.27951,6.27951,0,0,1-.52838-1.04762,4.43819,4.43819,0,0,1-.30405-1.227.882.882,0,0,1,.80595-.952A.89445.89445,0,0,1,31.48422,34.31Z"/><path fill="url(#6Jc5RRShVJxJksIVCeGINk)" d="M26.41857,26.802a4.508,4.508,0,0,1,.57518.28142c.18141.10137.35138.21117.51855.323a8.89107,8.89107,0,0,1,.92607.72774,11.01149,11.01149,0,0,1,1.52706,1.6945,11.12661,11.12661,0,0,1,1.16,1.96443,8.95431,8.95431,0,0,1,.41884,1.10071c.05724.19269.11153.38755.15452.59073a4.54048,4.54048,0,0,1,.09834.632,1.29539,1.29539,0,0,1-1.19454,1.38892,1.31621,1.31621,0,0,1-.57506-.0877,4.54217,4.54217,0,0,1-.574-.28229c-.18111-.1016-.35094-.21151-.5178-.32359A8.95446,8.95446,0,0,1,28.01,34.084a11.13029,11.13029,0,0,1-1.52928-1.69289,11.01277,11.01277,0,0,1-1.16222-1.9628,8.89637,8.89637,0,0,1-.41857-1.10091c-.05694-.19292-.11107-.38789-.15377-.59129a4.50747,4.50747,0,0,1-.09714-.63291,1.29743,1.29743,0,0,1,1.19994-1.3881A1.31917,1.31917,0,0,1,26.41857,26.802Z"/><path fill="url(#6Jc5RRShVJxJksIVCeGINb)" d="M31.58746,33.04614c-.01441-.05074-.02822-.102-.04317-.15229a8.95431,8.95431,0,0,0-.41884-1.10071,11.12661,11.12661,0,0,0-1.16-1.96443,11.01149,11.01149,0,0,0-1.52706-1.6945,8.89107,8.89107,0,0,0-.92607-.72774c-.16717-.11188-.33714-.22168-.51855-.323a4.508,4.508,0,0,0-.57518-.28142,1.31917,1.31917,0,0,0-.56966-.08688,1.29743,1.29743,0,0,0-1.19994,1.3881,4.50747,4.50747,0,0,0,.09714.63291c.0427.2034.09683.39837.15377.59129a8.89637,8.89637,0,0,0,.41857,1.10091,11.01277,11.01277,0,0,0,1.16222,1.9628A11.13029,11.13029,0,0,0,28.01,34.084a9.04056,9.04056,0,0,0,.72443.58512,3.13929,3.13929,0,0,1,.24041-1.0675,1.73039,1.73039,0,0,0,.07181-1.51329c-.10835-.16961-.28176-.31664-.293-.5176-.01658-.29615.3667-.48636.64536-.38474a1.06817,1.06817,0,0,1,.55757.65841,3.153,3.153,0,0,0,.36309.80827A1.24878,1.24878,0,0,0,31.58746,33.04614Z"/><path fill="url(#6Jc5RRShVJxJksIVCeGINl)" d="M40.70369,45.58335a.32654.32654,0,0,1-.29561.31849,2.5788,2.5788,0,0,1-.89782-.07688,2.70372,2.70372,0,0,1-.701-.28831,1.64958,1.64958,0,0,1-.52077-.48229L38.282,45.0452a6.83533,6.83533,0,0,0-.4164-.57842,2.55367,2.55367,0,0,0-.41642-.378c-.04027-.02929-.08055-.05765-.12173-.08513-.06315-.043-.129-.08419-.194-.12446a4.01683,4.01683,0,0,1-.40363-.27547,1.96744,1.96744,0,0,1-.25715-.24436,1.53194,1.53194,0,0,1-.2105-.29469,1.47074,1.47074,0,0,1-.14736-.885.69431.69431,0,0,1,.561-.604,1.46606,1.46606,0,0,1,.89325.08145,1.54238,1.54238,0,0,1,.30932.18853,1.91524,1.91524,0,0,1,.26268.23888,5.39608,5.39608,0,0,1,.3725.47316c.02288.0311.04665.06223.07047.09244a2.77783,2.77783,0,0,0,.18577.216,2.2959,2.2959,0,0,0,.31576.28739,4.98619,4.98619,0,0,0,.5308.3258c.0293.0174.05859.03479.087.05217a1.65044,1.65044,0,0,1,.51891.48415,2.72786,2.72786,0,0,1,.33954.67727A2.59561,2.59561,0,0,1,40.70369,45.58335Z"/><path fill="url(#6Jc5RRShVJxJksIVCeGINc)" d="M20.95646,15.09772c-.09734-.10573-.18391-.218-.276-.32693L20.422,14.4331c-.17248-.225-.33118-.45834-.48962-.69188l-.94934-1.402a13.03164,13.03164,0,0,1-.84121-1.46779,4.74373,4.74373,0,0,1-.31673-.7971,3.29183,3.29183,0,0,1-.147-.90042l-.002-.25159a.7242.7242,0,0,1,1.24754-.5064,15.84574,15.84574,0,0,1,1.085,1.31943c.33978.45314.67946.90631,1.01308,1.36318.16056.23227.32592.46156.48251.69624.15628.23483.30739.47282.45553.71264.145.24169.28514.48636.40607.74273a4.82542,4.82542,0,0,1,.313.79938l.02165.07782a1.02643,1.02643,0,0,1-1.744.97035Z"/><path fill="url(#6Jc5RRShVJxJksIVCeGINm)" d="M20.95646,15.09772c-.09734-.10573-.18391-.218-.276-.32693L20.422,14.4331c-.17248-.225-.33118-.45834-.48962-.69188l-.94934-1.402a13.03164,13.03164,0,0,1-.84121-1.46779,4.74373,4.74373,0,0,1-.31673-.7971,3.29183,3.29183,0,0,1-.147-.90042l-.002-.25159a.7242.7242,0,0,1,1.24754-.5064,15.84574,15.84574,0,0,1,1.085,1.31943c.33978.45314.67946.90631,1.01308,1.36318.16056.23227.32592.46156.48251.69624.15628.23483.30739.47282.45553.71264.145.24169.28514.48636.40607.74273a4.82542,4.82542,0,0,1,.313.79938l.02165.07782a1.02643,1.02643,0,0,1-1.744.97035Z"/><path fill="url(#6Jc5RRShVJxJksIVCeGINn)" d="M17.88839,8.23764a4.36105,4.36105,0,0,1,.64642-.66142,7.28389,7.28389,0,0,1,.73-.5376q.76456-.48634,1.54331-.95169c.52029-.30855,1.04408-.61194,1.57761-.90087l.39963-.21745.40411-.21086c.27012-.13949.54261-.27548.8201-.404a.6489.6489,0,0,1,.71671,1.06207c-.22307.20923-.45113.411-.68158.60932L23.698,6.321l-.35121.28922c-.4676.38664-.94492.75886-1.42575,1.12591q-.72212.54923-1.46006,1.075a7.27841,7.27841,0,0,1-.7717.47579,4.36053,4.36053,0,0,1-.85526.352.89213.89213,0,0,1-.94559-1.40124Z"/><path fill="url(#6Jc5RRShVJxJksIVCeGINo)" d="M20.271,6.82735a5.645,5.645,0,0,0-1.52832,5.79547,3.25023,3.25023,0,0,1,.30148-1.65291c-.10767,1.3782,1.572,3.86223,4.52528,4.01846a11.53061,11.53061,0,0,0,8.92-2.91915,7.81163,7.81163,0,0,1-1.73306.32492,7.99076,7.99076,0,0,0,3.79808-4.06549C33.15289,9.35229,32.37336,9.574,31.506,9.439a3.42866,3.42866,0,0,0,2.043-1.66144c-.914.33266-4.73062.62735-6.57181-.5355a7.33793,7.33793,0,0,0-3.91461-1.28992,10.47546,10.47546,0,0,0-1.92157.53122A2.171,2.171,0,0,0,20.271,6.82735Z"/><path fill="url(#6Jc5RRShVJxJksIVCeGINp)" d="M20.271,6.82735a5.645,5.645,0,0,0-1.52832,5.79547,3.25023,3.25023,0,0,1,.30148-1.65291c-.10767,1.3782,1.572,3.86223,4.52528,4.01846a11.53061,11.53061,0,0,0,8.92-2.91915,7.81163,7.81163,0,0,1-1.73306.32492,7.99076,7.99076,0,0,0,3.79808-4.06549C33.15289,9.35229,32.37336,9.574,31.506,9.439a3.42866,3.42866,0,0,0,2.043-1.66144c-.914.33266-4.73062.62735-6.57181-.5355a7.33793,7.33793,0,0,0-3.91461-1.28992,10.47546,10.47546,0,0,0-1.92157.53122A2.171,2.171,0,0,0,20.271,6.82735Z"/><path fill="url(#6Jc5RRShVJxJksIVCeGINq)" d="M22.18628,41.77333c-.13728.07322-.281.13545-.42283.194q-.51617.21283-1.05066.37433l-.02928.00825c-.53173-1.29318-2.95428-2.42164-2.95428-2.42164h3.74044A3.61529,3.61529,0,0,0,22.18628,41.77333Z"/><path fill="url(#6Jc5RRShVJxJksIVCeGINr)" d="M39.1055,33.833v.00274a2.256,2.256,0,0,1-.30659.56287,3.11581,3.11581,0,0,0,.05856-.79625c-.02745-.2892-.13636-.4942-.388-.5052-.4878-.02013-.35327.5107-.83833.62785s-.67177-.67269-1.31973-.53816c-.63516.13273-.52441,1.447-1.8597,1.00584-1.84414-.60954-.36516-2.04916-1.38472-2.677-.55094-.33957-1.46982.6873-2.27062.27179-.79989-.41549-.36152-1.13485-.84382-1.66018s-.72943.6379-1.65012-.34687c-.9207-.98568-1.48538-1.19524-2.03451-.40451-.54912.79164,1.53389,2.019,1.803,2.42347.26815.4036.14276.61776-.16016,1.73248s1.39294,1.49729,1.56225,2.4793-1.25018,1.40119-1.83133,2.26423c-.47775.7102.2471,2.461-.97562,3.3103-1.35084.93992-3.119-.82735-4.20262-.81086-1.50918.02288-1.88168.95638-3.96377.96369-1.29228.0046-2.504-.96-3.16572-1.18611-.66261-.22605-2.051.66264-3.21053-.35509-1.15867-1.01772-1.37648-2.55158-1.90913-3.27828-.53356-.72667-2.00338-.77517-2.64313-1.84322-.64065-1.06714.67268-2.58271-.00548-4.1166-.6791-1.5348.032-2.66509.93717-3.81094s-.05492-3.06319.39355-2.61473a6.3801,6.3801,0,0,0,2.27154,1.95212l.00732.00367.14186.06772V26.558a10.16825,10.16825,0,0,0,4.33807.81455c5.10229,0,4.26122-3.60685,3.60867-5.13066a5.81071,5.81071,0,0,1-.57932-3.38261c-1.05707-.58666-1.187-1.59614-.53357-1.98968.65347-.39261,1.70961-1.37464,2.98633-2.331a2.64534,2.64534,0,0,1,1.61075-.54,4.485,4.485,0,0,1,1.82128.45211,6.38511,6.38511,0,0,1,.93626.44663,2.51878,2.51878,0,0,1,1.03692,1.31606c.53265,1.43779-1.46981,2.89115-1.46981,4.86068,0,2.69712,4.598,6.29847,8.24327,6.29847,2.33011,0,2.81975-1.95306,3.47779-1.133s.00457,1.489-.33314,2.31c-.33679.82.62783,1.03694,1.18885,1.10192s.71479.48414.551,1.35632c-.16474.87222.29744,1.02961.74132,1.42134A1.29047,1.29047,0,0,1,39.1055,33.833Z"/><path fill="url(#6Jc5RRShVJxJksIVCeGINs)" d="M25.50575,14.89734a4.2851,4.2851,0,0,0-.95273.25535c-1.70413.74131-2.62849,2.09765-3.49611,1.78282a.8887.8887,0,0,1-.20775-1.38472,6.10567,6.10567,0,0,1,1.899-1.55219,4.48491,4.48491,0,0,1,1.82128.45211A6.38608,6.38608,0,0,1,25.50575,14.89734Z"/><path fill="url(#6Jc5RRShVJxJksIVCeGINh)" d="M26.61108,16.98127c-.18212,1.20075-1.53845,2.472-1.53845,4.09281-.16017,1.00215-2.84265,3.55832-5.3613,2.7328a6.27007,6.27007,0,0,0-.44754-1.565,5.81071,5.81071,0,0,1-.57932-3.38261,2.01079,2.01079,0,0,0,.91352.04451.38806.38806,0,0,1,.34861.12371,2.198,2.198,0,0,0,2.62384.7067A34.13863,34.13863,0,0,0,26.61108,16.98127Z"/><path fill="url(#6Jc5RRShVJxJksIVCeGINt)" d="M24.36758,13.92217l.00112-.00018-.5306-3.49435L21.734,10.749l.53058,3.49434.00111-.00018a1.06333,1.06333,0,0,0,2.10187-.321Z"/><path fill="url(#6Jc5RRShVJxJksIVCeGINu)" d="M24.36758,13.92217l.00112-.00018-.5306-3.49435L21.734,10.749l.53058,3.49434.00111-.00018a1.06333,1.06333,0,0,0,2.10187-.321Z"/><path fill="url(#6Jc5RRShVJxJksIVCeGINf)" d="M25.64772,11.8525c-.11664.01726-.18805-.01857-.18616-.12213.00378-.20712-.071-1.62817-.071-1.62817.33375-.04941.77586-.11486.86222.46848C26.34893,11.22011,26.13285,11.78068,25.64772,11.8525Z"/><path fill="url(#6Jc5RRShVJxJksIVCeGINv)" d="M20.59212,12.60095c.11664-.01727.1746-.07225.14279-.17083-.06362-.19714-.40379-1.5789-.40379-1.5789-.33375.04941-.77586.11486-.6895.6982C19.73777,12.19886,20.107,12.67277,20.59212,12.60095Z"/><path fill="url(#6Jc5RRShVJxJksIVCeGINw)" d="M25.99389,10.16416a5.06852,5.06852,0,0,1-.37174,2.3741,3.34468,3.34468,0,0,1-2.16053,2.02237,3.35284,3.35284,0,0,1-2.66175-1.30847,5.20015,5.20015,0,0,1-1.02825-2.16683c-.02377-.16055-.1878-1.29766-.20083-1.44275a2.98666,2.98666,0,0,1,2.67592-3.31415A2.94653,2.94653,0,0,1,25.747,8.628C25.7852,8.79917,25.96472,9.96712,25.99389,10.16416Z"/><path style="isolation:isolate" d="M25.98907,9.71017a10.7853,10.7853,0,0,0-1.38549-1.312.24466.24466,0,0,0-.23525-.04823,4.06911,4.06911,0,0,1-2.76123-.153.24161.24161,0,0,0-.30906.09483c-.41664.71841-1.64082,2.48652-1.6401,2.486l.05081.01036a4.36916,4.36916,0,0,0,1.79854-1.98628c.06222-.10717.09343-.1098.20638-.05956a3.88375,3.88375,0,0,0,2.586.13042.23474.23474,0,0,1,.23526.04823,5.09836,5.09836,0,0,0,1.5164,1.046C26.05138,9.96463,26.00031,9.72837,25.98907,9.71017Z" opacity=".1"/><path style="isolation:isolate" d="M25.96408,9.63935a10.78644,10.78644,0,0,0-1.38548-1.312.24471.24471,0,0,0-.23526-.04823,4.069,4.069,0,0,1-2.76123-.153.24193.24193,0,0,0-.30926.09486c-.41625.71836-1.64043,2.48647-1.63971,2.486l.07729.06566a5.14821,5.14821,0,0,0,1.751-2.04c.06223-.10717.11109-.12613.224-.07589a3.94364,3.94364,0,0,0,2.64294.13511.213.213,0,0,1,.22455.047A6.20243,6.20243,0,0,0,26.02888,9.924C26.02837,9.92193,25.97532,9.65756,25.96408,9.63935Z" opacity=".1"/><path style="isolation:isolate" d="M25.93929,9.56851a10.786,10.786,0,0,0-1.38549-1.312.24468.24468,0,0,0-.23526-.04823,4.06912,4.06912,0,0,1-2.76123-.153.24189.24189,0,0,0-.30925.09486c-.41664.71841-1.64082,2.48652-1.6401,2.486l.10358.12117A6.30022,6.30022,0,0,0,21.41529,8.6637c.06223-.10718.12851-.14262.24166-.09241a4.00518,4.00518,0,0,0,2.69987.13979.19323.19323,0,0,1,.21364.04587,8.0186,8.0186,0,0,0,1.43541,1.1244C26.00553,9.879,25.95033,9.58674,25.93929,9.56851Z" opacity=".1"/><path style="isolation:isolate" d="M25.9143,9.49769a10.7867,10.7867,0,0,0-1.38549-1.312.2447.2447,0,0,0-.23526-.04823,4.06906,4.06906,0,0,1-2.76123-.153.24164.24164,0,0,0-.30906.09483c-.41664.71841-1.64081,2.48653-1.64009,2.486l.12988.1767A8.13576,8.13576,0,0,0,21.3693,8.5946c.06222-.10717.14616-.15894.25911-.1087a4.066,4.066,0,0,0,2.7568.14448.17472.17472,0,0,1,.20294.04467,11.49362,11.49362,0,0,0,1.3949,1.16358C25.98268,9.8361,25.92554,9.5159,25.9143,9.49769Z" opacity=".1"/><path fill="url(#6Jc5RRShVJxJksIVCeGINx)" d="M19.65794,10.77781a19.40859,19.40859,0,0,0,1.6535-2.37673.2354.2354,0,0,1,.30658-.09546,3.95116,3.95116,0,0,0,2.7422.16671.23906.23906,0,0,1,.23377.05024c.537.49079.99812,1.18258,1.41188,1.35878.25294.28844.25443-.0625.31339.133-.02526-.9276-.34573-4.56877-4.14754-4.00593a1.66331,1.66331,0,0,0-1.03073.4749,1.17141,1.17141,0,0,0-.63884.17187c-1.94675,1.30857-1.14219,3.95268-1.10593,4.364A.83548.83548,0,0,1,19.65794,10.77781Z"/><path fill="#5f3813" d="M25.85,9.19937a12.46411,12.46411,0,0,0-1.112-1.24632.24066.24066,0,0,0-.23447-.047,3.92965,3.92965,0,0,1-2.60861-.02669c-.14264-.08837-.39444-.19486-.43273-.80445-.01951-.31438-.50684-.24661-.58779.10546a1.616,1.616,0,0,0-.00445.88889c.04026.084-.099.27112-.10852.28756a12.20609,12.20609,0,0,1-1.18762,1.8542c-.24751.30093-.14761,1.1426-.14373,1.18273a.722.722,0,0,1,.29873-.75878,11.18762,11.18762,0,0,0,1.6-2.15463.26486.26486,0,0,1,.32478-.094,4.03767,4.03767,0,0,0,2.7332.15313.31968.31968,0,0,1,.27224.05263c.51953.47675.71179.76566,1.10281,1.077.27618.21432.58335.41144.6423.60251A3.25254,3.25254,0,0,0,25.85,9.19937Z" opacity=".167"/><path fill="#5f3813" d="M25.83632,9.28145c-.28784-.32957-.604-.73515-1.11792-1.24062a.236.236,0,0,0-.23448-.04695,3.99214,3.99214,0,0,1-2.63794-.045c-.14264-.08837-.39094-.20641-.43139-.84735-.01774-.28894-.42841-.21344-.4959.08548a1.69194,1.69194,0,0,0,.02759.89685c.04026.084-.07554.241-.08481.2575a11.40754,11.40754,0,0,1-1.25794,1.94717A1.89682,1.89682,0,0,0,19.429,11.394a.74254.74254,0,0,1,.30624-.72233,10.8013,10.8013,0,0,0,1.59436-2.18741.26052.26052,0,0,1,.32149-.094,4.05105,4.05105,0,0,0,2.73689.1514.29789.29789,0,0,1,.26469.05149c.5029.48346.6958.74667,1.11888,1.103.26973.21892.57717.40841.63719.6022A3.02381,3.02381,0,0,0,25.83632,9.28145Z" opacity=".333"/><path fill="#5f3813" d="M25.8226,9.36353c-.29667-.33691-.62111-.71172-1.1238-1.23492a.23146.23146,0,0,0-.23447-.047,4.05559,4.05559,0,0,1-2.66727-.06325c-.14264-.08837-.38746-.21795-.43006-.89023-.016-.2635-.35-.18027-.404.06548a1.77047,1.77047,0,0,0,.05964.90483c.04026.084-.05206.21078-.06112.22742a10.82468,10.82468,0,0,1-1.32826,2.04015,1.65959,1.65959,0,0,0-.20537,1.02812.77555.77555,0,0,1,.31376-.68589A10.26028,10.26028,0,0,0,21.33038,8.4881a.25624.25624,0,0,1,.31822-.094,4.06448,4.06448,0,0,0,2.74058.14966.27733.27733,0,0,1,.25713.05036c.48627.49015.6798.72767,1.13495,1.129.26329.22351.571.40538.63208.6019A2.75243,2.75243,0,0,0,25.8226,9.36353Z" opacity=".5"/><path fill="#5f3813" d="M25.80889,9.4456c-.30551-.34423-.63821-.68829-1.12968-1.2292a.22717.22717,0,0,0-.23447-.047,4.12047,4.12047,0,0,1-2.69661-.08152c-.14264-.08837-.384-.2295-.42872-.93312-.01418-.23807-.27155-.14711-.31212.04548a1.85058,1.85058,0,0,0,.09168.9128c.04026.08406-.02857.18062-.03742.19736A10.39106,10.39106,0,0,1,19.663,10.44357a1.433,1.433,0,0,0-.23619.9508.82811.82811,0,0,1,.32127-.64944,9.62041,9.62041,0,0,0,1.58313-2.253.252.252,0,0,1,.31495-.094,4.07791,4.07791,0,0,0,2.74426.14792.258.258,0,0,1,.24957.04922c.46965.49686.66382.70868,1.151,1.155.25685.22811.56481.40235.627.60159A2.45409,2.45409,0,0,0,25.80889,9.4456Z" opacity=".667"/><path fill="#5f3813" d="M25.79518,9.52768c-.31435-.35157-.65531-.66486-1.13556-1.2235a.2231.2231,0,0,0-.23447-.047,4.18643,4.18643,0,0,1-2.72594-.0998c-.14264-.08837-.38048-.241-.42739-.976-.0124-.21264-.19312-.11395-.22023.02548a1.9315,1.9315,0,0,0,.12373.92078.1713.1713,0,0,1-.01372.16729,10.06206,10.06206,0,0,1-1.46891,2.2261,1.22127,1.22127,0,0,0-.267.8735.9136.9136,0,0,1,.32878-.613A8.93,8.93,0,0,0,21.332,8.49581a.24783.24783,0,0,1,.31167-.094A4.09146,4.09146,0,0,0,24.3916,8.548a.23982.23982,0,0,1,.242.04809,16.50694,16.50694,0,0,0,1.16709,1.181c.25042.23271.55864.39933.62186.6013C26.34963,10.03321,26.00964,9.76813,25.79518,9.52768Z" opacity=".833"/><path fill="#5f3813" d="M25.78146,9.60976c-.32318-.35891-.6724-.64144-1.14143-1.2178a.21918.21918,0,0,0-.23448-.047,4.25358,4.25358,0,0,1-2.75527-.11807c-.14264-.08837-.377-.25259-.426-1.01889-.01062-.1872-.11469-.08079-.12835.00549a2.01245,2.01245,0,0,0,.15578.92874c.04026.08406.0184.12028.01.13722a9.8113,9.8113,0,0,1-1.53923,2.31908,1.02836,1.02836,0,0,0-.29782.7962,1.06177,1.06177,0,0,1,.3363-.57657,8.22476,8.22476,0,0,0,1.5719-2.31854.24366.24366,0,0,1,.30839-.09394,4.105,4.105,0,0,0,2.75163.14445.22274.22274,0,0,1,.23447.047,14.90613,14.90613,0,0,0,1.18316,1.207c.244.23731.55246.39631.61674.601C26.34219,10.02033,25.99,9.84137,25.78146,9.60976Z"/><ellipse cx="23.062" cy="11.838" fill="url(#6Jc5RRShVJxJksIVCeGINy)" rx=".688" ry=".393" transform="rotate(-8.421 23.062 11.838)"/><ellipse cx="23.062" cy="11.838" fill="url(#6Jc5RRShVJxJksIVCeGINz)" rx=".352" ry=".197" transform="rotate(-8.421 23.062 11.838)"/><path fill="url(#6Jc5RRShVJxJksIVCeGINA)" d="M23.63349,11.99926a1.05309,1.05309,0,0,1-1.071.15856c-.06053-.02049-.09555-.00128-.08763.05224a.65286.65286,0,0,0,1.25766-.18619C23.72458,11.97035,23.68549,11.96211,23.63349,11.99926Z"/><ellipse cx="24.321" cy="10.461" fill="url(#6Jc5RRShVJxJksIVCeGINg)" rx=".851" ry=".705" transform="rotate(-8.421 24.321 10.461)"/><path fill="#805b2a" d="M25.03073,10.53939c.04864.01653.03131.08911.01966.13281a.94856.94856,0,0,1-1.45025.36517c-.0669-.03841-.11756-.09239-.07644-.13988.04781-.05521.252.16356.79706.08287C24.86042,10.90047,24.9493,10.51906,25.03073,10.53939Z"/><ellipse cx="21.459" cy="10.885" fill="url(#6Jc5RRShVJxJksIVCeGINB)" rx=".851" ry=".705" transform="rotate(-8.421 21.459 10.885)"/><path fill="#805b2a" d="M20.80219,11.1654c-.04176.02991-.00415.09437.01966.13281a.94856.94856,0,0,0,1.49385-.07069c.0529-.05615.08575-.12248.03263-.156-.06176-.039-.1938.22956-.73886.31025C21.06981,11.46165,20.87423,11.12235,20.80219,11.1654Z"/><path fill="#805b2a" d="M20.77974,10.38939a2.48275,2.48275,0,0,1,.25048-.12576c.08383-.03695.16887-.07027.25475-.10148a5.26938,5.26938,0,0,1,.52492-.15713l.00118-.00029a.20073.20073,0,1,1,.09542.39.214.214,0,0,1-.03809.00552,4.92431,4.92431,0,0,0-.50867.05044c-.08416.01329-.16811.02868-.251.04748a2.36742,2.36742,0,0,0-.24018.06662l-.007.00244a.09832.09832,0,0,1-.08178-.1778Z"/><path fill="#805b2a" d="M24.76556,9.96483c-.07914.00138-.16811.00824-.25242.01712-.08539.00907-.17071.021-.25567.03457q-.25494.04176-.50538.10482a.20072.20072,0,1,1-.09742-.38943.22353.22353,0,0,1,.03891-.00576q.27264-.01464.54542-.00708c.09089.003.18166.00779.27244.01559.09181.00822.17923.01763.27561.03478a.09842.09842,0,0,1-.01549.1953Z"/><g><path fill="url(#6Jc5RRShVJxJksIVCeGINC)" d="M23.30429,13.53774c-.76144.11273-.85724-.35595-.85724-.35595s.1586.94225.9272.82846.64738-1.06157.64738-1.06157S24.06574,13.425,23.30429,13.53774Z"/><path fill="url(#6Jc5RRShVJxJksIVCeGIND)" d="M24.0106,12.87418s.09619.58188-.69168.69852-.86439-.46816-.86439-.46816.1992.15206.80434.06248S24.0106,12.87418,24.0106,12.87418Z"/><path fill="url(#6Jc5RRShVJxJksIVCeGINE)" d="M22.57179,13.08718a.12527.12527,0,0,0-.02121.24325,1.61863,1.61863,0,0,0,.73879.04793,1.37894,1.37894,0,0,0,.66547-.25583c.09088-.05929.07661-.25144-.063-.23077Z"/></g><path fill="url(#6Jc5RRShVJxJksIVCeGINF)" d="M26.97139,3.28872a.27463.27463,0,0,1,.00475.54468,4.10985,4.10985,0,0,0-1.61648.59.27458.27458,0,0,1-.338-.43279,4.5952,4.5952,0,0,1,1.87975-.70122A.278.278,0,0,1,26.97139,3.28872Z"/><path fill="url(#6Jc5RRShVJxJksIVCeGING)" d="M27.1523,2.50684a.27462.27462,0,0,1,.12422.53034,4.11008,4.11008,0,0,0-1.44749.93051.27458.27458,0,0,1-.42482-.348,4.59528,4.59528,0,0,1,1.67992-1.09684A.278.278,0,0,1,27.1523,2.50684Z"/><path fill="url(#6Jc5RRShVJxJksIVCeGINH)" d="M27.42133,1.606a.27417.27417,0,0,0-.37931-.082,5.13973,5.13973,0,0,0-1.22136,1.12788q-.04411-.01407-.092-.02645a4.61241,4.61241,0,0,1,.95626-1.13271.27463.27463,0,0,0-.29268-.45939.2781.2781,0,0,0-.059.03765,4.79323,4.79323,0,0,0-1.17837,1.48328c-.01888-.00013-.03777-.00033-.05661,0a1.27956,1.27956,0,0,1,.06543-.85215c.08245-.1912.0473-.337-.11421-.37058-.17235-.03577-.305.144-.35957.25043a10.95047,10.95047,0,0,0-.54265,1.53852l.00045.00033a3.02775,3.02775,0,0,0-.03455,1.221c.03075.25908.348,1.44139.79414.88527a8.62473,8.62473,0,0,0,1.19342-1.98857.27309.27309,0,0,0,.02283-.03546,4.10967,4.10967,0,0,1,1.216-1.21752A.27463.27463,0,0,0,27.42133,1.606Z"/><path fill="url(#6Jc5RRShVJxJksIVCeGINI)" d="M39.1055,33.833v.00274a2.256,2.256,0,0,1-.30659.56287,3.11581,3.11581,0,0,0,.05856-.79625,1.26979,1.26979,0,0,0-.11073-.70745.62837.62837,0,0,0-.47682-.32582c-.0961-.01555-.18213.06042-.31574.18579a.82835.82835,0,0,1-.67819.30752,1.0473,1.0473,0,0,1-.69463-.475c-.17664-.22241-.28-.33681-.50428-.29472-.09885.01833-.18945.12357-.2947.24621a.89538.89538,0,0,1-1.026.39355c-.44021-.13-.59855-.65073-.75047-1.15409-.1382-.45761-.28188-.92984-.61685-1.08178a.9954.9954,0,0,0-.84016.01007,1.037,1.037,0,0,1-.9271-.01463,1.22745,1.22745,0,0,1-.54821-.9262c-.06956-.30661-.13-.57109-.38348-.702a1.10567,1.10567,0,0,0-.85845.05765,1.51812,1.51812,0,0,1-1.15409.04759,3.93425,3.93425,0,0,1-.74772-.54638c-.74316-.62784-1.76452-.94633-2.24592-.50611-.79531.7285-.48323,1.48721-.18213,2.26514a1.58676,1.58676,0,0,1,.05766.87494,1.69712,1.69712,0,0,0,.38713,1.468c.64613.907.53631,1.2703.32307,1.66932a1.02209,1.02209,0,0,0-.16474.44663c.00092.15375.16748.34137.3432.54088.33314.37708.78983.89508.2645,1.52842a3.08566,3.08566,0,0,0-.45211,1.47255c-.10708.7285-.21691,1.48265-.86029,1.57873a1.09284,1.09284,0,0,1-.16566.01191,4.04463,4.04463,0,0,1-1.533-.50794,3.53967,3.53967,0,0,0-2.01619-.53724,9.84538,9.84538,0,0,0-1.41949.47682,3.74452,3.74452,0,0,1-2.18826.454,5.88309,5.88309,0,0,1-1.09734-.61135A4.74325,4.74325,0,0,0,14.847,38.2992c-1.18154-.01921-2.09125-1.425-2.3594-2.418-.09335-.34868-.52624-.62874-.98385-.92435-.59763-.38713-1.27489-.82643-1.27489-1.53938a7.4691,7.4691,0,0,1,.13912-1.25566,2.27738,2.27738,0,0,0-.05583-1.59979,1.96078,1.96078,0,0,1-.05034-2.30906c.05583-.076.11165-.151.16657-.22423a2.12315,2.12315,0,0,0,.5646-1.6333l.17489.09025.00732.00367.14186.06772V26.558a2.27632,2.27632,0,0,1-.669,1.63546c-.05491.07231-.10982.14553-.16474.2215a1.69093,1.69093,0,0,0,.05309,1.98966,2.45806,2.45806,0,0,1,.10159,1.802,7.36284,7.36284,0,0,0-.13453,1.21082c0,.56378.58482.94267,1.14949,1.30875.50337.32582.97836.63334,1.10008,1.08361.23888.88317,1.07079,2.19833,2.09858,2.2148a4.92342,4.92342,0,0,1,2.277.99116,5.74734,5.74734,0,0,0,1.03784.583,3.73157,3.73157,0,0,0,1.99973-.44935,9.90663,9.90663,0,0,1,1.4625-.48965,3.70986,3.70986,0,0,1,2.19009.55645,3.21528,3.21528,0,0,0,1.54029.47408c.44206-.06681.529-.66078.62968-1.3481a3.27014,3.27014,0,0,1,.5125-1.608c.35053-.4219.13545-.72392-.259-1.17147a.87712.87712,0,0,1-.21507-1.29776c.20959-.39171.24344-.61227-.30385-1.38106a1.96412,1.96412,0,0,1-.43564-1.66565,1.32768,1.32768,0,0,0-.04118-.73677c-.28188-.72756-.71479-1.68214.25168-2.56714.69739-.63789,1.96129-.04851,2.60926.49879a3.81112,3.81112,0,0,0,.6864.507,1.26642,1.26642,0,0,0,.95456-.0604,1.3351,1.3351,0,0,1,1.06806-.03937,1.15961,1.15961,0,0,1,.52441.885.98646.98646,0,0,0,.41185.745.76856.76856,0,0,0,.70745-.00366,1.24676,1.24676,0,0,1,1.04241,0c.44847.20317.60953.73583.766,1.252.13728.45394.26724.88225.56559.971.378.11165.54546-.08419.74042-.31027a.8429.8429,0,0,1,.453-.3377.7569.7569,0,0,1,.76876.39446.7902.7902,0,0,0,.51345.37341c.184.02288.31024-.097.45577-.2343a.6502.6502,0,0,1,.551-.25626.90787.90787,0,0,1,.67085.464A1.68069,1.68069,0,0,1,39.1055,33.833Z"/><path fill="url(#6Jc5RRShVJxJksIVCeGINJ)" d="M13.49707,27.74869a.29693.29693,0,0,1-.06955.00549.27489.27489,0,0,1-.04119-.54363l.054-.01282a11.998,11.998,0,0,0,1.23828.14369A5.59681,5.59681,0,0,1,13.49707,27.74869Zm2.158-.37614q-.416,0-.799-.021a4.74792,4.74792,0,0,1-1.18153.86578.27455.27455,0,0,0,.06773.5363.26235.26235,0,0,0,.09518-.01188,4.8885,4.8885,0,0,0,1.51833-1.12024.07248.07248,0,0,1,.08969-.01464h.00091a.0726.0726,0,0,1,.0302.097,4.33654,4.33654,0,0,1-.75413.99393.27492.27492,0,0,0,.17023.47865.26979.26979,0,0,0,.19769-.07047,4.70529,4.70529,0,0,0,.91429-1.231.09578.09578,0,0,1,.1025-.054h.00183a.09591.09591,0,0,1,.076.12356,5.27694,5.27694,0,0,1-.31574.82.28129.28129,0,0,0,.06223.35142.28593.28593,0,0,0,.13728.0595.27464.27464,0,0,0,.28006-.14369,7.0199,7.0199,0,0,0,.45669-1.24836,3.97649,3.97649,0,0,0,.22971-.51708A8.23361,8.23361,0,0,1,15.65512,27.37255Z"/><path fill="url(#6Jc5RRShVJxJksIVCeGINK)" d="M38.76985,42.86608a1.82147,1.82147,0,0,0-.8905.49514,1.79361,1.79361,0,0,0-.43014.72759c-.04027-.02929-.08055-.05765-.12173-.08513-.06315-.043-.129-.08419-.194-.12446a2.16241,2.16241,0,0,1,.48414-.77426,2.18519,2.18519,0,0,1,.896-.54729c.02288.0311.04665.06223.07047.09244A2.77783,2.77783,0,0,0,38.76985,42.86608Z"/><path fill="url(#6Jc5RRShVJxJksIVCeGINL)" d="M40.70369,45.58335a.32654.32654,0,0,1-.29561.31849,2.5788,2.5788,0,0,1-.89782-.07688,2.70372,2.70372,0,0,1-.701-.28831,1.64958,1.64958,0,0,1-.52077-.48229L38.282,45.0452c.06683.00366.13728.00824.21142.00733a1.14221,1.14221,0,0,0,.63975-.20409,1.27577,1.27577,0,0,0,.50884-1.144c-.0073-.07322-.02013-.15011-.02563-.22516.0293.0174.05859.03479.087.05217a1.65044,1.65044,0,0,1,.51891.48415,2.72786,2.72786,0,0,1,.33954.67727A2.59561,2.59561,0,0,1,40.70369,45.58335Z"/><g><path fill="url(#6Jc5RRShVJxJksIVCeGINM)" d="M26.63158,17.02887a2.763,2.763,0,0,1-.46215.78279,4.17378,4.17378,0,0,1-.6146.6041,8.37747,8.37747,0,0,1-.70166.50206c-.24487.15447-.49809.29917-.75637.43792l-.775.41609-.37859.21853-.36774.23119c-.12108.07883-.23881.16159-.35822.24239-.11533.08555-.23428.16688-.34665.25592-.11436.0867-.22537.17735-.33536.26916-.10515.09751-.21687.18731-.31647.2913a.64526.64526,0,0,1-1.08625-.62407l.13989-.48509a3.38024,3.38024,0,0,1,.398-.858,4.73311,4.73311,0,0,1,.53542-.69689A14.62779,14.62779,0,0,1,22.429,17.401c.43068-.37817.89108-.72153,1.34532-1.07209a6.45072,6.45072,0,0,1,.72652-.47293,4.00385,4.00385,0,0,1,.82206-.36094,1.1002,1.1002,0,0,1,1.34556,1.43352Z"/><path fill="url(#6Jc5RRShVJxJksIVCeGINN)" d="M21.56791,21.11133a3.67433,3.67433,0,0,1-.418.74,6.10713,6.10713,0,0,1-.52883.63977q-.57462.59831-1.16806,1.17959-.595.57989-1.21249,1.13938c-.41318.37162-.83439.736-1.27586,1.082a.65.65,0,0,1-.94993-.85984c.30047-.47365.62119-.929.95-1.377q.494-.67127,1.01329-1.31968.5184-.6492,1.05774-1.27944a6.107,6.107,0,0,1,.58409-.58974,3.67436,3.67436,0,0,1,.69485-.48952.90217.90217,0,0,1,1.25328,1.13443Z"/><path fill="url(#6Jc5RRShVJxJksIVCeGINO)" d="M16.0056,25.14a1.44777,1.44777,0,0,0-1.16113.12877c-.51592.28485-.94845-.07085-1.03824.13375s.05762.42653.38189.504a2.984,2.984,0,0,0,1.37379-.20291A.91075.91075,0,0,0,16.0056,25.14Z"/><path fill="url(#6Jc5RRShVJxJksIVCeGINP)" d="M16.0056,25.14a1.44777,1.44777,0,0,0-1.16113.12877c-.51592.28485-.94845-.07085-1.03824.13375s.05762.42653.38189.504a2.984,2.984,0,0,0,1.37379-.20291A.91075.91075,0,0,0,16.0056,25.14Z"/><path fill="url(#6Jc5RRShVJxJksIVCeGINQ)" d="M15.89323,25.19511c-.41194.26489-1.11321.82174-1.44648,1.086a4.73172,4.73172,0,0,1-1.31915.50948.27462.27462,0,0,0,.04147.54312.27763.27763,0,0,0,.06981-.00537,5.314,5.314,0,0,0,1.42744-.53887.02407.02407,0,0,1,.03038.03647,4.73628,4.73628,0,0,1-1.28047.971.27459.27459,0,1,0,.16316.52439,4.89855,4.89855,0,0,0,1.51775-1.12.0728.0728,0,0,1,.08995-.01509l.00115.00063a.07252.07252,0,0,1,.02972.097,4.354,4.354,0,0,1-.75339.994.27459.27459,0,0,0,.36763.408,4.70122,4.70122,0,0,0,.914-1.23147.0963.0963,0,0,1,.10247-.05361l.00184.00029a.09573.09573,0,0,1,.07629.12332,5.3262,5.3262,0,0,1-.31627.82026.27448.27448,0,0,0,.1997.41043.27467.27467,0,0,0,.28048-.14372,6.98723,6.98723,0,0,0,.456-1.24857,6.982,6.982,0,0,0,.55707-1.69149A.69109.69109,0,0,0,15.89323,25.19511Z"/></g><path fill="url(#6Jc5RRShVJxJksIVCeGINR)" d="M20.10762,27.4613c-3.05039,3.56109-7.26126,5.02633-12.693,3.09159V30.552a3.27082,3.27082,0,0,1,.788-3.01194C9.69622,28.84144,14.3354,32.22315,20.10762,27.4613Z"/><path fill="url(#6Jc5RRShVJxJksIVCeGINS)" d="M20.43892,28.9888c-.99209,2.42347-6.46685,6.16118-10.8022,7.46991-.66627-.36059-1.59246-.59305-2.06563-1.38287-.35235-.58666-.11347-1.30966.06041-2.09675C9.547,33.31863,17.2604,33.36622,20.43892,28.9888Z"/><path fill="url(#6Jc5RRShVJxJksIVCeGINT)" d="M21.40721,28.9888c-.61868,2.88015-4.6941,8.96812-6.90341,11.59018a2.59528,2.59528,0,0,1-2.38045-.38164A4.51833,4.51833,0,0,1,11.048,38.69641C13.33508,37.58442,19.477,34.80951,21.40721,28.9888Z"/><path fill="url(#6Jc5RRShVJxJksIVCeGINU)" d="M21.40721,31.92843a39.60809,39.60809,0,0,1-1.46983,9.61885,5.12055,5.12055,0,0,1-1.43778.19126,3.90837,3.90837,0,0,1-1.61992-.41274C18.26713,39.24737,20.9368,34.58254,21.40721,31.92843Z"/><path fill="url(#6Jc5RRShVJxJksIVCeGINV)" d="M27.486,38.72843c-.129.83649.19128,2.15532-.82,2.85728a2.16768,2.16768,0,0,1-2.1727-.0476h-.00091A84.7268,84.7268,0,0,0,22.651,31.11024,28.55714,28.55714,0,0,0,27.486,38.72843Z"/><path fill="url(#6Jc5RRShVJxJksIVCeGINW)" d="M39.1055,33.833v.00274a2.256,2.256,0,0,1-.30659.56287,3.11581,3.11581,0,0,0,.05856-.79625c-.02745-.2892-.13636-.4942-.388-.5052-.4878-.02013-.35327.5107-.83833.62785s-.67177-.67269-1.31973-.53816c-.63516.13273-.52441,1.447-1.8597,1.00584-1.84414-.60954-.36516-2.04916-1.38472-2.677-.55094-.33957-1.46982.6873-2.27062.27179-.79989-.41549-.36152-1.13485-.84382-1.66018s-.72943.6379-1.65012-.34687a5.931,5.931,0,0,0-.49513-.4814c.89507.27823,1.64554-.183,1.22364-.76237-.51711-.7111.51708-1.00123,1.13027-.80812.26084.08236.56743-.26542.62784-.84656a7.45532,7.45532,0,0,0,2.52689.49056c2.33011,0,2.81975-1.95306,3.47779-1.133s.00457,1.489-.33314,2.31c-.33679.82.62783,1.03694,1.18885,1.10192s.71479.48414.551,1.35632c-.16474.87222.29744,1.02961.74132,1.42134A1.29047,1.29047,0,0,1,39.1055,33.833Z"/><path fill="url(#6Jc5RRShVJxJksIVCeGINX)" d="M29.13247,36.91906a34.732,34.732,0,0,1-4.60715-5.97631c.53265.58208,2.82616,2.69714,3.48877,3.32679H28.015c.36425.6141,1.33163,1.01223,1.45793,1.74164A1.01859,1.01859,0,0,1,29.13247,36.91906Z"/><path fill="url(#6Jc5RRShVJxJksIVCeGINY)" d="M28.15412,32.64871c-.97195-.60771-3.11628-2.159-3.46224-3.13275a17.96858,17.96858,0,0,0,3.29567,2.1855.75845.75845,0,0,1,.0833.09794A.8951.8951,0,0,1,28.15412,32.64871Z"/><path fill="url(#6Jc5RRShVJxJksIVCeGINZ)" d="M23.67651,26.02262a10.60643,10.60643,0,0,0-.66847,2.22082.25193.25193,0,0,1-.10188.17177c-.10971.058-.22785-.0572-.30036-.157a6.79616,6.79616,0,0,0-2.78267-2.226,1.071,1.071,0,0,1,1.12729.01582,1.56365,1.56365,0,0,0,1.13975.22787,1.77741,1.77741,0,0,0,.66257-.625c.28155-.33905,2.06979-1.59582,2.37159-.90871A2.72266,2.72266,0,0,0,23.67651,26.02262Z"/></svg>