<svg xmlns="http://www.w3.org/2000/svg" xmlns:xlink="http://www.w3.org/1999/xlink" viewBox="0 0 48 48" width="48px" height="48px"><defs><linearGradient id="qJifJ4rxUos2yK5xH4dIPb" x1="18.557" x2="31.217" y1="9.435" y2="9.336" data-name="Безымянный градиент 265" gradientUnits="userSpaceOnUse"><stop offset=".093" stop-color="#970d0d"/><stop offset=".452" stop-color="#bc2b2b"/><stop offset=".681" stop-color="#9e1818"/><stop offset="1" stop-color="#780000"/></linearGradient><linearGradient id="qJifJ4rxUos2yK5xH4dIPc" x1="24.348" x2="24.2" y1="12.701" y2="-.749" data-name="Безымянный градиент 266" gradientUnits="userSpaceOnUse"><stop offset="0" stop-color="#e23939" stop-opacity="0"/><stop offset=".117" stop-color="#cb2d2d" stop-opacity=".215"/><stop offset=".328" stop-color="#a71919" stop-opacity=".553"/><stop offset=".52" stop-color="#8d0c0c" stop-opacity=".798"/><stop offset=".685" stop-color="#7e0303" stop-opacity=".947"/><stop offset=".804" stop-color="#780000"/></linearGradient><linearGradient id="qJifJ4rxUos2yK5xH4dIPd" x1="34.331" x2="4.166" y1="7.668" y2="52.767" data-name="Безымянный градиент 209" gradientUnits="userSpaceOnUse"><stop offset=".38" stop-color="#ff3939"/><stop offset=".497" stop-color="#eb3131"/><stop offset=".736" stop-color="#b81b1b"/><stop offset="1" stop-color="#780000"/></linearGradient><linearGradient id="qJifJ4rxUos2yK5xH4dIPe" x1="28.78" x2="17.242" y1="19.518" y2="29.408" data-name="Безымянный градиент 228" gradientUnits="userSpaceOnUse"><stop offset=".044" stop-color="#ff3939" stop-opacity="0"/><stop offset=".07" stop-color="#e02c2c" stop-opacity=".144"/><stop offset=".113" stop-color="#b81b1b" stop-opacity=".325"/><stop offset=".158" stop-color="#9c0f0f" stop-opacity=".454"/><stop offset=".207" stop-color="#8b0808" stop-opacity=".531"/><stop offset=".265" stop-color="#860606" stop-opacity=".555"/><stop offset=".414" stop-color="#7d0202" stop-opacity=".841"/><stop offset=".522" stop-color="#780000"/><stop offset=".554" stop-color="#7f0303" stop-opacity=".948"/><stop offset=".974" stop-color="#db2a2a" stop-opacity=".305"/></linearGradient><linearGradient id="qJifJ4rxUos2yK5xH4dIPa" x1="41.326" x2="22.403" y1="19.513" y2="14.766" data-name="Безымянный градиент 248" gradientUnits="userSpaceOnUse"><stop offset=".116" stop-color="#780000"/><stop offset=".177" stop-color="#7f0303" stop-opacity=".948"/><stop offset=".974" stop-color="#db2a2a" stop-opacity=".305"/></linearGradient><linearGradient id="qJifJ4rxUos2yK5xH4dIPf" x1="10.213" x2="47.4" y1="3.012" y2="52.33" data-name="Безымянный градиент 259" gradientUnits="userSpaceOnUse"><stop offset=".261" stop-color="#ff4d4d"/><stop offset=".374" stop-color="#ff7d7d"/><stop offset=".421" stop-color="#fd6969"/><stop offset=".481" stop-color="#f94a4a"/><stop offset=".619" stop-color="#d63636"/><stop offset="1" stop-color="#780000"/></linearGradient><linearGradient id="qJifJ4rxUos2yK5xH4dIPg" x1="8.875" x2="27.649" y1="29.284" y2="25.826" xlink:href="#qJifJ4rxUos2yK5xH4dIPa"/></defs><path fill="url(#qJifJ4rxUos2yK5xH4dIPb)" d="M31.319,13.421a8.447,8.447,0,0,0-2.7-2.11c-.01,0-.01-.01-.02-.01a5.525,5.525,0,0,0-.54-.24,9.19,9.19,0,0,0-3.74-.5,8.976,8.976,0,0,0-3.55.61c-.1.04-.2.09-.3.14a2,2,0,0,0-.21.1,7.36,7.36,0,0,0-2.86,2.51c.04-.09.07-.17.11-.26q1.335-2.925,2.69-5.86a2.4,2.4,0,0,1,.11-.23v-.01a5.708,5.708,0,0,1,.96-1.29,4.551,4.551,0,0,1,1.39-1.01,4.427,4.427,0,0,1,3.11-.12,5.668,5.668,0,0,1,2.78,2.68c.26.51.52,1.03.77,1.54.13.3.3.66.52,1.15C30.429,11.761,30.959,12.761,31.319,13.421Z"/><path fill="none" d="M17.159,14.421c-.15.31-.29.62-.43.93A3.96,3.96,0,0,1,17.159,14.421Z"/><path fill="none" d="M27.693,7.823c-.25-.52-.51-1.03-.76-1.55l-.01-.01"/><path fill="url(#qJifJ4rxUos2yK5xH4dIPc)" d="M31.319,13.421a8.447,8.447,0,0,0-2.7-2.11c-.01,0-.01-.01-.02-.01a5.525,5.525,0,0,0-.54-.24,9.19,9.19,0,0,0-3.74-.5,8.976,8.976,0,0,0-3.55.61c-.1.04-.2.09-.3.14a2,2,0,0,0-.21.1,7.36,7.36,0,0,0-2.86,2.51c.04-.09.07-.17.11-.26q1.335-2.925,2.69-5.86a2.4,2.4,0,0,1,.11-.23v-.01a5.708,5.708,0,0,1,.96-1.29,4.551,4.551,0,0,1,1.39-1.01,4.427,4.427,0,0,1,3.11-.12,5.668,5.668,0,0,1,2.78,2.68c.26.51.52,1.03.77,1.54.13.3.3.66.52,1.15C30.429,11.761,30.959,12.761,31.319,13.421Z"/><path fill="url(#qJifJ4rxUos2yK5xH4dIPd)" d="M30.7,21.481c-.5.81-1.05,1.68-1.66,2.59-.05.08-.11.16-.17.25-1.25,1.87-2.68,3.89-4.15,5.9l-.18.24c-4.59,6.26-9.49,12.37-10.41,13.51-1.51-2.01-3.01-4.01-4.52-6.02,4.17-4.86,7.8-9.36,10.74-13.3.07-.09.14-.18.2-.26,1.59-2.13,2.98-4.08,4.16-5.83.06-.09.12-.19.18-.28a34.769,34.769,0,0,0,3.56-6.48c.07-.17.12-.33.17-.49a4.9,4.9,0,0,0,.21-1.04,6.524,6.524,0,0,0-.28-2.45c.26.51.52,1.03.77,1.54q1.2,2.385,2.39,4.79c.21.42.42.85.63,1.27C32.979,17.631,31.569,20.061,30.7,21.481Z"/><path fill="url(#qJifJ4rxUos2yK5xH4dIPe)" d="M30.7,21.481c-.5.81-1.05,1.68-1.66,2.59-.05.08-.11.16-.17.25-1.25,1.87-2.68,3.89-4.15,5.9l-.18.24c-4.59,6.26-9.49,12.37-10.41,13.51-1.51-2.01-3.01-4.01-4.52-6.02,4.17-4.86,7.8-9.36,10.74-13.3.07-.09.14-.18.2-.26,1.59-2.13,2.98-4.08,4.16-5.83.06-.09.12-.19.18-.28a34.769,34.769,0,0,0,3.56-6.48c.07-.17.12-.33.17-.49a4.9,4.9,0,0,0,.21-1.04,6.524,6.524,0,0,0-.28-2.45c.26.51.52,1.03.77,1.54q1.2,2.385,2.39,4.79c.21.42.42.85.63,1.27C32.979,17.631,31.569,20.061,30.7,21.481Z"/><path fill="url(#qJifJ4rxUos2yK5xH4dIPa)" d="M30.7,21.481c-.5.81-1.05,1.68-1.66,2.59-.05.08-.11.16-.17.25-1.25,1.87-5.34-4.01-4.16-5.76.06-.09.12-.19.18-.28a34.769,34.769,0,0,0,3.56-6.48c.07-.17.12-.33.17-.49a4.9,4.9,0,0,0,.21-1.04,6.524,6.524,0,0,0-.28-2.45c.26.51.52,1.03.77,1.54q1.2,2.385,2.39,4.79c.21.42.42.85.63,1.27C32.979,17.631,31.569,20.061,30.7,21.481Z"/><path fill="url(#qJifJ4rxUos2yK5xH4dIPf)" d="M39.739,37.871q-2.355,3-4.7,5.99c-.59-.72-5.76-7.05-10.5-13.4l-.42-.57c-1.34-1.81-2.64-3.59-3.77-5.24l-.39-.57c-.74-1.09-1.4-2.11-1.94-3.02-.76-1.27-1.99-3.5-1.29-5.71.14-.31.28-.62.43-.93.12-.25.23-.51.35-.76q1.335-2.925,2.69-5.86a5.925,5.925,0,0,0-.2,1.67,5.5,5.5,0,0,0,.47,1.84c.04.09.07.17.11.26a41.7,41.7,0,0,0,3.71,6.38c.14.2.27.41.42.61,1.14,1.67,2.42,3.43,3.73,5.18.14.19.29.39.43.58C33.909,30.991,39.279,37.331,39.739,37.871Z"/><path fill="url(#qJifJ4rxUos2yK5xH4dIPg)" d="M39.739,37.871q-2.355,3-4.7,5.99c-.59-.72-5.76-7.05-10.5-13.4l-.42-.57c-1.34-1.81-2.64-3.59-3.77-5.24l-.39-.57c-.74-1.09-1.4-2.11-1.94-3.02-.76-1.27-1.99-3.5-1.29-5.71.14-.31.28-.62.43-.93.12-.25.23-.51.35-.76q1.335-2.925,2.69-5.86a5.925,5.925,0,0,0-.2,1.67,5.5,5.5,0,0,0,.47,1.84c.04.09.07.17.11.26a41.7,41.7,0,0,0,3.71,6.38c.14.2.27.41.42.61,1.14,1.67,2.42,3.43,3.73,5.18.14.19.29.39.43.58C33.909,30.991,39.279,37.331,39.739,37.871Z"/></svg>