<svg xmlns="http://www.w3.org/2000/svg"  viewBox="0 0 48 48" width="48px" height="48px"><radialGradient id="~MStrQ_cgiQnQl7_QoXwya" cx="9.782" cy="22.213" r="16.495" gradientUnits="userSpaceOnUse"><stop offset="0" stop-color="#ffe16e"/><stop offset=".629" stop-color="#ffd226"/><stop offset=".75" stop-color="#fdcd23"/><stop offset=".899" stop-color="#f6bd1b"/><stop offset=".999" stop-color="#f0af13"/></radialGradient><path fill="url(#~MStrQ_cgiQnQl7_QoXwya)" d="M21.471,18.98c-1.327-0.253-2.64,0.546-3.004,1.828l-0.735,2.59l-0.701-2.639 c-0.804-2.674-2.387-7.937-2.405-8c-0.174-0.728-0.58-1.346-1.088-1.651c-0.317-0.191-0.654-0.25-0.974-0.172 c-0.868,0.244-1.307,1.339-1.016,2.559l1.87,9.26c-1.272-4.394-3.391-11.659-3.406-11.713C9.676,9.825,8.748,9.052,7.894,9.279 C7.892,9.279,7.889,9.28,7.887,9.28C7.569,9.367,7.302,9.582,7.116,9.902c-0.298,0.513-0.358,1.25-0.166,1.951l2.403,11.965 c-1.096-3.596-3.181-10.356-3.206-10.442c-0.353-1.204-1.286-1.961-2.133-1.736c-0.007,0.002-0.015,0.004-0.022,0.006 c-0.317,0.091-0.58,0.31-0.761,0.633c-0.29,0.517-0.337,1.255-0.129,1.963l2.748,10.605c0,0-2.611-6.866-2.632-6.925 c-0.417-1.194-1.388-1.904-2.242-1.635c-0.314,0.103-0.567,0.332-0.733,0.661c-0.265,0.527-0.275,1.265-0.036,1.945l3.836,14.662 c0.992,3.736,4.826,5.961,8.562,4.969l5.153-1.368c2.711-0.72,4.674-2.971,5.104-5.659c0.293-2.259-0.267-11.24-0.267-11.24 C22.566,19.627,22.103,19.101,21.471,18.98z"/><radialGradient id="~MStrQ_cgiQnQl7_QoXwyb" cx="-145.435" cy="-172.774" r="3.054" gradientTransform="matrix(-1.0291 -.4893 -.693 1.4573 -251.342 209.95)" gradientUnits="userSpaceOnUse"><stop offset=".425" stop-color="#ffe16e"/><stop offset="1" stop-color="#ffe16e" stop-opacity="0"/></radialGradient><path fill="url(#~MStrQ_cgiQnQl7_QoXwyb)" d="M14.548,27.665c-1.329,2.795-0.84,5.805,1.093,6.724s4.576-0.602,5.905-3.397 s0.84-5.805-1.093-6.724S15.877,24.87,14.548,27.665z" opacity=".49"/><radialGradient id="~MStrQ_cgiQnQl7_QoXwyc" cx="-309.292" cy="-89.384" r="3.054" gradientTransform="matrix(-.7873 .5928 .9388 1.2467 -150.75 326.758)" gradientUnits="userSpaceOnUse"><stop offset=".425" stop-color="#ffe16e"/><stop offset="1" stop-color="#ffe16e" stop-opacity="0"/></radialGradient><path fill="url(#~MStrQ_cgiQnQl7_QoXwyc)" d="M6.155,33.976c1.8,2.391,4.458,3.427,5.937,2.314 c1.478-1.113,1.217-3.954-0.583-6.345c-1.8-2.391-4.458-3.427-5.937-2.314S4.354,31.585,6.155,33.976z" opacity=".37"/><linearGradient id="~MStrQ_cgiQnQl7_QoXwyd" x1="-72.118" x2="-80.299" y1="-176.365" y2="-174.098" gradientTransform="rotate(-13.751 801.55 -454.38)" gradientUnits="userSpaceOnUse"><stop offset="0" stop-color="#ffdc58" stop-opacity="0"/><stop offset="1" stop-color="#f5c02c"/></linearGradient><path fill="url(#~MStrQ_cgiQnQl7_QoXwyd)" d="M18.101,24.251c0,0-4.362-0.025-8.487,4.006c-0.419,0.431-0.166,0.889,0.328,0.537 s4.318-3.739,8.218-4.097C18.878,24.58,18.101,24.251,18.101,24.251z"/><linearGradient id="~MStrQ_cgiQnQl7_QoXwye" x1="-62.213" x2="-68.499" y1="-174.995" y2="-166.812" gradientTransform="rotate(-15.343 710.886 -370.734)" gradientUnits="userSpaceOnUse"><stop offset="0" stop-color="#ffdb53" stop-opacity="0"/><stop offset=".605" stop-color="#f6c02d"/><stop offset=".999" stop-color="#f2b416" stop-opacity=".636"/></linearGradient><path fill="url(#~MStrQ_cgiQnQl7_QoXwye)" d="M17.57,23.227c-1.093,0.698-2.102,1.619-2.941,2.706c-0.516,0.667-0.971,1.401-1.337,2.167 c-0.614,1.286-1.004,2.724-1.025,4.159c-0.007,0.485,0.035,0.97,0.119,1.448c0.077,0.435,0.147,1.011,0.394,1.388 c0.054,0.114,0.134,0.215,0.245,0.278c0.096,0.055,0.212,0.076,0.319,0.042c0.009-0.003,0.018-0.006,0.027-0.01 c0.22-0.091,0.309-0.384,0.187-0.672c-0.973-2.394-0.288-5.636,1.751-8.275c0.837-1.082,1.852-1.982,2.946-2.641L17.57,23.227z"/><linearGradient id="~MStrQ_cgiQnQl7_QoXwyf" x1="-84.592" x2="-70.254" y1="-176.323" y2="-176.634" gradientTransform="rotate(-15.343 712.29 -400.477)" gradientUnits="userSpaceOnUse"><stop offset="0" stop-color="#f9c41e"/><stop offset=".605" stop-color="#f6c12d"/><stop offset=".999" stop-color="#ffd532"/></linearGradient><path fill="url(#~MStrQ_cgiQnQl7_QoXwyf)" d="M16.94,22.685c0,0-5.959-0.306-13.228,3.666c-0.747,0.426-0.586,0.924,0.232,0.585 c0.818-0.339,7.415-3.653,12.897-3.779C17.869,23.082,16.94,22.685,16.94,22.685z"/><radialGradient id="~MStrQ_cgiQnQl7_QoXwyg" cx="-387.053" cy="-120.485" r="3.054" gradientTransform="matrix(-.4259 .1377 .4738 1.4648 -105.087 251.167)" gradientUnits="userSpaceOnUse"><stop offset=".425" stop-color="#ffe16e"/><stop offset="1" stop-color="#ffe16e" stop-opacity="0"/></radialGradient><path fill="url(#~MStrQ_cgiQnQl7_QoXwyg)" d="M1.228,21.837c0.909,2.809,2.293,4.877,3.093,4.618 c0.8-0.259,0.712-2.746-0.197-5.555s-2.293-4.877-3.093-4.618C0.231,16.541,0.319,19.028,1.228,21.837z" opacity=".36"/><radialGradient id="~MStrQ_cgiQnQl7_QoXwyh" cx="-383.045" cy="-104.219" r="3.054" gradientTransform="matrix(-.4336 .119 .5434 1.9808 -103.425 270.51)" gradientUnits="userSpaceOnUse"><stop offset=".425" stop-color="#ffe16e"/><stop offset="1" stop-color="#ffe16e" stop-opacity="0"/></radialGradient><path fill="url(#~MStrQ_cgiQnQl7_QoXwyh)" d="M4.549,18.915c1.042,3.799,2.547,6.697,3.361,6.474s0.629-3.484-0.413-7.283 s-2.547-6.697-3.361-6.474S3.507,15.117,4.549,18.915z" opacity=".35"/><radialGradient id="~MStrQ_cgiQnQl7_QoXwyi" cx="-388.011" cy="-106.775" r="3.054" gradientTransform="matrix(-.4625 .114 .5084 2.0617 -115.378 281.225)" gradientUnits="userSpaceOnUse"><stop offset=".425" stop-color="#ffe16e"/><stop offset="1" stop-color="#ffe16e" stop-opacity="0"/></radialGradient><path fill="url(#~MStrQ_cgiQnQl7_QoXwyi)" d="M8.232,17.218c0.975,3.954,2.469,6.986,3.338,6.772 c0.869-0.214,0.782-3.593-0.193-7.547S8.908,9.456,8.04,9.671C7.171,9.885,7.257,13.264,8.232,17.218z" opacity=".58"/><radialGradient id="~MStrQ_cgiQnQl7_QoXwyj" cx="-403.467" cy="-133.042" r="3.054" gradientTransform="matrix(-.4089 .1008 .4062 1.6473 -96.875 276.673)" gradientUnits="userSpaceOnUse"><stop offset=".425" stop-color="#ffe16e"/><stop offset="1" stop-color="#ffe16e" stop-opacity="0"/></radialGradient><path fill="url(#~MStrQ_cgiQnQl7_QoXwyj)" d="M12.68,17.173c0.779,3.159,2.033,5.567,2.801,5.377s0.759-2.904-0.02-6.063 c-0.779-3.159-2.033-5.567-2.801-5.377S11.901,14.014,12.68,17.173z" opacity=".56"/><radialGradient id="~MStrQ_cgiQnQl7_QoXwyk" cx="-15.271" cy="22.213" r="16.495" gradientTransform="matrix(-1 0 0 1 22.981 0)" gradientUnits="userSpaceOnUse"><stop offset="0" stop-color="#ffe16e"/><stop offset=".629" stop-color="#ffd226"/><stop offset=".75" stop-color="#fdcd23"/><stop offset=".899" stop-color="#f6bd1b"/><stop offset=".999" stop-color="#f0af13"/></radialGradient><path fill="url(#~MStrQ_cgiQnQl7_QoXwyk)" d="M26.564,18.98c1.327-0.253,2.64,0.546,3.004,1.828l0.735,2.59l0.701-2.639 c0.804-2.674,2.387-7.937,2.405-8c0.174-0.728,0.58-1.346,1.088-1.651c0.317-0.191,0.654-0.25,0.974-0.172 c0.868,0.244,1.307,1.339,1.016,2.559l-1.87,9.26c1.272-4.394,3.391-11.659,3.406-11.713c0.333-1.218,1.261-1.992,2.116-1.765 c0.002,0.001,0.004,0.001,0.007,0.002c0.318,0.087,0.585,0.302,0.771,0.622c0.298,0.513,0.358,1.25,0.166,1.951l-2.403,11.965 c1.096-3.596,3.181-10.356,3.206-10.442c0.353-1.204,1.286-1.961,2.133-1.736c0.007,0.002,0.015,0.004,0.022,0.006 c0.317,0.091,0.58,0.31,0.761,0.633c0.29,0.517,0.337,1.255,0.129,1.963l-2.748,10.605c0,0,2.611-6.866,2.632-6.925 c0.417-1.194,1.388-1.904,2.242-1.635c0.314,0.103,0.567,0.332,0.733,0.661c0.265,0.527,0.275,1.265,0.036,1.945l-3.836,14.662 c-0.992,3.736-4.826,5.961-8.562,4.969l-5.153-1.368c-2.711-0.72-4.674-2.971-5.104-5.659c-0.293-2.259,0.267-11.24,0.267-11.24 C25.469,19.627,25.932,19.101,26.564,18.98z"/><radialGradient id="~MStrQ_cgiQnQl7_QoXwyl" cx="-125.579" cy="-164.175" r="3.054" gradientTransform="matrix(1.0291 -.4893 .693 1.4573 272.985 207.135)" gradientUnits="userSpaceOnUse"><stop offset=".425" stop-color="#ffe16e"/><stop offset="1" stop-color="#ffe16e" stop-opacity="0"/></radialGradient><path fill="url(#~MStrQ_cgiQnQl7_QoXwyl)" d="M33.487,27.665c1.329,2.795,0.84,5.805-1.093,6.724 c-1.932,0.919-4.576-0.602-5.905-3.397c-1.329-2.795-0.84-5.805,1.093-6.724S32.158,24.87,33.487,27.665z" opacity=".49"/><radialGradient id="~MStrQ_cgiQnQl7_QoXwym" cx="-288.984" cy="-101.838" r="3.054" gradientTransform="matrix(.7873 .5928 -.9388 1.2467 171.104 330.246)" gradientUnits="userSpaceOnUse"><stop offset=".425" stop-color="#ffe16e"/><stop offset="1" stop-color="#ffe16e" stop-opacity="0"/></radialGradient><path fill="url(#~MStrQ_cgiQnQl7_QoXwym)" d="M41.88,33.976c-1.8,2.391-4.458,3.427-5.937,2.314 c-1.478-1.113-1.217-3.954,0.583-6.345c1.8-2.391,4.458-3.427,5.937-2.314S43.68,31.585,41.88,33.976z" opacity=".37"/><linearGradient id="~MStrQ_cgiQnQl7_QoXwyn" x1="-96.454" x2="-104.634" y1="-182.32" y2="-180.053" gradientTransform="scale(-1 1) rotate(-13.751 790.06 -359.084)" gradientUnits="userSpaceOnUse"><stop offset="0" stop-color="#ffdc58" stop-opacity="0"/><stop offset="1" stop-color="#f5c02c"/></linearGradient><path fill="url(#~MStrQ_cgiQnQl7_QoXwyn)" d="M29.933,24.251c0,0,4.362-0.025,8.487,4.006c0.419,0.431,0.166,0.889-0.328,0.537 s-4.318-3.739-8.218-4.097C29.157,24.58,29.933,24.251,29.933,24.251z"/><linearGradient id="~MStrQ_cgiQnQl7_QoXwyo" x1="-86.374" x2="-92.66" y1="-181.624" y2="-173.44" gradientTransform="scale(-1 1) rotate(-15.343 699.396 -285.43)" gradientUnits="userSpaceOnUse"><stop offset="0" stop-color="#ffdb53" stop-opacity="0"/><stop offset=".605" stop-color="#f6c02d"/><stop offset=".999" stop-color="#f2b416" stop-opacity=".636"/></linearGradient><path fill="url(#~MStrQ_cgiQnQl7_QoXwyo)" d="M30.465,23.227c1.093,0.698,2.102,1.619,2.941,2.706c0.516,0.667,0.971,1.401,1.337,2.167 c0.614,1.286,1.004,2.724,1.025,4.159c0.007,0.485-0.035,0.97-0.119,1.448c-0.077,0.435-0.147,1.011-0.394,1.388 c-0.054,0.114-0.134,0.215-0.245,0.278c-0.096,0.055-0.212,0.076-0.319,0.042c-0.009-0.003-0.018-0.006-0.027-0.01 c-0.22-0.091-0.309-0.384-0.187-0.672c0.973-2.394,0.288-5.636-1.751-8.275c-0.837-1.082-1.852-1.982-2.946-2.641L30.465,23.227z"/><linearGradient id="~MStrQ_cgiQnQl7_QoXwyp" x1="-108.752" x2="-94.414" y1="-182.952" y2="-183.263" gradientTransform="scale(-1 1) rotate(-15.343 700.8 -315.172)" gradientUnits="userSpaceOnUse"><stop offset="0" stop-color="#f9c41e"/><stop offset=".605" stop-color="#f6c12d"/><stop offset=".999" stop-color="#ffd532"/></linearGradient><path fill="url(#~MStrQ_cgiQnQl7_QoXwyp)" d="M31.095,22.685c0,0,5.959-0.306,13.228,3.666c0.747,0.426,0.586,0.924-0.232,0.585 c-0.818-0.339-7.415-3.653-12.897-3.779C30.165,23.082,31.095,22.685,31.095,22.685z"/><radialGradient id="~MStrQ_cgiQnQl7_QoXwyq" cx="-333.798" cy="-126.944" r="3.054" gradientTransform="matrix(.4259 .1377 -.4738 1.4648 127.381 253.292)" gradientUnits="userSpaceOnUse"><stop offset=".425" stop-color="#ffe16e"/><stop offset="1" stop-color="#ffe16e" stop-opacity="0"/></radialGradient><path fill="url(#~MStrQ_cgiQnQl7_QoXwyq)" d="M46.807,21.837c-0.909,2.809-2.293,4.877-3.093,4.618 c-0.8-0.259-0.712-2.746,0.197-5.555c0.909-2.809,2.293-4.877,3.093-4.618C47.804,16.541,47.716,19.028,46.807,21.837z" opacity=".36"/><radialGradient id="~MStrQ_cgiQnQl7_QoXwyr" cx="-329.308" cy="-108.381" r="3.054" gradientTransform="matrix(.4336 .119 -.5434 1.9808 125.898 272.361)" gradientUnits="userSpaceOnUse"><stop offset=".425" stop-color="#ffe16e"/><stop offset="1" stop-color="#ffe16e" stop-opacity="0"/></radialGradient><path fill="url(#~MStrQ_cgiQnQl7_QoXwyr)" d="M43.486,18.915c-1.042,3.799-2.547,6.697-3.361,6.474 s-0.629-3.484,0.413-7.283c1.042-3.799,2.547-6.697,3.361-6.474S44.528,15.117,43.486,18.915z" opacity=".35"/><radialGradient id="~MStrQ_cgiQnQl7_QoXwys" cx="-336.95" cy="-110.418" r="3.054" gradientTransform="matrix(.4625 .114 -.5084 2.0617 137.943 282.912)" gradientUnits="userSpaceOnUse"><stop offset=".425" stop-color="#ffe16e"/><stop offset="1" stop-color="#ffe16e" stop-opacity="0"/></radialGradient><path fill="url(#~MStrQ_cgiQnQl7_QoXwys)" d="M39.802,17.218c-0.975,3.954-2.469,6.986-3.338,6.772 c-0.869-0.214-0.782-3.593,0.193-7.547s2.469-6.986,3.338-6.772C40.863,9.885,40.777,13.264,39.802,17.218z" opacity=".58"/><radialGradient id="~MStrQ_cgiQnQl7_QoXwyt" cx="-345.711" cy="-137.601" r="3.054" gradientTransform="matrix(.4089 .1008 -.4062 1.6473 119.44 278.36)" gradientUnits="userSpaceOnUse"><stop offset=".425" stop-color="#ffe16e"/><stop offset="1" stop-color="#ffe16e" stop-opacity="0"/></radialGradient><path fill="url(#~MStrQ_cgiQnQl7_QoXwyt)" d="M35.355,17.173c-0.779,3.159-2.033,5.567-2.801,5.377 c-0.768-0.189-0.759-2.904,0.02-6.063s2.033-5.567,2.801-5.377C36.143,11.299,36.134,14.014,35.355,17.173z" opacity=".56"/></svg>