<svg xmlns="http://www.w3.org/2000/svg"  viewBox="0 0 48 48" width="48px" height="48px"><radialGradient id="LjaxV~zS9p2qCbx7CCu3ga" cx="10.739" cy="23.298" r="16.495" gradientTransform="matrix(.9663 -.2574 .2829 1.062 -6.229 1.319)" gradientUnits="userSpaceOnUse"><stop offset="0" stop-color="#a67044"/><stop offset=".629" stop-color="#8f5732"/><stop offset=".713" stop-color="#8a5330"/><stop offset=".818" stop-color="#7a4829"/><stop offset=".933" stop-color="#61371e"/><stop offset=".999" stop-color="#4f2a16"/></radialGradient><path fill="url(#LjaxV~zS9p2qCbx7CCu3ga)" d="M21.471,18.98c-1.327-0.253-2.64,0.546-3.004,1.828l-0.735,2.59l-0.701-2.639	c-0.804-2.674-2.387-7.937-2.405-8c-0.174-0.728-0.58-1.346-1.088-1.651c-0.317-0.191-0.654-0.25-0.974-0.172	c-0.868,0.244-1.307,1.339-1.016,2.559l1.87,9.26c-1.272-4.394-3.391-11.659-3.406-11.713C9.676,9.825,8.748,9.052,7.894,9.279	C7.892,9.279,7.889,9.28,7.887,9.28C7.569,9.367,7.302,9.582,7.116,9.902c-0.298,0.513-0.358,1.25-0.166,1.951l2.403,11.965	c-1.096-3.596-3.181-10.356-3.206-10.442c-0.353-1.204-1.286-1.961-2.133-1.736c-0.007,0.002-0.015,0.004-0.022,0.006	c-0.317,0.091-0.58,0.31-0.761,0.633c-0.29,0.517-0.337,1.255-0.129,1.963l2.748,10.605c0,0-2.611-6.866-2.632-6.925	c-0.417-1.194-1.388-1.904-2.242-1.635c-0.314,0.103-0.567,0.332-0.733,0.661c-0.265,0.527-0.275,1.265-0.036,1.945l3.836,14.662	c0.992,3.736,4.826,5.961,8.562,4.969l5.153-1.368c2.711-0.72,4.674-2.971,5.104-5.659c0.293-2.259-0.267-11.24-0.267-11.24	C22.566,19.627,22.103,19.101,21.471,18.98z"/><radialGradient id="LjaxV~zS9p2qCbx7CCu3gb" cx="-106.994" cy="-144.397" r="3.054" gradientTransform="matrix(-1.0291 -.4893 -.693 1.4573 -192.12 187.405)" gradientUnits="userSpaceOnUse"><stop offset=".425" stop-color="#fff"/><stop offset="1" stop-color="#fff" stop-opacity="0"/></radialGradient><path fill="url(#LjaxV~zS9p2qCbx7CCu3gb)" d="M14.548,27.665c-1.329,2.795-0.84,5.805,1.093,6.724s4.576-0.602,5.905-3.397	s0.84-5.805-1.093-6.724S15.877,24.87,14.548,27.665z" opacity=".08"/><radialGradient id="LjaxV~zS9p2qCbx7CCu3gc" cx="-371.551" cy="-54.719" r="3.054" gradientTransform="matrix(-.7873 .5928 .9388 1.2467 -232.309 320.449)" gradientUnits="userSpaceOnUse"><stop offset=".425" stop-color="#fff"/><stop offset=".996" stop-color="#fff" stop-opacity="0"/></radialGradient><path fill="url(#LjaxV~zS9p2qCbx7CCu3gc)" d="M6.155,33.976c1.8,2.391,4.458,3.427,5.937,2.314	c1.478-1.113,1.217-3.954-0.583-6.345c-1.8-2.391-4.458-3.427-5.937-2.314S4.354,31.585,6.155,33.976z" opacity=".08"/><linearGradient id="LjaxV~zS9p2qCbx7CCu3gd" x1="-47.874" x2="-56.054" y1="-173.442" y2="-171.174" gradientTransform="rotate(-13.751 801.55 -352.383)" gradientUnits="userSpaceOnUse"><stop offset="0" stop-color="#a67044" stop-opacity="0"/><stop offset=".605" stop-color="#8f5732"/><stop offset=".999" stop-color="#4f2a16" stop-opacity=".64"/></linearGradient><path fill="url(#LjaxV~zS9p2qCbx7CCu3gd)" d="M18.101,24.251c0,0-4.362-0.025-8.487,4.006	c-0.419,0.431-0.166,0.889,0.328,0.537s4.318-3.739,8.218-4.097C18.878,24.58,18.101,24.251,18.101,24.251z" opacity=".66"/><linearGradient id="LjaxV~zS9p2qCbx7CCu3ge" x1="-35.226" x2="-41.512" y1="-171.36" y2="-163.177" gradientTransform="rotate(-15.343 710.886 -268.743)" gradientUnits="userSpaceOnUse"><stop offset="0" stop-color="#a67044" stop-opacity="0"/><stop offset=".605" stop-color="#8f5732"/><stop offset=".999" stop-color="#4f2a16" stop-opacity=".64"/></linearGradient><path fill="url(#LjaxV~zS9p2qCbx7CCu3ge)" d="M17.57,23.227c-1.093,0.698-2.102,1.619-2.941,2.706	c-0.516,0.667-0.971,1.401-1.337,2.167c-0.614,1.286-1.004,2.724-1.025,4.159c-0.007,0.485,0.035,0.97,0.119,1.448	c0.077,0.435,0.147,1.011,0.394,1.388c0.054,0.114,0.134,0.215,0.245,0.278c0.096,0.055,0.212,0.076,0.319,0.042	c0.009-0.003,0.018-0.006,0.027-0.01c0.22-0.091,0.309-0.384,0.187-0.672c-0.973-2.394-0.288-5.636,1.751-8.275	c0.837-1.082,1.852-1.982,2.946-2.641L17.57,23.227z" opacity=".66"/><linearGradient id="LjaxV~zS9p2qCbx7CCu3gf" x1="-57.605" x2="-43.267" y1="-172.688" y2="-173" gradientTransform="rotate(-15.343 712.29 -298.486)" gradientUnits="userSpaceOnUse"><stop offset="0" stop-color="#8f5732"/><stop offset=".605" stop-color="#4f2a16"/><stop offset=".999" stop-color="#8f5732"/></linearGradient><path fill="url(#LjaxV~zS9p2qCbx7CCu3gf)" d="M16.94,22.685c0,0-5.959-0.306-13.228,3.666	c-0.747,0.426-0.586,0.924,0.232,0.585c0.818-0.339,7.415-3.653,12.897-3.779C17.869,23.082,16.94,22.685,16.94,22.685z" opacity=".56"/><radialGradient id="LjaxV~zS9p2qCbx7CCu3gg" cx="-457.178" cy="-99.791" r="3.054" gradientTransform="matrix(-.4259 .1377 .4738 1.4648 -144.757 230.513)" gradientUnits="userSpaceOnUse"><stop offset=".425" stop-color="#fff"/><stop offset="1" stop-color="#fff" stop-opacity="0"/></radialGradient><path fill="url(#LjaxV~zS9p2qCbx7CCu3gg)" d="M1.228,21.837c0.909,2.809,2.293,4.877,3.093,4.618	c0.8-0.259,0.712-2.746-0.197-5.555s-2.293-4.877-3.093-4.618C0.231,16.541,0.319,19.028,1.228,21.837z" opacity=".08"/><radialGradient id="LjaxV~zS9p2qCbx7CCu3gh" cx="-443.068" cy="-63.984" r="3.054" gradientTransform="matrix(-.4336 .119 .5434 1.9808 -151.315 197.954)" gradientUnits="userSpaceOnUse"><stop offset=".425" stop-color="#fff"/><stop offset="1" stop-color="#fff" stop-opacity="0"/></radialGradient><path fill="url(#LjaxV~zS9p2qCbx7CCu3gh)" d="M4.549,18.915c1.042,3.799,2.547,6.697,3.361,6.474s0.629-3.484-0.413-7.283	s-2.547-6.697-3.361-6.474S3.507,15.117,4.549,18.915z" opacity=".08"/><radialGradient id="LjaxV~zS9p2qCbx7CCu3gi" cx="-439.272" cy="-64.924" r="3.054" gradientTransform="matrix(-.4625 .114 .5084 2.0617 -160.364 200.786)" gradientUnits="userSpaceOnUse"><stop offset=".425" stop-color="#fff"/><stop offset="1" stop-color="#fff" stop-opacity="0"/></radialGradient><path fill="url(#LjaxV~zS9p2qCbx7CCu3gi)" d="M8.232,17.218c0.975,3.954,2.469,6.986,3.338,6.772	c0.869-0.214,0.782-3.593-0.193-7.547S8.908,9.456,8.04,9.671C7.171,9.885,7.257,13.264,8.232,17.218z" opacity=".08"/><radialGradient id="LjaxV~zS9p2qCbx7CCu3gj" cx="-461.449" cy="-106.323" r="3.054" gradientTransform="matrix(-.4089 .1008 .4062 1.6473 -131.437 238.505)" gradientUnits="userSpaceOnUse"><stop offset=".425" stop-color="#fff"/><stop offset="1" stop-color="#fff" stop-opacity="0"/></radialGradient><path fill="url(#LjaxV~zS9p2qCbx7CCu3gj)" d="M12.68,17.173c0.779,3.159,2.033,5.567,2.801,5.377s0.759-2.904-0.02-6.063	c-0.779-3.159-2.033-5.567-2.801-5.377S11.901,14.014,12.68,17.173z" opacity=".08"/><radialGradient id="LjaxV~zS9p2qCbx7CCu3gk" cx="-14.569" cy="22.468" r="16.495" gradientTransform="matrix(-.9663 -.2574 -.2997 1.1252 30.206 -6.563)" gradientUnits="userSpaceOnUse"><stop offset="0" stop-color="#a67044"/><stop offset=".629" stop-color="#8f5732"/><stop offset=".713" stop-color="#8a5330"/><stop offset=".818" stop-color="#7a4829"/><stop offset=".933" stop-color="#61371e"/><stop offset=".999" stop-color="#4f2a16"/></radialGradient><path fill="url(#LjaxV~zS9p2qCbx7CCu3gk)" d="M26.564,18.98c1.327-0.253,2.64,0.546,3.004,1.828l0.735,2.59l0.701-2.639	c0.804-2.674,2.387-7.937,2.405-8c0.174-0.728,0.58-1.346,1.088-1.651c0.317-0.191,0.654-0.25,0.974-0.172	c0.868,0.244,1.307,1.339,1.016,2.559l-1.87,9.26c1.272-4.394,3.391-11.659,3.406-11.713c0.333-1.218,1.261-1.992,2.116-1.765	c0.002,0.001,0.004,0.001,0.007,0.002c0.318,0.087,0.585,0.302,0.771,0.622c0.298,0.513,0.358,1.25,0.166,1.951l-2.403,11.965	c1.096-3.596,3.181-10.356,3.206-10.442c0.353-1.204,1.286-1.961,2.133-1.736c0.007,0.002,0.015,0.004,0.022,0.006	c0.317,0.091,0.58,0.31,0.761,0.633c0.29,0.517,0.337,1.255,0.129,1.963l-2.748,10.605c0,0,2.611-6.866,2.632-6.925	c0.417-1.194,1.388-1.904,2.242-1.635c0.314,0.103,0.567,0.332,0.733,0.661c0.265,0.527,0.275,1.265,0.036,1.945l-3.836,14.662	c-0.992,3.736-4.826,5.961-8.562,4.969l-5.153-1.368c-2.711-0.72-4.674-2.971-5.104-5.659c-0.293-2.259,0.267-11.24,0.267-11.24	C25.469,19.627,25.932,19.101,26.564,18.98z"/><radialGradient id="LjaxV~zS9p2qCbx7CCu3gl" cx="-87.138" cy="-135.798" r="3.054" gradientTransform="matrix(1.0291 -.4893 .693 1.4573 213.762 184.59)" gradientUnits="userSpaceOnUse"><stop offset=".425" stop-color="#fff"/><stop offset="1" stop-color="#fff" stop-opacity="0"/></radialGradient><path fill="url(#LjaxV~zS9p2qCbx7CCu3gl)" d="M33.487,27.665c1.329,2.795,0.84,5.805-1.093,6.724	c-1.932,0.919-4.576-0.602-5.905-3.397c-1.329-2.795-0.84-5.805,1.093-6.724S32.158,24.87,33.487,27.665z" opacity=".08"/><radialGradient id="LjaxV~zS9p2qCbx7CCu3gm" cx="-351.243" cy="-67.173" r="3.054" gradientTransform="matrix(.7873 .5928 -.9388 1.2467 252.664 323.937)" gradientUnits="userSpaceOnUse"><stop offset=".425" stop-color="#fff"/><stop offset="1" stop-color="#fff" stop-opacity="0"/></radialGradient><path fill="url(#LjaxV~zS9p2qCbx7CCu3gm)" d="M41.88,33.976c-1.8,2.391-4.458,3.427-5.937,2.314	c-1.478-1.113-1.217-3.954,0.583-6.345c1.8-2.391,4.458-3.427,5.937-2.314S43.68,31.585,41.88,33.976z" opacity=".08"/><linearGradient id="LjaxV~zS9p2qCbx7CCu3gn" x1="-72.209" x2="-80.39" y1="-179.397" y2="-177.13" gradientTransform="scale(-1 1) rotate(-13.751 790.058 -257.088)" gradientUnits="userSpaceOnUse"><stop offset="0" stop-color="#a67044" stop-opacity="0"/><stop offset=".605" stop-color="#8f5732"/><stop offset=".999" stop-color="#4f2a16" stop-opacity=".64"/></linearGradient><path fill="url(#LjaxV~zS9p2qCbx7CCu3gn)" d="M29.933,24.251c0,0,4.362-0.025,8.487,4.006	c0.419,0.431,0.166,0.889-0.328,0.537s-4.318-3.739-8.218-4.097C29.157,24.58,29.933,24.251,29.933,24.251z" opacity=".66"/><linearGradient id="LjaxV~zS9p2qCbx7CCu3go" x1="-59.387" x2="-65.673" y1="-177.989" y2="-169.805" gradientTransform="scale(-1 1) rotate(-15.343 699.396 -183.438)" gradientUnits="userSpaceOnUse"><stop offset="0" stop-color="#a67044" stop-opacity="0"/><stop offset=".605" stop-color="#8f5732"/><stop offset=".999" stop-color="#4f2a16" stop-opacity=".64"/></linearGradient><path fill="url(#LjaxV~zS9p2qCbx7CCu3go)" d="M30.465,23.227c1.093,0.698,2.102,1.619,2.941,2.706	c0.516,0.667,0.971,1.401,1.337,2.167c0.614,1.286,1.004,2.724,1.025,4.159c0.007,0.485-0.035,0.97-0.119,1.448	c-0.077,0.435-0.147,1.011-0.394,1.388c-0.054,0.114-0.134,0.215-0.245,0.278c-0.096,0.055-0.212,0.076-0.319,0.042	c-0.009-0.003-0.018-0.006-0.027-0.01c-0.22-0.091-0.309-0.384-0.187-0.672c0.973-2.394,0.288-5.636-1.751-8.275	c-0.837-1.082-1.852-1.982-2.946-2.641L30.465,23.227z" opacity=".66"/><linearGradient id="LjaxV~zS9p2qCbx7CCu3gp" x1="-81.766" x2="-67.427" y1="-179.317" y2="-179.628" gradientTransform="scale(-1 1) rotate(-15.343 700.8 -213.181)" gradientUnits="userSpaceOnUse"><stop offset="0" stop-color="#8f5732"/><stop offset=".605" stop-color="#4f2a16"/><stop offset=".999" stop-color="#8f5732"/></linearGradient><path fill="url(#LjaxV~zS9p2qCbx7CCu3gp)" d="M31.095,22.685c0,0,5.959-0.306,13.228,3.666	c0.747,0.426,0.586,0.924-0.232,0.585c-0.818-0.339-7.415-3.653-12.897-3.779C30.165,23.082,31.095,22.685,31.095,22.685z" opacity=".56"/><radialGradient id="LjaxV~zS9p2qCbx7CCu3gq" cx="-389.33" cy="-68.146" r="3.054" gradientTransform="matrix(.4336 .119 -.5434 1.9808 173.788 199.806)" gradientUnits="userSpaceOnUse"><stop offset=".425" stop-color="#fff"/><stop offset="1" stop-color="#fff" stop-opacity="0"/></radialGradient><path fill="url(#LjaxV~zS9p2qCbx7CCu3gq)" d="M43.486,18.915c-1.042,3.799-2.547,6.697-3.361,6.474s-0.629-3.484,0.413-7.283	c1.042-3.799,2.547-6.697,3.361-6.474S44.528,15.117,43.486,18.915z" opacity=".08"/><radialGradient id="LjaxV~zS9p2qCbx7CCu3gr" cx="-388.21" cy="-68.567" r="3.054" gradientTransform="matrix(.4625 .114 -.5084 2.0617 182.93 202.473)" gradientUnits="userSpaceOnUse"><stop offset=".425" stop-color="#fff"/><stop offset="1" stop-color="#fff" stop-opacity="0"/></radialGradient><path fill="url(#LjaxV~zS9p2qCbx7CCu3gr)" d="M39.802,17.218c-0.975,3.954-2.469,6.986-3.338,6.772	c-0.869-0.214-0.782-3.593,0.193-7.547s2.469-6.986,3.338-6.772C40.863,9.885,40.777,13.264,39.802,17.218z" opacity=".08"/><radialGradient id="LjaxV~zS9p2qCbx7CCu3gs" cx="-403.692" cy="-110.882" r="3.054" gradientTransform="matrix(.4089 .1008 -.4062 1.6473 154.002 240.192)" gradientUnits="userSpaceOnUse"><stop offset=".425" stop-color="#fff"/><stop offset="1" stop-color="#fff" stop-opacity="0"/></radialGradient><path fill="url(#LjaxV~zS9p2qCbx7CCu3gs)" d="M35.355,17.173c-0.779,3.159-2.033,5.567-2.801,5.377	c-0.768-0.189-0.759-2.904,0.02-6.063s2.033-5.567,2.801-5.377C36.143,11.299,36.134,14.014,35.355,17.173z" opacity=".08"/><radialGradient id="LjaxV~zS9p2qCbx7CCu3gt" cx="-403.923" cy="-106.25" r="3.054" gradientTransform="matrix(.4259 .1377 -.4738 1.4648 167.051 232.639)" gradientUnits="userSpaceOnUse"><stop offset=".425" stop-color="#fff"/><stop offset="1" stop-color="#fff" stop-opacity="0"/></radialGradient><path fill="url(#LjaxV~zS9p2qCbx7CCu3gt)" d="M46.807,21.837c-0.909,2.809-2.293,4.877-3.093,4.618	c-0.8-0.259-0.712-2.746,0.197-5.555c0.909-2.809,2.293-4.877,3.093-4.618C47.804,16.541,47.716,19.028,46.807,21.837z" opacity=".08"/></svg>