<svg xmlns="http://www.w3.org/2000/svg"  viewBox="0 0 48 48" width="48px" height="48px"><linearGradient id="BXlnbeBMyE6cqO2Txyw3va" x1="10.005" x2="43.658" y1="9.95" y2="43.603" gradientUnits="userSpaceOnUse"><stop offset="0" stop-color="#00acc1"/><stop offset=".076" stop-color="#00a4b7"/><stop offset=".285" stop-color="#0092a1"/><stop offset=".485" stop-color="#008794"/><stop offset=".665" stop-color="#00838f"/></linearGradient><path fill="url(#BXlnbeBMyE6cqO2Txyw3va)" d="M41.483,30.042c-2.05-4.32-6.582-6.725-13.558-9.333c-0.085-0.032-1.68-0.55-3.533-1.151 c-2.135-0.692-4.46-0.519-6.467,0.485L14,22.005L30.75,43H40l1.507-3.563C42.779,36.433,42.881,32.989,41.483,30.042z"/><linearGradient id="BXlnbeBMyE6cqO2Txyw3vb" x1="18.368" x2="51.964" y1="1.961" y2="35.557" gradientUnits="userSpaceOnUse"><stop offset="0" stop-color="#00acc1"/><stop offset=".076" stop-color="#00a4b7"/><stop offset=".285" stop-color="#0092a1"/><stop offset=".485" stop-color="#008794"/><stop offset=".665" stop-color="#00838f"/></linearGradient><path fill="url(#BXlnbeBMyE6cqO2Txyw3vb)" d="M37.202,15.518c0.177-1.201,0.364-2.471,0.452-3.064c0.524-3.551-1.931-6.855-5.482-7.379 c-3.551-0.524-6.855,1.931-7.379,5.482c-0.087,0.592-0.275,1.862-0.452,3.064c-0.606,0.125-1.1,0.611-1.196,1.258 c-0.141,0.946,0.18,2.174,0.795,2.587c0.208,3.065,2.397,5.954,5.46,6.406s5.992-1.683,7.077-4.557 c0.708-0.219,1.37-1.301,1.508-2.248C38.078,16.419,37.746,15.812,37.202,15.518z"/><linearGradient id="BXlnbeBMyE6cqO2Txyw3vc" x1="37.702" x2="4.925" y1="47.707" y2="14.93" gradientUnits="userSpaceOnUse"><stop offset=".335" stop-color="#f57c00"/><stop offset=".477" stop-color="#f67f05"/><stop offset=".636" stop-color="#f78a12"/><stop offset=".801" stop-color="#fa9b28"/><stop offset=".972" stop-color="#feb247"/><stop offset="1" stop-color="#ffb74d"/></linearGradient><path fill="url(#BXlnbeBMyE6cqO2Txyw3vc)" d="M46.987,36.44c-0.084-1.075-0.666-2.05-1.466-2.774l-4.073-3.693c0,0,0.37,0.743,0.713,2.736 l-7.302-3.388C32.976,28.451,30.925,28,28.85,28h-1.73c-1.88,0-3.603-1.186-4.144-2.987c-0.206-0.684-0.362-1.515-0.425-2.521 l0-0.001c1.529-1.281,2.472-3.288,2.525-5.342c0.597-0.439,0.866-1.679,0.685-2.618c-0.124-0.643-0.638-1.107-1.248-1.207 c-0.228-1.193-0.468-2.454-0.58-3.042c-0.673-3.526-4.077-5.839-7.603-5.167s-5.839,4.077-5.167,7.603 c0.112,0.588,0.353,1.849,0.58,3.042c-0.531,0.317-0.838,0.938-0.716,1.581c0.178,0.94,0.885,1.994,1.601,2.182 c0.29,0.68,0.686,1.31,1.161,1.871L14,22.005l-1.249,7.636l-4.124,0.897c-0.538,0.128-1.032,0.344-1.471,0.629 c-1.654,1.073-2.272,3.115-1.785,4.958C5.495,36.593,7.75,43,7.75,43H34l0.875-3.625l7.459,1.297 C44.872,41.125,47.194,39.069,46.987,36.44z"/><linearGradient id="BXlnbeBMyE6cqO2Txyw3vd" x1="-.446" x2="34.106" y1="18.75" y2="53.303" gradientUnits="userSpaceOnUse"><stop offset="0" stop-color="#00acc1"/><stop offset=".076" stop-color="#00a4b7"/><stop offset=".285" stop-color="#0092a1"/><stop offset=".485" stop-color="#008794"/><stop offset=".665" stop-color="#00838f"/></linearGradient><path fill="url(#BXlnbeBMyE6cqO2Txyw3vd)" d="M28.548,36.859l-4.825-1.664c0,0,2.072-0.237,2.054-1.341 c-0.001-0.079-0.026-0.515-0.66-0.452c-0.174,0.017-1.573,0.157-2.556,0.255c-0.649,0.065-1.289,0.193-1.913,0.383l-0.341,0.104 l-7.555-4.503c0,0,0,0,0.749-1.636c1.309-2.862,0.5-6,0.5-6L4.41,26.8C2.933,27.538,2,29.048,2,30.7 c0,2.013,1.378,3.764,3.334,4.238l13.791,2.938l5.536,2.048c0.36,0.114,0.707,0.129,1.108,0.007 c0.402-0.122,0.528-0.211,0.723-0.354c0.528-0.386,1.513-1.15,2.224-1.705C29.082,37.585,28.985,37.01,28.548,36.859z"/></svg>