<svg xmlns="http://www.w3.org/2000/svg"  viewBox="0 0 48 48" width="48px" height="48px"><polygon fill="#b1d7e0" points="42.319,25.146 47.309,21.574 41.681,18.957 45.069,15.461 40.018,14.21 42.319,9 36.319,9.255 36,3.511 29.872,6.128 25.541,1.016 21.83,6.191 16.787,4.149 16.277,9.319 11.085,7.508 11.571,13.2 5.426,13.277 7.723,18.319 3.237,21.365 10.021,25.024 7.196,29.824 12.789,29.444 4.445,44.828 20.867,36.58 24.383,41.234 28.66,36.713 33.447,41.553 35.043,35.444 42.392,37.689 39.202,31.366 47.309,30.686"/><polygon fill="#b2d8e0" points="42.218,25.133 47.247,21.578 41.584,18.981 45.007,15.483 39.93,14.262 42.266,9.038 36.254,9.336 35.965,3.563 29.845,6.227 25.541,1.085 21.85,6.291 16.819,4.207 16.33,9.4 11.139,7.578 11.652,13.257 5.488,13.312 7.827,18.346 3.304,21.364 10.112,25.011 7.236,29.801 12.863,29.406 4.568,44.698 20.893,36.499 24.388,41.163 28.639,36.631 33.425,41.477 34.985,35.37 42.334,37.639 39.119,31.316 47.239,30.658"/><polygon fill="#b3d8e1" points="42.117,25.12 47.184,21.581 41.486,19.004 44.945,15.506 39.843,14.314 42.213,9.075 36.188,9.417 35.931,3.615 29.818,6.327 25.542,1.153 21.871,6.39 16.851,4.265 16.383,9.48 11.193,7.648 11.733,13.315 5.55,13.348 7.931,18.374 3.372,21.362 10.202,24.999 7.275,29.779 12.937,29.367 4.692,44.568 20.919,36.418 24.393,41.092 28.619,36.549 33.403,41.401 34.927,35.296 42.276,37.588 39.037,31.266 47.169,30.631"/><polygon fill="#b4d9e1" points="42.016,25.107 47.122,21.584 41.389,19.028 44.883,15.528 39.756,14.365 42.16,9.113 36.123,9.498 35.896,3.668 29.791,6.426 25.542,1.222 21.891,6.489 16.883,4.323 16.437,9.561 11.246,7.718 11.815,13.372 5.612,13.384 8.035,18.401 3.439,21.361 10.293,24.986 7.314,29.756 13.011,29.328 4.815,44.438 20.945,36.337 24.399,41.021 28.599,36.468 33.381,41.325 34.869,35.221 42.219,37.538 38.954,31.216 47.099,30.603"/><polygon fill="#b5d9e2" points="41.915,25.094 47.06,21.587 41.292,19.051 44.821,15.551 39.668,14.417 42.107,9.151 36.057,9.579 35.862,3.72 29.763,6.526 25.542,1.29 21.911,6.588 16.916,4.381 16.49,9.642 11.3,7.787 11.896,13.43 5.674,13.42 8.14,18.428 3.506,21.359 10.383,24.974 7.354,29.733 13.085,29.29 4.939,44.308 20.971,36.256 24.404,40.95 28.579,36.386 33.359,41.248 34.811,35.147 42.161,37.488 38.871,31.166 47.029,30.575"/><polygon fill="#b6dae2" points="41.814,25.081 46.998,21.59 41.195,19.075 44.759,15.573 39.581,14.469 42.054,9.188 35.992,9.66 35.827,3.772 29.736,6.625 25.543,1.359 21.932,6.687 16.948,4.438 16.543,9.722 11.354,7.857 11.977,13.488 5.736,13.456 8.244,18.456 3.574,21.358 10.473,24.962 7.393,29.711 13.159,29.251 5.062,44.179 20.997,36.175 24.409,40.879 28.559,36.304 33.337,41.172 34.753,35.073 42.103,37.437 38.789,31.116 46.959,30.548"/><polygon fill="#b7dae2" points="41.713,25.067 46.935,21.593 41.097,19.098 44.698,15.596 39.493,14.52 42.001,9.226 35.926,9.741 35.793,3.825 29.709,6.725 25.543,1.428 21.952,6.787 16.98,4.496 16.597,9.803 11.407,7.927 12.058,13.545 5.798,13.492 8.348,18.483 3.641,21.356 10.564,24.949 7.432,29.688 13.233,29.212 5.186,44.049 21.024,36.095 24.414,40.808 28.539,36.222 33.315,41.096 34.695,34.999 42.045,37.387 38.706,31.066 46.889,30.52"/><polygon fill="#b8dbe3" points="41.612,25.054 46.873,21.596 41,19.122 44.636,15.618 39.406,14.572 41.948,9.264 35.861,9.822 35.758,3.877 29.681,6.825 25.543,1.496 21.973,6.886 17.012,4.554 16.65,9.884 11.461,7.997 12.14,13.603 5.86,13.528 8.452,18.51 3.709,21.355 10.654,24.937 7.472,29.666 13.307,29.174 5.309,43.919 21.05,36.014 24.42,40.737 28.519,36.14 33.293,41.02 34.637,34.924 41.988,37.337 38.624,31.016 46.819,30.492"/><polygon fill="#b9dbe3" points="41.511,25.041 46.811,21.6 40.903,19.145 44.574,15.64 39.318,14.624 41.895,9.301 35.795,9.903 35.724,3.929 29.654,6.924 25.543,1.565 21.993,6.985 17.044,4.612 16.703,9.964 11.515,8.067 12.221,13.661 5.922,13.564 8.556,18.537 3.776,21.353 10.745,24.924 7.511,29.643 13.381,29.135 5.433,43.789 21.076,35.933 24.425,40.666 28.499,36.059 33.271,40.944 34.579,34.85 41.93,37.286 38.541,30.966 46.749,30.465"/><polygon fill="#badce4" points="41.41,25.028 46.749,21.603 40.805,19.169 44.512,15.663 39.231,14.675 41.842,9.339 35.73,9.984 35.689,3.981 29.627,7.024 25.544,1.633 22.013,7.084 17.076,4.67 16.757,10.045 11.569,8.136 12.302,13.718 5.984,13.6 8.66,18.565 3.844,21.352 10.835,24.912 7.55,29.621 13.455,29.096 5.556,43.659 21.102,35.852 24.43,40.596 28.479,35.977 33.249,40.868 34.521,34.776 41.872,37.236 38.459,30.916 46.679,30.437"/><polygon fill="#bbdce4" points="41.309,25.015 46.686,21.606 40.708,19.192 44.45,15.685 39.144,14.727 41.789,9.377 35.664,10.065 35.655,4.034 29.6,7.123 25.544,1.702 22.034,7.183 17.108,4.728 16.81,10.126 11.622,8.206 12.383,13.776 6.046,13.636 8.764,18.592 3.911,21.35 10.925,24.899 7.59,29.598 13.529,29.058 5.68,43.529 21.128,35.771 24.435,40.525 28.459,35.895 33.227,40.791 34.463,34.702 41.815,37.186 38.376,30.866 46.61,30.409"/><polygon fill="#bcdde5" points="41.208,25.001 46.624,21.609 40.611,19.216 44.389,15.708 39.056,14.779 41.736,9.414 35.599,10.146 35.62,4.086 29.572,7.223 25.544,1.771 22.054,7.282 17.14,4.786 16.863,10.206 11.676,8.276 12.464,13.834 6.108,13.672 8.868,18.619 3.978,21.349 11.016,24.887 7.629,29.575 13.603,29.019 5.803,43.399 21.154,35.69 24.441,40.454 28.439,35.813 33.205,40.715 34.405,34.627 41.757,37.135 38.293,30.816 46.54,30.382"/><polygon fill="#bddde5" points="41.107,24.988 46.562,21.612 40.514,19.239 44.327,15.73 38.969,14.83 41.683,9.452 35.533,10.228 35.586,4.138 29.545,7.322 25.544,1.839 22.075,7.382 17.172,4.844 16.917,10.287 11.73,8.346 12.546,13.891 6.171,13.708 8.972,18.647 4.046,21.347 11.106,24.874 7.668,29.553 13.677,28.98 5.927,43.27 21.18,35.609 24.446,40.383 28.419,35.732 33.183,40.639 34.348,34.553 41.699,37.085 38.211,30.766 46.47,30.354"/><polygon fill="#bedee5" points="41.005,24.975 46.499,21.615 40.416,19.263 44.265,15.753 38.881,14.882 41.63,9.49 35.468,10.309 35.551,4.191 29.518,7.422 25.545,1.908 22.095,7.481 17.204,4.902 16.97,10.367 11.783,8.416 12.627,13.949 6.233,13.744 9.076,18.674 4.113,21.346 11.197,24.862 7.708,29.53 13.751,28.942 6.05,43.14 21.206,35.528 24.451,40.312 28.399,35.65 33.161,40.563 34.29,34.479 41.642,37.034 38.128,30.716 46.4,30.327"/><polygon fill="#bfdee6" points="40.904,24.962 46.437,21.618 40.319,19.286 44.203,15.775 38.794,14.933 41.577,9.527 35.402,10.39 35.517,4.243 29.491,7.521 25.545,1.976 22.116,7.58 17.236,4.96 17.023,10.448 11.837,8.485 12.708,14.006 6.295,13.78 9.18,18.701 4.181,21.344 11.287,24.849 7.747,29.508 13.825,28.903 6.173,43.01 21.233,35.447 24.456,40.241 28.378,35.568 33.139,40.487 34.232,34.405 41.584,36.984 38.046,30.666 46.33,30.299"/><polygon fill="#c0dfe6" points="40.803,24.949 46.375,21.622 40.222,19.31 44.141,15.797 38.707,14.985 41.524,9.565 35.337,10.471 35.482,4.295 29.463,7.621 25.545,2.045 22.136,7.679 17.269,5.017 17.077,10.529 11.891,8.555 12.789,14.064 6.357,13.815 9.284,18.728 4.248,21.343 11.378,24.837 7.786,29.485 13.899,28.864 6.297,42.88 21.259,35.366 24.461,40.17 28.358,35.486 33.117,40.411 34.174,34.331 41.526,36.934 37.963,30.615 46.26,30.271"/><polygon fill="#c1dfe7" points="40.702,24.935 46.313,21.625 40.125,19.333 44.08,15.82 38.619,15.037 41.471,9.603 35.271,10.552 35.448,4.348 29.436,7.721 25.546,2.114 22.156,7.778 17.301,5.075 17.13,10.609 11.945,8.625 12.871,14.122 6.419,13.851 9.388,18.756 4.316,21.341 11.468,24.824 7.826,29.463 13.973,28.826 6.42,42.75 21.285,35.285 24.467,40.099 28.338,35.405 33.095,40.334 34.116,34.256 41.469,36.883 37.881,30.565 46.19,30.244"/><polygon fill="#c2e0e7" points="40.601,24.922 46.25,21.628 40.027,19.357 44.018,15.842 38.532,15.088 41.418,9.64 35.206,10.633 35.413,4.4 29.409,7.82 25.546,2.182 22.177,7.878 17.333,5.133 17.183,10.69 11.998,8.695 12.952,14.179 6.481,13.887 9.492,18.783 4.383,21.339 11.558,24.812 7.865,29.44 14.047,28.787 6.544,42.62 21.311,35.204 24.472,40.028 28.318,35.323 33.073,40.258 34.058,34.182 41.411,36.833 37.798,30.515 46.12,30.216"/><polygon fill="#c3e0e7" points="40.5,24.909 46.188,21.631 39.93,19.38 43.956,15.865 38.444,15.14 41.365,9.678 35.14,10.714 35.378,4.452 29.382,7.92 25.546,2.251 22.197,7.977 17.365,5.191 17.237,10.771 12.052,8.765 13.033,14.237 6.543,13.923 9.596,18.81 4.45,21.338 11.649,24.8 7.904,29.417 14.121,28.748 6.667,42.49 21.337,35.123 24.477,39.957 28.298,35.241 33.051,40.182 34,34.108 41.353,36.783 37.715,30.465 46.05,30.188"/><polygon fill="#c4e1e8" points="40.399,24.896 46.126,21.634 39.833,19.404 43.894,15.887 38.357,15.192 41.312,9.716 35.075,10.795 35.344,4.505 29.354,8.019 25.546,2.319 22.218,8.076 17.397,5.249 17.29,10.851 12.106,8.834 13.114,14.295 6.605,13.959 9.7,18.838 4.518,21.336 11.739,24.787 7.944,29.395 14.195,28.71 6.791,42.361 21.363,35.042 24.482,39.886 28.278,35.159 33.029,40.106 33.942,34.034 41.295,36.732 37.633,30.415 45.98,30.161"/><polygon fill="#c5e1e8" points="40.298,24.883 46.064,21.637 39.735,19.427 43.832,15.91 38.27,15.243 41.259,9.753 35.009,10.876 35.309,4.557 29.327,8.119 25.547,2.388 22.238,8.175 17.429,5.307 17.343,10.932 12.159,8.904 13.196,14.352 6.667,13.995 9.804,18.865 4.585,21.335 11.83,24.775 7.983,29.372 14.269,28.671 6.914,42.231 21.389,34.961 24.488,39.815 28.258,35.078 33.007,40.03 33.884,33.959 41.238,36.682 37.55,30.365 45.91,30.133"/><polygon fill="#c6e2e9" points="40.197,24.87 46.001,21.64 39.638,19.451 43.77,15.932 38.182,15.295 41.206,9.791 34.944,10.957 35.275,4.609 29.3,8.218 25.547,2.457 22.258,8.274 17.461,5.365 17.397,11.013 12.213,8.974 13.277,14.41 6.729,14.031 9.908,18.892 4.653,21.333 11.92,24.762 8.022,29.35 14.343,28.632 7.038,42.101 21.415,34.88 24.493,39.744 28.238,34.996 32.985,39.953 33.826,33.885 41.18,36.632 37.468,30.315 45.84,30.105"/><polygon fill="#c7e2e9" points="40.096,24.856 45.939,21.644 39.541,19.474 43.709,15.955 38.095,15.347 41.153,9.829 34.879,11.038 35.24,4.662 29.272,8.318 25.547,2.525 22.279,8.373 17.493,5.423 17.45,11.093 12.267,9.044 13.358,14.468 6.791,14.067 10.012,18.919 4.72,21.332 12.01,24.75 8.062,29.327 14.417,28.594 7.161,41.971 21.442,34.799 24.498,39.673 28.218,34.914 32.963,39.877 33.768,33.811 41.122,36.581 37.385,30.265 45.77,30.078"/><polygon fill="#c8e3e9" points="39.995,24.843 45.877,21.647 39.444,19.498 43.647,15.977 38.007,15.398 41.1,9.866 34.813,11.119 35.206,4.714 29.245,8.417 25.547,2.594 22.299,8.473 17.525,5.481 17.503,11.174 12.321,9.114 13.439,14.525 6.854,14.103 10.116,18.947 4.787,21.33 12.101,24.737 8.101,29.305 14.491,28.555 7.285,41.841 21.468,34.718 24.503,39.602 28.198,34.832 32.941,39.801 33.71,33.737 41.065,36.531 37.303,30.215 45.7,30.05"/><polygon fill="#c9e3ea" points="39.894,24.83 45.815,21.65 39.346,19.522 43.585,15.999 37.92,15.45 41.047,9.904 34.748,11.2 35.171,4.766 29.218,8.517 25.548,2.662 22.32,8.572 17.557,5.539 17.557,11.254 12.374,9.183 13.52,14.583 6.916,14.139 10.22,18.974 4.855,21.329 12.191,24.725 8.14,29.282 14.565,28.516 7.408,41.711 21.494,34.637 24.509,39.531 28.178,34.751 32.919,39.725 33.653,33.662 41.007,36.48 37.22,30.165 45.63,30.023"/><polygon fill="#cae4ea" points="39.793,24.817 45.752,21.653 39.249,19.545 43.523,16.022 37.833,15.502 40.994,9.942 34.682,11.281 35.137,4.819 29.191,8.617 25.548,2.731 22.34,8.671 17.589,5.596 17.61,11.335 12.428,9.253 13.602,14.64 6.978,14.175 10.324,19.001 4.922,21.327 12.282,24.712 8.18,29.259 14.639,28.478 7.532,41.581 21.52,34.556 24.514,39.46 28.158,34.669 32.897,39.649 33.595,33.588 40.949,36.43 37.137,30.115 45.56,29.995"/><polygon fill="#cbe4eb" points="39.692,24.804 45.69,21.656 39.152,19.569 43.461,16.044 37.745,15.553 40.941,9.979 34.617,11.362 35.102,4.871 29.163,8.716 25.548,2.8 22.36,8.77 17.622,5.654 17.663,11.416 12.482,9.323 13.683,14.698 7.04,14.211 10.428,19.029 4.99,21.326 12.372,24.7 8.219,29.237 14.713,28.439 7.655,41.452 21.546,34.475 24.519,39.389 28.138,34.587 32.875,39.573 33.537,33.514 40.892,36.38 37.055,30.065 45.49,29.967"/><polygon fill="#cce5eb" points="39.591,24.79 45.628,21.659 39.055,19.592 43.4,16.067 37.658,15.605 40.888,10.017 34.551,11.443 35.068,4.923 29.136,8.816 25.548,2.868 22.381,8.869 17.654,5.712 17.717,11.496 12.535,9.393 13.764,14.756 7.102,14.247 10.532,19.056 5.057,21.324 12.462,24.687 8.258,29.214 14.787,28.4 7.779,41.322 21.572,34.394 24.524,39.319 28.117,34.505 32.854,39.496 33.479,33.44 40.834,36.329 36.972,30.015 45.421,29.94"/><polygon fill="#cde5eb" points="39.49,24.777 45.565,21.662 38.957,19.616 43.338,16.089 37.57,15.656 40.835,10.055 34.486,11.524 35.033,4.976 29.109,8.915 25.549,2.937 22.401,8.968 17.686,5.77 17.77,11.577 12.589,9.463 13.845,14.813 7.164,14.283 10.636,19.083 5.125,21.323 12.553,24.675 8.298,29.192 14.861,28.362 7.902,41.192 21.598,34.313 24.529,39.248 28.097,34.424 32.832,39.42 33.421,33.366 40.776,36.279 36.89,29.965 45.351,29.912"/><polygon fill="#cee6ec" points="39.389,24.764 45.503,21.666 38.86,19.639 43.276,16.112 37.483,15.708 40.782,10.092 34.42,11.605 34.999,5.028 29.082,9.015 25.549,3.005 22.422,9.068 17.718,5.828 17.823,11.658 12.643,9.532 13.927,14.871 7.226,14.318 10.74,19.11 5.192,21.321 12.643,24.662 8.337,29.169 14.935,28.323 8.026,41.062 21.624,34.232 24.535,39.177 28.077,34.342 32.81,39.344 33.363,33.291 40.719,36.229 36.807,29.915 45.281,29.884"/><polygon fill="#cfe6ec" points="39.288,24.751 45.441,21.669 38.763,19.663 43.214,16.134 37.395,15.76 40.729,10.13 34.355,11.686 34.964,5.08 29.054,9.114 25.549,3.074 22.442,9.167 17.75,5.886 17.877,11.738 12.697,9.602 14.008,14.929 7.288,14.354 10.844,19.138 5.259,21.32 12.734,24.65 8.376,29.147 15.009,28.284 8.149,40.932 21.65,34.151 24.54,39.106 28.057,34.26 32.788,39.268 33.305,33.217 40.661,36.178 36.725,29.865 45.211,29.857"/><polygon fill="#cfe7ed" points="39.187,24.738 45.379,21.672 38.666,19.686 43.152,16.157 37.308,15.811 40.676,10.168 34.289,11.767 34.93,5.133 29.027,9.214 25.55,3.143 22.463,9.266 17.782,5.944 17.93,11.819 12.75,9.672 14.089,14.986 7.35,14.39 10.948,19.165 5.327,21.318 12.824,24.638 8.416,29.124 15.083,28.246 8.272,40.802 21.677,34.07 24.545,39.035 28.037,34.178 32.766,39.192 33.247,33.143 40.603,36.128 36.642,29.815 45.141,29.829"/><polygon fill="#d0e7ed" points="39.085,24.724 45.316,21.675 38.568,19.71 43.09,16.179 37.221,15.863 40.623,10.205 34.224,11.848 34.895,5.185 29,9.313 25.55,3.211 22.483,9.365 17.814,6.002 17.983,11.9 12.804,9.742 14.17,15.044 7.412,14.426 11.053,19.192 5.394,21.317 12.915,24.625 8.455,29.101 15.157,28.207 8.396,40.672 21.703,33.989 24.55,38.964 28.017,34.097 32.744,39.116 33.189,33.069 40.545,36.078 36.559,29.764 45.071,29.801"/><polygon fill="#d1e8ee" points="38.984,24.711 45.254,21.678 38.471,19.733 43.029,16.201 37.133,15.915 40.57,10.243 34.158,11.929 34.86,5.237 28.973,9.413 25.55,3.28 22.503,9.464 17.846,6.06 18.037,11.98 12.858,9.812 14.251,15.102 7.474,14.462 11.157,19.22 5.462,21.315 13.005,24.613 8.494,29.079 15.231,28.168 8.519,40.542 21.729,33.908 24.556,38.893 27.997,34.015 32.722,39.039 33.131,32.994 40.488,36.027 36.477,29.714 45.001,29.774"/><polygon fill="#d2e8ee" points="38.883,24.698 45.192,21.681 38.374,19.757 42.967,16.224 37.046,15.966 40.517,10.281 34.093,12.01 34.826,5.289 28.945,9.513 25.55,3.348 22.524,9.564 17.878,6.118 18.09,12.061 12.911,9.881 14.333,15.159 7.536,14.498 11.261,19.247 5.529,21.314 13.095,24.6 8.534,29.056 15.305,28.13 8.643,40.413 21.755,33.827 24.561,38.822 27.977,33.933 32.7,38.963 33.073,32.92 40.43,35.977 36.394,29.664 44.931,29.746"/><polygon fill="#d3e9ee" points="38.782,24.685 45.13,21.684 38.276,19.78 42.905,16.246 36.958,16.018 40.464,10.318 34.027,12.091 34.791,5.342 28.918,9.612 25.551,3.417 22.544,9.663 17.91,6.175 18.143,12.141 12.965,9.951 14.414,15.217 7.599,14.534 11.365,19.274 5.596,21.312 13.186,24.588 8.573,29.034 15.379,28.091 8.766,40.283 21.781,33.746 24.566,38.751 27.957,33.851 32.678,38.887 33.016,32.846 40.372,35.926 36.312,29.614 44.861,29.719"/><polygon fill="#d4e9ef" points="38.681,24.672 45.067,21.687 38.179,19.804 42.843,16.269 36.871,16.07 40.411,10.356 33.962,12.172 34.757,5.394 28.891,9.712 25.551,3.486 22.565,9.762 17.942,6.233 18.197,12.222 13.019,10.021 14.495,15.274 7.661,14.57 11.469,19.301 5.664,21.31 13.276,24.575 8.612,29.011 15.453,28.052 8.89,40.153 21.807,33.665 24.571,38.68 27.937,33.77 32.656,38.811 32.958,32.772 40.315,35.876 36.229,29.564 44.791,29.691"/><polygon fill="#d5eaef" points="38.58,24.659 45.005,21.691 38.082,19.827 42.781,16.291 36.784,16.121 40.358,10.394 33.896,12.253 34.722,5.446 28.863,9.811 25.551,3.554 22.585,9.861 17.975,6.291 18.25,12.303 13.073,10.091 14.576,15.332 7.723,14.606 11.573,19.329 5.731,21.309 13.367,24.563 8.652,28.989 15.527,28.014 9.013,40.023 21.833,33.585 24.577,38.609 27.917,33.688 32.634,38.735 32.9,32.697 40.257,35.826 36.147,29.514 44.721,29.663"/><polygon fill="#d6eaf0" points="38.479,24.645 44.943,21.694 37.985,19.851 42.72,16.314 36.696,16.173 40.305,10.431 33.831,12.334 34.688,5.499 28.836,9.911 25.551,3.623 22.605,9.96 18.007,6.349 18.303,12.383 13.126,10.161 14.658,15.39 7.785,14.642 11.677,19.356 5.799,21.307 13.457,24.55 8.691,28.966 15.601,27.975 9.137,39.893 21.859,33.504 24.582,38.538 27.897,33.606 32.612,38.658 32.842,32.623 40.199,35.775 36.064,29.464 44.651,29.636"/><polygon fill="#d7ebf0" points="38.378,24.632 44.881,21.697 37.887,19.874 42.658,16.336 36.609,16.225 40.251,10.469 33.765,12.415 34.653,5.551 28.809,10.01 25.552,3.691 22.626,10.059 18.039,6.407 18.357,12.464 13.18,10.23 14.739,15.447 7.847,14.678 11.781,19.383 5.866,21.306 13.547,24.538 8.73,28.943 15.675,27.936 9.26,39.763 21.886,33.423 24.587,38.467 27.877,33.524 32.59,38.582 32.784,32.549 40.142,35.725 35.981,29.414 44.581,29.608"/><polygon fill="#d8ebf0" points="38.277,24.619 44.818,21.7 37.79,19.898 42.596,16.359 36.521,16.276 40.198,10.507 33.7,12.496 34.619,5.603 28.782,10.11 25.552,3.76 22.646,10.159 18.071,6.465 18.41,12.545 13.234,10.3 14.82,15.505 7.909,14.714 11.885,19.411 5.934,21.304 13.638,24.525 8.77,28.921 15.749,27.898 9.384,39.633 21.912,33.342 24.592,38.396 27.856,33.443 32.568,38.506 32.726,32.475 40.084,35.675 35.899,29.364 44.511,29.58"/><polygon fill="#d9ecf1" points="38.176,24.606 44.756,21.703 37.693,19.921 42.534,16.381 36.434,16.328 40.145,10.544 33.634,12.577 34.584,5.656 28.754,10.21 25.552,3.829 22.667,10.258 18.103,6.523 18.463,12.625 13.287,10.37 14.901,15.563 7.971,14.75 11.989,19.438 6.001,21.303 13.728,24.513 8.809,28.898 15.823,27.859 9.507,39.504 21.938,33.261 24.597,38.325 27.836,33.361 32.546,38.43 32.668,32.401 40.026,35.624 35.816,29.314 44.441,29.553"/><polygon fill="#daecf1" points="38.075,24.593 44.694,21.706 37.596,19.945 42.472,16.403 36.347,16.379 40.092,10.582 33.569,12.658 34.55,5.708 28.727,10.309 25.553,3.897 22.687,10.357 18.135,6.581 18.517,12.706 13.341,10.44 14.982,15.62 8.033,14.785 12.093,19.465 6.068,21.301 13.819,24.5 8.848,28.876 15.897,27.82 9.631,39.374 21.964,33.18 24.603,38.254 27.816,33.279 32.524,38.354 32.61,32.326 39.969,35.574 35.734,29.264 44.371,29.525"/><polygon fill="#dbedf2" points="37.974,24.579 44.631,21.709 37.498,19.968 42.411,16.426 36.259,16.431 40.039,10.62 33.503,12.739 34.515,5.76 28.7,10.409 25.553,3.966 22.707,10.456 18.167,6.639 18.57,12.787 13.395,10.51 15.064,15.678 8.095,14.821 12.197,19.492 6.136,21.3 13.909,24.488 8.888,28.853 15.971,27.782 9.754,39.244 21.99,33.099 24.608,38.183 27.796,33.197 32.502,38.278 32.552,32.252 39.911,35.524 35.651,29.214 44.301,29.497"/><polygon fill="#dcedf2" points="37.873,24.566 44.569,21.713 37.401,19.992 42.349,16.448 36.172,16.483 39.986,10.657 33.438,12.82 34.481,5.813 28.673,10.508 25.553,4.035 22.728,10.555 18.199,6.697 18.623,12.867 13.449,10.579 15.145,15.736 8.157,14.857 12.301,19.52 6.203,21.298 14,24.476 8.927,28.831 16.045,27.743 9.878,39.114 22.016,33.018 24.613,38.112 27.776,33.116 32.48,38.201 32.494,32.178 39.853,35.473 35.569,29.164 44.232,29.47"/><polygon fill="#ddeef2" points="37.772,24.553 44.507,21.716 37.304,20.015 42.287,16.471 36.084,16.534 39.933,10.695 33.372,12.901 34.446,5.865 28.645,10.608 25.553,4.103 22.748,10.655 18.231,6.754 18.676,12.948 13.502,10.649 15.226,15.793 8.219,14.893 12.405,19.547 6.271,21.297 14.09,24.463 8.966,28.808 16.119,27.704 10.001,38.984 22.042,32.937 24.618,38.042 27.756,33.034 32.458,38.125 32.436,32.104 39.795,35.423 35.486,29.114 44.162,29.442"/><polygon fill="#deeef3" points="37.671,24.54 44.445,21.719 37.207,20.039 42.225,16.493 35.997,16.586 39.88,10.733 33.307,12.982 34.412,5.917 28.618,10.707 25.554,4.172 22.769,10.754 18.263,6.812 18.73,13.029 13.556,10.719 15.307,15.851 8.281,14.929 12.509,19.574 6.338,21.295 14.18,24.451 9.006,28.785 16.193,27.666 10.125,38.854 22.068,32.856 24.624,37.971 27.736,32.952 32.436,38.049 32.378,32.029 39.738,35.372 35.403,29.064 44.092,29.415"/><polygon fill="#dfeff3" points="37.57,24.527 44.382,21.722 37.109,20.062 42.163,16.516 35.91,16.638 39.827,10.77 33.241,13.063 34.377,5.97 28.591,10.807 25.554,4.24 22.789,10.853 18.295,6.87 18.783,13.109 13.61,10.789 15.389,15.908 8.344,14.965 12.613,19.602 6.406,21.294 14.271,24.438 9.045,28.763 16.267,27.627 10.248,38.724 22.094,32.775 24.629,37.9 27.716,32.87 32.414,37.973 32.321,31.955 39.68,35.322 35.321,29.014 44.022,29.387"/><polygon fill="#e0eff4" points="37.469,24.513 44.32,21.725 37.012,20.086 42.101,16.538 35.822,16.689 39.774,10.808 33.176,13.144 34.343,6.022 28.564,10.906 25.554,4.309 22.81,10.952 18.328,6.928 18.836,13.19 13.663,10.859 15.47,15.966 8.406,15.001 12.717,19.629 6.473,21.292 14.361,24.426 9.084,28.74 16.341,27.588 10.371,38.595 22.121,32.694 24.634,37.829 27.696,32.789 32.392,37.897 32.263,31.881 39.622,35.272 35.238,28.963 43.952,29.359"/><polygon fill="#e1f0f4" points="37.368,24.5 44.258,21.728 36.915,20.109 42.04,16.56 35.735,16.741 39.721,10.846 33.11,13.225 34.308,6.074 28.536,11.006 25.554,4.378 22.83,11.051 18.36,6.986 18.89,13.27 13.717,10.928 15.551,16.024 8.468,15.037 12.821,19.656 6.54,21.291 14.452,24.413 9.124,28.718 16.415,27.55 10.495,38.465 22.147,32.613 24.639,37.758 27.676,32.707 32.37,37.821 32.205,31.807 39.565,35.221 35.156,28.913 43.882,29.332"/><polygon fill="#e2f0f4" points="37.267,24.487 44.196,21.731 36.817,20.133 41.978,16.583 35.647,16.793 39.668,10.884 33.045,13.306 34.273,6.127 28.509,11.106 25.555,4.446 22.85,11.15 18.392,7.044 18.943,13.351 13.771,10.998 15.632,16.081 8.53,15.073 12.925,19.683 6.608,21.289 14.542,24.401 9.163,28.695 16.489,27.511 10.618,38.335 22.173,32.532 24.645,37.687 27.656,32.625 32.348,37.744 32.147,31.732 39.507,35.171 35.073,28.863 43.812,29.304"/><polygon fill="#e3f1f5" points="37.166,24.474 44.133,21.735 36.72,20.156 41.916,16.605 35.56,16.844 39.615,10.921 32.98,13.387 34.239,6.179 28.482,11.205 25.555,4.515 22.871,11.25 18.424,7.102 18.996,13.432 13.825,11.068 15.714,16.139 8.592,15.109 13.029,19.711 6.675,21.288 14.632,24.388 9.202,28.673 16.563,27.472 10.742,38.205 22.199,32.451 24.65,37.616 27.636,32.543 32.326,37.668 32.089,31.658 39.449,35.121 34.991,28.813 43.742,29.276"/><polygon fill="#e4f1f5" points="37.064,24.461 44.071,21.738 36.623,20.18 41.854,16.628 35.472,16.896 39.562,10.959 32.914,13.468 34.204,6.231 28.454,11.305 25.555,4.583 22.891,11.349 18.456,7.16 19.05,13.512 13.878,11.138 15.795,16.197 8.654,15.145 13.133,19.738 6.743,21.286 14.723,24.376 9.242,28.65 16.637,27.434 10.865,38.075 22.225,32.37 24.655,37.545 27.616,32.462 32.304,37.592 32.031,31.584 39.392,35.07 34.908,28.763 43.672,29.249"/><polygon fill="#e5f2f6" points="36.963,24.448 44.009,21.741 36.526,20.203 41.792,16.65 35.385,16.947 39.509,10.997 32.849,13.549 34.17,6.284 28.427,11.404 25.556,4.652 22.912,11.448 18.488,7.218 19.103,13.593 13.932,11.208 15.876,16.254 8.716,15.181 13.237,19.765 6.81,21.285 14.813,24.363 9.281,28.627 16.711,27.395 10.989,37.945 22.251,32.289 24.66,37.474 27.595,32.38 32.282,37.516 31.973,31.51 39.334,35.02 34.825,28.713 43.602,29.221"/><polygon fill="#e6f2f6" points="36.862,24.434 43.947,21.744 36.428,20.227 41.731,16.673 35.298,16.999 39.456,11.034 32.783,13.63 34.135,6.336 28.4,11.504 25.556,4.721 22.932,11.547 18.52,7.276 19.156,13.674 13.986,11.277 15.957,16.312 8.778,15.217 13.341,19.793 6.877,21.283 14.904,24.351 9.32,28.605 16.785,27.356 11.112,37.815 22.277,32.208 24.666,37.403 27.575,32.298 32.26,37.44 31.915,31.436 39.276,34.97 34.743,28.663 43.532,29.193"/><polygon fill="#e7f3f7" points="36.761,24.421 43.884,21.747 36.331,20.25 41.669,16.695 35.21,17.051 39.403,11.072 32.718,13.711 34.101,6.388 28.373,11.603 25.556,4.789 22.952,11.646 18.552,7.333 19.21,13.754 14.039,11.347 16.038,16.37 8.84,15.253 13.445,19.82 6.945,21.282 14.994,24.339 9.36,28.582 16.859,27.318 11.236,37.686 22.303,32.127 24.671,37.332 27.555,32.216 32.238,37.363 31.857,31.361 39.218,34.919 34.66,28.613 43.462,29.166"/><polygon fill="#e8f3f7" points="36.66,24.408 43.822,21.75 36.234,20.274 41.607,16.718 35.123,17.102 39.35,11.11 32.652,13.792 34.066,6.441 28.345,11.703 25.556,4.858 22.973,11.746 18.584,7.391 19.263,13.835 14.093,11.417 16.12,16.427 8.902,15.288 13.549,19.847 7.012,21.28 15.084,24.326 9.399,28.56 16.933,27.279 11.359,37.556 22.33,32.046 24.676,37.261 27.535,32.135 32.216,37.287 31.799,31.287 39.161,34.869 34.578,28.563 43.392,29.138"/><polygon fill="#e9f4f7" points="36.559,24.395 43.76,21.753 36.137,20.297 41.545,16.74 35.035,17.154 39.297,11.147 32.587,13.873 34.032,6.493 28.318,11.802 25.557,4.926 22.993,11.845 18.616,7.449 19.316,13.916 14.147,11.487 16.201,16.485 8.964,15.324 13.653,19.874 7.08,21.278 15.175,24.314 9.438,28.537 17.007,27.24 11.483,37.426 22.356,31.965 24.681,37.19 27.515,32.053 32.194,37.211 31.741,31.213 39.103,34.818 34.495,28.513 43.322,29.111"/><polygon fill="#eaf4f8" points="36.458,24.382 43.697,21.757 36.039,20.321 41.483,16.762 34.948,17.206 39.244,11.185 32.521,13.954 33.997,6.545 28.291,11.902 25.557,4.995 23.014,11.944 18.648,7.507 19.37,13.996 14.201,11.557 16.282,16.542 9.027,15.36 13.757,19.902 7.147,21.277 15.265,24.301 9.478,28.515 17.081,27.202 11.606,37.296 22.382,31.884 24.686,37.119 27.495,31.971 32.172,37.135 31.683,31.139 39.045,34.768 34.413,28.463 43.252,29.083"/><polygon fill="#ebf5f8" points="36.357,24.368 43.635,21.76 35.942,20.344 41.422,16.785 34.861,17.257 39.191,11.223 32.456,14.035 33.963,6.597 28.264,12.002 25.557,5.064 23.034,12.043 18.681,7.565 19.423,14.077 14.254,11.626 16.363,16.6 9.089,15.396 13.861,19.929 7.215,21.275 15.356,24.289 9.517,28.492 17.155,27.163 11.73,37.166 22.408,31.803 24.692,37.048 27.475,31.889 32.15,37.059 31.626,31.064 38.988,34.718 34.33,28.413 43.182,29.055"/><polygon fill="#ecf5f9" points="36.256,24.355 43.573,21.763 35.845,20.368 41.36,16.807 34.773,17.309 39.138,11.26 32.39,14.116 33.928,6.65 28.236,12.101 25.557,5.132 23.054,12.142 18.713,7.623 19.476,14.157 14.308,11.696 16.445,16.658 9.151,15.432 13.965,19.956 7.282,21.274 15.446,24.276 9.556,28.469 17.229,27.124 11.853,37.036 22.434,31.722 24.697,36.977 27.455,31.808 32.128,36.983 31.568,30.99 38.93,34.667 34.247,28.363 43.112,29.028"/><polygon fill="#edf6f9" points="36.155,24.342 43.511,21.766 35.748,20.391 41.298,16.83 34.686,17.361 39.085,11.298 32.325,14.197 33.894,6.702 28.209,12.201 25.558,5.201 23.075,12.241 18.745,7.681 19.53,14.238 14.362,11.766 16.526,16.715 9.213,15.468 14.07,19.984 7.349,21.272 15.537,24.264 9.596,28.447 17.303,27.086 11.977,36.906 22.46,31.641 24.702,36.906 27.435,31.726 32.106,36.906 31.51,30.916 38.872,34.617 34.165,28.313 43.043,29"/><radialGradient id="DN54O3Weu3fgrzm7i1t8da" cx="247.552" cy="-301.676" r="6.531" gradientTransform="matrix(0 -2.3301 2.3899 0 747.246 597.884)" gradientUnits="userSpaceOnUse"><stop offset=".425" stop-color="#fff"/><stop offset="1" stop-color="#fff" stop-opacity="0"/></radialGradient><ellipse cx="26.284" cy="21.058" fill="url(#DN54O3Weu3fgrzm7i1t8da)" rx="15.609" ry="15.219"/></svg>