<svg xmlns="http://www.w3.org/2000/svg"  viewBox="0 0 48 48" width="48px" height="48px"><path fill="none" stroke="#42caff" stroke-linecap="round" stroke-linejoin="round" stroke-miterlimit="10" stroke-width="2.583" d="M36.292,38.553C42.242,36.388,46.5,30.699,46.5,24S42.242,11.612,36.292,9.447" opacity=".167"/><path fill="none" stroke="#42caff" stroke-linecap="round" stroke-linejoin="round" stroke-miterlimit="10" stroke-width="2.167" d="M36.292,38.553C42.242,36.388,46.5,30.699,46.5,24S42.242,11.612,36.292,9.447" opacity=".333"/><path fill="none" stroke="#42caff" stroke-linecap="round" stroke-linejoin="round" stroke-miterlimit="10" stroke-width="1.75" d="M36.292,38.553C42.242,36.388,46.5,30.699,46.5,24S42.242,11.612,36.292,9.447" opacity=".5"/><path fill="none" stroke="#42caff" stroke-linecap="round" stroke-linejoin="round" stroke-miterlimit="10" stroke-width="1.333" d="M36.292,38.553C42.242,36.388,46.5,30.699,46.5,24S42.242,11.612,36.292,9.447" opacity=".667"/><path fill="none" stroke="#42caff" stroke-linecap="round" stroke-linejoin="round" stroke-miterlimit="10" stroke-width=".917" d="M36.292,38.553C42.242,36.388,46.5,30.699,46.5,24S42.242,11.612,36.292,9.447" opacity=".833"/><path fill="none" stroke="#42caff" stroke-linecap="round" stroke-linejoin="round" stroke-miterlimit="10" stroke-width=".5" d="M36.292,38.553C42.242,36.388,46.5,30.699,46.5,24S42.242,11.612,36.292,9.447"/><path fill="none" stroke="#42caff" stroke-linecap="round" stroke-linejoin="round" stroke-miterlimit="10" stroke-width="2.583" d="M35.135,34.5C39.428,32.938,42.5,28.833,42.5,24s-3.072-8.938-7.365-10.5" opacity=".167"/><path fill="none" stroke="#42caff" stroke-linecap="round" stroke-linejoin="round" stroke-miterlimit="10" stroke-width="2.167" d="M35.135,34.5C39.428,32.938,42.5,28.833,42.5,24s-3.072-8.938-7.365-10.5" opacity=".333"/><path fill="none" stroke="#42caff" stroke-linecap="round" stroke-linejoin="round" stroke-miterlimit="10" stroke-width="1.75" d="M35.135,34.5C39.428,32.938,42.5,28.833,42.5,24s-3.072-8.938-7.365-10.5" opacity=".5"/><path fill="none" stroke="#42caff" stroke-linecap="round" stroke-linejoin="round" stroke-miterlimit="10" stroke-width="1.333" d="M35.135,34.5C39.428,32.938,42.5,28.833,42.5,24s-3.072-8.938-7.365-10.5" opacity=".667"/><path fill="none" stroke="#42caff" stroke-linecap="round" stroke-linejoin="round" stroke-miterlimit="10" stroke-width=".917" d="M35.135,34.5C39.428,32.938,42.5,28.833,42.5,24s-3.072-8.938-7.365-10.5" opacity=".833"/><path fill="none" stroke="#42caff" stroke-linecap="round" stroke-linejoin="round" stroke-miterlimit="10" stroke-width=".5" d="M35.135,34.5C39.428,32.938,42.5,28.833,42.5,24s-3.072-8.938-7.365-10.5"/><path fill="none" stroke="#42caff" stroke-linecap="round" stroke-linejoin="round" stroke-miterlimit="10" stroke-width="2.583" d="M34.291,30c2.453-0.893,4.209-3.238,4.209-6s-1.755-5.107-4.209-6" opacity=".167"/><path fill="none" stroke="#42caff" stroke-linecap="round" stroke-linejoin="round" stroke-miterlimit="10" stroke-width="2.167" d="M34.291,30c2.453-0.893,4.209-3.238,4.209-6s-1.755-5.107-4.209-6" opacity=".333"/><path fill="none" stroke="#42caff" stroke-linecap="round" stroke-linejoin="round" stroke-miterlimit="10" stroke-width="1.75" d="M34.291,30c2.453-0.893,4.209-3.238,4.209-6s-1.755-5.107-4.209-6" opacity=".5"/><path fill="none" stroke="#42caff" stroke-linecap="round" stroke-linejoin="round" stroke-miterlimit="10" stroke-width="1.333" d="M34.291,30c2.453-0.893,4.209-3.238,4.209-6s-1.755-5.107-4.209-6" opacity=".667"/><path fill="none" stroke="#42caff" stroke-linecap="round" stroke-linejoin="round" stroke-miterlimit="10" stroke-width=".917" d="M34.291,30c2.453-0.893,4.209-3.238,4.209-6s-1.755-5.107-4.209-6" opacity=".833"/><path fill="none" stroke="#42caff" stroke-linecap="round" stroke-linejoin="round" stroke-miterlimit="10" stroke-width=".5" d="M34.291,30c2.453-0.893,4.209-3.238,4.209-6s-1.755-5.107-4.209-6"/><radialGradient id="HQdeQ1Iv6koro4amOQqVWa" cx="35.014" cy="23.988" r="7.646" gradientUnits="userSpaceOnUse"><stop offset="0" stop-color="gray"/><stop offset=".606" stop-color="#292929"/></radialGradient><circle cx="31" cy="24" r="4" fill="url(#HQdeQ1Iv6koro4amOQqVWa)"/><linearGradient id="HQdeQ1Iv6koro4amOQqVWb" x1="16.5" x2="16.5" y1="13.824" y2="34.207" gradientUnits="userSpaceOnUse"><stop offset="0" stop-color="#878787"/><stop offset=".357" stop-color="#d4d4d4"/><stop offset=".645" stop-color="#878787"/><stop offset=".836" stop-color="#878787"/><stop offset="1" stop-color="#a3a3a3"/></linearGradient><path fill="url(#HQdeQ1Iv6koro4amOQqVWb)" d="M21,14h-7c-1.105,0-2,0.895-2,2v16c0,1.105,0.895,2,2,2h7V14z"/><g><polygon fill="#737373" points="30,27 21,27 21,34 30,44"/><polygon fill="#747474" points="30,27.213 21,27.128 21,34 30,44"/><polygon fill="#757575" points="30,27.426 21,27.255 21,34 30,44"/><polygon fill="#767676" points="30,27.638 21,27.383 21,34 30,44"/><polygon fill="#777" points="30,27.851 21,27.511 21,34 30,44"/><polygon fill="#787878" points="30,28.064 21,27.638 21,34 30,44"/><polygon fill="#797979" points="30,28.277 21,27.766 21,34 30,44"/><polygon fill="#7a7a7a" points="30,28.489 21,27.894 21,34 30,44"/><polygon fill="#7b7b7b" points="30,28.702 21,28.021 21,34 30,44"/><polygon fill="#7c7c7c" points="30,28.915 21,28.149 21,34 30,44"/><polygon fill="#7d7d7d" points="30,29.128 21,28.277 21,34 30,44"/><polygon fill="#7e7e7e" points="30,29.34 21,28.404 21,34 30,44"/><polygon fill="#7f7f7f" points="30,29.553 21,28.532 21,34 30,44"/><polygon fill="gray" points="30,29.766 21,28.66 21,34 30,44"/><polygon fill="#818181" points="30,29.979 21,28.787 21,34 30,44"/><polygon fill="#828282" points="30,30.191 21,28.915 21,34 30,44"/><polygon fill="#838383" points="30,30.404 21,29.043 21,34 30,44"/><polygon fill="#848484" points="30,30.617 21,29.17 21,34 30,44"/><polygon fill="#858585" points="30,30.83 21,29.298 21,34 30,44"/><polygon fill="#868686" points="30,31.043 21,29.426 21,34 30,44"/><polygon fill="#878787" points="30,31.255 21,29.553 21,34 30,44"/><polygon fill="#888" points="30,31.468 21,29.681 21,34 30,44"/><polygon fill="#898989" points="30,31.681 21,29.809 21,34 30,44"/><polygon fill="#8a8a8a" points="30,31.894 21,29.936 21,34 30,44"/><polygon fill="#8a8a8a" points="30,32.106 21,30.064 21,34 30,44"/><polygon fill="#8b8b8b" points="30,32.319 21,30.191 21,34 30,44"/><polygon fill="#8c8c8c" points="30,32.532 21,30.319 21,34 30,44"/><polygon fill="#8d8d8d" points="30,32.745 21,30.447 21,34 30,44"/><polygon fill="#8e8e8e" points="30,32.957 21,30.574 21,34 30,44"/><polygon fill="#8f8f8f" points="30,33.17 21,30.702 21,34 30,44"/><polygon fill="#909090" points="30,33.383 21,30.83 21,34 30,44"/><polygon fill="#919191" points="30,33.596 21,30.957 21,34 30,44"/><polygon fill="#929292" points="30,33.809 21,31.085 21,34 30,44"/><polygon fill="#939393" points="30,34.021 21,31.213 21,34 30,44"/><polygon fill="#949494" points="30,34.234 21,31.34 21,34 30,44"/><polygon fill="#959595" points="30,34.447 21,31.468 21,34 30,44"/><polygon fill="#969696" points="30,34.66 21,31.596 21,34 30,44"/><polygon fill="#979797" points="30,34.872 21,31.723 21,34 30,44"/><polygon fill="#989898" points="30,35.085 21,31.851 21,34 30,44"/><polygon fill="#999" points="30,35.298 21,31.979 21,34 30,44"/><polygon fill="#9a9a9a" points="30,35.511 21,32.106 21,34 30,44"/><polygon fill="#9b9b9b" points="30,35.723 21,32.234 21,34 30,44"/><polygon fill="#9c9c9c" points="30,35.936 21,32.362 21,34 30,44"/><polygon fill="#9d9d9d" points="30,36.149 21,32.489 21,34 30,44"/><polygon fill="#9e9e9e" points="30,36.362 21,32.617 21,34 30,44"/><polygon fill="#9f9f9f" points="30,36.574 21,32.745 21,34 30,44"/><polygon fill="#a0a0a0" points="30,36.787 21,32.872 21,34 30,44"/><polygon fill="#a1a1a1" points="30,37 21,33 21,34 30,44"/></g><g><polygon fill="#737373" points="30,4 21,14 21,27 30,27"/><polygon fill="#747474" points="30,4.102 21,14.061 21,26.939 30,26.939"/><polygon fill="#757575" points="30,4.204 21,14.122 21,26.878 30,26.878"/><polygon fill="#767676" points="30,4.306 21,14.184 21,26.816 30,26.816"/><polygon fill="#777" points="30,4.408 21,14.245 21,26.755 30,26.755"/><polygon fill="#787878" points="30,4.51 21,14.306 21,26.694 30,26.694"/><polygon fill="#797979" points="30,4.612 21,14.367 21,26.633 30,26.633"/><polygon fill="#7a7a7a" points="30,4.714 21,14.429 21,26.571 30,26.571"/><polygon fill="#7b7b7b" points="30,4.816 21,14.49 21,26.51 30,26.51"/><polygon fill="#7c7c7c" points="30,4.918 21,14.551 21,26.449 30,26.449"/><polygon fill="#7d7d7d" points="30,5.02 21,14.612 21,26.388 30,26.388"/><polygon fill="#7e7e7e" points="30,5.122 21,14.673 21,26.327 30,26.327"/><polygon fill="#7f7f7f" points="30,5.224 21,14.735 21,26.265 30,26.265"/><polygon fill="gray" points="30,5.327 21,14.796 21,26.204 30,26.204"/><polygon fill="#818181" points="30,5.429 21,14.857 21,26.143 30,26.143"/><polygon fill="#828282" points="30,5.531 21,14.918 21,26.082 30,26.082"/><polygon fill="#838383" points="30,5.633 21,14.98 21,26.02 30,26.02"/><polygon fill="#848484" points="30,5.735 21,15.041 21,25.959 30,25.959"/><polygon fill="#858585" points="30,5.837 21,15.102 21,25.898 30,25.898"/><polygon fill="#868686" points="30,5.939 21,15.163 21,25.837 30,25.837"/><polygon fill="#878787" points="30,6.041 21,15.224 21,25.776 30,25.776"/><polygon fill="#888" points="30,6.143 21,15.286 21,25.714 30,25.714"/><polygon fill="#898989" points="30,6.245 21,15.347 21,25.653 30,25.653"/><polygon fill="#8a8a8a" points="30,6.347 21,15.408 21,25.592 30,25.592"/><polygon fill="#8b8b8b" points="30,6.449 21,15.469 21,25.531 30,25.531"/><polygon fill="#8c8c8c" points="30,6.551 21,15.531 21,25.469 30,25.469"/><polygon fill="#8d8d8d" points="30,6.653 21,15.592 21,25.408 30,25.408"/><polygon fill="#8e8e8e" points="30,6.755 21,15.653 21,25.347 30,25.347"/><polygon fill="#8f8f8f" points="30,6.857 21,15.714 21,25.286 30,25.286"/><polygon fill="#909090" points="30,6.959 21,15.776 21,25.224 30,25.224"/><polygon fill="#919191" points="30,7.061 21,15.837 21,25.163 30,25.163"/><polygon fill="#929292" points="30,7.163 21,15.898 21,25.102 30,25.102"/><polygon fill="#939393" points="30,7.265 21,15.959 21,25.041 30,25.041"/><polygon fill="#949494" points="30,7.367 21,16.02 21,24.98 30,24.98"/><polygon fill="#959595" points="30,7.469 21,16.082 21,24.918 30,24.918"/><polygon fill="#969696" points="30,7.571 21,16.143 21,24.857 30,24.857"/><polygon fill="#979797" points="30,7.673 21,16.204 21,24.796 30,24.796"/><polygon fill="#989898" points="30,7.776 21,16.265 21,24.735 30,24.735"/><polygon fill="#999" points="30,7.878 21,16.327 21,24.673 30,24.673"/><polygon fill="#9a9a9a" points="30,7.98 21,16.388 21,24.612 30,24.612"/><polygon fill="#9b9b9b" points="30,8.082 21,16.449 21,24.551 30,24.551"/><polygon fill="#9c9c9c" points="30,8.184 21,16.51 21,24.49 30,24.49"/><polygon fill="#9d9d9d" points="30,8.286 21,16.571 21,24.429 30,24.429"/><polygon fill="#9e9e9e" points="30,8.388 21,16.633 21,24.367 30,24.367"/><polygon fill="#9f9f9f" points="30,8.49 21,16.694 21,24.306 30,24.306"/><polygon fill="#a0a0a0" points="30,8.592 21,16.755 21,24.245 30,24.245"/><polygon fill="#a1a1a1" points="30,8.694 21,16.816 21,24.184 30,24.184"/><polygon fill="#a2a2a2" points="30,8.796 21,16.878 21,24.122 30,24.122"/><polygon fill="#a3a3a3" points="30,8.898 21,16.939 21,24.061 30,24.061"/><polygon fill="#a4a4a4" points="30,9 21,17 21,24 30,24"/><polygon fill="#a4a4a4" points="30,9.102 21,17.061 21,23.939 30,23.939"/><polygon fill="#a5a5a5" points="30,9.204 21,17.122 21,23.878 30,23.878"/><polygon fill="#a6a6a6" points="30,9.306 21,17.184 21,23.816 30,23.816"/><polygon fill="#a7a7a7" points="30,9.408 21,17.245 21,23.755 30,23.755"/><polygon fill="#a8a8a8" points="30,9.51 21,17.306 21,23.694 30,23.694"/><polygon fill="#a9a9a9" points="30,9.612 21,17.367 21,23.633 30,23.633"/><polygon fill="#aaa" points="30,9.714 21,17.429 21,23.571 30,23.571"/><polygon fill="#ababab" points="30,9.816 21,17.49 21,23.51 30,23.51"/><polygon fill="#acacac" points="30,9.918 21,17.551 21,23.449 30,23.449"/><polygon fill="#adadad" points="30,10.02 21,17.612 21,23.388 30,23.388"/><polygon fill="#aeaeae" points="30,10.122 21,17.673 21,23.327 30,23.327"/><polygon fill="#afafaf" points="30,10.224 21,17.735 21,23.265 30,23.265"/><polygon fill="#b0b0b0" points="30,10.327 21,17.796 21,23.204 30,23.204"/><polygon fill="#b1b1b1" points="30,10.429 21,17.857 21,23.143 30,23.143"/><polygon fill="#b2b2b2" points="30,10.531 21,17.918 21,23.082 30,23.082"/><polygon fill="#b3b3b3" points="30,10.633 21,17.98 21,23.02 30,23.02"/><polygon fill="#b4b4b4" points="30,10.735 21,18.041 21,22.959 30,22.959"/><polygon fill="#b5b5b5" points="30,10.837 21,18.102 21,22.898 30,22.898"/><polygon fill="#b6b6b6" points="30,10.939 21,18.163 21,22.837 30,22.837"/><polygon fill="#b7b7b7" points="30,11.041 21,18.224 21,22.776 30,22.776"/><polygon fill="#b8b8b8" points="30,11.143 21,18.286 21,22.714 30,22.714"/><polygon fill="#b9b9b9" points="30,11.245 21,18.347 21,22.653 30,22.653"/><polygon fill="#bababa" points="30,11.347 21,18.408 21,22.592 30,22.592"/><polygon fill="#bbb" points="30,11.449 21,18.469 21,22.531 30,22.531"/><polygon fill="#bcbcbc" points="30,11.551 21,18.531 21,22.469 30,22.469"/><polygon fill="#bdbdbd" points="30,11.653 21,18.592 21,22.408 30,22.408"/><polygon fill="#bebebe" points="30,11.755 21,18.653 21,22.347 30,22.347"/><polygon fill="#bfbfbf" points="30,11.857 21,18.714 21,22.286 30,22.286"/><polygon fill="silver" points="30,11.959 21,18.776 21,22.224 30,22.224"/><polygon fill="#c1c1c1" points="30,12.061 21,18.837 21,22.163 30,22.163"/><polygon fill="#c2c2c2" points="30,12.163 21,18.898 21,22.102 30,22.102"/><polygon fill="#c3c3c3" points="30,12.265 21,18.959 21,22.041 30,22.041"/><polygon fill="#c4c4c4" points="30,12.367 21,19.02 21,21.98 30,21.98"/><polygon fill="#c5c5c5" points="30,12.469 21,19.082 21,21.918 30,21.918"/><polygon fill="#c6c6c6" points="30,12.571 21,19.143 21,21.857 30,21.857"/><polygon fill="#c7c7c7" points="30,12.673 21,19.204 21,21.796 30,21.796"/><polygon fill="#c8c8c8" points="30,12.776 21,19.265 21,21.735 30,21.735"/><polygon fill="#c9c9c9" points="30,12.878 21,19.327 21,21.673 30,21.673"/><polygon fill="#cacaca" points="30,12.98 21,19.388 21,21.612 30,21.612"/><polygon fill="#cbcbcb" points="30,13.082 21,19.449 21,21.551 30,21.551"/><polygon fill="#ccc" points="30,13.184 21,19.51 21,21.49 30,21.49"/><polygon fill="#cdcdcd" points="30,13.286 21,19.571 21,21.429 30,21.429"/><polygon fill="#cecece" points="30,13.388 21,19.633 21,21.367 30,21.367"/><polygon fill="#cfcfcf" points="30,13.49 21,19.694 21,21.306 30,21.306"/><polygon fill="#d0d0d0" points="30,13.592 21,19.755 21,21.245 30,21.245"/><polygon fill="#d1d1d1" points="30,13.694 21,19.816 21,21.184 30,21.184"/><polygon fill="#d2d2d2" points="30,13.796 21,19.878 21,21.122 30,21.122"/><polygon fill="#d3d3d3" points="30,13.898 21,19.939 21,21.061 30,21.061"/><polygon fill="#d4d4d4" points="30,14 21,20 21,21 30,21"/></g><linearGradient id="HQdeQ1Iv6koro4amOQqVWc" x1="31" x2="31" y1="2.631" y2="45.436" gradientUnits="userSpaceOnUse"><stop offset="0" stop-color="#878787"/><stop offset=".255" stop-color="#d4d4d4"/><stop offset=".563" stop-color="#878787"/><stop offset=".75" stop-color="#878787"/><stop offset="1" stop-color="#a3a3a3"/></linearGradient><path fill="url(#HQdeQ1Iv6koro4amOQqVWc)" d="M31,3L31,3c-0.552,0-1,0.448-1,1v40c0,0.552,0.448,1,1,1h0c0.552,0,1-0.448,1-1V4	C32,3.448,31.552,3,31,3z"/><linearGradient id="HQdeQ1Iv6koro4amOQqVWd" x1="20" x2="20" y1="12.807" y2="35.228" gradientUnits="userSpaceOnUse"><stop offset="0" stop-color="#292929"/><stop offset=".301" stop-color="gray"/><stop offset=".645" stop-color="#292929"/><stop offset=".836" stop-color="#292929"/><stop offset="1" stop-color="#4d4d4d"/></linearGradient><path fill="url(#HQdeQ1Iv6koro4amOQqVWd)" d="M20,13L20,13c-0.552,0-1,0.448-1,1v20c0,0.552,0.448,1,1,1h0c0.552,0,1-0.448,1-1V14	C21,13.448,20.552,13,20,13z"/><linearGradient id="HQdeQ1Iv6koro4amOQqVWe" x1="16" x2="16" y1="12.807" y2="35.228" gradientUnits="userSpaceOnUse"><stop offset="0" stop-color="#292929"/><stop offset=".301" stop-color="gray"/><stop offset=".645" stop-color="#292929"/><stop offset=".836" stop-color="#292929"/><stop offset="1" stop-color="#4d4d4d"/></linearGradient><path fill="url(#HQdeQ1Iv6koro4amOQqVWe)" d="M16,13L16,13c-0.552,0-1,0.448-1,1v20c0,0.552,0.448,1,1,1h0c0.552,0,1-0.448,1-1V14	C17,13.448,16.552,13,16,13z"/><linearGradient id="HQdeQ1Iv6koro4amOQqVWf" x1="10.5" x2="10.5" y1="19.921" y2="29.093" gradientUnits="userSpaceOnUse"><stop offset="0" stop-color="#292929"/><stop offset=".357" stop-color="gray"/><stop offset=".645" stop-color="#292929"/><stop offset=".836" stop-color="#292929"/><stop offset="1" stop-color="#4d4d4d"/></linearGradient><path fill="url(#HQdeQ1Iv6koro4amOQqVWf)" d="M11,20h1v9h-1c-1.105,0-2-0.895-2-2v-5C9,20.895,9.895,20,11,20z"/><linearGradient id="HQdeQ1Iv6koro4amOQqVWg" x1="29.5" x2="29.5" y1="4" y2="44" gradientUnits="userSpaceOnUse"><stop offset="0" stop-color="#5e5e5e"/><stop offset=".256" stop-color="#bfbfbf"/><stop offset=".564" stop-color="#636363"/><stop offset=".749" stop-color="#7d7d7d"/><stop offset="1" stop-color="#919191"/></linearGradient><polygon fill="url(#HQdeQ1Iv6koro4amOQqVWg)" points="29,5.111 29,42.889 30,44 30,27 30,4"/></svg>