<svg xmlns="http://www.w3.org/2000/svg" xmlns:xlink="http://www.w3.org/1999/xlink" viewBox="0 0 48 48" width="48px" height="48px"><defs><linearGradient id="M8tcVbA95sdX~Iw8M1jDVz" x1="29.698" x2="42.551" y1="14.778" y2="11.652" xlink:href="#M8tcVbA95sdX~Iw8M1jDVd"/><linearGradient id="M8tcVbA95sdX~Iw8M1jDVd" x1="7.329" x2="30.228" y1="47.468" y2="26.163" data-name="Безымянный градиент 382" gradientTransform="rotate(14.425 16.6 41.056)" gradientUnits="userSpaceOnUse"><stop offset=".024" stop-color="#ffc2cb"/><stop offset="1" stop-color="#bd99c3"/></linearGradient><linearGradient id="M8tcVbA95sdX~Iw8M1jDVg" x1="19.118" x2="20.056" y1="35.282" y2="36.261" xlink:href="#M8tcVbA95sdX~Iw8M1jDVa"/><linearGradient id="M8tcVbA95sdX~Iw8M1jDVh" x1="18.925" x2="20.488" y1="35.409" y2="36.727" xlink:href="#M8tcVbA95sdX~Iw8M1jDVa"/><linearGradient id="M8tcVbA95sdX~Iw8M1jDVi" x1="18.18" x2="21.387" y1="33.38" y2="35.826" xlink:href="#M8tcVbA95sdX~Iw8M1jDVa"/><linearGradient id="M8tcVbA95sdX~Iw8M1jDVj" x1="19.097" x2="21.488" y1="35.371" y2="36.485" xlink:href="#M8tcVbA95sdX~Iw8M1jDVa"/><linearGradient id="M8tcVbA95sdX~Iw8M1jDVk" x1="12.238" x2="16.45" y1="40.939" y2="44.227" xlink:href="#M8tcVbA95sdX~Iw8M1jDVa"/><linearGradient id="M8tcVbA95sdX~Iw8M1jDVl" x1="11.696" x2="15.908" y1="41.635" y2="44.923" xlink:href="#M8tcVbA95sdX~Iw8M1jDVa"/><linearGradient id="M8tcVbA95sdX~Iw8M1jDVm" x1="11.576" x2="15.788" y1="41.787" y2="45.075" xlink:href="#M8tcVbA95sdX~Iw8M1jDVa"/><linearGradient id="M8tcVbA95sdX~Iw8M1jDVn" x1="12.437" x2="16.649" y1="40.684" y2="43.972" xlink:href="#M8tcVbA95sdX~Iw8M1jDVa"/><linearGradient id="M8tcVbA95sdX~Iw8M1jDVo" x1="11.986" x2="16.198" y1="41.263" y2="44.551" xlink:href="#M8tcVbA95sdX~Iw8M1jDVa"/><linearGradient id="M8tcVbA95sdX~Iw8M1jDVp" x1="16.853" x2="18.77" y1="41.664" y2="43.775" gradientTransform="rotate(44.634 23.585 42.283)" xlink:href="#M8tcVbA95sdX~Iw8M1jDVa"/><linearGradient id="M8tcVbA95sdX~Iw8M1jDVq" x1="16.225" x2="19.112" y1="43.555" y2="46.032" gradientTransform="rotate(44.634 23.585 42.283)" xlink:href="#M8tcVbA95sdX~Iw8M1jDVa"/><linearGradient id="M8tcVbA95sdX~Iw8M1jDVr" x1="14.234" x2="16.022" y1="43.105" y2="45.669" gradientTransform="rotate(44.634 23.585 42.283)" xlink:href="#M8tcVbA95sdX~Iw8M1jDVa"/><linearGradient id="M8tcVbA95sdX~Iw8M1jDVs" x1="15.449" x2="16.483" y1="41.144" y2="42.782" gradientTransform="rotate(44.634 23.585 42.283)" xlink:href="#M8tcVbA95sdX~Iw8M1jDVa"/><linearGradient id="M8tcVbA95sdX~Iw8M1jDVt" x1="17.431" x2="18.637" y1="40.903" y2="42.346" gradientTransform="rotate(44.634 23.585 42.283)" xlink:href="#M8tcVbA95sdX~Iw8M1jDVa"/><linearGradient id="M8tcVbA95sdX~Iw8M1jDVu" x1="21.114" x2="22.687" y1="32.01" y2="33.865" data-name="Безымянный градиент 401" gradientUnits="userSpaceOnUse"><stop offset=".349" stop-color="#b75062"/><stop offset=".564" stop-color="#d2836f"/><stop offset=".714" stop-color="#b34760"/><stop offset=".73" stop-color="#af405e"/><stop offset=".914" stop-color="#981853"/></linearGradient><linearGradient id="M8tcVbA95sdX~Iw8M1jDVS" x1="19.214" x2="9.527" y1="13.992" y2="4.305" xlink:href="#M8tcVbA95sdX~Iw8M1jDVd"/><linearGradient id="M8tcVbA95sdX~Iw8M1jDVR" x1="19.655" x2="9.969" y1="13.55" y2="3.863" xlink:href="#M8tcVbA95sdX~Iw8M1jDVd"/><linearGradient id="M8tcVbA95sdX~Iw8M1jDVQ" x1="17.785" x2="8.098" y1="15.42" y2="5.734" xlink:href="#M8tcVbA95sdX~Iw8M1jDVd"/><linearGradient id="M8tcVbA95sdX~Iw8M1jDVP" x1="17.39" x2="7.704" y1="15.815" y2="6.128" xlink:href="#M8tcVbA95sdX~Iw8M1jDVd"/><linearGradient id="M8tcVbA95sdX~Iw8M1jDVO" x1="18.426" x2="8.739" y1="14.779" y2="5.093" xlink:href="#M8tcVbA95sdX~Iw8M1jDVd"/><linearGradient id="M8tcVbA95sdX~Iw8M1jDVe" x1="12.46" x2="39.912" y1="15.407" y2="15.407" data-name="Безымянный градиент 338" gradientUnits="userSpaceOnUse"><stop offset=".024" stop-color="#fff"/><stop offset="1" stop-color="#fff" stop-opacity="0"/></linearGradient><linearGradient id="M8tcVbA95sdX~Iw8M1jDVx" x1="26.347" x2="26.347" y1="26.35" y2="27.322" data-name="Безымянный градиент 423" gradientUnits="userSpaceOnUse"><stop offset=".239" stop-color="#96c6ed"/><stop offset=".353" stop-color="#a3cdef" stop-opacity=".638"/><stop offset=".506" stop-color="#b6d8f3" stop-opacity=".131"/><stop offset=".591" stop-color="#b1d5f2" stop-opacity=".258"/><stop offset=".777" stop-color="#a5cff0" stop-opacity=".581"/><stop offset="1" stop-color="#96c6ed"/></linearGradient><linearGradient id="M8tcVbA95sdX~Iw8M1jDVN" x1="23.521" x2="14.285" y1="18.375" y2="27.61" xlink:href="#M8tcVbA95sdX~Iw8M1jDVd"/><linearGradient id="M8tcVbA95sdX~Iw8M1jDVa" x1="18.918" x2="20.344" y1="34.803" y2="35.197" data-name="Безымянный градиент 398" gradientTransform="rotate(11.596 16.313 41.5)" gradientUnits="userSpaceOnUse"><stop offset="0" stop-color="#b75062"/><stop offset=".427" stop-color="#d2836f"/><stop offset=".796" stop-color="#b34760"/><stop offset=".835" stop-color="#af405e"/><stop offset=".914" stop-color="#981853"/></linearGradient><linearGradient id="M8tcVbA95sdX~Iw8M1jDVA" x1="30.425" x2="43.278" y1="17.768" y2="14.641" xlink:href="#M8tcVbA95sdX~Iw8M1jDVd"/><linearGradient id="M8tcVbA95sdX~Iw8M1jDVB" x1="31.284" x2="44.137" y1="21.3" y2="18.174" xlink:href="#M8tcVbA95sdX~Iw8M1jDVd"/><linearGradient id="M8tcVbA95sdX~Iw8M1jDVC" x1="30.124" x2="42.977" y1="16.531" y2="13.404" xlink:href="#M8tcVbA95sdX~Iw8M1jDVd"/><linearGradient id="M8tcVbA95sdX~Iw8M1jDVD" x1="31.017" x2="43.87" y1="20.2" y2="17.073" xlink:href="#M8tcVbA95sdX~Iw8M1jDVd"/><linearGradient id="M8tcVbA95sdX~Iw8M1jDVE" x1="28.012" x2="34.949" y1="7.986" y2="1.049" xlink:href="#M8tcVbA95sdX~Iw8M1jDVd"/><linearGradient id="M8tcVbA95sdX~Iw8M1jDVF" x1="28.958" x2="35.895" y1="8.932" y2="1.995" xlink:href="#M8tcVbA95sdX~Iw8M1jDVd"/><linearGradient id="M8tcVbA95sdX~Iw8M1jDVG" x1="30.626" x2="37.563" y1="10.601" y2="3.664" xlink:href="#M8tcVbA95sdX~Iw8M1jDVd"/><linearGradient id="M8tcVbA95sdX~Iw8M1jDVH" x1="29.048" x2="35.985" y1="9.022" y2="2.085" xlink:href="#M8tcVbA95sdX~Iw8M1jDVd"/><linearGradient id="M8tcVbA95sdX~Iw8M1jDVI" x1="30.541" x2="37.478" y1="10.515" y2="3.578" xlink:href="#M8tcVbA95sdX~Iw8M1jDVd"/><linearGradient id="M8tcVbA95sdX~Iw8M1jDVJ" x1="20.307" x2="11.072" y1="15.161" y2="24.397" xlink:href="#M8tcVbA95sdX~Iw8M1jDVd"/><linearGradient id="M8tcVbA95sdX~Iw8M1jDVK" x1="20.786" x2="11.55" y1="15.64" y2="24.875" xlink:href="#M8tcVbA95sdX~Iw8M1jDVd"/><linearGradient id="M8tcVbA95sdX~Iw8M1jDVL" x1="22.83" x2="13.594" y1="17.684" y2="26.919" xlink:href="#M8tcVbA95sdX~Iw8M1jDVd"/><linearGradient id="M8tcVbA95sdX~Iw8M1jDVM" x1="22.046" x2="12.811" y1="16.9" y2="26.136" xlink:href="#M8tcVbA95sdX~Iw8M1jDVd"/><linearGradient id="M8tcVbA95sdX~Iw8M1jDVY" x1="18.843" x2="25.746" y1="26.854" y2="26.936" data-name="Безымянный градиент 433" gradientUnits="userSpaceOnUse"><stop offset="0" stop-color="#fff" stop-opacity=".206"/><stop offset=".493" stop-color="#fff" stop-opacity=".8"/><stop offset="1" stop-color="#fff" stop-opacity="0"/></linearGradient><radialGradient id="M8tcVbA95sdX~Iw8M1jDVy" cx="25.984" cy="24.94" r="16.163" data-name="Безымянный градиент 434" gradientUnits="userSpaceOnUse"><stop offset=".302" stop-color="#fff" stop-opacity="0"/><stop offset=".936" stop-color="#0087ac" stop-opacity=".953"/></radialGradient><radialGradient id="M8tcVbA95sdX~Iw8M1jDVv" cx="23.253" cy="16.597" r="22.189" xlink:href="#M8tcVbA95sdX~Iw8M1jDVb"/><radialGradient id="M8tcVbA95sdX~Iw8M1jDVf" cx="25.983" cy="2.832" r="1.512" data-name="Безымянный градиент 393" gradientUnits="userSpaceOnUse"><stop offset=".024" stop-color="#fff" stop-opacity=".7"/><stop offset="1" stop-color="#fff" stop-opacity="0"/></radialGradient><radialGradient id="M8tcVbA95sdX~Iw8M1jDVc" cx="26.501" cy="4.705" r="3.045" data-name="Безымянный градиент 387" gradientUnits="userSpaceOnUse"><stop offset=".302" stop-color="#fff" stop-opacity="0"/><stop offset=".785" stop-color="#0087ac" stop-opacity=".953"/></radialGradient><radialGradient id="M8tcVbA95sdX~Iw8M1jDVb" cx="25.079" cy="3.092" r="3.376" data-name="Безымянный градиент 384" gradientUnits="userSpaceOnUse"><stop offset="0" stop-color="#fff" stop-opacity="0"/><stop offset=".077" stop-color="#edf5fc" stop-opacity=".17"/><stop offset=".285" stop-color="#bfdcf4" stop-opacity=".612"/><stop offset=".43" stop-color="#a1ccef" stop-opacity=".891"/><stop offset=".498" stop-color="#96c6ed"/><stop offset=".581" stop-color="#96c6ed" stop-opacity=".992"/><stop offset=".611" stop-color="#97c7ed" stop-opacity=".963"/><stop offset=".633" stop-color="#99c8ee" stop-opacity=".913"/><stop offset=".65" stop-color="#9cc9ee" stop-opacity=".842"/><stop offset=".665" stop-color="#9fcbef" stop-opacity=".748"/><stop offset=".678" stop-color="#a4cef0" stop-opacity=".633"/><stop offset=".69" stop-color="#a9d0f0" stop-opacity=".496"/><stop offset=".701" stop-color="#aed4f2" stop-opacity=".336"/><stop offset=".711" stop-color="#b5d7f3" stop-opacity=".162"/><stop offset=".712" stop-color="#b6d8f3" stop-opacity=".131"/></radialGradient><radialGradient id="M8tcVbA95sdX~Iw8M1jDVw" cx="25.481" cy="22.658" r="28.197" xlink:href="#M8tcVbA95sdX~Iw8M1jDVc"/><radialGradient id="M8tcVbA95sdX~Iw8M1jDVU" cx="29.444" cy="18.655" r="7.449" xlink:href="#M8tcVbA95sdX~Iw8M1jDVf"/><radialGradient id="M8tcVbA95sdX~Iw8M1jDVV" cx="22.37" cy="30.804" r="2.878" data-name="Безымянный градиент 410" gradientTransform="rotate(-16.91 23.498 30.927)" gradientUnits="userSpaceOnUse"><stop offset="0" stop-color="#fff" stop-opacity="0"/><stop offset=".051" stop-color="#fbedee" stop-opacity=".114"/><stop offset=".273" stop-color="#eca2a6" stop-opacity=".586"/><stop offset=".426" stop-color="#e2737a" stop-opacity=".884"/><stop offset=".498" stop-color="#de6168"/><stop offset=".582" stop-color="#de6269" stop-opacity=".992"/><stop offset=".612" stop-color="#dc666e" stop-opacity=".962"/><stop offset=".634" stop-color="#da6d76" stop-opacity=".91"/><stop offset=".651" stop-color="#d67782" stop-opacity=".836"/><stop offset=".666" stop-color="#d28592" stop-opacity=".739"/><stop offset=".679" stop-color="#cd95a5" stop-opacity=".62"/><stop offset=".691" stop-color="#c6a8bb" stop-opacity=".478"/><stop offset=".702" stop-color="#bfbed5" stop-opacity=".319"/><stop offset=".712" stop-color="#b6d7f2" stop-opacity=".139"/><stop offset=".712" stop-color="#b6d8f3" stop-opacity=".131"/></radialGradient><radialGradient id="M8tcVbA95sdX~Iw8M1jDVW" cx="23.582" cy="32.179" r="2.595" data-name="Безымянный градиент 404" gradientTransform="rotate(-16.91 23.498 30.927)" gradientUnits="userSpaceOnUse"><stop offset=".302" stop-color="#fff" stop-opacity="0"/><stop offset=".785" stop-color="#ea806e"/></radialGradient><radialGradient id="M8tcVbA95sdX~Iw8M1jDVX" cx="23.14" cy="30.582" r="1.289" gradientTransform="rotate(-16.91 23.498 30.927)" xlink:href="#M8tcVbA95sdX~Iw8M1jDVf"/><radialGradient id="M8tcVbA95sdX~Iw8M1jDVT" cx="21.209" cy="13.351" r="5.227" data-name="Безымянный градиент 310" xlink:href="#M8tcVbA95sdX~Iw8M1jDVe"/></defs><path fill="url(#M8tcVbA95sdX~Iw8M1jDVd)" d="M12.9,47.78,5.888,40.82a19.5,19.5,0,0,0,5.8-2.028,20.166,20.166,0,0,0,7.836-7.731l5.32,4.009a32.733,32.733,0,0,1-6.39,8.463A32.494,32.494,0,0,1,12.9,47.78Z"/><path fill="url(#M8tcVbA95sdX~Iw8M1jDVa)" d="M21.254,36.452a.785.785,0,0,1-.4-.6c0-.134.062-.344.191-.373s.3.154.356.3A.746.746,0,0,1,21.254,36.452Z"/><path fill="url(#M8tcVbA95sdX~Iw8M1jDVg)" d="M21.145,36.591a.719.719,0,0,1-.654.174c-.137-.054-.309-.2-.281-.334s.225-.192.348-.2A.748.748,0,0,1,21.145,36.591Z"/><path fill="url(#M8tcVbA95sdX~Iw8M1jDVh)" d="M21.179,36.728a.694.694,0,0,1-.055.751c-.09.09-.257.174-.36.114-.122-.072-.1-.321-.045-.468A.727.727,0,0,1,21.179,36.728Z"/><path fill="url(#M8tcVbA95sdX~Iw8M1jDVi)" d="M21.359,36.5a.7.7,0,0,1,.52-.544c.161-.03.392.008.441.143s-.134.326-.282.407A.8.8,0,0,1,21.359,36.5Z"/><path fill="url(#M8tcVbA95sdX~Iw8M1jDVj)" d="M21.323,36.664a.7.7,0,0,1,.658.366c.07.148.092.381-.027.463s-.35-.048-.465-.171A.8.8,0,0,1,21.323,36.664Z"/><path fill="url(#M8tcVbA95sdX~Iw8M1jDVk)" d="M14.611,43.154a.9.9,0,0,1-.454-.688c0-.153.071-.391.218-.425s.338.176.4.349A.853.853,0,0,1,14.611,43.154Z"/><path fill="url(#M8tcVbA95sdX~Iw8M1jDVl)" d="M14.486,43.312a.818.818,0,0,1-.745.2c-.156-.061-.352-.226-.32-.381s.257-.219.4-.227A.848.848,0,0,1,14.486,43.312Z"/><path fill="url(#M8tcVbA95sdX~Iw8M1jDVm)" d="M14.525,43.468a.786.786,0,0,1-.063.855c-.1.1-.293.2-.409.13-.14-.082-.115-.365-.051-.533A.824.824,0,0,1,14.525,43.468Z"/><path fill="url(#M8tcVbA95sdX~Iw8M1jDVn)" d="M14.73,43.208a.8.8,0,0,1,.593-.62c.184-.034.447.009.5.163s-.153.372-.321.463A.913.913,0,0,1,14.73,43.208Z"/><path fill="url(#M8tcVbA95sdX~Iw8M1jDVo)" d="M14.689,43.4a.8.8,0,0,1,.75.416c.079.17.1.435-.031.528s-.4-.054-.53-.194A.911.911,0,0,1,14.689,43.4Z"/><path fill="url(#M8tcVbA95sdX~Iw8M1jDVp)" d="M19.794,38.9a2.947,2.947,0,0,1-1.228-.856.529.529,0,0,0-.131-.1c-.06.19-.105.356-.167.516s-.141.3-.2.456c-.035.091-.031.167.109.169a.518.518,0,0,1,.279.071c.277.2.538.412.813.611.05.036.183.05.2.025.09-.143.22-.132.353-.129l.409.012A.792.792,0,0,0,19.794,38.9Zm-.552.511a5.445,5.445,0,0,1-.807-.5c-.022-.014-.025-.087-.009-.119.064-.12.14-.234.224-.372.3.191.558.359.819.529.1.063.259.137.16.263C19.544,39.319,19.329,39.447,19.242,39.408Z"/><path fill="url(#M8tcVbA95sdX~Iw8M1jDVq)" d="M19.568,41.115a.827.827,0,0,0-.342-.728c-.385-.251-.776-.494-1.146-.765-.321-.234-.717-.4-.858-.825-.007-.019-.04-.03-.073-.052-.029.045-.053.082-.076.12-.157.261-.3.533-.473.781-.2.289-.44.553-.649.837a1.318,1.318,0,0,0-.126.3l.068.047a1.942,1.942,0,0,1,.238-.16.207.207,0,0,1,.168-.015c.328.25.659.5.971.768.253.221.251.31.084.608-.066.117-.123.24-.184.361l.046.073a1.994,1.994,0,0,0,.521-.123,8.851,8.851,0,0,0,.818-.53c.288-.2.509-.5.893-.543A.2.2,0,0,0,19.568,41.115ZM17.291,40.3c.122.11.105.181,0,.288-.346.343-.342.346-.731.035-.071-.058-.144-.113-.231-.182.321-.4.632-.786.963-1.2l.635.449a.071.071,0,0,1,.026.029c.063.2-.121.273-.2.394-.051.073-.117.177-.243.085s-.28-.191-.42-.287l-.056.052A2.617,2.617,0,0,0,17.291,40.3Zm1.552.764a9.982,9.982,0,0,1-.914.711c-.184.128-.224.082-.267-.137a.708.708,0,0,0-.183-.315,2.349,2.349,0,0,0-.335-.249c.153-.154.28-.3.427-.421.037-.031.143-.009.2.022.188.1.368.22.569.343.031-.238.031-.238-.477-.606.133-.148.454-.179.3-.511l.056,0c.205.155.417.3.612.466C19.206,40.686,19.213,40.735,18.843,41.066Z"/><path fill="url(#M8tcVbA95sdX~Iw8M1jDVr)" d="M16.746,38.913a1.291,1.291,0,0,1-.129-.22.512.512,0,0,1,0-.2c0-.06.02-.119.03-.178-.021-.009-.043-.017-.064-.024-.044.039-.09.078-.132.12-.391.393-.776.792-1.173,1.179a2.972,2.972,0,0,1-.429.323.178.178,0,0,1-.161.011.164.164,0,0,1-.032-.156,1.819,1.819,0,0,1,.3-.4c.44-.386.894-.756,1.341-1.134a.361.361,0,0,0,.072-.095c.01-.014.007-.036.013-.075a3.548,3.548,0,0,1-2.094-.139,8.258,8.258,0,0,0,3.086-.446l0-.058c-.356-.164-.714-.325-1.067-.494a.41.41,0,0,1-.208-.6l.185.135c.309.218.614.445.931.65a1.133,1.133,0,0,0,.376.124.4.4,0,0,1,.311.459c-.013.047-.1.1-.155.108-.295.057-.592.1-.887.154-.19.036-.207.09-.107.258a2,2,0,0,1,.164.3.322.322,0,0,1,.016.229C16.9,38.809,16.811,38.855,16.746,38.913Z"/><path fill="url(#M8tcVbA95sdX~Iw8M1jDVs)" d="M18.475,37.016c-.164.008-.205-.139-.218-.263-.028-.266-.035-.534-.052-.824a.845.845,0,0,1,.531.8C18.709,36.877,18.638,37.007,18.475,37.016Z"/><path fill="url(#M8tcVbA95sdX~Iw8M1jDVt)" d="M20.87,38.716c-.055.006-.125.037-.162.014-.413-.251-.827-.5-1.225-.775-.1-.066-.135-.216-.2-.327l.051-.043c.047.021.095.038.14.063.282.16.571.312.845.487a4.125,4.125,0,0,1,.513.4C20.87,38.569,20.859,38.655,20.87,38.716Z"/><circle cx="22.038" cy="33.1" r=".564" fill="url(#M8tcVbA95sdX~Iw8M1jDVu)"/><path fill="#981853" d="M26.093,2.784a.248.248,0,0,1-.238-.174l-.634-2A.25.25,0,0,1,25.7.462l.633,2a.25.25,0,0,1-.162.314A.254.254,0,0,1,26.093,2.784Z"/><circle cx="26.395" cy="3.385" r="1.166" fill="#c8e0f8"/><circle cx="26.395" cy="3.385" r="1.166" fill="url(#M8tcVbA95sdX~Iw8M1jDVb)"/><circle cx="26.395" cy="3.385" r="1.166" fill="url(#M8tcVbA95sdX~Iw8M1jDVc)"/><circle cx="26.395" cy="3.385" r="1.166" fill="url(#M8tcVbA95sdX~Iw8M1jDVf)"/><path fill="#c8e0f8" d="M39.923,16.787v.222h-.012a14.778,14.778,0,0,1-.281,2.869,18.638,18.638,0,0,1-2.576,6.545.084.084,0,0,0-.023.046.012.012,0,0,0-.012.012c-.082.117-.141.222-.211.316h-.363c-3.114.012-6.24.012-9.354.024H24.433c-2.857.011-5.7.023-8.559.023-.082-.105-.164-.222-.257-.351a16.9,16.9,0,0,1-3.185-9.706,18.038,18.038,0,0,1,.316-3.735,9.828,9.828,0,0,1,.293-1.147,8.683,8.683,0,0,1,.4-1.136A9.209,9.209,0,0,1,14.071,9.5a10,10,0,0,1,1.171-1.662c3.044-3.5,7.481-3.981,10.081-4,.5-.012.936-.012,1.276,0,.246,0,.515.011.843.035h.012a18.828,18.828,0,0,1,2.329.211,15.864,15.864,0,0,1,2.237.5c.152.047.3.094.456.152a12.209,12.209,0,0,1,1.218.492,10.513,10.513,0,0,1,.948.5.043.043,0,0,0,.035.012,9.252,9.252,0,0,1,1.3.9,9.666,9.666,0,0,1,1.51,1.51,9.56,9.56,0,0,1,1.358,2.236v.012a11.236,11.236,0,0,1,.75,2.342,16.515,16.515,0,0,1,.316,2.845C39.923,16.026,39.923,16.436,39.923,16.787Z"/><path fill="#981853" d="M22.024,33.35a.249.249,0,0,1-.2-.406A29.176,29.176,0,0,0,27.6,20.893,29.161,29.161,0,0,0,26.3,4.321a.25.25,0,0,1,.467-.179A29.664,29.664,0,0,1,28.091,21a29.668,29.668,0,0,1-5.872,12.258A.247.247,0,0,1,22.024,33.35Z"/><path fill="url(#M8tcVbA95sdX~Iw8M1jDVv)" d="M39.923,16.787v.222h-.012a14.778,14.778,0,0,1-.281,2.869,18.638,18.638,0,0,1-2.576,6.545.084.084,0,0,0-.023.046.012.012,0,0,0-.012.012c-.082.117-.141.222-.211.316h-.363c-3.114.012-6.24.012-9.354.024H24.433c-2.857.011-5.7.023-8.559.023-.082-.105-.164-.222-.257-.351a16.9,16.9,0,0,1-3.185-9.706,18.038,18.038,0,0,1,.316-3.735,9.828,9.828,0,0,1,.293-1.147,8.683,8.683,0,0,1,.4-1.136A9.209,9.209,0,0,1,14.071,9.5a10,10,0,0,1,1.171-1.662c3.044-3.5,7.481-3.981,10.081-4,.5-.012.936-.012,1.276,0,.246,0,.515.011.843.035h.012a18.828,18.828,0,0,1,2.329.211,15.864,15.864,0,0,1,2.237.5c.152.047.3.094.456.152a12.209,12.209,0,0,1,1.218.492,10.513,10.513,0,0,1,.948.5.043.043,0,0,0,.035.012,9.252,9.252,0,0,1,1.3.9,9.666,9.666,0,0,1,1.51,1.51,9.56,9.56,0,0,1,1.358,2.236v.012a11.236,11.236,0,0,1,.75,2.342,16.515,16.515,0,0,1,.316,2.845C39.923,16.026,39.923,16.436,39.923,16.787Z"/><path fill="url(#M8tcVbA95sdX~Iw8M1jDVw)" d="M39.923,16.787v.222h-.012a14.778,14.778,0,0,1-.281,2.869,18.638,18.638,0,0,1-2.576,6.545.084.084,0,0,0-.023.046.012.012,0,0,0-.012.012c-.082.117-.141.222-.211.316h-.363c-3.114.012-6.24.012-9.354.024H24.433c-2.857.011-5.7.023-8.559.023-.082-.105-.164-.222-.257-.351a16.9,16.9,0,0,1-3.185-9.706,18.038,18.038,0,0,1,.316-3.735,9.828,9.828,0,0,1,.293-1.147,8.683,8.683,0,0,1,.4-1.136A9.209,9.209,0,0,1,14.071,9.5a10,10,0,0,1,1.171-1.662c3.044-3.5,7.481-3.981,10.081-4,.5-.012.936-.012,1.276,0,.246,0,.515.011.843.035h.012a18.828,18.828,0,0,1,2.329.211,15.864,15.864,0,0,1,2.237.5c.152.047.3.094.456.152a12.209,12.209,0,0,1,1.218.492,10.513,10.513,0,0,1,.948.5.043.043,0,0,0,.035.012,9.252,9.252,0,0,1,1.3.9,9.666,9.666,0,0,1,1.51,1.51,9.56,9.56,0,0,1,1.358,2.236v.012a11.236,11.236,0,0,1,.75,2.342,16.515,16.515,0,0,1,.316,2.845C39.923,16.026,39.923,16.436,39.923,16.787Z"/><g style="isolation:isolate" opacity=".1"><path fill="#a7c6eb" d="M39.43,16.812v.216h-.011a14.443,14.443,0,0,1-.271,2.78,18.105,18.105,0,0,1-2.482,6.343.086.086,0,0,0-.022.045.012.012,0,0,0-.012.012c-.079.113-.135.215-.2.306H36.08c-3,.011-6.013.011-9.014.023H24.505c-2.753.011-5.494.023-8.247.023-.079-.1-.158-.216-.248-.341a16.439,16.439,0,0,1-3.069-9.407,17.55,17.55,0,0,1,.3-3.619,9.552,9.552,0,0,1,.282-1.112,8.58,8.58,0,0,1,.384-1.1,8.829,8.829,0,0,1,.609-1.225,9.675,9.675,0,0,1,1.128-1.612c2.933-3.392,7.209-3.858,9.713-3.88.485-.012.9-.012,1.23,0,.237,0,.5.011.812.034h.012a18.121,18.121,0,0,1,2.245.2,15.217,15.217,0,0,1,2.154.488c.147.045.294.091.44.147a11.456,11.456,0,0,1,1.174.477,9.915,9.915,0,0,1,.913.488.043.043,0,0,0,.034.011,8.95,8.95,0,0,1,1.252.874,9.615,9.615,0,0,1,2.764,3.631v.011a10.918,10.918,0,0,1,.722,2.27,16.112,16.112,0,0,1,.3,2.757C39.43,16.075,39.43,16.472,39.43,16.812Z"/><path fill="url(#M8tcVbA95sdX~Iw8M1jDVe)" d="M16.258,27.044h-.236l-.144-.187c-.064-.083-.128-.173-.2-.27l-.06-.084a16.834,16.834,0,0,1-3.16-9.691,18.079,18.079,0,0,1,.314-3.716,10.018,10.018,0,0,1,.3-1.165,8.753,8.753,0,0,1,.4-1.145A9.2,9.2,0,0,1,14.109,9.5a10.223,10.223,0,0,1,1.176-1.677c2.288-2.645,5.677-4.007,10.073-4.047.489-.012.916-.012,1.25,0,.208.008.5.011.83.035a18.547,18.547,0,0,1,2.3.208,15.731,15.731,0,0,1,2.218.5c.163.051.318.1.473.159a12.119,12.119,0,0,1,1.206.49c.3.139.573.287.859.454h.012l.113.065a9.413,9.413,0,0,1,1.318.92,10.139,10.139,0,0,1,2.9,3.812l.039.1a11.522,11.522,0,0,1,.713,2.276,16.411,16.411,0,0,1,.314,2.839c.011.425.011.826.011,1.17l-.019.7a15.12,15.12,0,0,1-.272,2.389,18.656,18.656,0,0,1-2.5,6.425v.354H36.9c-.028.043-.056.085-.085.124L36.67,27l-12.165.022C21.73,27.033,19,27.044,16.258,27.044Zm9.776-22.3q-.3,0-.661.008c-4.115.038-7.262,1.287-9.36,3.714A9.3,9.3,0,0,0,14.94,9.992a8.448,8.448,0,0,0-.583,1.174,7.892,7.892,0,0,0-.365,1.045,9.224,9.224,0,0,0-.273,1.074,17.2,17.2,0,0,0-.3,3.527,15.864,15.864,0,0,0,2.98,9.126l.059.084.038.053c2.66,0,5.309-.012,7.968-.023l11.683-.022v-.307l.216,0a17.689,17.689,0,0,0,2.307-6,13.98,13.98,0,0,0,.263-2.692l.012-.484c0-.271,0-.567-.012-.875A15.522,15.522,0,0,0,38.643,13a10.61,10.61,0,0,0-.691-2.171l-.041-.106a9.16,9.16,0,0,0-2.585-3.355A8.328,8.328,0,0,0,34.245,6.6h-.068l-.112-.1a9.272,9.272,0,0,0-.84-.446A10.938,10.938,0,0,0,32.1,5.6c-.151-.058-.286-.1-.42-.142a14.783,14.783,0,0,0-2.09-.473,17.76,17.76,0,0,0-2.191-.2c-.331-.023-.579-.034-.806-.034C26.424,4.742,26.238,4.739,26.034,4.739Z"/></g><path fill="#c8e0f8" d="M37.37,26.914a.553.553,0,0,1-.562.551H34.759l-6.041.023-4.5.012-8.348.023a.552.552,0,0,1-.55-.562.5.5,0,0,1,.293-.468.418.418,0,0,1,.257-.082l8.688-.024H26.33l10.478-.023a.532.532,0,0,1,.246.059.043.043,0,0,1,.024.011A.54.54,0,0,1,37.37,26.914Z"/><path fill="url(#M8tcVbA95sdX~Iw8M1jDVx)" d="M37.37,26.914a.553.553,0,0,1-.562.551H34.759l-6.041.023-4.5.012-8.348.023a.552.552,0,0,1-.55-.562.5.5,0,0,1,.293-.468.418.418,0,0,1,.257-.082l8.688-.024H26.33l10.478-.023a.532.532,0,0,1,.246.059.043.043,0,0,1,.024.011A.54.54,0,0,1,37.37,26.914Z"/><path fill="url(#M8tcVbA95sdX~Iw8M1jDVy)" d="M37.37,26.914a.553.553,0,0,1-.562.551H34.759l-6.041.023-4.5.012-8.348.023a.552.552,0,0,1-.55-.562.5.5,0,0,1,.293-.468.418.418,0,0,1,.257-.082l8.688-.024H26.33l10.478-.023a.532.532,0,0,1,.246.059.043.043,0,0,1,.024.011A.54.54,0,0,1,37.37,26.914Z"/><g><path fill="url(#M8tcVbA95sdX~Iw8M1jDVz)" d="M37.128,15.77a3.666,3.666,0,0,1-3.245-2.536c-.207-.9.045-2.208.771-2.457.771-.265,1.738.775,2.151,1.429A4.406,4.406,0,0,1,37.128,15.77Z"/><path fill="url(#M8tcVbA95sdX~Iw8M1jDVA)" d="M36.733,16.629a3.667,3.667,0,0,1-3.58,2.037c-.867-.146-1.968-.8-1.979-1.649-.011-.913,1.25-1.565,2.139-1.729A4.075,4.075,0,0,1,36.733,16.629Z"/><path fill="url(#M8tcVbA95sdX~Iw8M1jDVB)" d="M37.08,17.3a3.757,3.757,0,0,1,.65,3.972c-.393.784-1.3,1.65-2.03,1.424-.79-.244-.962-1.624-.829-2.516A4.274,4.274,0,0,1,37.08,17.3Z"/><path fill="url(#M8tcVbA95sdX~Iw8M1jDVC)" d="M39.911,15.593a5.014,5.014,0,0,1-2.178.292A4.436,4.436,0,0,1,39.6,12.748,16.515,16.515,0,0,1,39.911,15.593Z"/><path fill="url(#M8tcVbA95sdX~Iw8M1jDVD)" d="M39.911,17.009a14.778,14.778,0,0,1-.281,2.869,4.859,4.859,0,0,1-1.873-3.091A5.894,5.894,0,0,1,39.911,17.009Z"/></g><g><path fill="url(#M8tcVbA95sdX~Iw8M1jDVE)" d="M32.359,5.77A2.442,2.442,0,0,1,30.4,5.208a2.1,2.1,0,0,1-.621-1.124,15.864,15.864,0,0,1,2.237.5A2.738,2.738,0,0,1,32.359,5.77Z"/><path fill="url(#M8tcVbA95sdX~Iw8M1jDVF)" d="M32.166,6.318a2.113,2.113,0,0,1-1.38,1.928c-.489.133-1.222.056-1.432-.385-.226-.475.276-1.119.7-1.419A2.346,2.346,0,0,1,32.166,6.318Z"/><path fill="url(#M8tcVbA95sdX~Iw8M1jDVG)" d="M32.7,6.584A2.164,2.164,0,0,1,34,8.5c-.016.505-.281,1.175-.718,1.234-.472.063-.894-.618-1.04-1.115A2.467,2.467,0,0,1,32.7,6.584Z"/><path fill="url(#M8tcVbA95sdX~Iw8M1jDVH)" d="M33.694,5.231a2.8,2.8,0,0,1-1,.457,2.5,2.5,0,0,1-.223-.949A12.209,12.209,0,0,1,33.694,5.231Z"/><path fill="url(#M8tcVbA95sdX~Iw8M1jDVI)" d="M34.677,5.746a.043.043,0,0,1-.035-.012,3.234,3.234,0,0,0-1.545.422A2.343,2.343,0,0,0,34.748,7.28c.445.023,1.135-.105,1.229-.468a.378.378,0,0,0,0-.164Z"/></g><g><path fill="url(#M8tcVbA95sdX~Iw8M1jDVJ)" d="M18.423,19.55c-.167-.059-1.693-.626-1.93-1.931-.09-.5-.032-1.316.425-1.525.487-.222,1.212.346,1.546.862A2.822,2.822,0,0,1,18.423,19.55Z"/><path fill="url(#M8tcVbA95sdX~Iw8M1jDVK)" d="M18.125,20.147a2.713,2.713,0,0,1-2.288,1.139c-.546-.094-1.293-.5-1.293-1.023,0-.5.687-.881,1.139-1A2.813,2.813,0,0,1,18.125,20.147Z"/><path fill="url(#M8tcVbA95sdX~Iw8M1jDVL)" d="M18.354,20.627a2.61,2.61,0,0,1,.367,2.819c-.262.4-.819.841-1.244.7-.508-.173-.615-1.11-.521-1.7A2.741,2.741,0,0,1,18.354,20.627Z"/><path fill="url(#M8tcVbA95sdX~Iw8M1jDVM)" d="M18.848,19.647a2.651,2.651,0,0,1,1.51-2.408c.575-.233,1.458-.269,1.741.193.3.5-.248,1.31-.735,1.72A3.021,3.021,0,0,1,18.848,19.647Z"/><path fill="url(#M8tcVbA95sdX~Iw8M1jDVN)" d="M18.839,20.281a2.653,2.653,0,0,1,2.712.853c.37.5.628,1.342.253,1.733-.4.421-1.33.091-1.85-.277A3.021,3.021,0,0,1,18.839,20.281Z"/></g><g><path fill="url(#M8tcVbA95sdX~Iw8M1jDVO)" d="M14.985,11.062a2.431,2.431,0,0,1-1.546-.293A9.209,9.209,0,0,1,14.071,9.5a.012.012,0,0,0,.012.012A2.239,2.239,0,0,1,14.985,11.062Z"/><path fill="url(#M8tcVbA95sdX~Iw8M1jDVP)" d="M14.985,11.53a2.169,2.169,0,0,1-1.253,1.545,1.482,1.482,0,0,1-.984-.023,9.828,9.828,0,0,1,.293-1.147,2.32,2.32,0,0,1,.211-.164A2.211,2.211,0,0,1,14.985,11.53Z"/><path fill="url(#M8tcVbA95sdX~Iw8M1jDVQ)" d="M15.278,11.764A1.877,1.877,0,0,1,16.4,13.431c-.014.439-.261,1.03-.624,1.071-.384.043-.748-.55-.874-.965A2.152,2.152,0,0,1,15.278,11.764Z"/><path fill="url(#M8tcVbA95sdX~Iw8M1jDVR)" d="M15.28,10.987a2.109,2.109,0,0,1,.274-1.919c.266-.284.769-.566,1.031-.394.28.184.173.815.029,1.172A2.169,2.169,0,0,1,15.28,10.987Z"/><path fill="url(#M8tcVbA95sdX~Iw8M1jDVS)" d="M15.475,11.391a1.878,1.878,0,0,1,1.986-.32c.392.2.823.65.709,1.016-.122.394-.812.479-1.258.412A2.138,2.138,0,0,1,15.475,11.391Z"/></g><circle cx="22.024" cy="12.295" r="6.656" fill="url(#M8tcVbA95sdX~Iw8M1jDVT)"/><path fill="url(#M8tcVbA95sdX~Iw8M1jDVU)" d="M39.767,16.351v.223h-.012a14.854,14.854,0,0,1-.281,2.868A18.621,18.621,0,0,1,36.9,25.987a.042.042,0,0,1,.024.012c-.012.023-.024.023-.047.035a.012.012,0,0,0-.012.012c-.187.105-.375.222-.574.316a8.872,8.872,0,0,1-1.615.667H34.6l-6.041.023a9.445,9.445,0,0,1-1.627-.667,6.941,6.941,0,0,1-.761-.433A10.677,10.677,0,0,1,24.7,24.84a10.265,10.265,0,0,1-2.927-4.73,9.3,9.3,0,0,1-.327-1.628,9.82,9.82,0,0,1-.071-1.182c0-.211.012-.41.024-.621a10.185,10.185,0,0,1,4.648-7.95,6.2,6.2,0,0,1,.585-.351,9.575,9.575,0,0,1,2.541-1h.012a10.137,10.137,0,0,1,2.4-.293h.011c.164,0,.34,0,.5.012a8.953,8.953,0,0,1,1.592.211,10.167,10.167,0,0,1,5,2.646v.012a11.228,11.228,0,0,1,.75,2.341,16.614,16.614,0,0,1,.316,2.845C39.767,15.59,39.767,16,39.767,16.351Z"/><circle cx="23.519" cy="31.061" r=".994" fill="url(#M8tcVbA95sdX~Iw8M1jDVV)"/><circle cx="23.519" cy="31.061" r=".994" fill="url(#M8tcVbA95sdX~Iw8M1jDVW)"/><circle cx="23.519" cy="31.061" r=".994" fill="url(#M8tcVbA95sdX~Iw8M1jDVX)"/><path fill="url(#M8tcVbA95sdX~Iw8M1jDVY)" d="M37.37,26.914a.553.553,0,0,1-.562.551H34.759l-6.041.023-4.5.012-8.348.023a.552.552,0,0,1-.55-.562.5.5,0,0,1,.293-.468.418.418,0,0,1,.257-.082l8.688-.024H26.33l10.478-.023a.532.532,0,0,1,.246.059.043.043,0,0,1,.024.011A.54.54,0,0,1,37.37,26.914Z"/></svg>