<?xml version="1.0" encoding="UTF-8"?>
<!DOCTYPE svg PUBLIC "-//W3C//DTD SVG 1.1//EN" "http://www.w3.org/Graphics/SVG/1.1/DTD/svg11.dtd">
<svg xmlns="http://www.w3.org/2000/svg" version="1.1" width="750px" height="750px" style="shape-rendering:geometricPrecision; text-rendering:geometricPrecision; image-rendering:optimizeQuality; fill-rule:evenodd; clip-rule:evenodd" xmlns:xlink="http://www.w3.org/1999/xlink">
<g><path style="opacity:1" fill="#fefefe" d="M -0.5,-0.5 C 249.5,-0.5 499.5,-0.5 749.5,-0.5C 749.5,249.5 749.5,499.5 749.5,749.5C 499.5,749.5 249.5,749.5 -0.5,749.5C -0.5,499.5 -0.5,249.5 -0.5,-0.5 Z"/></g>
<g><path style="opacity:1" fill="#010101" d="M 261.5,336.5 C 244.833,336.5 228.167,336.5 211.5,336.5C 211.802,333.941 211.468,331.607 210.5,329.5C 209.538,324.078 206.538,320.245 201.5,318C 187.599,313.23 174.766,315.063 163,323.5C 155.104,334.786 157.604,342.952 170.5,348C 188.137,351.991 205.47,356.991 222.5,363C 249.539,378.385 256.706,400.552 244,429.5C 232.586,452.9 214.086,467.4 188.5,473C 164.319,478.194 140.319,477.527 116.5,471C 97.2712,463.763 86.1046,449.929 83,429.5C 82.2381,421.785 82.5714,414.119 84,406.5C 100.756,405.508 117.589,405.175 134.5,405.5C 133.003,421.168 140.003,430.335 155.5,433C 166.041,434.531 176.041,432.864 185.5,428C 193.989,422.211 196.156,414.711 192,405.5C 185.502,400.994 178.335,397.827 170.5,396C 154.162,393.469 138.495,388.802 123.5,382C 109.551,374.108 102.551,362.108 102.5,346C 105.001,318.51 118.334,298.177 142.5,285C 170.902,271.263 200.236,268.93 230.5,278C 255.928,289.351 266.261,308.851 261.5,336.5 Z"/></g>
<g><path style="opacity:1" fill="#000000" d="M 309.5,274.5 C 341.502,274.333 373.502,274.5 405.5,275C 442.803,279.299 459.97,300.132 457,337.5C 451.786,374.043 431.286,396.543 395.5,405C 376.732,408.077 357.899,409.91 339,410.5C 334.638,431.809 330.472,453.142 326.5,474.5C 307.488,474.833 288.488,474.5 269.5,473.5C 283.09,407.217 296.423,340.884 309.5,274.5 Z"/></g>
<g><path style="opacity:1" fill="#000000" d="M 520.5,274.5 C 540.503,274.333 560.503,274.5 580.5,275C 577.833,287 575.167,299 572.5,311C 581.494,311.5 590.494,311.666 599.5,311.5C 596.962,326.189 594.296,340.855 591.5,355.5C 582.167,355.5 572.833,355.5 563.5,355.5C 559.555,377.894 555.221,400.227 550.5,422.5C 550.931,424.766 552.264,426.266 554.5,427C 562.509,427.433 570.509,427.266 578.5,426.5C 576.158,440.713 573.491,454.88 570.5,469C 570.245,470.326 569.578,471.326 568.5,472C 548.603,475.603 528.936,474.603 509.5,469C 492.753,460.669 486.253,447.169 490,428.5C 494.9,404.166 499.733,379.833 504.5,355.5C 497.8,355.83 491.134,355.497 484.5,354.5C 487.5,340.5 490.5,326.5 493.5,312.5C 500.134,311.503 506.8,311.17 513.5,311.5C 515.962,299.192 518.295,286.858 520.5,274.5 Z"/></g>
<g><path style="opacity:1" fill="#fefffe" d="M 356.5,320.5 C 364.84,320.334 373.173,320.5 381.5,321C 391.175,321.844 396.842,327.011 398.5,336.5C 397.671,351.351 390.005,360.184 375.5,363C 366.541,364.217 357.541,364.717 348.5,364.5C 351.296,349.855 353.962,335.189 356.5,320.5 Z"/></g>
<g><path style="opacity:1" fill="#7e7e7e" d="M 210.5,329.5 C 211.468,331.607 211.802,333.941 211.5,336.5C 228.167,336.5 244.833,336.5 261.5,336.5C 244.675,337.497 227.675,337.83 210.5,337.5C 210.5,334.833 210.5,332.167 210.5,329.5 Z"/></g>
<g><path style="opacity:1" fill="#020202" d="M 410.5,414.5 C 411.822,414.33 412.989,414.663 414,415.5C 420.842,434.028 427.675,452.528 434.5,471C 415.824,471.833 397.158,471.666 378.5,470.5C 372.428,454.616 366.761,438.616 361.5,422.5C 378.315,421.862 394.648,419.195 410.5,414.5 Z"/></g>
<g><path style="opacity:1" fill="#000000" d="M 641.5,426.5 C 660.729,426.965 668.562,436.632 665,455.5C 657.195,471.985 644.362,478.152 626.5,474C 616.58,468.307 613.08,459.807 616,448.5C 620.403,436.254 628.903,428.921 641.5,426.5 Z"/></g>
</svg>
