<svg xmlns="http://www.w3.org/2000/svg" xmlns:xlink="http://www.w3.org/1999/xlink" viewBox="0 0 48 48" width="48px" height="48px"><defs><linearGradient id="dZx~6FCsaR9_idwyXSjKia" x1="280.355" x2="289.929" y1="437.333" y2="437.333" gradientTransform="scale(1 -1) rotate(-45 -384.996 515.081)" gradientUnits="userSpaceOnUse"><stop offset="0" stop-color="#393938"/><stop offset=".035" stop-color="#41413e"/><stop offset=".091" stop-color="#585750"/><stop offset=".159" stop-color="#7c7b6c"/><stop offset=".237" stop-color="#aeac94"/><stop offset=".258" stop-color="#bdba9f"/><stop offset=".29" stop-color="#a9a68e"/><stop offset=".36" stop-color="#82806e"/><stop offset=".436" stop-color="#615f52"/><stop offset=".516" stop-color="#46453b"/><stop offset=".603" stop-color="#31312a"/><stop offset=".701" stop-color="#22221d"/><stop offset=".817" stop-color="#1a1a16"/><stop offset=".999" stop-color="#171714"/></linearGradient><linearGradient id="dZx~6FCsaR9_idwyXSjKib" x1="287.404" x2="280.658" y1="401.281" y2="401.281" gradientTransform="scale(1 -1) rotate(-45 -384.996 515.081)" gradientUnits="userSpaceOnUse"><stop offset="0" stop-color="#6a6a6a"/><stop offset="1" stop-color="#eee"/></linearGradient><linearGradient id="dZx~6FCsaR9_idwyXSjKic" x1="282.31" x2="289.296" y1="401.284" y2="401.284" gradientTransform="scale(1 -1) rotate(-45 -384.996 515.081)" gradientUnits="userSpaceOnUse"><stop offset=".188" stop-color="#ebebeb"/><stop offset=".935" stop-color="#7d7d79"/></linearGradient><linearGradient id="dZx~6FCsaR9_idwyXSjKid" x1="5.743" x2="1.006" y1="-332.952" y2="-338.488" gradientTransform="matrix(1 0 0 -1 0 -290)" gradientUnits="userSpaceOnUse"><stop offset="0" stop-color="#4f4f4f"/><stop offset="1" stop-color="#eee"/></linearGradient><linearGradient id="dZx~6FCsaR9_idwyXSjKie" x1="13.615" x2="11.914" y1="-324.609" y2="-326.175" gradientTransform="matrix(1 0 0 -1 0 -290)" gradientUnits="userSpaceOnUse"><stop offset="0" stop-color="#171714" stop-opacity=".4"/><stop offset="1" stop-color="#171714" stop-opacity="0"/></linearGradient><linearGradient id="dZx~6FCsaR9_idwyXSjKif" x1="281.337" x2="289.429" y1="416.117" y2="416.117" xlink:href="#dZx~6FCsaR9_idwyXSjKia"/><linearGradient id="dZx~6FCsaR9_idwyXSjKig" x1="281.644" x2="289.052" y1="407.95" y2="407.95" gradientTransform="scale(1 -1) rotate(-45 -384.996 515.081)" gradientUnits="userSpaceOnUse"><stop offset="0" stop-color="#e29d07"/><stop offset=".234" stop-color="#e2dcb3"/><stop offset="1" stop-color="#d19e13"/></linearGradient><linearGradient id="dZx~6FCsaR9_idwyXSjKih" x1="279.837" x2="289.868" y1="424.585" y2="424.585" gradientTransform="scale(1 -1) rotate(-45 -384.996 515.081)" gradientUnits="userSpaceOnUse"><stop offset="0" stop-color="#e29d07"/><stop offset=".29" stop-color="#e2dcb3"/><stop offset="1" stop-color="#d19e13"/></linearGradient></defs><g data-name="fountain pen"><path fill="url(#dZx~6FCsaR9_idwyXSjKia)" d="M43.9,4.32q-.072-.077-.144-.15a4.366,4.366,0,0,0-5.782-.12C32.452,8.84,26.092,14.84,20.891,20.044l7.071,7.071c5.166-5.128,11.16-11.493,15.993-17.077A4.4,4.4,0,0,0,43.9,4.32Z"/><path fill="url(#dZx~6FCsaR9_idwyXSjKib)" d="M15.542,36.354a15.8,15.8,0,0,0-1.811-2.065,16.276,16.276,0,0,0-2.049-1.851c-1.612,1.272-3.775,2-4.934,3.162-1.976,1.976-.588,3.041-2.716,6.649a1.285,1.285,0,0,0-.58.318,1.32,1.32,0,0,0,0,1.866c.021.021.05.028.072.048s.027.051.048.072a1.32,1.32,0,0,0,1.866,0,1.285,1.285,0,0,0,.318-.58c3.608-2.128,4.673-.74,6.649-2.716C13.565,40.1,14.269,37.968,15.542,36.354Z"/><path fill="url(#dZx~6FCsaR9_idwyXSjKic)" d="M15.12,35.805a17.074,17.074,0,0,0-1.389-1.516,17.61,17.61,0,0,0-1.5-1.43C10.64,34.2,8.546,35.044,7.369,36.221c-1.976,1.976-.857,2.772-3.147,6.217a1.565,1.565,0,0,0-.551.346,1.2,1.2,0,0,0-.2,1.661c.017.017.041.02.059.035s.018.043.035.059a1.2,1.2,0,0,0,1.661-.2,1.551,1.551,0,0,0,.346-.551c3.445-2.291,4.241-1.171,6.217-3.147C12.961,39.459,13.781,37.4,15.12,35.805Z"/><path fill="url(#dZx~6FCsaR9_idwyXSjKid)" d="M10.449,37.556a.872.872,0,0,0-1.234,0,.86.86,0,0,0-.1,1.089L3.4,44.361l.241.241L9.36,38.886a.86.86,0,0,0,1.089-.1A.872.872,0,0,0,10.449,37.556Z"/><path fill="url(#dZx~6FCsaR9_idwyXSjKie)" d="M11.364,36.136A14.345,14.345,0,0,1,13.751,39.3a21.621,21.621,0,0,1,1.791-2.945,15.8,15.8,0,0,0-1.811-2.065,16.276,16.276,0,0,0-2.049-1.851,20.457,20.457,0,0,1-2.8,1.714A14.524,14.524,0,0,1,11.364,36.136Z"/><path fill="url(#dZx~6FCsaR9_idwyXSjKif)" d="M15.289,37.666,10.3,32.679c2.96-3.53,8.294-9.023,12.061-12.693a26.8,26.8,0,0,1,5.657,5.657A141.327,141.327,0,0,1,15.289,37.666Z"/><path fill="url(#dZx~6FCsaR9_idwyXSjKig)" d="M16.564,36.669l-5.238-5.238-1.12,1.344,4.98,4.98Z"/><path fill="url(#dZx~6FCsaR9_idwyXSjKih)" d="M29.3,25.765,22.2,18.69,20.89,20.044l7.071,7.071Z"/></g></svg>