<?xml version="1.0" encoding="utf-8"?>
<!-- Generator: Adobe Illustrator 24.0.0, SVG Export Plug-In . SVG Version: 6.00 Build 0)  -->
<svg version="1.1" xmlns="http://www.w3.org/2000/svg" xmlns:xlink="http://www.w3.org/1999/xlink" x="0px" y="0px"
	 viewBox="0 0 64 64" enable-background="new 0 0 64 64" xml:space="preserve">
<g id="Captions">
</g>
<g id="Icons">
	<g>
		<g>
			<path fill="#3CC8B4" d="M37.131,29.01C36.402,29.648,35.466,30,34.497,30H32l-4,4l-4-4h-2.497c-0.969,0-1.905-0.352-2.634-0.99
				L12,23v6l7.317,6.402C19.751,35.782,20,36.331,20,36.908V48h8v-4c0-3.314,2.686-6,6-6h2v-1.092c0-0.577,0.249-1.125,0.683-1.505
				L44,29v-6L37.131,29.01z"/>
		</g>
		<g>
			<polygon fill="#D2AA82" points="24,30 24,25.657 32,25.657 32,30 28,34 			"/>
		</g>
		<g>
			<path fill="#F0C8A0" d="M38,16h-2v-6c0-1.105-0.895-2-2-2H22c-1.105,0-2,0.895-2,2v6h-2c-1.105,0-2,0.895-2,2v0.764
				c0,0.758,0.428,1.45,1.106,1.789L20,22v0.343c0,1.061,0.421,2.078,1.172,2.828l1.657,1.657c0.75,0.75,1.768,1.172,2.828,1.172
				h4.686c1.061,0,2.078-0.421,2.828-1.172l1.657-1.657c0.75-0.75,1.172-1.768,1.172-2.828V22l2.894-1.447
				C39.572,20.214,40,19.521,40,18.764V18C40,16.895,39.105,16,38,16z"/>
		</g>
		<g>
			<path fill="#DC9600" d="M38,18L38,18c-2.209,0-4-1.791-4-4V8h2c1.105,0,2,0.895,2,2V18z"/>
		</g>
		<g>
			<path fill="#FAB400" d="M32,4h-8c-3.314,0-6,2.686-6,6v4c0,1.105,0.895,2,2,2h5.029c3.183,0,6.235-1.264,8.485-3.515l1.314-1.314
				C35.579,10.421,36,9.404,36,8.343V8C36,5.791,34.209,4,32,4z"/>
		</g>
		<g>
			<path fill="#BE7800" d="M26,18.5h-4c-0.276,0-0.5-0.224-0.5-0.5s0.224-0.5,0.5-0.5h4c0.276,0,0.5,0.224,0.5,0.5
				S26.276,18.5,26,18.5z"/>
		</g>
		<g>
			<path fill="#BE7800" d="M28,24.499c-0.641,0-1.28-0.244-1.768-0.731l-0.586-0.586c-0.195-0.195-0.195-0.512,0-0.707
				s0.512-0.195,0.707,0l0.586,0.586c0.584,0.584,1.537,0.584,2.121,0l0.586-0.586c0.195-0.195,0.512-0.195,0.707,0
				s0.195,0.512,0,0.707l-0.586,0.586C29.28,24.255,28.641,24.499,28,24.499z"/>
		</g>
		<g>
			<circle fill="#BE7800" cx="25" cy="19" r="1"/>
		</g>
		<g>
			<path fill="#BE7800" d="M34,18.5h-4c-0.276,0-0.5-0.224-0.5-0.5s0.224-0.5,0.5-0.5h4c0.276,0,0.5,0.224,0.5,0.5
				S34.276,18.5,34,18.5z"/>
		</g>
		<g>
			<circle fill="#BE7800" cx="31" cy="19" r="1"/>
		</g>
		<g>
			<path fill="#F0C8A0" d="M12,23l-4.683-4.098C6.024,17.771,4,18.689,4,20.408v0.685c0,0.577,0.249,1.125,0.683,1.505L12,29V23z"/>
		</g>
		<g>
			<path fill="#F0C8A0" d="M10,22H8v-3c0-0.552,0.448-1,1-1h0c0.552,0,1,0.448,1,1V22z"/>
		</g>
		<g>
			<path fill="#F0C8A0" d="M44,23l4.683-4.098C49.976,17.771,52,18.689,52,20.408v0.685c0,0.577-0.249,1.125-0.683,1.505L44,29V23z"
				/>
		</g>
		<g>
			<path fill="#F0C8A0" d="M46,22h2v-3c0-0.552-0.448-1-1-1l0,0c-0.552,0-1,0.448-1,1V22z"/>
		</g>
		<g>
			<path fill="#FA6450" d="M34,52h4V40h-4c-2.209,0-4,1.791-4,4v4C30,50.209,31.791,52,34,52z"/>
		</g>
		<g>
			<path fill="#DC4632" d="M32,48v-4c0-2.209,1.791-4,4-4h-2c-2.209,0-4,1.791-4,4v4c0,2.209,1.791,4,4,4h2
				C33.791,52,32,50.209,32,48z"/>
		</g>
		<g>
			<path fill="#505050" d="M32,53.65c-2.327-0.826-4-3.043-4-5.65h-8v12h12.184C32.072,59.686,32,59.352,32,59V53.65z"/>
		</g>
		<g>
			<path fill="#64C8F0" d="M37,60h-2c-0.552,0-1-0.448-1-1v-7h4v7C38,59.552,37.552,60,37,60z"/>
		</g>
		<g>
			<path fill="#505050" d="M56,50L56,50l0-8h0c2.209,0,4,1.791,4,4v0C60,48.209,58.209,50,56,50z"/>
		</g>
		<g>
			<path fill="#FA6450" d="M54,56L54,56c-1.105,0-2-0.895-2-2V38c0-1.105,0.895-2,2-2h0c1.105,0,2,0.895,2,2v16
				C56,55.105,55.105,56,54,56z"/>
		</g>
		<g>
			<path fill="#FAB400" d="M52,38c0-0.454,0.157-0.867,0.411-1.203L38,40v12l14.411,3.203C52.157,54.867,52,54.453,52,54V38z"/>
		</g>
		<g>
			<g>
				<path fill="#505050" d="M50,14L50,14c-2.209,0-4-1.791-4-4v0c0-2.209,1.791-4,4-4h0c2.209,0,4,1.791,4,4v0
					C54,12.209,52.209,14,50,14z"/>
			</g>
			<g>
				<path fill="#3C3C3C" d="M48,10c0-1.862,1.278-3.413,3-3.859C50.679,6.058,50.347,6,50,6c-2.209,0-4,1.791-4,4
					c0,2.209,1.791,4,4,4c0.347,0,0.679-0.058,1-0.141C49.278,13.412,48,11.862,48,10z"/>
			</g>
			<g>
				<rect x="46" y="12" fill="#64C8F0" width="8" height="4"/>
			</g>
			<g>
				<rect x="46" y="12" fill="#46AAD2" width="2" height="4"/>
			</g>
			<g>
				<path fill="#F0F0F0" d="M50,26L50,26c-1.105,0-2-0.895-2-2v-8h4v8C52,25.105,51.105,26,50,26z"/>
			</g>
			<g>
				<path fill="#D2D2D2" d="M50,24v-8h-2v8c0,1.105,0.895,2,2,2c0.366,0,0.705-0.106,1-0.277C50.405,25.376,50,24.738,50,24z"/>
			</g>
		</g>
		<g>
			<path fill="#1EAA96" d="M21.317,35.402L12,27.25V29l7.317,6.402C19.751,35.782,20,36.331,20,36.908V48h2V36.908
				C22,36.331,21.751,35.782,21.317,35.402z"/>
		</g>
		<g>
			<rect x="20" y="48" fill="#3C3C3C" width="2" height="12"/>
		</g>
		<g>
			<rect x="27" y="52" fill="#3C3C3C" width="2" height="8"/>
		</g>
	</g>
</g>
</svg>
