<?xml version="1.0" encoding="utf-8"?>
<!-- Generator: Adobe Illustrator 24.0.0, SVG Export Plug-In . SVG Version: 6.00 Build 0)  -->
<svg version="1.1" xmlns="http://www.w3.org/2000/svg" xmlns:xlink="http://www.w3.org/1999/xlink" x="0px" y="0px"
	 viewBox="0 0 64 64" enable-background="new 0 0 64 64" xml:space="preserve">
<g id="Captions">
</g>
<g id="Icons">
	<g>
		<g>
			<path fill="#FAB400" d="M50,22H14C8.486,22,4,26.486,4,32h4c0-3.314,2.686-6,6-6h36c3.314,0,6,2.686,6,6h4
				C60,26.486,55.514,22,50,22z"/>
		</g>
		<g>
			<g>
				<path fill="#C80A50" d="M25,16H14v16h12v2h2V19C28,17.343,26.657,16,25,16z"/>
			</g>
			<g>
				<path fill="#D2AA82" d="M20,18L20,18c1.105,0,2-0.895,2-2v-3h-4v3C18,17.105,18.895,18,20,18z"/>
			</g>
			<g>
				<path fill="#F0C8A0" d="M19,14h2c1.657,0,3-1.343,3-3V8c0-1.105-0.895-2-2-2h-4c-1.105,0-2,0.895-2,2v3
					C16,12.657,17.343,14,19,14z"/>
			</g>
			<g>
				<path fill="#0A5078" d="M18,6h4c1.105,0,2,0.895,2,2v0V6c0-1.105-0.895-2-2-2h-4c-1.105,0-2,0.895-2,2v2v0
					C16,6.895,16.895,6,18,6z"/>
			</g>
			<g>
				<rect x="14" y="32" transform="matrix(-1 -1.224647e-16 1.224647e-16 -1 40 86)" fill="#0A5078" width="12" height="22"/>
			</g>
			<g>
				<path fill="#00325A" d="M26,54V32h-3v8c0,1.105,0.895,2,2,2v12H26z"/>
			</g>
			<g>
				<path fill="#00325A" d="M20,54.5c-0.276,0-0.5-0.224-0.5-0.5V38c0-0.276,0.224-0.5,0.5-0.5s0.5,0.224,0.5,0.5v16
					C20.5,54.276,20.276,54.5,20,54.5z"/>
			</g>
			<g>
				<path fill="#F0C8A0" d="M26,38L26,38c1.105,0,2-0.895,2-2v-2h-2V38z"/>
			</g>
			<g>
				<path fill="#00A0C8" d="M22,52h2c1.105,0,2,0.895,2,2v2h-6v-2C20,52.895,20.895,52,22,52z"/>
			</g>
			<g>
				<path fill="#00A0C8" d="M16,52h2c1.105,0,2,0.895,2,2v2h-6v-2C14,52.895,14.895,52,16,52z"/>
			</g>
		</g>
		<g>
			<path fill="#A00028" d="M26,32V20h-1c-1.105,0-2,0.895-2,2v10H26z"/>
		</g>
		<g>
			<g>
				<path fill="#C80A50" d="M39,16c-1.657,0-3,1.343-3,3v15h2v-2h12V16H39z"/>
			</g>
			<g>
				<path fill="#D2AA82" d="M44,18L44,18c1.105,0,2-0.895,2-2v-3h-4v3C42,17.105,42.895,18,44,18z"/>
			</g>
			<g>
				<path fill="#F0C8A0" d="M43,14h2c1.657,0,3-1.343,3-3V8c0-1.105-0.895-2-2-2h-4c-1.105,0-2,0.895-2,2v3
					C40,12.657,41.343,14,43,14z"/>
			</g>
			<g>
				<path fill="#0A5078" d="M42,6h4c1.105,0,2,0.895,2,2v0V6c0-1.105-0.895-2-2-2h-4c-1.105,0-2,0.895-2,2v2v0
					C40,6.895,40.895,6,42,6z"/>
			</g>
			<g>
				<rect x="38" y="32" transform="matrix(-1 -1.224647e-16 1.224647e-16 -1 88 86)" fill="#0A5078" width="12" height="22"/>
			</g>
			<g>
				<path fill="#00325A" d="M38,54V32h3v8c0,1.105-0.895,2-2,2v12H38z"/>
			</g>
			<g>
				<path fill="#00325A" d="M44,54.5c-0.276,0-0.5-0.224-0.5-0.5V38c0-0.276,0.224-0.5,0.5-0.5s0.5,0.224,0.5,0.5v16
					C44.5,54.276,44.276,54.5,44,54.5z"/>
			</g>
			<g>
				<path fill="#F0C8A0" d="M38,38L38,38c-1.105,0-2-0.895-2-2v-2h2V38z"/>
			</g>
			<g>
				<path fill="#00A0C8" d="M46,52h2c1.105,0,2,0.895,2,2v2h-6v-2C44,52.895,44.895,52,46,52z"/>
			</g>
			<g>
				<path fill="#00A0C8" d="M40,52h2c1.105,0,2,0.895,2,2v2h-6v-2C38,52.895,38.895,52,40,52z"/>
			</g>
		</g>
		<g>
			<path fill="#0082AA" d="M39,52.268V56h-1v-2C38,53.26,38.402,52.614,39,52.268z"/>
		</g>
		<g>
			<path fill="#A00028" d="M38,32V20h1c1.105,0,2,0.895,2,2v10H38z"/>
		</g>
		<g>
			<g>
				<rect x="26" y="36" transform="matrix(-1 -1.224647e-16 1.224647e-16 -1 64 94)" fill="#0A5078" width="12" height="22"/>
			</g>
			<g>
				<path fill="#0082AA" d="M25,52.268V56h1v-2C26,53.26,25.598,52.614,25,52.268z"/>
			</g>
			<g>
				<path fill="#00325A" d="M32,58.5c-0.276,0-0.5-0.224-0.5-0.5V42c0-0.276,0.224-0.5,0.5-0.5s0.5,0.224,0.5,0.5v16
					C32.5,58.276,32.276,58.5,32,58.5z"/>
			</g>
			<g>
				<path fill="#F0C8A0" d="M38,42L38,42c1.105,0,2-0.895,2-2v-2h-2V42z"/>
			</g>
			<g>
				<path fill="#F0C8A0" d="M26,42L26,42c-1.105,0-2-0.895-2-2v-2h2V42z"/>
			</g>
			<g>
				<path fill="#00A0C8" d="M37,20H27c-1.657,0-3,1.343-3,3v15h2v-2h12v2h2V23C40,21.343,38.657,20,37,20z"/>
			</g>
			<g>
				<path fill="#00A0C8" d="M34,56h2c1.105,0,2,0.895,2,2v2h-6v-2C32,56.895,32.895,56,34,56z"/>
			</g>
			<g>
				<path fill="#00A0C8" d="M28,56h2c1.105,0,2,0.895,2,2v2h-6v-2C26,56.895,26.895,56,28,56z"/>
			</g>
			<g>
				<path fill="#D2AA82" d="M32,22L32,22c1.105,0,2-0.895,2-2v-3h-4v3C30,21.105,30.895,22,32,22z"/>
			</g>
			<g>
				<path fill="#F0C8A0" d="M31,18h2c1.657,0,3-1.343,3-3v-3c0-1.105-0.895-2-2-2h-4c-1.105,0-2,0.895-2,2v3
					C28,16.657,29.343,18,31,18z"/>
			</g>
			<g>
				<path fill="#0A5078" d="M30,10h4c1.105,0,2,0.895,2,2v0v-2c0-1.105-0.895-2-2-2h-4c-1.105,0-2,0.895-2,2v2v0
					C28,10.895,28.895,10,30,10z"/>
			</g>
		</g>
		<g>
			<g>
				<path fill="#FAB400" d="M50,38H14c-3.314,0-6-2.686-6-6H4c0,5.514,4.486,10,10,10h36c5.514,0,10-4.486,10-10h-4
					C56,35.314,53.314,38,50,38z"/>
			</g>
		</g>
		<g>
			<rect x="14" y="42" fill="#00325A" width="36" height="1"/>
		</g>
		<g>
			<path fill="#C80A50" d="M10,10v6h4v4h-4c-2.209,0-4-1.791-4-4v-6H10z"/>
		</g>
		<g>
			<path fill="#F0C8A0" d="M10,10H6V8c0-1.105,0.895-2,2-2h0c1.105,0,2,0.895,2,2V10z"/>
		</g>
		<g>
			<path fill="#C80A50" d="M54,10v6h-4v4h4c2.209,0,4-1.791,4-4v-6H54z"/>
		</g>
		<g>
			<path fill="#F0C8A0" d="M54,10h4V8c0-1.105-0.895-2-2-2h0c-1.105,0-2,0.895-2,2V10z"/>
		</g>
	</g>
</g>
</svg>
