<svg xmlns="http://www.w3.org/2000/svg"  viewBox="0 0 48 48" width="48px" height="48px"><linearGradient id="eLiPB0jyxGhmUZCqmxXJUa" x1="28.503" x2="50.299" y1="24.125" y2="24.125" gradientUnits="userSpaceOnUse"><stop offset="0" stop-color="#fff"/><stop offset=".067" stop-color="#fafafa"/><stop offset=".361" stop-color="#ebebeb"/><stop offset=".598" stop-color="#e6e6e6"/><stop offset=".693" stop-color="#e0e0e0"/><stop offset=".814" stop-color="#d1d1d1"/><stop offset=".948" stop-color="#b7b7b7"/><stop offset=".999" stop-color="#ababab"/></linearGradient><rect width="17.667" height="29.569" x="28.333" y="9.34" fill="url(#eLiPB0jyxGhmUZCqmxXJUa)"/><linearGradient id="eLiPB0jyxGhmUZCqmxXJUb" x1="21.468" x2="-2.32" y1="24.274" y2="24.274" gradientUnits="userSpaceOnUse"><stop offset="0" stop-color="#fff"/><stop offset=".067" stop-color="#fafafa"/><stop offset=".361" stop-color="#ebebeb"/><stop offset=".598" stop-color="#e6e6e6"/><stop offset=".693" stop-color="#e0e0e0"/><stop offset=".814" stop-color="#d1d1d1"/><stop offset=".948" stop-color="#b7b7b7"/><stop offset=".999" stop-color="#ababab"/></linearGradient><rect width="17.667" height="29.271" x="2" y="9.638" fill="url(#eLiPB0jyxGhmUZCqmxXJUb)"/><path fill="#e6e6e6" d="M28.997,21.006c0,0-4.176-1.992-4.997-1.992s-4.999,1.994-4.999,1.994 S7.617,29.882,2,34.567v1.078c0,0,16.946-11.922,18.324-13.136c1.381-1.214,2.82-1.494,3.676-1.494s2.295,0.28,3.676,1.494 C29.054,23.722,46,35.645,46,35.645v-0.977C41.811,31.221,28.997,21.006,28.997,21.006z" opacity=".02"/><path fill="#e2e2e2" d="M28.997,21.375c0,0-4.176-1.992-4.997-1.992s-4.999,1.994-4.999,1.994 S7.511,30.31,2,34.897v1.002c0,0,16.946-11.807,18.324-13.021c1.381-1.214,2.82-1.494,3.676-1.494s2.295,0.28,3.676,1.494 C29.054,24.092,46,35.859,46,35.859v-0.898C41.811,31.515,28.997,21.375,28.997,21.375z" opacity=".16"/><path fill="#dfdfdf" d="M28.997,21.745c0,0-4.176-1.992-4.997-1.992s-4.999,1.994-4.999,1.994 S7.404,30.737,2,35.226v0.927c0,0,16.946-11.692,18.324-12.906c1.381-1.214,2.82-1.494,3.676-1.494s2.295,0.28,3.676,1.494 C29.054,24.462,46,36.074,46,36.074v-0.819C41.811,31.809,28.997,21.745,28.997,21.745z" opacity=".3"/><path fill="#dbdbdb" d="M28.997,22.115c0,0-4.176-1.992-4.997-1.992s-4.999,1.994-4.999,1.994 S7.298,31.164,2,35.556v0.852c0,0,16.946-11.577,18.324-12.791c1.381-1.214,2.82-1.494,3.676-1.494s2.295,0.28,3.676,1.494 C29.054,24.831,46,36.289,46,36.289v-0.74C41.811,32.102,28.997,22.115,28.997,22.115z" opacity=".44"/><path fill="#d7d7d7" d="M28.997,22.484c0,0-4.176-1.992-4.997-1.992s-4.999,1.994-4.999,1.994 S7.191,31.592,2,35.886v0.777c0,0,16.946-11.461,18.324-12.676c1.381-1.214,2.82-1.494,3.676-1.494s2.295,0.28,3.676,1.494 C29.054,25.201,46,36.503,46,36.503v-0.661C41.811,32.396,28.997,22.484,28.997,22.484z" opacity=".58"/><path fill="#d3d3d3" d="M28.997,22.854c0,0-4.176-1.992-4.997-1.992s-4.999,1.994-4.999,1.994 S7.085,32.019,2,36.215v0.702c0,0,16.946-11.346,18.324-12.56c1.381-1.214,2.82-1.494,3.676-1.494s2.295,0.28,3.676,1.494 C29.054,25.57,46,36.718,46,36.718v-0.582C41.811,32.689,28.997,22.854,28.997,22.854z" opacity=".72"/><path fill="#d0d0d0" d="M28.997,23.223c0,0-4.176-1.992-4.997-1.992s-4.999,1.994-4.999,1.994 S6.979,32.447,2,36.545v0.626c0,0,16.946-11.231,18.324-12.445c1.381-1.214,2.82-1.494,3.676-1.494s2.295,0.28,3.676,1.494 C29.054,25.94,46,36.932,46,36.932V36.43C41.811,32.983,28.997,23.223,28.997,23.223z" opacity=".86"/><path fill="#ccc" d="M28.997,23.593c0,0-4.176-1.992-4.997-1.992s-4.999,1.994-4.999,1.994S6.872,32.874,2,36.874v0.551 c0,0,16.946-11.116,18.324-12.33c1.381-1.214,2.82-1.494,3.676-1.494s2.295,0.28,3.676,1.494C29.054,26.31,46,37.147,46,37.147 v-0.423C41.811,33.277,28.997,23.593,28.997,23.593z"/><linearGradient id="eLiPB0jyxGhmUZCqmxXJUc" x1="24" x2="24" y1="28.298" y2="42.612" gradientUnits="userSpaceOnUse"><stop offset="0" stop-color="#efeaea"/><stop offset=".123" stop-color="#e9e7e7"/><stop offset=".357" stop-color="#e6e6e6"/><stop offset=".509" stop-color="#dfdfdf"/><stop offset=".733" stop-color="#cbcbcb"/><stop offset=".999" stop-color="#ababab"/></linearGradient><path fill="url(#eLiPB0jyxGhmUZCqmxXJUc)" d="M46,36.36c0,0-16.946-11.922-18.324-13.136c-1.381-1.214-2.82-1.494-3.676-1.494	s-2.295,0.28-3.676,1.494C18.946,24.437,2,36.36,2,36.36v2.62c0,0.552,0.448,1,1,1h42c0.552,0,1-0.448,1-1V36.36z"/><g><path fill="#e2e2e2" d="M23.964,27.673c-0.856,0-2.295-0.28-3.676-1.494C18.91,24.965,2,11.098,2,11.098 v0.543c5.801,5.163,16.138,15.198,17.137,16.077c2.045,1.798,4.015,1.945,4.836,1.945s2.874-0.047,4.921-1.847 C29.89,26.937,40.373,16.891,46,11.62V11.05c0,0-16.983,13.915-18.36,15.129C26.259,27.393,24.82,27.673,23.964,27.673z" opacity=".143"/><path fill="#dfdfdf" d="M23.927,27.295c-0.856,0-2.295-0.28-3.676-1.494C18.873,24.586,2,10.775,2,10.775 v0.497c5.801,5.163,16.272,15.225,17.27,16.105c2.045,1.798,3.854,1.897,4.675,1.897s2.797,0.099,4.844-1.7 C29.786,26.695,40.373,16.503,46,11.231v-0.553c0,0-17.019,13.908-18.397,15.122C26.222,27.015,24.783,27.295,23.927,27.295z" opacity=".286"/><path fill="#dbdbdb" d="M23.891,26.916c-0.856,0-2.295-0.28-3.676-1.494C18.837,24.208,2,10.452,2,10.452 v0.45c5.801,5.163,16.405,15.253,17.403,16.132c2.045,1.798,3.693,1.85,4.515,1.85s2.72,0.246,4.767-1.553 C29.681,26.453,40.373,16.114,46,10.843v-0.535c0,0-17.055,13.9-18.433,15.114C26.186,26.636,24.747,26.916,23.891,26.916z" opacity=".429"/><path fill="#d7d7d7" d="M23.854,26.538c-0.856,0-2.295-0.28-3.676-1.494C18.8,23.83,2,10.129,2,10.129v0.404 c5.801,5.163,16.538,15.28,17.536,16.159c2.045,1.798,3.533,1.802,4.354,1.802s2.642,0.393,4.689-1.406 C29.576,26.211,40.373,15.725,46,10.454V9.937c0,0-17.092,13.893-18.47,15.107C26.149,26.258,24.71,26.538,23.854,26.538z" opacity=".571"/><path fill="#d3d3d3" d="M23.818,26.16c-0.856,0-2.295-0.28-3.676-1.494C18.764,23.452,2,9.806,2,9.806v0.358 c5.801,5.163,16.671,15.308,17.67,16.187c2.045,1.798,3.372,1.755,4.194,1.755s2.565,0.54,4.612-1.259 C29.472,25.968,40.373,15.336,46,10.065V9.566c0,0-17.128,13.886-18.506,15.1C26.113,25.88,24.674,26.16,23.818,26.16z" opacity=".714"/><path fill="#d0d0d0" d="M23.781,25.782c-0.856,0-2.295-0.28-3.676-1.494C18.727,23.073,2,9.483,2,9.483 v0.312c5.801,5.163,16.805,15.335,17.803,16.214c2.045,1.798,3.212,1.707,4.033,1.707s2.488,0.687,4.535-1.112 C29.367,25.726,40.373,14.947,46,9.676V9.195c0,0-17.165,13.878-18.543,15.092C26.076,25.502,24.637,25.782,23.781,25.782z" opacity=".857"/><path fill="#ccc" d="M23.745,25.403c-0.856,0-2.295-0.28-3.676-1.494C18.691,22.695,2,9.16,2,9.16v0.266 c5.801,5.163,16.938,15.363,17.936,16.242c2.045,1.798,3.051,1.66,3.872,1.66s2.411,0.834,4.457-0.965 C29.262,25.484,40.373,14.558,46,9.287V8.824c0,0-17.201,13.871-18.579,15.085C26.04,25.124,24.601,25.403,23.745,25.403z"/></g><linearGradient id="eLiPB0jyxGhmUZCqmxXJUd" x1="24" x2="24" y1="17.064" y2="-2.894" gradientUnits="userSpaceOnUse"><stop offset="0" stop-color="#fff"/><stop offset=".577" stop-color="#e6e6e6"/><stop offset=".667" stop-color="#dfdfdf"/><stop offset=".799" stop-color="#cbcbcb"/><stop offset=".956" stop-color="#ababab"/></linearGradient><path fill="url(#eLiPB0jyxGhmUZCqmxXJUd)" d="M45,8H3C2.448,8,2,8.448,2,9v0.62c0,0,16.946,13.922,18.324,15.136	c1.381,1.214,2.82,1.494,3.676,1.494s2.295-0.28,3.676-1.494C29.054,23.542,46,9.62,46,9.62V9C46,8.448,45.552,8,45,8z"/><radialGradient id="eLiPB0jyxGhmUZCqmxXJUe" cx="20.573" cy="20.527" r="11.183" gradientUnits="userSpaceOnUse"><stop offset="0" stop-color="#ff7666"/><stop offset=".126" stop-color="#fb6c59"/><stop offset=".714" stop-color="#ec4023"/><stop offset="1" stop-color="#e62f0e"/></radialGradient><path fill="url(#eLiPB0jyxGhmUZCqmxXJUe)" d="M28.091,16.636c-2.435,0-4.091,1.636-4.091,1.636s-1.647-1.636-4.091-1.636	c-2.711,0-4.909,2.198-4.909,4.909c0,4.909,9,9.818,9,9.818s9-4.909,9-9.818C33,18.834,30.802,16.636,28.091,16.636z"/></svg>