<svg xmlns="http://www.w3.org/2000/svg"  viewBox="0 0 48 48" width="48px" height="48px"><radialGradient id="Hz_3_kF396nF1P5KkifFca" cx="9.782" cy="22.213" r="16.495" gradientUnits="userSpaceOnUse"><stop offset="0" stop-color="#e3c7a1"/><stop offset=".629" stop-color="#daae88"/><stop offset=".75" stop-color="#d7a983"/><stop offset=".899" stop-color="#ce9a73"/><stop offset=".999" stop-color="#c68d65"/></radialGradient><path fill="url(#Hz_3_kF396nF1P5KkifFca)" d="M21.471,18.98c-1.327-0.253-2.64,0.546-3.004,1.828l-0.735,2.59l-0.701-2.639	c-0.804-2.674-2.387-7.937-2.405-8c-0.174-0.728-0.58-1.346-1.088-1.651c-0.317-0.191-0.654-0.25-0.974-0.172	c-0.868,0.244-1.307,1.339-1.016,2.559l1.87,9.26c-1.272-4.394-3.391-11.659-3.406-11.713C9.676,9.825,8.748,9.052,7.894,9.279	C7.892,9.279,7.889,9.28,7.887,9.28C7.569,9.367,7.302,9.582,7.116,9.902c-0.298,0.513-0.358,1.25-0.166,1.951l2.403,11.965	c-1.096-3.596-3.181-10.356-3.206-10.442c-0.353-1.204-1.286-1.961-2.133-1.736c-0.007,0.002-0.015,0.004-0.022,0.006	c-0.317,0.091-0.58,0.31-0.761,0.633c-0.29,0.517-0.337,1.255-0.129,1.963l2.748,10.605c0,0-2.611-6.866-2.632-6.925	c-0.417-1.194-1.388-1.904-2.242-1.635c-0.314,0.103-0.567,0.332-0.733,0.661c-0.265,0.527-0.275,1.265-0.036,1.945l3.836,14.662	c0.992,3.736,4.826,5.961,8.562,4.969l5.153-1.368c2.711-0.72,4.674-2.971,5.104-5.659c0.293-2.259-0.267-11.24-0.267-11.24	C22.566,19.627,22.103,19.101,21.471,18.98z"/><radialGradient id="Hz_3_kF396nF1P5KkifFcb" cx="136.793" cy="-97.719" r="3.054" gradientTransform="matrix(-1.0291 -.4893 -.693 1.4573 91.1 238.673)" gradientUnits="userSpaceOnUse"><stop offset=".425" stop-color="#fff"/><stop offset="1" stop-color="#fff" stop-opacity="0"/></radialGradient><path fill="url(#Hz_3_kF396nF1P5KkifFcb)" d="M14.548,27.665c-1.329,2.795-0.84,5.805,1.093,6.724s4.576-0.602,5.905-3.397	s0.84-5.805-1.093-6.724S15.877,24.87,14.548,27.665z" opacity=".15"/><radialGradient id="Hz_3_kF396nF1P5KkifFcc" cx="-125.313" cy="-122.326" r="3.054" gradientTransform="matrix(-.7873 .5928 .9388 1.2467 25.018 258.757)" gradientUnits="userSpaceOnUse"><stop offset=".425" stop-color="#fff"/><stop offset=".996" stop-color="#fff" stop-opacity="0"/></radialGradient><path fill="url(#Hz_3_kF396nF1P5KkifFcc)" d="M6.155,33.976c1.8,2.391,4.458,3.427,5.937,2.314	c1.478-1.113,1.217-3.954-0.583-6.345c-1.8-2.391-4.458-3.427-5.937-2.314S4.354,31.585,6.155,33.976z" opacity=".15"/><linearGradient id="Hz_3_kF396nF1P5KkifFcd" x1="-43.976" x2="-52.157" y1="-205.768" y2="-203.5" gradientTransform="rotate(-13.751 937.544 -352.382)" gradientUnits="userSpaceOnUse"><stop offset="0" stop-color="#e3c7a1" stop-opacity="0"/><stop offset=".605" stop-color="#daae88"/><stop offset=".999" stop-color="#c68d65" stop-opacity=".64"/></linearGradient><path fill="url(#Hz_3_kF396nF1P5KkifFcd)" d="M18.101,24.251c0,0-4.362-0.025-8.487,4.006	c-0.419,0.431-0.166,0.889,0.328,0.537s4.318-3.739,8.218-4.097C18.878,24.58,18.101,24.251,18.101,24.251z" opacity=".66"/><linearGradient id="Hz_3_kF396nF1P5KkifFce" x1="-30.38" x2="-36.666" y1="-207.343" y2="-199.159" gradientTransform="rotate(-15.343 846.874 -268.742)" gradientUnits="userSpaceOnUse"><stop offset="0" stop-color="#e3c7a1" stop-opacity="0"/><stop offset=".605" stop-color="#daae88"/><stop offset=".999" stop-color="#c68d65" stop-opacity=".64"/></linearGradient><path fill="url(#Hz_3_kF396nF1P5KkifFce)" d="M17.57,23.227c-1.093,0.698-2.102,1.619-2.941,2.706	c-0.516,0.667-0.971,1.401-1.337,2.167c-0.614,1.286-1.004,2.724-1.025,4.159c-0.007,0.485,0.035,0.97,0.119,1.448	c0.077,0.435,0.147,1.011,0.394,1.388c0.054,0.114,0.134,0.215,0.245,0.278c0.096,0.055,0.212,0.076,0.319,0.042	c0.009-0.003,0.018-0.006,0.027-0.01c0.22-0.091,0.309-0.384,0.187-0.672c-0.973-2.394-0.288-5.636,1.751-8.275	c0.837-1.082,1.852-1.982,2.946-2.641L17.57,23.227z" opacity=".66"/><linearGradient id="Hz_3_kF396nF1P5KkifFcf" x1="-52.758" x2="-38.42" y1="-208.671" y2="-208.982" gradientTransform="rotate(-15.343 848.277 -298.485)" gradientUnits="userSpaceOnUse"><stop offset="0" stop-color="#daae88"/><stop offset=".605" stop-color="#c68d65"/><stop offset=".999" stop-color="#daae88"/></linearGradient><path fill="url(#Hz_3_kF396nF1P5KkifFcf)" d="M16.94,22.685c0,0-5.959-0.306-13.228,3.666	c-0.747,0.426-0.586,0.924,0.232,0.585c0.818-0.339,7.415-3.653,12.897-3.779C17.869,23.082,16.94,22.685,16.94,22.685z" opacity=".56"/><radialGradient id="Hz_3_kF396nF1P5KkifFcg" cx="-32.09" cy="-134.853" r="3.054" gradientTransform="matrix(-.4259 .1377 .4738 1.4648 52.896 223.317)" gradientUnits="userSpaceOnUse"><stop offset=".425" stop-color="#fff"/><stop offset="1" stop-color="#fff" stop-opacity="0"/></radialGradient><path fill="url(#Hz_3_kF396nF1P5KkifFcg)" d="M1.228,21.837c0.909,2.809,2.293,4.877,3.093,4.618	c0.8-0.259,0.712-2.746-0.197-5.555s-2.293-4.877-3.093-4.618C0.231,16.541,0.319,19.028,1.228,21.837z" opacity=".15"/><radialGradient id="Hz_3_kF396nF1P5KkifFch" cx="-15.363" cy="-86.578" r="3.054" gradientTransform="matrix(-.4336 .119 .5434 1.9808 46.411 191.829)" gradientUnits="userSpaceOnUse"><stop offset=".425" stop-color="#fff"/><stop offset="1" stop-color="#fff" stop-opacity="0"/></radialGradient><path fill="url(#Hz_3_kF396nF1P5KkifFch)" d="M4.549,18.915c1.042,3.799,2.547,6.697,3.361,6.474s0.629-3.484-0.413-7.283	s-2.547-6.697-3.361-6.474S3.507,15.117,4.549,18.915z" opacity=".15"/><radialGradient id="Hz_3_kF396nF1P5KkifFci" cx="-26.089" cy="-84.7" r="3.054" gradientTransform="matrix(-.4625 .114 .5084 2.0617 40.798 194.434)" gradientUnits="userSpaceOnUse"><stop offset=".425" stop-color="#fff"/><stop offset="1" stop-color="#fff" stop-opacity="0"/></radialGradient><path fill="url(#Hz_3_kF396nF1P5KkifFci)" d="M8.232,17.218c0.975,3.954,2.469,6.986,3.338,6.772	c0.869-0.214,0.782-3.593-0.193-7.547S8.908,9.456,8.04,9.671C7.171,9.885,7.257,13.264,8.232,17.218z" opacity=".15"/><radialGradient id="Hz_3_kF396nF1P5KkifFcj" cx="-11.927" cy="-131.073" r="3.054" gradientTransform="matrix(-.4089 .1008 .4062 1.6473 62.434 233.95)" gradientUnits="userSpaceOnUse"><stop offset=".425" stop-color="#fff"/><stop offset="1" stop-color="#fff" stop-opacity="0"/></radialGradient><path fill="url(#Hz_3_kF396nF1P5KkifFcj)" d="M12.68,17.173c0.779,3.159,2.033,5.567,2.801,5.377s0.759-2.904-0.02-6.063	c-0.779-3.159-2.033-5.567-2.801-5.377S11.901,14.014,12.68,17.173z" opacity=".15"/><radialGradient id="Hz_3_kF396nF1P5KkifFck" cx="256.728" cy="22.213" r="16.495" gradientTransform="matrix(-1 0 0 1 294.981 0)" gradientUnits="userSpaceOnUse"><stop offset="0" stop-color="#e3c7a1"/><stop offset=".629" stop-color="#daae88"/><stop offset=".75" stop-color="#d7a983"/><stop offset=".899" stop-color="#ce9a73"/><stop offset=".999" stop-color="#c68d65"/></radialGradient><path fill="url(#Hz_3_kF396nF1P5KkifFck)" d="M26.564,18.98c1.327-0.253,2.64,0.546,3.004,1.828l0.735,2.59l0.701-2.639	c0.804-2.674,2.387-7.937,2.405-8c0.174-0.728,0.58-1.346,1.088-1.651c0.317-0.191,0.654-0.25,0.974-0.172	c0.868,0.244,1.307,1.339,1.016,2.559l-1.87,9.26c1.272-4.394,3.391-11.659,3.406-11.713c0.333-1.218,1.261-1.992,2.116-1.765	c0.002,0.001,0.004,0.001,0.007,0.002c0.318,0.087,0.585,0.302,0.771,0.622c0.298,0.513,0.358,1.25,0.166,1.951l-2.403,11.965	c1.096-3.596,3.181-10.356,3.206-10.442c0.353-1.204,1.286-1.961,2.133-1.736c0.007,0.002,0.015,0.004,0.022,0.006	c0.317,0.091,0.58,0.31,0.761,0.633c0.29,0.517,0.337,1.255,0.129,1.963l-2.748,10.605c0,0,2.611-6.866,2.632-6.925	c0.417-1.194,1.388-1.904,2.242-1.635c0.314,0.103,0.567,0.332,0.733,0.661c0.265,0.527,0.275,1.265,0.036,1.945l-3.836,14.662	c-0.992,3.736-4.826,5.961-8.562,4.969l-5.153-1.368c-2.711-0.72-4.674-2.971-5.104-5.659c-0.293-2.259,0.267-11.24,0.267-11.24	C25.469,19.627,25.932,19.101,26.564,18.98z"/><radialGradient id="Hz_3_kF396nF1P5KkifFcl" cx="-58.925" cy="-182.476" r="3.054" gradientTransform="matrix(1.0291 -.4893 .693 1.4573 217.076 266.42)" gradientUnits="userSpaceOnUse"><stop offset=".425" stop-color="#fff"/><stop offset="1" stop-color="#fff" stop-opacity="0"/></radialGradient><path fill="url(#Hz_3_kF396nF1P5KkifFcl)" d="M33.487,27.665c1.329,2.795,0.84,5.805-1.093,6.724	c-1.932,0.919-4.576-0.602-5.905-3.397c-1.329-2.795-0.84-5.805,1.093-6.724S32.158,24.87,33.487,27.665z" opacity=".15"/><radialGradient id="Hz_3_kF396nF1P5KkifFcm" cx="-325.481" cy=".433" r="3.054" gradientTransform="matrix(.7873 .5928 -.9388 1.2467 295.853 224.377)" gradientUnits="userSpaceOnUse"><stop offset=".425" stop-color="#fff"/><stop offset="1" stop-color="#fff" stop-opacity="0"/></radialGradient><path fill="url(#Hz_3_kF396nF1P5KkifFcm)" d="M41.88,33.976c-1.8,2.391-4.458,3.427-5.937,2.314	c-1.478-1.113-1.217-3.954,0.583-6.345c1.8-2.391,4.458-3.427,5.937-2.314S43.68,31.585,41.88,33.976z" opacity=".15"/><linearGradient id="Hz_3_kF396nF1P5KkifFcn" x1="195.893" x2="187.713" y1="-147.071" y2="-144.804" gradientTransform="scale(-1 1) rotate(-13.751 790.048 870.813)" gradientUnits="userSpaceOnUse"><stop offset="0" stop-color="#e3c7a1" stop-opacity="0"/><stop offset=".605" stop-color="#daae88"/><stop offset=".999" stop-color="#c68d65" stop-opacity=".64"/></linearGradient><path fill="url(#Hz_3_kF396nF1P5KkifFcn)" d="M29.933,24.251c0,0,4.362-0.025,8.487,4.006	c0.419,0.431,0.166,0.889-0.328,0.537s-4.318-3.739-8.218-4.097C29.157,24.58,29.933,24.251,29.933,24.251z" opacity=".66"/><linearGradient id="Hz_3_kF396nF1P5KkifFco" x1="207.767" x2="201.481" y1="-142.006" y2="-133.823" gradientTransform="scale(-1 1) rotate(-15.343 699.389 826.212)" gradientUnits="userSpaceOnUse"><stop offset="0" stop-color="#e3c7a1" stop-opacity="0"/><stop offset=".605" stop-color="#daae88"/><stop offset=".999" stop-color="#c68d65" stop-opacity=".64"/></linearGradient><path fill="url(#Hz_3_kF396nF1P5KkifFco)" d="M30.465,23.227c1.093,0.698,2.102,1.619,2.941,2.706	c0.516,0.667,0.971,1.401,1.337,2.167c0.614,1.286,1.004,2.724,1.025,4.159c0.007,0.485-0.035,0.97-0.119,1.448	c-0.077,0.435-0.147,1.011-0.394,1.388c-0.054,0.114-0.134,0.215-0.245,0.278c-0.096,0.055-0.212,0.076-0.319,0.042	c-0.009-0.003-0.018-0.006-0.027-0.01c-0.22-0.091-0.309-0.384-0.187-0.672c0.973-2.394,0.288-5.636-1.751-8.275	c-0.837-1.082-1.852-1.982-2.946-2.641L30.465,23.227z" opacity=".66"/><linearGradient id="Hz_3_kF396nF1P5KkifFcp" x1="185.388" x2="199.726" y1="-143.335" y2="-143.646" gradientTransform="scale(-1 1) rotate(-15.343 700.792 796.469)" gradientUnits="userSpaceOnUse"><stop offset="0" stop-color="#daae88"/><stop offset=".605" stop-color="#c68d65"/><stop offset=".999" stop-color="#daae88"/></linearGradient><path fill="url(#Hz_3_kF396nF1P5KkifFcp)" d="M31.095,22.685c0,0,5.959-0.306,13.228,3.666	c0.747,0.426,0.586,0.924-0.232,0.585c-0.818-0.339-7.415-3.653-12.897-3.779C30.165,23.082,31.095,22.685,31.095,22.685z" opacity=".56"/><radialGradient id="Hz_3_kF396nF1P5KkifFcq" cx="-557.01" cy="-71.187" r="3.054" gradientTransform="matrix(.4259 .1377 -.4738 1.4648 248.861 202.368)" gradientUnits="userSpaceOnUse"><stop offset=".425" stop-color="#fff"/><stop offset="1" stop-color="#fff" stop-opacity="0"/></radialGradient><path fill="url(#Hz_3_kF396nF1P5KkifFcq)" d="M46.807,21.837c-0.909,2.809-2.293,4.877-3.093,4.618	c-0.8-0.259-0.712-2.746,0.197-5.555c0.909-2.809,2.293-4.877,3.093-4.618C47.804,16.541,47.716,19.028,46.807,21.837z" opacity=".15"/><radialGradient id="Hz_3_kF396nF1P5KkifFcr" cx="-545.035" cy="-45.552" r="3.054" gradientTransform="matrix(.4336 .119 -.5434 1.9808 253.578 173.574)" gradientUnits="userSpaceOnUse"><stop offset=".425" stop-color="#fff"/><stop offset="1" stop-color="#fff" stop-opacity="0"/></radialGradient><path fill="url(#Hz_3_kF396nF1P5KkifFcr)" d="M43.486,18.915c-1.042,3.799-2.547,6.697-3.361,6.474s-0.629-3.484,0.413-7.283	c1.042-3.799,2.547-6.697,3.361-6.474S44.528,15.117,43.486,18.915z" opacity=".15"/><radialGradient id="Hz_3_kF396nF1P5KkifFcs" cx="-529.394" cy="-48.792" r="3.054" gradientTransform="matrix(.4625 .114 -.5084 2.0617 258.284 177.804)" gradientUnits="userSpaceOnUse"><stop offset=".425" stop-color="#fff"/><stop offset="1" stop-color="#fff" stop-opacity="0"/></radialGradient><path fill="url(#Hz_3_kF396nF1P5KkifFcs)" d="M39.802,17.218c-0.975,3.954-2.469,6.986-3.338,6.772	c-0.869-0.214-0.782-3.593,0.193-7.547s2.469-6.986,3.338-6.772C40.863,9.885,40.777,13.264,39.802,17.218z" opacity=".15"/><radialGradient id="Hz_3_kF396nF1P5KkifFct" cx="-581.214" cy="-86.132" r="3.054" gradientTransform="matrix(.4089 .1008 -.4062 1.6473 236.648 217.32)" gradientUnits="userSpaceOnUse"><stop offset=".425" stop-color="#fff"/><stop offset="1" stop-color="#fff" stop-opacity="0"/></radialGradient><path fill="url(#Hz_3_kF396nF1P5KkifFct)" d="M35.355,17.173c-0.779,3.159-2.033,5.567-2.801,5.377	c-0.768-0.189-0.759-2.904,0.02-6.063s2.033-5.567,2.801-5.377C36.143,11.299,36.134,14.014,35.355,17.173z" opacity=".15"/></svg>