<svg xmlns="http://www.w3.org/2000/svg"  viewBox="0 0 48 48" width="48px" height="48px"><linearGradient id="6AddfznU99FxI4sqFn~7Ea" x1="42" x2="42" y1="8" y2="18.875" gradientUnits="userSpaceOnUse"><stop offset=".002" stop-color="#b3b3b3"/><stop offset="1" stop-color="#999"/></linearGradient><path fill="url(#6AddfznU99FxI4sqFn~7Ea)" d="M43.174,20H39V9h4.174C44.182,9,45,9.818,45,10.826v7.348C45,19.182,44.182,20,43.174,20z"/><radialGradient id="6AddfznU99FxI4sqFn~7Eb" cx="42.5" cy="11.5" r="1.5" gradientUnits="userSpaceOnUse"><stop offset="0" stop-color="#c69c6d"/><stop offset=".521" stop-color="#a67c52"/><stop offset=".562" stop-color="#a2784e"/><stop offset=".999" stop-color="#754c24"/></radialGradient><circle cx="42.5" cy="11.5" r="1.5" fill="url(#6AddfznU99FxI4sqFn~7Eb)"/><radialGradient id="6AddfznU99FxI4sqFn~7Ec" cx="43" cy="16" r="1" gradientUnits="userSpaceOnUse"><stop offset="0" stop-color="#c69c6d"/><stop offset=".521" stop-color="#a67c52"/><stop offset=".562" stop-color="#a2784e"/><stop offset=".999" stop-color="#754c24"/></radialGradient><circle cx="43" cy="16" r="1" fill="url(#6AddfznU99FxI4sqFn~7Ec)"/><linearGradient id="6AddfznU99FxI4sqFn~7Ed" x1="-1088" x2="-1088" y1="8" y2="18.875" gradientTransform="matrix(-1 0 0 1 -1082 0)" gradientUnits="userSpaceOnUse"><stop offset=".002" stop-color="#b3b3b3"/><stop offset="1" stop-color="#999"/></linearGradient><path fill="url(#6AddfznU99FxI4sqFn~7Ed)" d="M4.826,20H9V9H4.826C3.818,9,3,9.818,3,10.826v7.348C3,19.182,3.818,20,4.826,20z"/><radialGradient id="6AddfznU99FxI4sqFn~7Ee" cx="5" cy="16" r="1" gradientUnits="userSpaceOnUse"><stop offset="0" stop-color="#c69c6d"/><stop offset=".521" stop-color="#a67c52"/><stop offset=".562" stop-color="#a2784e"/><stop offset=".999" stop-color="#754c24"/></radialGradient><circle cx="5" cy="16" r="1" fill="url(#6AddfznU99FxI4sqFn~7Ee)"/><radialGradient id="6AddfznU99FxI4sqFn~7Ef" cx="5.5" cy="11.5" r="1.5" gradientUnits="userSpaceOnUse"><stop offset="0" stop-color="#c69c6d"/><stop offset=".521" stop-color="#a67c52"/><stop offset=".562" stop-color="#a2784e"/><stop offset=".999" stop-color="#754c24"/></radialGradient><circle cx="5.5" cy="11.5" r="1.5" fill="url(#6AddfznU99FxI4sqFn~7Ef)"/><radialGradient id="6AddfznU99FxI4sqFn~7Eg" cx="24.41" cy="84.767" r="18.255" gradientTransform="matrix(1 0 0 1.0714 0 -46.429)" gradientUnits="userSpaceOnUse"><stop offset=".002" stop-color="#fff"/><stop offset="1" stop-color="#d2d5d6"/></radialGradient><path fill="url(#6AddfznU99FxI4sqFn~7Eg)" d="M45,46c0,0,0-10-8.089-12.517C33.804,32.517,24.018,31,24.001,31 c-0.017,0-9.926,1.186-12.91,2.483C3,37,3,46,3,46H45z"/><radialGradient id="6AddfznU99FxI4sqFn~7Eh" cx="152.829" cy="27.477" r="17.488" gradientTransform="matrix(1 0 .1939 .8818 -138.386 20.673)" gradientUnits="userSpaceOnUse"><stop offset=".002" stop-color="#fff"/><stop offset="1" stop-color="#d2d5d6"/></radialGradient><path fill="url(#6AddfznU99FxI4sqFn~7Eh)" d="M9.482,38.727c0.488,2.296,0.968,4.772,2.033,7.273h2.109 c-1.31-2.446-2.295-4.558-3.186-7.31C10.178,37.799,9.3,37.841,9.482,38.727z"/><radialGradient id="6AddfznU99FxI4sqFn~7Ei" cx="133.407" cy="30.05" r="17.815" gradientTransform="matrix(1 0 .1662 .8854 -118.573 18.318)" gradientUnits="userSpaceOnUse"><stop offset=".002" stop-color="#f7f7f7"/><stop offset="1" stop-color="#d1d3d4"/></radialGradient><path fill="url(#6AddfznU99FxI4sqFn~7Ei)" d="M9.561,38.819c0.497,2.289,0.99,4.711,2.042,7.181h1.912 c-1.293-2.415-2.221-4.501-3.1-7.218C10.182,37.98,9.394,38.023,9.561,38.819z"/><radialGradient id="6AddfznU99FxI4sqFn~7Ej" cx="114.157" cy="32.602" r="18.178" gradientTransform="matrix(1 0 .1385 .889 -98.775 15.962)" gradientUnits="userSpaceOnUse"><stop offset=".002" stop-color="#f0f0f0"/><stop offset="1" stop-color="#cfd2d2"/></radialGradient><path fill="url(#6AddfznU99FxI4sqFn~7Ej)" d="M9.64,38.911c0.507,2.282,1.012,4.651,2.05,7.089h1.715 c-1.277-2.384-2.146-4.443-3.015-7.125C10.187,38.161,9.488,38.206,9.64,38.911z"/><radialGradient id="6AddfznU99FxI4sqFn~7Ek" cx="95.046" cy="35.133" r="18.496" gradientTransform="matrix(1 0 .1108 .8926 -78.99 13.606)" gradientUnits="userSpaceOnUse"><stop offset=".002" stop-color="#e8e8e8"/><stop offset="1" stop-color="#ced0d0"/></radialGradient><path fill="url(#6AddfznU99FxI4sqFn~7Ek)" d="M9.719,39.003c0.517,2.275,1.034,4.591,2.058,6.997h1.518 c-1.26-2.353-2.072-4.386-2.929-7.033C10.192,38.342,9.583,38.388,9.719,39.003z"/><radialGradient id="6AddfznU99FxI4sqFn~7El" cx="76.071" cy="37.644" r="18.767" gradientTransform="matrix(1 0 .0831 .8963 -59.222 11.25)" gradientUnits="userSpaceOnUse"><stop offset=".002" stop-color="#e0e0e0"/><stop offset="1" stop-color="#cdcecf"/></radialGradient><path fill="url(#6AddfznU99FxI4sqFn~7El)" d="M9.797,39.095c0.526,2.268,1.056,4.53,2.067,6.905h1.321 c-1.244-2.322-1.997-4.328-2.843-6.94C10.196,38.523,9.677,38.57,9.797,39.095z"/><radialGradient id="6AddfznU99FxI4sqFn~7Em" cx="57.231" cy="40.135" r="18.988" gradientTransform="matrix(1 0 .0554 .8999 -39.467 8.895)" gradientUnits="userSpaceOnUse"><stop offset=".002" stop-color="#d8d8d8"/><stop offset="1" stop-color="#cccccd"/></radialGradient><path fill="url(#6AddfznU99FxI4sqFn~7Em)" d="M9.876,39.187c0.536,2.261,1.078,4.47,2.075,6.813h1.124 c-1.227-2.291-1.923-4.27-2.757-6.848C10.201,38.704,9.772,38.753,9.876,39.187z"/><radialGradient id="6AddfznU99FxI4sqFn~7En" cx="38.522" cy="42.605" r="19.158" gradientTransform="matrix(1 0 .0277 .9035 -19.727 6.539)" gradientUnits="userSpaceOnUse"><stop offset=".002" stop-color="#d1d1d1"/><stop offset="1" stop-color="#cacbcb"/></radialGradient><path fill="url(#6AddfznU99FxI4sqFn~7En)" d="M9.955,39.279c0.545,2.253,1.1,4.41,2.084,6.721h0.927 c-1.211-2.26-1.848-4.213-2.672-6.756C10.205,38.885,9.866,38.935,9.955,39.279z"/><path fill="#c9c9c9" d="M10.034,39.371c0.555,2.246,1.121,4.349,2.092,6.629h0.73c-1.194-2.229-1.774-4.155-2.586-6.663 C10.21,39.067,9.96,39.117,10.034,39.371z"/><radialGradient id="6AddfznU99FxI4sqFn~7Eo" cx="128.275" cy="-74.733" r="17.488" gradientTransform="matrix(1 0 .1695 .9771 -92.444 117.232)" gradientUnits="userSpaceOnUse"><stop offset=".002" stop-color="#fff"/><stop offset="1" stop-color="#d2d5d6"/></radialGradient><path fill="url(#6AddfznU99FxI4sqFn~7Eo)" d="M6.871,39.745C7.197,41.72,7.503,43.849,8.391,46H10.5c-1.137-2.103-1.973-3.92-2.67-6.286 C7.632,38.947,6.751,38.984,6.871,39.745z"/><radialGradient id="6AddfznU99FxI4sqFn~7Ep" cx="110.733" cy="-54.917" r="17.453" gradientTransform="matrix(1 0 .1453 1.0045 -79.654 99.411)" gradientUnits="userSpaceOnUse"><stop offset=".002" stop-color="#f7f7f7"/><stop offset="1" stop-color="#d1d3d4"/></radialGradient><path fill="url(#6AddfznU99FxI4sqFn~7Ep)" d="M6.944,39.825C7.279,41.793,7.601,43.876,8.478,46h1.912 c-1.123-2.077-1.903-3.87-2.59-6.207C7.624,39.103,6.833,39.141,6.944,39.825z"/><radialGradient id="6AddfznU99FxI4sqFn~7Eq" cx="94.108" cy="-36.154" r="17.412" gradientTransform="matrix(1 0 .1211 1.0319 -66.706 81.591)" gradientUnits="userSpaceOnUse"><stop offset=".002" stop-color="#f0f0f0"/><stop offset="1" stop-color="#cfd2d2"/></radialGradient><path fill="url(#6AddfznU99FxI4sqFn~7Eq)" d="M7.016,39.904c0.346,1.962,0.683,4,1.549,6.096h1.715c-1.108-2.05-1.832-3.821-2.511-6.127 C7.616,39.259,6.914,39.297,7.016,39.904z"/><radialGradient id="6AddfznU99FxI4sqFn~7Er" cx="78.274" cy="-18.363" r="17.289" gradientTransform="matrix(1 0 .0969 1.0593 -53.614 63.77)" gradientUnits="userSpaceOnUse"><stop offset=".002" stop-color="#e8e8e8"/><stop offset="1" stop-color="#ced0d0"/></radialGradient><path fill="url(#6AddfznU99FxI4sqFn~7Er)" d="M7.088,39.983C7.444,41.939,7.798,43.93,8.652,46h1.518 c-1.094-2.024-1.762-3.771-2.432-6.048C7.608,39.415,6.996,39.454,7.088,39.983z"/><radialGradient id="6AddfznU99FxI4sqFn~7Es" cx="63.17" cy="-1.468" r="17.089" gradientTransform="matrix(1 0 .0727 1.0867 -40.388 45.95)" gradientUnits="userSpaceOnUse"><stop offset=".002" stop-color="#e0e0e0"/><stop offset="1" stop-color="#cdcecf"/></radialGradient><path fill="url(#6AddfznU99FxI4sqFn~7Es)" d="M7.16,40.062c0.366,1.95,0.736,3.896,1.579,5.938h1.321 c-1.08-1.997-1.691-3.722-2.353-5.968C7.6,39.57,7.077,39.611,7.16,40.062z"/><radialGradient id="6AddfznU99FxI4sqFn~7Et" cx="48.741" cy="14.595" r="16.818" gradientTransform="matrix(1 0 .0484 1.1141 -27.038 28.13)" gradientUnits="userSpaceOnUse"><stop offset=".002" stop-color="#d8d8d8"/><stop offset="1" stop-color="#cccccd"/></radialGradient><path fill="url(#6AddfznU99FxI4sqFn~7Et)" d="M7.233,40.141C7.608,42.085,7.994,43.985,8.826,46H9.95 c-1.065-1.97-1.621-3.672-2.273-5.889C7.591,39.726,7.159,39.768,7.233,40.141z"/><radialGradient id="6AddfznU99FxI4sqFn~7Eu" cx="34.938" cy="29.887" r="16.478" gradientTransform="matrix(1 0 .0242 1.1415 -13.572 10.31)" gradientUnits="userSpaceOnUse"><stop offset=".002" stop-color="#d1d1d1"/><stop offset="1" stop-color="#cacbcb"/></radialGradient><path fill="url(#6AddfznU99FxI4sqFn~7Eu)" d="M7.305,40.22c0.386,1.938,0.788,3.792,1.609,5.78H9.84 c-1.051-1.944-1.551-3.623-2.194-5.809C7.583,39.882,7.24,39.924,7.305,40.22z"/><path fill="#c9c9c9" d="M7.377,40.299c0.396,1.932,0.814,3.74,1.623,5.701h0.73c-1.036-1.917-1.48-3.573-2.115-5.73 C7.575,40.038,7.322,40.081,7.377,40.299z"/><g><radialGradient id="6AddfznU99FxI4sqFn~7Ev" cx="-922.337" cy="27.477" r="17.488" gradientTransform="matrix(-1 0 -.1939 .8818 -888.962 20.673)" gradientUnits="userSpaceOnUse"><stop offset=".002" stop-color="#fff"/><stop offset="1" stop-color="#d2d5d6"/></radialGradient><path fill="url(#6AddfznU99FxI4sqFn~7Ev)" d="M38.336,38.727c-0.488,2.296-0.968,4.772-2.033,7.273h-2.109 c1.31-2.446,2.295-4.558,3.186-7.31C37.641,37.799,38.519,37.841,38.336,38.727z"/><radialGradient id="6AddfznU99FxI4sqFn~7Ew" cx="-941.759" cy="30.05" r="17.815" gradientTransform="matrix(-1 0 -.1662 .8854 -908.775 18.318)" gradientUnits="userSpaceOnUse"><stop offset=".002" stop-color="#f7f7f7"/><stop offset="1" stop-color="#d1d3d4"/></radialGradient><path fill="url(#6AddfznU99FxI4sqFn~7Ew)" d="M38.257,38.819c-0.497,2.289-0.99,4.711-2.042,7.181h-1.912 c1.293-2.415,2.221-4.501,3.1-7.218C37.636,37.98,38.424,38.023,38.257,38.819z"/><radialGradient id="6AddfznU99FxI4sqFn~7Ex" cx="-961.01" cy="32.602" r="18.178" gradientTransform="matrix(-1 0 -.1385 .889 -928.574 15.962)" gradientUnits="userSpaceOnUse"><stop offset=".002" stop-color="#f0f0f0"/><stop offset="1" stop-color="#cfd2d2"/></radialGradient><path fill="url(#6AddfznU99FxI4sqFn~7Ex)" d="M38.179,38.911c-0.507,2.282-1.012,4.651-2.05,7.089h-1.715 c1.277-2.384,2.146-4.443,3.015-7.125C37.632,38.161,38.33,38.206,38.179,38.911z"/><radialGradient id="6AddfznU99FxI4sqFn~7Ey" cx="-980.121" cy="35.133" r="18.496" gradientTransform="matrix(-1 0 -.1108 .8926 -948.357 13.606)" gradientUnits="userSpaceOnUse"><stop offset=".002" stop-color="#e8e8e8"/><stop offset="1" stop-color="#ced0d0"/></radialGradient><path fill="url(#6AddfznU99FxI4sqFn~7Ey)" d="M38.1,39.003c-0.517,2.275-1.034,4.591-2.058,6.997h-1.518 c1.26-2.353,2.072-4.386,2.929-7.033C37.627,38.342,38.236,38.388,38.1,39.003z"/><radialGradient id="6AddfznU99FxI4sqFn~7Ez" cx="-999.096" cy="37.644" r="18.767" gradientTransform="matrix(-1 0 -.0831 .8963 -968.126 11.25)" gradientUnits="userSpaceOnUse"><stop offset=".002" stop-color="#e0e0e0"/><stop offset="1" stop-color="#cdcecf"/></radialGradient><path fill="url(#6AddfznU99FxI4sqFn~7Ez)" d="M38.021,39.095c-0.526,2.268-1.056,4.53-2.067,6.905h-1.321 c1.244-2.322,1.997-4.328,2.843-6.94C37.622,38.523,38.141,38.57,38.021,39.095z"/><radialGradient id="6AddfznU99FxI4sqFn~7EA" cx="-1017.936" cy="40.135" r="18.988" gradientTransform="matrix(-1 0 -.0554 .8999 -987.881 8.895)" gradientUnits="userSpaceOnUse"><stop offset=".002" stop-color="#d8d8d8"/><stop offset="1" stop-color="#cccccd"/></radialGradient><path fill="url(#6AddfznU99FxI4sqFn~7EA)" d="M37.942,39.187c-0.536,2.261-1.078,4.47-2.075,6.813h-1.124 c1.227-2.291,1.923-4.27,2.757-6.848C37.618,38.704,38.047,38.753,37.942,39.187z"/><radialGradient id="6AddfznU99FxI4sqFn~7EB" cx="-1036.645" cy="42.605" r="19.158" gradientTransform="matrix(-1 0 -.0277 .9035 -1007.622 6.539)" gradientUnits="userSpaceOnUse"><stop offset=".002" stop-color="#d1d1d1"/><stop offset="1" stop-color="#cacbcb"/></radialGradient><path fill="url(#6AddfznU99FxI4sqFn~7EB)" d="M37.864,39.279c-0.545,2.253-1.1,4.41-2.084,6.721h-0.927 c1.211-2.26,1.848-4.213,2.672-6.756C37.613,38.885,37.952,38.935,37.864,39.279z"/><path fill="#c9c9c9" d="M37.785,39.371C37.23,41.617,36.664,43.72,35.693,46h-0.73c1.194-2.229,1.774-4.155,2.586-6.663 C37.609,39.067,37.858,39.117,37.785,39.371z"/></g><g><radialGradient id="6AddfznU99FxI4sqFn~7EC" cx="-946.891" cy="-74.733" r="17.488" gradientTransform="matrix(-1 0 -.1695 .9771 -934.904 117.232)" gradientUnits="userSpaceOnUse"><stop offset=".002" stop-color="#fff"/><stop offset="1" stop-color="#d2d5d6"/></radialGradient><path fill="url(#6AddfznU99FxI4sqFn~7EC)" d="M40.947,39.745c-0.326,1.974-0.631,4.103-1.519,6.255h-2.109 c1.137-2.103,1.973-3.92,2.67-6.286C40.186,38.947,41.067,38.984,40.947,39.745z"/><radialGradient id="6AddfznU99FxI4sqFn~7ED" cx="-964.434" cy="-54.917" r="17.453" gradientTransform="matrix(-1 0 -.1453 1.0045 -947.694 99.411)" gradientUnits="userSpaceOnUse"><stop offset=".002" stop-color="#f7f7f7"/><stop offset="1" stop-color="#d1d3d4"/></radialGradient><path fill="url(#6AddfznU99FxI4sqFn~7ED)" d="M40.875,39.825c-0.336,1.968-0.657,4.051-1.534,6.175h-1.912 c1.123-2.077,1.903-3.87,2.59-6.207C40.194,39.103,40.986,39.141,40.875,39.825z"/><radialGradient id="6AddfznU99FxI4sqFn~7EE" cx="-981.059" cy="-36.154" r="17.412" gradientTransform="matrix(-1 0 -.1211 1.0319 -960.642 81.591)" gradientUnits="userSpaceOnUse"><stop offset=".002" stop-color="#f0f0f0"/><stop offset="1" stop-color="#cfd2d2"/></radialGradient><path fill="url(#6AddfznU99FxI4sqFn~7EE)" d="M40.803,39.904c-0.346,1.962-0.683,4-1.549,6.096h-1.715 c1.108-2.05,1.832-3.821,2.511-6.127C40.203,39.259,40.904,39.297,40.803,39.904z"/><radialGradient id="6AddfznU99FxI4sqFn~7EF" cx="-996.893" cy="-18.363" r="17.289" gradientTransform="matrix(-1 0 -.0969 1.0593 -973.734 63.77)" gradientUnits="userSpaceOnUse"><stop offset=".002" stop-color="#e8e8e8"/><stop offset="1" stop-color="#ced0d0"/></radialGradient><path fill="url(#6AddfznU99FxI4sqFn~7EF)" d="M40.73,39.983c-0.356,1.956-0.71,3.948-1.564,6.017h-1.518 c1.094-2.024,1.762-3.771,2.432-6.048C40.211,39.415,40.823,39.454,40.73,39.983z"/><radialGradient id="6AddfznU99FxI4sqFn~7EG" cx="-1011.997" cy="-1.468" r="17.089" gradientTransform="matrix(-1 0 -.0727 1.0867 -986.96 45.95)" gradientUnits="userSpaceOnUse"><stop offset=".002" stop-color="#e0e0e0"/><stop offset="1" stop-color="#cdcecf"/></radialGradient><path fill="url(#6AddfznU99FxI4sqFn~7EG)" d="M40.658,40.062c-0.366,1.95-0.736,3.896-1.579,5.938h-1.321 c1.08-1.997,1.691-3.722,2.353-5.968C40.219,39.57,40.741,39.611,40.658,40.062z"/><radialGradient id="6AddfznU99FxI4sqFn~7EH" cx="-1026.426" cy="14.595" r="16.818" gradientTransform="matrix(-1 0 -.0484 1.1141 -1000.31 28.13)" gradientUnits="userSpaceOnUse"><stop offset=".002" stop-color="#d8d8d8"/><stop offset="1" stop-color="#cccccd"/></radialGradient><path fill="url(#6AddfznU99FxI4sqFn~7EH)" d="M40.586,40.141c-0.376,1.944-0.762,3.844-1.594,5.859h-1.124 c1.065-1.97,1.621-3.672,2.273-5.889C40.227,39.726,40.66,39.768,40.586,40.141z"/><radialGradient id="6AddfznU99FxI4sqFn~7EI" cx="-1040.228" cy="29.887" r="16.478" gradientTransform="matrix(-1 0 -.0242 1.1415 -1013.776 10.31)" gradientUnits="userSpaceOnUse"><stop offset=".002" stop-color="#d1d1d1"/><stop offset="1" stop-color="#cacbcb"/></radialGradient><path fill="url(#6AddfznU99FxI4sqFn~7EI)" d="M40.514,40.22c-0.386,1.938-0.788,3.792-1.609,5.78h-0.927 c1.051-1.944,1.551-3.623,2.194-5.809C40.235,39.882,40.578,39.924,40.514,40.22z"/><path fill="#c9c9c9" d="M40.441,40.299c-0.396,1.932-0.814,3.74-1.623,5.701h-0.73c1.036-1.917,1.48-3.573,2.115-5.73 C40.244,40.038,40.497,40.081,40.441,40.299z"/></g><g><radialGradient id="6AddfznU99FxI4sqFn~7EJ" cx="24.208" cy="43.125" r="16.837" gradientUnits="userSpaceOnUse"><stop offset=".002" stop-color="#fff"/><stop offset="1" stop-color="#d2d5d6"/></radialGradient><ellipse cx="24" cy="32.917" fill="url(#6AddfznU99FxI4sqFn~7EJ)" rx="12.667" ry="7.333"/><radialGradient id="6AddfznU99FxI4sqFn~7EK" cx="24.209" cy="43.012" r="16.867" gradientUnits="userSpaceOnUse"><stop offset=".002" stop-color="#f0f0f0"/><stop offset="1" stop-color="#cacccd"/></radialGradient><ellipse cx="24" cy="32.804" fill="url(#6AddfznU99FxI4sqFn~7EK)" rx="12.69" ry="7.333"/><radialGradient id="6AddfznU99FxI4sqFn~7EL" cx="24.209" cy="42.899" r="16.897" gradientUnits="userSpaceOnUse"><stop offset=".002" stop-color="#e2e2e2"/><stop offset="1" stop-color="#c2c4c5"/></radialGradient><ellipse cx="24" cy="32.69" fill="url(#6AddfznU99FxI4sqFn~7EL)" rx="12.714" ry="7.333"/><radialGradient id="6AddfznU99FxI4sqFn~7EM" cx="24.209" cy="42.786" r="16.927" gradientUnits="userSpaceOnUse"><stop offset=".002" stop-color="#d3d3d3"/><stop offset="1" stop-color="#babbbc"/></radialGradient><ellipse cx="24" cy="32.577" fill="url(#6AddfznU99FxI4sqFn~7EM)" rx="12.738" ry="7.333"/><radialGradient id="6AddfznU99FxI4sqFn~7EN" cx="24.21" cy="42.673" r="16.957" gradientUnits="userSpaceOnUse"><stop offset=".002" stop-color="#c5c5c5"/><stop offset="1" stop-color="#b1b3b3"/></radialGradient><ellipse cx="24" cy="32.464" fill="url(#6AddfznU99FxI4sqFn~7EN)" rx="12.762" ry="7.333"/><radialGradient id="6AddfznU99FxI4sqFn~7EO" cx="24.21" cy="42.559" r="16.987" gradientUnits="userSpaceOnUse"><stop offset=".002" stop-color="#b6b6b6"/><stop offset="1" stop-color="#a9aaaa"/></radialGradient><ellipse cx="24" cy="32.351" fill="url(#6AddfznU99FxI4sqFn~7EO)" rx="12.786" ry="7.333"/><radialGradient id="6AddfznU99FxI4sqFn~7EP" cx="24.211" cy="42.446" r="17.017" gradientUnits="userSpaceOnUse"><stop offset=".002" stop-color="#a8a8a8"/><stop offset="1" stop-color="#a1a2a2"/></radialGradient><ellipse cx="24" cy="32.238" fill="url(#6AddfznU99FxI4sqFn~7EP)" rx="12.81" ry="7.333"/><ellipse cx="24" cy="32.125" fill="#999" rx="12.833" ry="7.333"/></g><radialGradient id="6AddfznU99FxI4sqFn~7EQ" cx="-59.266" cy="317.692" r="12.76" gradientTransform="matrix(1.1818 0 0 1.875 94.546 -562.114)" gradientUnits="userSpaceOnUse"><stop offset="0" stop-color="#ccc"/><stop offset=".257" stop-color="#c4c4c4"/><stop offset=".648" stop-color="#afafaf"/><stop offset=".965" stop-color="#999"/><stop offset=".999" stop-color="#b3b3b3"/></radialGradient><ellipse cx="24" cy="31.5" fill="url(#6AddfznU99FxI4sqFn~7EQ)" rx="13" ry="7.5"/><radialGradient id="6AddfznU99FxI4sqFn~7ER" cx="-39.707" cy="63.899" r="13.421" gradientTransform="matrix(1.1333 0 0 1.0571 69.333 -34.514)" gradientUnits="userSpaceOnUse"><stop offset=".002" stop-color="#fff"/><stop offset="1" stop-color="#d2d5d6"/></radialGradient><path fill="url(#6AddfznU99FxI4sqFn~7ER)" d="M24.28,37h-0.56C14.486,37,7,29.514,7,20.28v-3.56C7,7.486,14.486,0,23.72,0h0.56 C33.514,0,41,7.486,41,16.72v3.56C41,29.514,33.514,37,24.28,37z"/><radialGradient id="6AddfznU99FxI4sqFn~7ES" cx="-9.707" cy="31.25" r="13.421" gradientTransform="matrix(1.0667 0 0 1 34.667 1)" gradientUnits="userSpaceOnUse"><stop offset="0" stop-color="#666"/><stop offset=".999" stop-color="#333"/></radialGradient><path fill="url(#6AddfznU99FxI4sqFn~7ES)" d="M24.224,36h-0.448C15.063,36,8,28.937,8,20.224v-3.448C8,8.063,15.063,1,23.776,1h0.448 C32.937,1,40,8.063,40,16.776v3.448C40,28.937,32.937,36,24.224,36z"/><g><radialGradient id="6AddfznU99FxI4sqFn~7ET" cx="24" cy="104.15" r="17.333" gradientTransform="matrix(1 0 0 1.1111 0 -72.222)" gradientUnits="userSpaceOnUse"><stop offset=".002" stop-color="#fff"/><stop offset="1" stop-color="#d2d5d6"/></radialGradient><path fill="url(#6AddfznU99FxI4sqFn~7ET)" d="M31.518,41H16.482C15.664,41,15,41.664,15,42.482V46h18v-3.518 C33,41.664,32.336,41,31.518,41z"/><radialGradient id="6AddfznU99FxI4sqFn~7EU" cx="24" cy="96.275" r="17.203" gradientTransform="matrix(1 0 0 1.0952 0 -61.905)" gradientUnits="userSpaceOnUse"><stop offset=".002" stop-color="#f7f7f7"/><stop offset="1" stop-color="#d1d3d4"/></radialGradient><path fill="url(#6AddfznU99FxI4sqFn~7EU)" d="M31.42,41.077H16.58c-0.833,0-1.509,0.675-1.509,1.509V46h17.857v-3.414 C32.929,41.753,32.253,41.077,31.42,41.077z"/><radialGradient id="6AddfznU99FxI4sqFn~7EV" cx="24" cy="88.167" r="17.072" gradientTransform="matrix(1 0 0 1.0794 0 -51.587)" gradientUnits="userSpaceOnUse"><stop offset=".002" stop-color="#f0f0f0"/><stop offset="1" stop-color="#cfd2d2"/></radialGradient><path fill="url(#6AddfznU99FxI4sqFn~7EV)" d="M31.322,41.155H16.678c-0.848,0-1.535,0.687-1.535,1.535V46h17.714v-3.31 C32.857,41.842,32.17,41.155,31.322,41.155z"/><radialGradient id="6AddfznU99FxI4sqFn~7EW" cx="24" cy="79.818" r="16.941" gradientTransform="matrix(1 0 0 1.0635 0 -41.27)" gradientUnits="userSpaceOnUse"><stop offset=".002" stop-color="#e8e8e8"/><stop offset="1" stop-color="#ced0d0"/></radialGradient><path fill="url(#6AddfznU99FxI4sqFn~7EW)" d="M31.224,41.232H16.776c-0.862,0-1.561,0.699-1.561,1.561V46h17.571v-3.207 C32.786,41.931,32.087,41.232,31.224,41.232z"/><radialGradient id="6AddfznU99FxI4sqFn~7EX" cx="24" cy="71.216" r="16.811" gradientTransform="matrix(1 0 0 1.0476 0 -30.952)" gradientUnits="userSpaceOnUse"><stop offset=".002" stop-color="#e0e0e0"/><stop offset="1" stop-color="#cdcecf"/></radialGradient><path fill="url(#6AddfznU99FxI4sqFn~7EX)" d="M31.127,41.31H16.873c-0.877,0-1.588,0.711-1.588,1.588V46h17.429v-3.103 C32.714,42.02,32.003,41.31,31.127,41.31z"/><radialGradient id="6AddfznU99FxI4sqFn~7EY" cx="24" cy="62.349" r="16.68" gradientTransform="matrix(1 0 0 1.0317 0 -20.635)" gradientUnits="userSpaceOnUse"><stop offset=".002" stop-color="#d8d8d8"/><stop offset="1" stop-color="#cccccd"/></radialGradient><path fill="url(#6AddfznU99FxI4sqFn~7EY)" d="M31.029,41.387H16.971c-0.891,0-1.614,0.723-1.614,1.614V46h17.286v-2.999 C32.643,42.11,31.92,41.387,31.029,41.387z"/><radialGradient id="6AddfznU99FxI4sqFn~7EZ" cx="24" cy="53.205" r="16.549" gradientTransform="matrix(1 0 0 1.0159 0 -10.318)" gradientUnits="userSpaceOnUse"><stop offset=".002" stop-color="#d1d1d1"/><stop offset="1" stop-color="#cacbcb"/></radialGradient><path fill="url(#6AddfznU99FxI4sqFn~7EZ)" d="M30.931,41.464H17.069c-0.906,0-1.64,0.734-1.64,1.64V46h17.143v-2.895 C32.571,42.199,31.837,41.464,30.931,41.464z"/><path fill="#c9c9c9" d="M30.833,41.542H17.167c-0.92,0-1.667,0.746-1.667,1.667V46h17v-2.792 C32.5,42.288,31.754,41.542,30.833,41.542z"/><linearGradient id="6AddfznU99FxI4sqFn~7Eaa" x1="24" x2="24" y1="40.938" y2="46.214" gradientUnits="userSpaceOnUse"><stop offset=".002" stop-color="#fff"/><stop offset="1" stop-color="#d2d5d6"/></linearGradient><path fill="url(#6AddfznU99FxI4sqFn~7Eaa)" d="M30.75,42h-13.5C16.56,42,16,42.56,16,43.25V46h16v-2.75C32,42.56,31.44,42,30.75,42z"/><path fill="#999" d="M20.531,41h-2.062C18.21,41,18,41.21,18,41.469V42h3v-0.531C21,41.21,20.79,41,20.531,41z"/><path fill="#999" d="M29.531,41h-2.062C27.21,41,27,41.21,27,41.469V42h3v-0.531C30,41.21,29.79,41,29.531,41z"/></g><linearGradient id="6AddfznU99FxI4sqFn~7Eab" x1="41.438" x2="44.442" y1="44.5" y2="44.5" gradientUnits="userSpaceOnUse"><stop offset="0" stop-color="#ed1c24"/><stop offset=".999" stop-color="#c1272d"/></linearGradient><path fill="url(#6AddfznU99FxI4sqFn~7Eab)" d="M45,46h-4v-3l3.65,0.05C45,44.77,45,46,45,46z"/><linearGradient id="6AddfznU99FxI4sqFn~7Eac" x1="3" x2="7" y1="44.5" y2="44.5" gradientUnits="userSpaceOnUse"><stop offset=".002" stop-color="#90bcfc"/><stop offset=".378" stop-color="#709cdc"/><stop offset=".981" stop-color="#416dac"/></linearGradient><path fill="url(#6AddfznU99FxI4sqFn~7Eac)" d="M7,43v3H3c0,0,0-1.25,0.42-3H7z"/><g><radialGradient id="6AddfznU99FxI4sqFn~7Ead" cx="-1612.224" cy="-227.124" r="4.365" gradientTransform="matrix(-.847 .5316 -.6454 -1.0285 -1501.385 653.411)" gradientUnits="userSpaceOnUse"><stop offset="0" stop-color="#aa8765"/><stop offset=".089" stop-color="#a17c57"/><stop offset=".27" stop-color="#926941"/><stop offset=".385" stop-color="#8c6239"/><stop offset=".516" stop-color="#875d34"/><stop offset=".68" stop-color="#774e27"/><stop offset=".848" stop-color="#603813"/></radialGradient><path fill="url(#6AddfznU99FxI4sqFn~7Ead)" d="M10.792,22.907c0,0,1.118,3.736-0.547,5.15c-0.95,0.874-0.177,1.483,0.278,1.499 c0.559,0.019,0.784-0.013,1.691-0.305c-0.276,0.824-0.648,1.204-1.028,1.52l0.544,0.839c0.61-0.086,1.494-0.539,1.696-0.731 c-0.033,0.463-0.216,0.783-0.377,1.035s0.113,0.737,0.704,0.522c0.343-0.125,0.721-0.397,1.197-0.906 c0.029,0.29,0.266,0.818,0.532,0.808c0.708-0.027,1.329-0.813,1.562-1.105c-0.837-1.289-5.568-8.587-5.568-8.587L10.792,22.907z"/><radialGradient id="6AddfznU99FxI4sqFn~7Eae" cx="685.472" cy="685.52" r="4.366" gradientTransform="matrix(.8731 .4875 .592 -1.0601 -966.868 422.47)" gradientUnits="userSpaceOnUse"><stop offset="0" stop-color="#aa8765"/><stop offset=".089" stop-color="#a17c57"/><stop offset=".27" stop-color="#926941"/><stop offset=".385" stop-color="#8c6239"/><stop offset=".516" stop-color="#875d34"/><stop offset=".68" stop-color="#774e27"/><stop offset=".848" stop-color="#603813"/></radialGradient><path fill="url(#6AddfznU99FxI4sqFn~7Eae)" d="M36.857,22.803c0,0-0.926,3.788,0.81,5.115c1.508,1.153,0.252,1.472-0.201,1.511 c-0.557,0.048-0.783,0.027-1.705-0.218c0.318,0.809,0.708,1.17,1.105,1.465l-0.501,0.866c-0.613-0.055-1.52-0.462-1.731-0.643 c0.056,0.46,0.256,0.771,0.429,1.014s-0.075,0.742-0.676,0.557c-0.349-0.107-0.74-0.359-1.242-0.843 c-0.014,0.291-0.224,0.831-0.49,0.834c-0.708,0.01-1.369-0.744-1.616-1.023c0.77-1.33,5.122-8.86,5.122-8.86L36.857,22.803z"/><radialGradient id="6AddfznU99FxI4sqFn~7Eaf" cx="75.921" cy="17.821" r="1.844" gradientTransform="matrix(.9227 .1748 -.4139 2.1652 -27.07 -29.416)" gradientUnits="userSpaceOnUse"><stop offset="0" stop-color="#ffe16e"/><stop offset=".461" stop-color="#ffd226"/><stop offset=".741" stop-color="#f8c21d"/><stop offset=".999" stop-color="#f0af13"/></radialGradient><path fill="url(#6AddfznU99FxI4sqFn~7Eaf)" d="M35.01,19.762c0.789-0.24,2.696-0.087,2.762,2.116c0.062,2.083-0.482,3.033-1.206,3.927 c-0.811,1.003-2.27,0.996-2.15,0.199C34.537,25.207,35.01,19.762,35.01,19.762z"/><radialGradient id="6AddfznU99FxI4sqFn~7Eag" cx="-1124.393" cy="17.821" r="1.844" gradientTransform="matrix(-.9179 .1748 .4118 2.1652 -1027.485 180.356)" gradientUnits="userSpaceOnUse"><stop offset="0" stop-color="#ffe16e"/><stop offset=".461" stop-color="#ffd226"/><stop offset=".741" stop-color="#f8c21d"/><stop offset=".999" stop-color="#f0af13"/></radialGradient><path fill="url(#6AddfznU99FxI4sqFn~7Eag)" d="M12.535,19.762c-0.785-0.24-2.682-0.087-2.748,2.116c-0.062,2.083,0.48,3.033,1.199,3.927 c0.807,1.003,2.258,0.996,2.139,0.199C13.005,25.207,12.535,19.762,12.535,19.762z"/><radialGradient id="6AddfznU99FxI4sqFn~7Eah" cx="131.728" cy="1120.696" r="14.45" fx="131.653" fy="1114.506" gradientTransform="matrix(.8804 0 0 1.0707 -92.074 -1179.611)" gradientUnits="userSpaceOnUse"><stop offset="0" stop-color="#ffe16e"/><stop offset=".629" stop-color="#ffd226"/><stop offset=".75" stop-color="#fdcd23"/><stop offset=".899" stop-color="#f6bd1b"/><stop offset=".999" stop-color="#f0af13"/></radialGradient><path fill="url(#6AddfznU99FxI4sqFn~7Eah)" d="M36.446,19.894c0,2.859-0.646,5.533-1.771,7.82C32.484,32.169,28.478,36,23.9,36 c-4.579,0-8.585-3.831-10.775-8.286c-1.125-2.287-1.771-4.962-1.771-7.82c0-0.628,0.017-1.221,0.05-1.783 c0.192-3.236,0.922-5.466,2.056-7.529c2.25-4.096,6.086-5.946,10.44-5.946c4.331,0,8.149,1.821,10.404,5.88 C35.656,12.951,36.446,15.656,36.446,19.894z"/><g><radialGradient id="6AddfznU99FxI4sqFn~7Eai" cx="-457.814" cy="-213.792" r="9.636" gradientTransform="matrix(-.0114 .9999 -1.2141 -.0139 -240.886 467.569)" gradientUnits="userSpaceOnUse"><stop offset="0" stop-color="#aa8765"/><stop offset=".145" stop-color="#a17c57"/><stop offset=".441" stop-color="#926941"/><stop offset=".629" stop-color="#8c6239"/><stop offset=".734" stop-color="#875d34"/><stop offset=".865" stop-color="#774e27"/><stop offset=".999" stop-color="#603813"/></radialGradient><path fill="url(#6AddfznU99FxI4sqFn~7Eai)" d="M37.268,12.348c0.373-0.308,0.529-0.828,0.502-1.28c-0.16-2.655-1.974-5.615-4.877-6.309 c-0.156-0.037-0.313-0.084-0.472-0.138c0.393-0.833,0.151-1.635-1.089-1.565c-3.497,0.197-2.534-1.54-5.848-0.855 c-0.397,0.054-0.796,0.167-1.196,0.361c-2.532-1.409-4.859-0.145-6.797,0.96c-1.3,0.741-2.302,0.735-3.366,0.79 c-1.402,0.072-1.069,1.531-0.494,1.733c-1.62,0.745-2.973,2.591-3.256,3.273c-0.245,0.588,0.182,1.246,0.717,1.018 c-0.417,0.634-0.636,1.047-0.636,2.044c-0.831,4.027,0.056,9.697,2.065,12.515c-0.81-3.921-0.509-5.549,0.13-7.437 c3.103-9.137,7.826-5.423,8.208-5.144c1.651,1.209,4.397,1.177,5.904,0.18c0.262-0.173,5.055-4.636,8.394,4.574 c0.445,1.227,0.584,4.855,0.219,8.087C38.688,20.606,37.608,13.838,37.268,12.348z"/><radialGradient id="6AddfznU99FxI4sqFn~7Eaj" cx="23.721" cy="1278.502" r="11.327" gradientTransform="matrix(1 0 0 .8271 0 -1044.019)" gradientUnits="userSpaceOnUse"><stop offset="0" stop-color="#aa8765"/><stop offset=".145" stop-color="#a17c57"/><stop offset=".441" stop-color="#926941"/><stop offset=".629" stop-color="#8c6239"/><stop offset=".734" stop-color="#875d34"/><stop offset=".865" stop-color="#774e27"/><stop offset=".999" stop-color="#603813"/></radialGradient><path fill="url(#6AddfznU99FxI4sqFn~7Eaj)" d="M35.576,23.757c1.408-3.039,1.162-6.415,0.881-7.634c-1.118-4.86-4.7-6.804-6.658-7.315 c-1.523-0.397-2.673-0.186-3.402,0.559c-1.263,1.291-3.568,1.473-4.909-0.073c-0.876-1.01-2.106-0.672-3.159-0.365 c-1.939,0.567-5.954,2.795-6.95,7.169c-0.432,1.895-0.591,4.545,1.089,8.716c0.018,0.026,0.035,0.056,0.053,0.081 c-0.81-3.921-0.51-5.549,0.129-7.437c3.103-9.137,7.826-5.423,8.208-5.144c1.651,1.209,4.397,1.177,5.904,0.18 c0.262-0.173,5.055-4.636,8.394,4.574c0.445,1.227,0.703,3.579,0.338,6.811C35.52,23.844,35.55,23.795,35.576,23.757z"/><radialGradient id="6AddfznU99FxI4sqFn~7Eak" cx="23.713" cy="1278.776" r="11.146" gradientTransform="matrix(1 0 0 .8271 0 -1043.969)" gradientUnits="userSpaceOnUse"><stop offset="0" stop-color="#9f7c59"/><stop offset=".081" stop-color="#9b7652"/><stop offset=".416" stop-color="#8c633c"/><stop offset=".629" stop-color="#865c34"/><stop offset=".744" stop-color="#81572f"/><stop offset=".886" stop-color="#714822"/><stop offset=".999" stop-color="#603813"/></radialGradient><path fill="url(#6AddfznU99FxI4sqFn~7Eak)" d="M18.042,9.367c-1.792,0.607-5.642,2.697-6.587,7.05c-0.408,1.879-0.533,4.417,1.021,8.406 c0.015,0.022,0.03,0.046,0.044,0.063c-0.709-3.422-0.56-5.251,0.148-7.363c1.05-3.136,2.378-4.8,3.774-5.61 c2.048-1.166,3.977,0.208,4.426,0.568c1.617,1.298,4.279,1.24,5.846,0.222c0.087-0.056,0.368-0.293,0.779-0.554 c1.289-0.821,3.399-1.501,5.505,1.034c0.738,0.889,1.472,2.145,2.119,3.904c0.479,1.295,0.741,3.624,0.377,6.792 c0.023-0.033,0.051-0.078,0.074-0.113c1.23-2.689,1.079-5.867,0.78-7.235c-0.97-4.443-4.187-6.366-6.081-7.088 c-1.6-0.61-2.791-0.445-3.589,0.259c-0.421,0.371-0.884,0.698-1.332,0.879c-1.133,0.454-2.722,0.499-3.883-0.791 C20.433,8.643,19.15,8.992,18.042,9.367z"/><radialGradient id="6AddfznU99FxI4sqFn~7Eal" cx="23.705" cy="1279.05" r="10.976" gradientTransform="matrix(1 0 0 .8271 0 -1043.92)" gradientUnits="userSpaceOnUse"><stop offset="0" stop-color="#95704e"/><stop offset=".021" stop-color="#946f4c"/><stop offset=".392" stop-color="#855d36"/><stop offset=".629" stop-color="#7f562e"/><stop offset=".759" stop-color="#7a5129"/><stop offset=".92" stop-color="#6a421c"/><stop offset=".999" stop-color="#603813"/></radialGradient><path fill="url(#6AddfznU99FxI4sqFn~7Eal)" d="M17.755,9.804c-1.648,0.633-5.331,2.599-6.223,6.931c-0.385,1.862-0.474,4.306,0.954,8.115 c0.013,0.018,0.024,0.036,0.035,0.045c-0.608-2.924-0.609-4.969,0.166-7.308c0.971-2.932,2.273-4.639,3.79-5.558 c1.879-1.112,3.749,0.07,4.403,0.618c1.609,1.35,4.164,1.307,5.788,0.263c0.116-0.074,0.396-0.299,0.779-0.555 c1.424-0.95,3.406-1.512,5.473,0.905c0.759,0.887,1.519,2.124,2.16,3.844c0.514,1.363,0.777,3.669,0.414,6.775 c0.02-0.03,0.045-0.07,0.065-0.102c1.052-2.339,0.997-5.319,0.681-6.837c-0.836-4.022-3.673-5.948-5.504-6.861 c-1.679-0.837-2.915-0.708-3.776-0.041c-0.492,0.382-0.983,0.763-1.411,0.952c-1.048,0.457-2.757,0.763-4.11-0.703 C20.255,9.003,18.918,9.357,17.755,9.804z"/><radialGradient id="6AddfznU99FxI4sqFn~7Eam" cx="23.697" cy="1279.32" r="10.804" gradientTransform="matrix(1 0 0 .8271 0 -1043.872)" gradientUnits="userSpaceOnUse"><stop offset="0" stop-color="#8a6542"/><stop offset=".346" stop-color="#7f5731"/><stop offset=".629" stop-color="#795029"/><stop offset=".776" stop-color="#744b24"/><stop offset=".96" stop-color="#643c17"/><stop offset=".999" stop-color="#603813"/></radialGradient><path fill="url(#6AddfznU99FxI4sqFn~7Eam)" d="M17.468,10.242c-1.507,0.649-5.019,2.501-5.86,6.811c-0.361,1.846-0.414,4.188,0.888,7.815 c0.01,0.015,0.018,0.025,0.025,0.027c-0.507-2.426-0.658-4.68,0.181-7.245c0.893-2.728,2.168-4.479,3.806-5.506 c1.711-1.058,3.524-0.072,4.379,0.668c1.61,1.393,4.049,1.376,5.73,0.305c0.145-0.092,0.422-0.308,0.779-0.556 c1.556-1.084,3.415-1.524,5.441,0.776c0.78,0.885,1.562,2.104,2.201,3.783c0.545,1.432,0.818,3.717,0.456,6.759 c0.017-0.027,0.039-0.062,0.056-0.09c0.875-1.99,0.907-4.773,0.577-6.44c-0.713-3.599-3.154-5.546-4.927-6.634 c-1.754-1.077-3.043-0.975-3.963-0.341c-0.566,0.39-1.083,0.828-1.489,1.024c-0.963,0.459-2.791,1.026-4.338-0.614 C20.076,9.363,18.686,9.718,17.468,10.242z"/><radialGradient id="6AddfznU99FxI4sqFn~7Ean" cx="23.688" cy="1279.586" r="10.631" gradientTransform="matrix(1 0 0 .8271 0 -1043.823)" gradientUnits="userSpaceOnUse"><stop offset="0" stop-color="#805a36"/><stop offset=".285" stop-color="#79512b"/><stop offset=".629" stop-color="#734a23"/><stop offset=".803" stop-color="#6e451e"/><stop offset=".999" stop-color="#603813"/></radialGradient><path fill="url(#6AddfznU99FxI4sqFn~7Ean)" d="M17.181,10.679c-1.369,0.655-4.707,2.404-5.496,6.692 c-0.337,1.829-0.357,4.061,0.819,7.507c0.008,0.011,0.013,0.015,0.016,0.008c-0.407-1.928-0.703-4.381,0.201-7.173 c0.817-2.524,2.063-4.318,3.821-5.454c1.542-1.004,3.303-0.217,4.356,0.718c1.613,1.433,3.935,1.445,5.673,0.347 c0.174-0.11,0.448-0.317,0.779-0.557c1.686-1.223,3.426-1.538,5.409,0.647c0.802,0.883,1.608,2.083,2.242,3.723 c0.58,1.5,0.855,3.764,0.493,6.742c0.014-0.023,0.033-0.054,0.047-0.079c0.697-1.64,0.819-4.225,0.477-6.043 c-0.598-3.174-2.629-5.154-4.349-6.407c-1.822-1.326-3.173-1.245-4.149-0.64c-0.641,0.397-1.182,0.894-1.568,1.096 c-0.878,0.462-2.826,1.29-4.566-0.525C19.897,9.723,18.45,10.072,17.181,10.679z"/><radialGradient id="6AddfznU99FxI4sqFn~7Eao" cx="23.678" cy="1279.852" r="10.46" gradientTransform="matrix(1 0 0 .8271 0 -1043.775)" gradientUnits="userSpaceOnUse"><stop offset="0" stop-color="#754f2a"/><stop offset=".151" stop-color="#724b26"/><stop offset=".629" stop-color="#6d441e"/><stop offset=".847" stop-color="#683f19"/><stop offset=".999" stop-color="#603813"/></radialGradient><path fill="url(#6AddfznU99FxI4sqFn~7Eao)" d="M16.894,11.116c-1.235,0.654-4.396,2.306-5.133,6.573 c-0.314,1.813-0.299,3.933,0.751,7.197c0.005,0.007,0.007,0.005,0.007-0.01c-0.306-1.43-0.747-4.08,0.22-7.098 c0.743-2.319,1.958-4.157,3.837-5.402c1.374-0.95,3.084-0.366,4.332,0.767c1.619,1.471,3.822,1.516,5.615,0.388 c0.203-0.127,0.472-0.327,0.779-0.558c1.811-1.366,3.438-1.553,5.378,0.517c0.825,0.88,1.658,2.061,2.283,3.662 c0.617,1.567,0.892,3.814,0.531,6.728c0.01-0.02,0.027-0.046,0.038-0.068c0.519-1.29,0.727-3.679,0.377-5.649 c-0.489-2.748-2.096-4.769-3.772-6.18c-1.882-1.585-3.304-1.518-4.336-0.94c-0.717,0.401-1.282,0.959-1.646,1.169 c-0.793,0.465-2.861,1.553-4.794-0.437C19.719,10.083,18.211,10.419,16.894,11.116z"/><radialGradient id="6AddfznU99FxI4sqFn~7Eap" cx="23.667" cy="1280.117" r="10.293" gradientTransform="matrix(1 0 0 .8271 0 -1043.727)" gradientUnits="userSpaceOnUse"><stop offset="0" stop-color="#6b431f"/><stop offset=".629" stop-color="#663e18"/><stop offset=".975" stop-color="#613914"/><stop offset=".999" stop-color="#603813"/></radialGradient><path fill="url(#6AddfznU99FxI4sqFn~7Eap)" d="M16.607,11.554c-1.106,0.648-4.084,2.208-4.769,6.454c-0.29,1.796-0.24,3.805,0.683,6.887 c0.003,0.004,0.002-0.005-0.002-0.028c-0.205-0.932-0.784-3.777,0.238-7.026c0.673-2.113,1.853-3.997,3.853-5.35 c1.205-0.896,2.869-0.518,4.309,0.817c1.626,1.508,3.71,1.588,5.557,0.43c0.232-0.145,0.497-0.338,0.779-0.559 c1.931-1.516,3.452-1.569,5.346,0.388c0.848,0.876,1.705,2.04,2.324,3.602c0.652,1.635,0.929,3.858,0.569,6.71 c0.007-0.016,0.022-0.038,0.029-0.056c0.341-0.941,0.629-3.128,0.277-5.249c-0.386-2.322-1.557-4.387-3.195-5.953 c-1.933-1.849-3.435-1.793-4.523-1.24c-0.793,0.403-1.381,1.024-1.724,1.241c-0.709,0.467-2.895,1.817-5.021-0.348 C19.54,10.443,17.967,10.757,16.607,11.554z"/><path fill="#603813" d="M12.521,24.895c0,0-2.13-7.978,4.124-12.288c1.037-0.842,2.657-0.672,4.285,0.867 c1.858,1.756,4.139,1.661,6.278-0.089c2.045-1.673,3.467-1.588,5.314,0.259s3.652,4.954,2.972,10.235 c0.292-0.972,1.16-6.789-2.421-10.624c-3.481-3.729-5.767-0.745-6.513-0.227c-0.624,0.47-2.93,2.08-5.249-0.259 c-1.949-1.966-3.597-1.685-4.99-0.778C14.927,12.899,9.832,15.11,12.521,24.895z"/></g><g><path fill="#f4b922" d="M12.521,24.895c0.041-3.086-0.186-6.65,4.253-10.441c1.025-0.833,2.559-0.687,4.169,0.834 c1.836,1.736,4.118,1.859,6.232,0.13c2.021-1.654,3.402-1.798,4.982-0.316c1.882,1.767,3.199,3.868,3.337,8.777 c0.288-0.961,1.101-6.126-2.438-9.917c-3.441-3.686-5.701-0.737-6.437-0.224c-0.617,0.464-2.896,2.056-5.188-0.256 c-1.926-1.944-3.449-1.754-4.826-0.858C15.227,13.52,10.383,17.653,12.521,24.895z"/><path fill="#dba31f" d="M12.521,24.895c0.035-2.645-0.432-6.772,4.256-10.63c1.025-0.833,2.568-0.688,4.177,0.833 c1.836,1.736,4.118,1.859,6.232,0.13c2.021-1.654,3.406-1.766,5.02-0.234c1.874,1.775,3.205,3.924,3.288,8.885 c0.288-0.961,1.099-6.126-2.44-9.917c-3.441-3.686-5.701-0.737-6.437-0.224c-0.617,0.464-2.896,2.056-5.188-0.256 c-1.926-1.944-3.449-1.754-4.826-0.858C15.227,13.52,10.383,17.653,12.521,24.895z"/><path fill="#c18e1b" d="M12.521,24.895c0.029-2.204-0.677-6.894,4.26-10.818c1.025-0.833,2.576-0.689,4.186,0.832 c1.836,1.736,4.118,1.859,6.232,0.13c2.021-1.654,3.409-1.733,5.059-0.152c1.866,1.783,3.208,3.979,3.236,8.992 c0.288-0.961,1.1-6.125-2.439-9.916c-3.441-3.686-5.701-0.737-6.437-0.224c-0.617,0.464-2.896,2.056-5.188-0.256 c-1.926-1.944-3.449-1.754-4.826-0.858C15.227,13.52,10.383,17.653,12.521,24.895z"/><path fill="#a87818" d="M12.521,24.895c0.023-1.764-0.922-7.015,4.263-11.007c1.025-0.833,2.585-0.69,4.194,0.831 c1.836,1.736,4.118,1.859,6.232,0.13c2.021-1.654,3.413-1.7,5.098-0.071c1.858,1.792,3.211,4.036,3.186,9.101 c0.288-0.961,1.1-6.126-2.439-9.917c-3.441-3.686-5.701-0.737-6.437-0.224c-0.617,0.464-2.896,2.056-5.188-0.256 c-1.926-1.944-3.449-1.754-4.826-0.858C15.227,13.52,10.383,17.653,12.521,24.895z"/><path fill="#8e6215" d="M12.521,24.895c0.017-1.323-1.168-7.137,4.267-11.196c1.025-0.833,2.593-0.692,4.203,0.83 c1.836,1.736,4.118,1.859,6.232,0.13c2.021-1.654,3.416-1.667,5.136,0.011c1.85,1.8,3.215,4.092,3.135,9.209 c0.288-0.961,1.1-6.126-2.439-9.917c-3.441-3.686-5.701-0.737-6.437-0.224c-0.617,0.464-2.896,2.056-5.188-0.256 c-1.926-1.944-3.449-1.754-4.826-0.858C15.227,13.52,10.383,17.653,12.521,24.895z"/><path fill="#754c12" d="M12.521,24.895c0.012-0.882-1.413-7.259,4.27-11.384c1.025-0.833,2.602-0.693,4.211,0.829 c1.836,1.736,4.118,1.859,6.232,0.13c2.021-1.654,3.42-1.635,5.175,0.093c1.842,1.809,3.219,4.147,3.085,9.316 c0.288-0.961,1.1-6.125-2.439-9.916c-3.441-3.686-5.701-0.737-6.437-0.224c-0.617,0.464-2.896,2.056-5.188-0.256 c-1.926-1.944-3.449-1.754-4.826-0.858C15.227,13.52,10.383,17.653,12.521,24.895z"/><path fill="#5b370e" d="M12.521,24.895c0.006-0.441-1.659-7.38,4.273-11.573c1.025-0.833,2.611-0.694,4.22,0.827 c1.836,1.736,4.118,1.859,6.232,0.13c2.021-1.654,3.423-1.602,5.214,0.174c1.834,1.817,3.222,4.205,3.034,9.426 c0.288-0.961,1.1-6.127-2.439-9.918c-3.441-3.686-5.701-0.737-6.437-0.224c-0.617,0.464-2.896,2.056-5.188-0.256 c-1.926-1.944-3.449-1.754-4.826-0.858C15.227,13.52,10.383,17.653,12.521,24.895z"/><path fill="#42210b" d="M12.521,24.895c0,0-1.904-7.502,4.277-11.762c1.025-0.833,2.619-0.695,4.228,0.826 c1.836,1.736,4.118,1.859,6.232,0.13c2.021-1.654,3.427-1.569,5.252,0.256s3.227,4.261,2.984,9.534 c0.288-0.961,1.099-6.127-2.44-9.918c-3.441-3.686-5.701-0.737-6.437-0.224c-0.617,0.464-2.896,2.056-5.188-0.256 c-1.926-1.944-3.449-1.754-4.826-0.858C15.227,13.52,10.383,17.653,12.521,24.895z"/></g><g><radialGradient id="6AddfznU99FxI4sqFn~7Eaq" cx="-289.537" cy="1050.393" r="1.709" gradientTransform="matrix(1.37 0 0 1.3195 420.693 -1359.43)" gradientUnits="userSpaceOnUse"><stop offset=".245" stop-color="#cc9000"/><stop offset=".415" stop-color="#d09504" stop-opacity=".822"/><stop offset=".627" stop-color="#dca50f" stop-opacity=".599"/><stop offset=".851" stop-color="#eebd20" stop-opacity=".363"/><stop offset="1" stop-color="#fed12e" stop-opacity="0"/></radialGradient><path fill="url(#6AddfznU99FxI4sqFn~7Eaq)" d="M24.01,27.243c-0.788,0-1.429-0.2-1.825-0.417c-0.291-0.16-0.586-0.086-0.393,0.415 c0.261,0.679,0.858,1.48,2.218,1.48c1.337,0,1.936-0.773,2.204-1.445c0.206-0.516-0.091-0.568-0.344-0.449 C25.382,27.055,24.778,27.243,24.01,27.243z"/><radialGradient id="6AddfznU99FxI4sqFn~7Ear" cx="-294.856" cy="1329.788" r="1.761" gradientTransform="matrix(1.4827 .036 -.0172 .7101 484.159 -907.262)" gradientUnits="userSpaceOnUse"><stop offset=".479" stop-color="#fed53f"/><stop offset=".926" stop-color="#fed53f" stop-opacity=".141"/><stop offset="1" stop-color="#fed53f" stop-opacity="0"/></radialGradient><path fill="url(#6AddfznU99FxI4sqFn~7Ear)" d="M26.874,26.473c-0.018,0.757-1.286,1.339-2.831,1.302 c-1.545-0.038-2.782-0.681-2.764-1.438s1.286-1.339,2.831-1.302C25.655,25.073,26.892,25.717,26.874,26.473z"/><radialGradient id="6AddfznU99FxI4sqFn~7Eas" cx="24.117" cy="1597.261" r="1.411" gradientTransform="matrix(1 0 0 .6596 0 -1027.196)" gradientUnits="userSpaceOnUse"><stop offset=".004" stop-color="#fff4c9"/><stop offset="1" stop-color="#fff4c9" stop-opacity="0"/></radialGradient><ellipse cx="24.117" cy="26.357" fill="url(#6AddfznU99FxI4sqFn~7Eas)" rx="1.411" ry=".931"/></g><g><path fill="#805b2a" d="M14.322,22.228c-0.023,0.367,0.055,0.336,0.196,0.519c0,0,1.594,2.204,6.402,0.695 c0.348-0.124,0.598-0.36,0.562-0.644C20.866,17.916,14.699,18.633,14.322,22.228z"/><path fill="#fff" d="M14.393,22.008c-0.12,0.258-0.082,0.464,0,0.672c0.343,0.906,3.095,4.131,6.809,0.745 c0.277-0.239,0.321-0.45,0.252-0.748c-0.069-0.299-1.031-2.739-3.552-2.739C15.405,19.938,14.601,21.657,14.393,22.008z"/><linearGradient id="6AddfznU99FxI4sqFn~7Eat" x1="15.901" x2="20.085" y1="1174.007" y2="1174.007" gradientTransform="translate(0 -1152)" gradientUnits="userSpaceOnUse"><stop offset="0" stop-color="#c69c6d"/><stop offset="1" stop-color="#754c24"/></linearGradient><circle cx="17.993" cy="22.007" r="2.092" fill="url(#6AddfznU99FxI4sqFn~7Eat)"/><radialGradient id="6AddfznU99FxI4sqFn~7Eau" cx="17.993" cy="1174.007" r="1.053" gradientTransform="translate(0 -1152)" gradientUnits="userSpaceOnUse"><stop offset="0" stop-color="#1c1911"/><stop offset=".999" stop-color="#171714"/></radialGradient><circle cx="17.993" cy="22.007" r="1.053" fill="url(#6AddfznU99FxI4sqFn~7Eau)"/><circle cx="17.484" cy="21.464" r=".494" fill="#fff"/></g><g><path fill="#805b2a" d="M33.574,22.228c0.023,0.367-0.055,0.336-0.196,0.519c0,0-1.594,2.204-6.402,0.695 c-0.348-0.124-0.598-0.36-0.562-0.644C27.03,17.916,33.197,18.633,33.574,22.228z"/><path fill="#fff" d="M33.503,22.008c0.12,0.258,0.082,0.464,0,0.672c-0.343,0.906-3.095,4.131-6.809,0.745 c-0.277-0.239-0.321-0.45-0.252-0.748c0.069-0.299,1.031-2.739,3.552-2.739C32.49,19.938,33.295,21.657,33.503,22.008z"/><linearGradient id="6AddfznU99FxI4sqFn~7Eav" x1="73.432" x2="77.616" y1="84.13" y2="84.13" gradientTransform="matrix(1 0 0 -1 -45.622 106.137)" gradientUnits="userSpaceOnUse"><stop offset="0" stop-color="#c69c6d"/><stop offset="1" stop-color="#754c24"/></linearGradient><circle cx="29.902" cy="22.007" r="2.092" fill="url(#6AddfznU99FxI4sqFn~7Eav)"/><radialGradient id="6AddfznU99FxI4sqFn~7Eaw" cx="-2142.476" cy="1174.007" r="1.053" gradientTransform="matrix(-1 0 0 1 -2112.574 -1152)" gradientUnits="userSpaceOnUse"><stop offset="0" stop-color="#1c1911"/><stop offset=".999" stop-color="#171714"/></radialGradient><circle cx="29.902" cy="22.007" r="1.053" fill="url(#6AddfznU99FxI4sqFn~7Eaw)"/><circle cx="29.422" cy="21.464" r=".494" fill="#fff"/></g><g><path fill="#805b2a" d="M32.167,18.379c-1.366-0.349-2.812-0.246-4.06,0.234c-0.388,0.149-0.824-0.044-0.974-0.433 c-0.149-0.388,0.044-0.824,0.433-0.974c0.04-0.015,0.081-0.027,0.122-0.035l0.017-0.003c1.614-0.316,3.275-0.127,4.712,0.517 c0.187,0.083,0.27,0.302,0.187,0.489c-0.075,0.167-0.258,0.251-0.429,0.207L32.167,18.379z"/><path fill="#805b2a" d="M15.833,17.684c1.437-0.643,3.098-0.833,4.712-0.517l0.013,0.003 c0.408,0.08,0.675,0.476,0.595,0.884s-0.476,0.675-0.884,0.595c-0.042-0.008-0.087-0.021-0.126-0.036 c-1.248-0.48-2.693-0.583-4.06-0.234l-0.007,0.002c-0.198,0.051-0.4-0.069-0.45-0.267C15.581,17.936,15.672,17.756,15.833,17.684z"/></g><g><radialGradient id="6AddfznU99FxI4sqFn~7Eax" cx="-146.126" cy="1195.591" r="2.561" gradientTransform="matrix(1.1109 0 0 1.3094 186.358 -1535.369)" gradientUnits="userSpaceOnUse"><stop offset=".696" stop-color="#cc9000"/><stop offset="1" stop-color="#cc9000" stop-opacity="0"/></radialGradient><path fill="url(#6AddfznU99FxI4sqFn~7Eax)" d="M24,32.091c-2.85,0-2.946-1.638-2.946-1.638s0.07,3.276,2.946,3.276 s2.946-3.276,2.946-3.276S26.85,32.091,24,32.091z"/><radialGradient id="6AddfznU99FxI4sqFn~7Eay" cx="292.454" cy="1999.369" r="3.248" fx="292.452" fy="1999.491" gradientTransform="matrix(.7953 0 0 .5951 -208.59 -1158.778)" gradientUnits="userSpaceOnUse"><stop offset=".371" stop-color="#ffd226"/><stop offset=".948" stop-color="#ffe16e"/><stop offset="1" stop-color="#ffe16e" stop-opacity="0"/></radialGradient><path fill="url(#6AddfznU99FxI4sqFn~7Eay)" d="M27.094,30.961c0,0,0.039,1.526-3.094,1.526s-3.094-1.526-3.094-1.526 S21.593,31.73,24,31.73S27.094,30.961,27.094,30.961z"/><radialGradient id="6AddfznU99FxI4sqFn~7Eaz" cx="204.286" cy="2451.909" r="3.162" gradientTransform="matrix(.8379 0 0 .4972 -147.13 -1188.179)" gradientUnits="userSpaceOnUse"><stop offset="0" stop-color="#1c1911"/><stop offset=".999" stop-color="#171714"/></radialGradient><path fill="url(#6AddfznU99FxI4sqFn~7Eaz)" d="M21.12,30.938c-0.169,0-0.267,0.104-0.184,0.188c0.618,0.624,2.032,0.812,3.064,0.812 c1.121,0,2.446-0.188,3.064-0.812c0.083-0.084-0.015-0.188-0.184-0.188C24.975,31.011,23.055,31.016,21.12,30.938z"/></g></g><g><radialGradient id="6AddfznU99FxI4sqFn~7EaA" cx="24" cy="12.771" r="12.391" gradientUnits="userSpaceOnUse"><stop offset="0" stop-color="#573111" stop-opacity=".286"/><stop offset=".999" stop-color="#573111" stop-opacity=".429"/></radialGradient><path fill="url(#6AddfznU99FxI4sqFn~7EaA)" d="M38.307,10.322C34.461,7.396,29.466,5.625,24,5.625S13.539,7.396,9.693,10.322 C8.684,12.314,8,13.625,8,19.918c0.664-2.856,10.297-4.628,16-4.772c5.885-0.148,15.086,1.729,16,4.772 C40,12.625,39.316,12.314,38.307,10.322z"/><radialGradient id="6AddfznU99FxI4sqFn~7EaB" cx="24" cy="12.651" r="12.389" gradientUnits="userSpaceOnUse"><stop offset="0" stop-color="#542f10" stop-opacity=".388"/><stop offset=".999" stop-color="#542f10" stop-opacity=".51"/></radialGradient><path fill="url(#6AddfznU99FxI4sqFn~7EaB)" d="M38.307,10.201C34.461,7.276,29.466,5.504,24,5.504S13.539,7.276,9.693,10.201 c-1.009,1.992-1.69,3.303-1.69,9.596C8.667,16.942,18.297,15.169,24,15.025c5.885-0.148,15.083,1.729,15.997,4.772 C39.997,12.504,39.316,12.193,38.307,10.201z"/><radialGradient id="6AddfznU99FxI4sqFn~7EaC" cx="24" cy="12.53" r="12.387" gradientUnits="userSpaceOnUse"><stop offset="0" stop-color="#512c0f" stop-opacity=".49"/><stop offset=".999" stop-color="#512c0f" stop-opacity=".592"/></radialGradient><path fill="url(#6AddfznU99FxI4sqFn~7EaC)" d="M38.307,10.081C34.461,7.155,29.466,5.384,24,5.384S13.539,7.155,9.693,10.081 c-1.009,1.992-1.686,3.303-1.686,9.596c0.664-2.856,10.29-4.628,15.993-4.772c5.885-0.148,15.079,1.729,15.993,4.772 C39.993,12.384,39.316,12.073,38.307,10.081z"/><radialGradient id="6AddfznU99FxI4sqFn~7EaD" cx="24" cy="12.41" r="12.384" gradientUnits="userSpaceOnUse"><stop offset="0" stop-color="#4e2a0e" stop-opacity=".592"/><stop offset=".999" stop-color="#4e2a0e" stop-opacity=".673"/></radialGradient><path fill="url(#6AddfznU99FxI4sqFn~7EaD)" d="M38.307,9.96C34.461,7.035,29.466,5.263,24,5.263S13.539,7.035,9.693,9.96 c-1.009,1.992-1.683,3.303-1.683,9.596c0.664-2.856,10.287-4.628,15.99-4.772c5.885-0.148,15.076,1.729,15.99,4.772 C39.99,12.263,39.316,11.952,38.307,9.96z"/><radialGradient id="6AddfznU99FxI4sqFn~7EaE" cx="24" cy="12.289" r="12.382" gradientUnits="userSpaceOnUse"><stop offset="0" stop-color="#4b280e" stop-opacity=".694"/><stop offset=".999" stop-color="#4b280e" stop-opacity=".755"/></radialGradient><path fill="url(#6AddfznU99FxI4sqFn~7EaE)" d="M38.307,9.84C34.461,6.914,29.466,5.143,24,5.143S13.539,6.914,9.693,9.84 c-1.009,1.992-1.679,3.303-1.679,9.596C8.677,16.58,18.297,14.807,24,14.664c5.885-0.148,15.073,1.729,15.987,4.772 C39.987,12.143,39.316,11.832,38.307,9.84z"/><radialGradient id="6AddfznU99FxI4sqFn~7EaF" cx="24" cy="12.169" r="12.38" gradientUnits="userSpaceOnUse"><stop offset="0" stop-color="#48260d" stop-opacity=".796"/><stop offset=".999" stop-color="#48260d" stop-opacity=".837"/></radialGradient><path fill="url(#6AddfznU99FxI4sqFn~7EaF)" d="M38.307,9.719C34.461,6.794,29.466,5.022,24,5.022S13.539,6.794,9.693,9.719 c-1.009,1.992-1.676,3.303-1.676,9.596C8.681,16.46,18.297,14.687,24,14.543c5.885-0.148,15.069,1.729,15.983,4.772 C39.983,12.022,39.316,11.711,38.307,9.719z"/><radialGradient id="6AddfznU99FxI4sqFn~7EaG" cx="24" cy="12.048" r="12.378" gradientUnits="userSpaceOnUse"><stop offset="0" stop-color="#45230c" stop-opacity=".898"/><stop offset=".999" stop-color="#45230c" stop-opacity=".918"/></radialGradient><path fill="url(#6AddfznU99FxI4sqFn~7EaG)" d="M38.307,9.598C34.461,6.673,29.466,4.902,24,4.902S13.539,6.673,9.693,9.598 c-1.009,1.992-1.673,3.303-1.673,9.596c0.664-2.856,10.277-4.628,15.98-4.772c5.885-0.148,15.066,1.729,15.98,4.772 C39.98,11.902,39.316,11.591,38.307,9.598z"/><path fill="#42210b" d="M38.307,9.478C34.461,6.553,29.466,4.781,24,4.781S13.539,6.553,9.693,9.478 c-1.009,1.992-1.669,3.303-1.669,9.596C8.687,16.219,18.297,14.446,24,14.302c5.885-0.148,15.062,1.729,15.976,4.772 C39.976,11.781,39.316,11.47,38.307,9.478z"/><radialGradient id="6AddfznU99FxI4sqFn~7EaH" cx="24.626" cy="11.965" r="22.339" gradientTransform="matrix(1 0 0 .7156 0 3.403)" gradientUnits="userSpaceOnUse"><stop offset="0" stop-color="#fff"/><stop offset=".152" stop-color="#e3d5c8"/><stop offset=".309" stop-color="#c9af95"/><stop offset=".447" stop-color="#b69371"/><stop offset=".558" stop-color="#aa825a"/><stop offset=".629" stop-color="#a67c52"/><stop offset=".728" stop-color="#a1774d"/><stop offset=".85" stop-color="#91683f"/><stop offset=".986" stop-color="#784f27"/><stop offset=".999" stop-color="#754c24"/></radialGradient><path fill="url(#6AddfznU99FxI4sqFn~7EaH)" d="M40,16.78v2.42c-0.01,0.03-0.01,0.06-0.02,0.09C39.98,16,29.96,13.84,24,14 c-5.77,0.16-15.98,2-15.98,5.29C8.01,19.24,8,19.19,8,19.15v-2.37c0-2.38,0.53-4.64,1.47-6.66C9.54,9.98,9.62,9.84,9.69,9.7 C13.54,6.77,18.53,5,24,5s10.46,1.77,14.31,4.7c0.06,0.11,0.12,0.23,0.18,0.34C39.46,12.08,40,14.37,40,16.78z"/><path fill="#4b4b4b" d="M8.217,14.214C9.95,9.553,16.368,6.092,24,6.092s14.079,3.461,15.811,8.122l0.834-0.021 C38.928,6.638,32.355,1.015,24.284,1.015h-0.568c-8.071,0-14.477,5.644-16.195,13.199H8.217z"/><radialGradient id="6AddfznU99FxI4sqFn~7EaI" cx="24" cy="13.617" r="8.68" gradientTransform="matrix(1 0 0 .5009 0 -2.223)" gradientUnits="userSpaceOnUse"><stop offset=".002" stop-color="#fff"/><stop offset="1" stop-color="#d2d5d6"/></radialGradient><path fill="url(#6AddfznU99FxI4sqFn~7EaI)" d="M8.074,15.229C8.475,9.579,15.421,5.076,24,5.076s15.525,4.503,15.925,10.153h0.987 C40.051,6.674,32.933,0,24.28,0h-0.56C15.067,0,7.949,6.674,7.088,15.229H8.074z"/><radialGradient id="6AddfznU99FxI4sqFn~7EaJ" cx="24.332" cy="34.827" r="14.863" gradientUnits="userSpaceOnUse"><stop offset=".002" stop-color="#fff"/><stop offset="1" stop-color="#d2d5d6"/></radialGradient><path fill="url(#6AddfznU99FxI4sqFn~7EaJ)" d="M8,16.776v3.448C8,28.937,15.063,36,23.776,36h0.448C32.937,36,40,28.937,40,20.224v-3.448 l1-0.056v3.56C41,29.514,33.514,37,24.28,37h-0.56C14.486,37,7,29.514,7,20.28v-3.56L8,16.776z"/></g></svg>