<svg xmlns="http://www.w3.org/2000/svg"  viewBox="0 0 48 48" width="48px" height="48px"><path fill="#c62828" d="M8,19H5c-1.105,0-2,0.895-2,2v8c0,1.105,0.895,2,2,2h3V19z"/><path fill="#ca2a2a" d="M8,19.143H5c-1.026,0-1.857,0.832-1.857,1.857v8c0,1.026,0.832,1.857,1.857,1.857h3V19.143z"/><path fill="#cf2d2c" d="M8,19.286H5c-0.947,0-1.714,0.768-1.714,1.714v8c0,0.947,0.768,1.714,1.714,1.714h3V19.286z"/><path fill="#d32f2e" d="M8,19.429H5c-0.868,0-1.571,0.704-1.571,1.571v8c0,0.868,0.704,1.571,1.571,1.571h3V19.429z"/><path fill="#d8322f" d="M8,19.571H5c-0.789,0-1.429,0.64-1.429,1.429v8c0,0.789,0.64,1.429,1.429,1.429h3V19.571z"/><path fill="#dc3431" d="M8,19.714H5c-0.71,0-1.286,0.576-1.286,1.286v8c0,0.71,0.576,1.286,1.286,1.286h3V19.714z"/><path fill="#e13733" d="M8,19.857H5c-0.631,0-1.143,0.512-1.143,1.143v8c0,0.631,0.512,1.143,1.143,1.143h3V19.857z"/><path fill="#e53935" d="M8,20H5c-0.552,0-1,0.448-1,1v8c0,0.552,0.448,1,1,1h3V20z"/><g><path fill="#a81919" d="M43,19h-3v12h3c1.105,0,2-0.895,2-2v-8C45,19.895,44.105,19,43,19z"/><path fill="#ae1c1c" d="M43,19.143h-3v11.714h3c1.026,0,1.857-0.832,1.857-1.857v-8C44.857,19.974,44.026,19.143,43,19.143 z"/><path fill="#b41f1f" d="M43,19.286h-3v11.429h3c0.947,0,1.714-0.768,1.714-1.714v-8C44.714,20.053,43.947,19.286,43,19.286 z"/><path fill="#ba2222" d="M43,19.429h-3v11.143h3c0.868,0,1.571-0.704,1.571-1.571v-8C44.571,20.132,43.868,19.429,43,19.429 z"/><path fill="#c12626" d="M43,19.571h-3v10.857h3c0.789,0,1.429-0.64,1.429-1.429v-8C44.429,20.211,43.789,19.571,43,19.571z"/><path fill="#c72929" d="M43,19.714h-3v10.571h3c0.71,0,1.286-0.576,1.286-1.286v-8C44.286,20.29,43.71,19.714,43,19.714z"/><path fill="#cd2c2c" d="M43,19.857h-3v10.286h3c0.631,0,1.143-0.512,1.143-1.143v-8C44.143,20.369,43.631,19.857,43,19.857 z"/><path fill="#d32f2f" d="M43,20h-3v10h3c0.552,0,1-0.448,1-1v-8C44,20.448,43.552,20,43,20z"/></g><g><path fill="#389b9e" d="M37,44H11c-2.761,0-5-2.239-5-5V15c0-2.761,2.239-5,5-5h26c2.761,0,5,2.239,5,5v24 C42,41.761,39.761,44,37,44z"/><path fill="#3fa1a5" d="M11,10.286h26c2.603,0,4.714,2.111,4.714,4.714v24c0,2.603-2.111,4.714-4.714,4.714H11 c-2.603,0-4.714-2.111-4.714-4.714V15C6.286,12.397,8.397,10.286,11,10.286z"/><path fill="#46a8ac" d="M11,10.571h26c2.445,0,4.429,1.983,4.429,4.429v24c0,2.445-1.983,4.429-4.429,4.429H11 c-2.445,0-4.429-1.983-4.429-4.429V15C6.571,12.555,8.555,10.571,11,10.571z"/><path fill="#4daeb3" d="M11,10.857h26c2.287,0,4.143,1.856,4.143,4.143v24c0,2.287-1.856,4.143-4.143,4.143H11 c-2.287,0-4.143-1.856-4.143-4.143V15C6.857,12.713,8.713,10.857,11,10.857z"/><path fill="#53b5bb" d="M11,11.143h26c2.129,0,3.857,1.728,3.857,3.857v24c0,2.129-1.728,3.857-3.857,3.857H11 c-2.129,0-3.857-1.728-3.857-3.857V15C7.143,12.871,8.871,11.143,11,11.143z"/><path fill="#5abbc2" d="M11,11.428h26c1.971,0,3.571,1.601,3.571,3.571v24c0,1.971-1.601,3.571-3.571,3.571H11 c-1.971,0-3.571-1.601-3.571-3.571V15C7.429,13.029,9.029,11.428,11,11.428z"/><path fill="#61c2c9" d="M11,11.714h26c1.812,0,3.286,1.473,3.286,3.286v24c0,1.812-1.473,3.286-3.286,3.286H11 c-1.812,0-3.286-1.473-3.286-3.286V15C7.714,13.187,9.188,11.714,11,11.714z"/><path fill="#68c8d0" d="M11,12c-1.654,0-3,1.346-3,3v24c0,1.654,1.346,3,3,3h26c1.654,0,3-1.346,3-3V15 c0-1.654-1.346-3-3-3H11z"/></g><g><linearGradient id="dlC~lRlHeLdf9oA7JVKyoa" x1="20.625" x2="27.375" y1="-295" y2="-295" gradientTransform="matrix(1 0 0 -1 0 -290)" gradientUnits="userSpaceOnUse"><stop offset=".024" stop-color="#cc1d1f"/><stop offset=".321" stop-color="#f06666"/><stop offset=".631" stop-color="#e51e25"/><stop offset=".803" stop-color="#d63838"/><stop offset=".981" stop-color="#9a1f18"/></linearGradient><path fill="url(#dlC~lRlHeLdf9oA7JVKyoa)" d="M26.666,2H24h-2.666c-0.286,0-0.519,0.219-0.528,0.495L20.625,8h6.75l-0.181-5.505 C27.185,2.219,26.951,2,26.666,2z"/><radialGradient id="dlC~lRlHeLdf9oA7JVKyob" cx="21.846" cy="-1270.108" r=".783" gradientTransform="matrix(1 0 0 -.1426 .8 -178.737)" gradientUnits="userSpaceOnUse"><stop offset="0" stop-color="#fff"/><stop offset=".999" stop-color="#fff" stop-opacity="0"/></radialGradient><ellipse cx="22.669" cy="2.38" fill="url(#dlC~lRlHeLdf9oA7JVKyob)" rx=".87" ry=".133"/><linearGradient id="dlC~lRlHeLdf9oA7JVKyoc" x1="20" x2="28" y1="-299" y2="-299" gradientTransform="matrix(1 0 0 -1 0 -290)" gradientUnits="userSpaceOnUse"><stop offset="0" stop-color="#666"/><stop offset=".999" stop-color="#171714"/></linearGradient><path fill="url(#dlC~lRlHeLdf9oA7JVKyoc)" d="M27.75,8.001h-7.5c-0.138,0-0.25,0.112-0.25,0.25V10h8V8.25 C28,8.112,27.888,8.001,27.75,8.001z"/><linearGradient id="dlC~lRlHeLdf9oA7JVKyod" x1="20.375" x2="27.625" y1="-297.5" y2="-297.5" gradientTransform="matrix(1 0 0 -1 0 -290)" gradientUnits="userSpaceOnUse"><stop offset="0" stop-color="#999"/><stop offset=".403" stop-color="#eee"/><stop offset="1" stop-color="#9b9b9b"/></linearGradient><rect width="7.25" height="1.001" x="20.375" y="7" fill="url(#dlC~lRlHeLdf9oA7JVKyod)"/><radialGradient id="dlC~lRlHeLdf9oA7JVKyoe" cx="21.578" cy="-863.039" r=".817" gradientTransform="matrix(1 0 0 -.2025 .8 -167.683)" gradientUnits="userSpaceOnUse"><stop offset="0" stop-color="#fff"/><stop offset=".999" stop-color="#fff" stop-opacity="0"/></radialGradient><ellipse cx="22.403" cy="7.09" fill="url(#dlC~lRlHeLdf9oA7JVKyoe)" rx=".908" ry=".198"/><radialGradient id="dlC~lRlHeLdf9oA7JVKyof" cx="-28.67" cy="-1130.636" r=".817" gradientTransform="matrix(1.8975 0 0 -.1426 76.757 -153.085)" gradientUnits="userSpaceOnUse"><stop offset="0" stop-color="#ababab"/><stop offset=".999" stop-color="#c7c7c7" stop-opacity="0"/></radialGradient><path fill="url(#dlC~lRlHeLdf9oA7JVKyof)" d="M22.403,8.282c-0.951,0-1.722-0.062-1.722-0.139c0-0.077,0.771-0.139,1.722-0.139 s1.722,0.062,1.722,0.139"/></g><g><linearGradient id="dlC~lRlHeLdf9oA7JVKyog" x1="23.011" x2="10.741" y1="29.366" y2="17.097" gradientUnits="userSpaceOnUse"><stop offset=".284" stop-color="#5c5c5c"/><stop offset=".32" stop-color="#646464"/><stop offset=".377" stop-color="#7a7a7a"/><stop offset=".446" stop-color="#9e9e9e"/><stop offset=".526" stop-color="#d0d0d0"/><stop offset=".592" stop-color="#fff"/><stop offset=".622" stop-color="#f8f8f8"/><stop offset=".666" stop-color="#e5e5e5"/><stop offset=".718" stop-color="#c5c5c5"/><stop offset=".776" stop-color="#999"/><stop offset=".838" stop-color="#616161"/><stop offset=".884" stop-color="#343434"/></linearGradient><circle cx="16.833" cy="23.189" r="5" fill="url(#dlC~lRlHeLdf9oA7JVKyog)"/><linearGradient id="dlC~lRlHeLdf9oA7JVKyoh" x1="5.605" x2="25.37" y1="11.961" y2="31.726" gradientUnits="userSpaceOnUse"><stop offset=".284" stop-color="#5c5c5c"/><stop offset=".508" stop-color="#fff"/><stop offset=".582" stop-color="#d1d1d1"/><stop offset=".681" stop-color="#999"/><stop offset=".773" stop-color="#6d6d6d"/><stop offset=".856" stop-color="#4e4e4e"/><stop offset=".925" stop-color="#3b3b3b"/><stop offset=".973" stop-color="#343434"/></linearGradient><circle cx="16.833" cy="23.189" r="4.5" fill="url(#dlC~lRlHeLdf9oA7JVKyoh)"/><linearGradient id="dlC~lRlHeLdf9oA7JVKyoi" x1="23.012" x2="13.783" y1="29.367" y2="20.139" gradientUnits="userSpaceOnUse"><stop offset=".07" stop-color="#5c5c5c"/><stop offset=".133" stop-color="#616161"/><stop offset=".204" stop-color="#6f6f6f"/><stop offset=".281" stop-color="#868686"/><stop offset=".361" stop-color="#a6a6a6"/><stop offset=".443" stop-color="#cfcfcf"/><stop offset=".522" stop-color="#fff"/><stop offset=".593" stop-color="#fbfbfb"/><stop offset=".66" stop-color="#f0f0f0"/><stop offset=".726" stop-color="#dcdcdc"/><stop offset=".792" stop-color="#c1c1c1"/><stop offset=".857" stop-color="#9f9f9f"/><stop offset=".921" stop-color="#747474"/><stop offset=".984" stop-color="#424242"/><stop offset="1" stop-color="#343434"/></linearGradient><circle cx="16.833" cy="23.189" r="3.5" fill="url(#dlC~lRlHeLdf9oA7JVKyoi)"/><radialGradient id="dlC~lRlHeLdf9oA7JVKyoj" cx="16.833" cy="23.189" r="3.376" gradientUnits="userSpaceOnUse"><stop offset=".303" stop-color="#7abef2"/><stop offset=".39" stop-color="#74b6e9"/><stop offset=".534" stop-color="#629fd0"/><stop offset=".716" stop-color="#467ba7"/><stop offset=".928" stop-color="#1f4970"/><stop offset="1" stop-color="#11365b"/></radialGradient><circle cx="16.833" cy="23.189" r="3" fill="url(#dlC~lRlHeLdf9oA7JVKyoj)"/><circle cx="16.833" cy="23.189" r="2.167"/><linearGradient id="dlC~lRlHeLdf9oA7JVKyok" x1="15.431" x2="16.845" y1="21.431" y2="22.845" gradientUnits="userSpaceOnUse"><stop offset="0" stop-color="#fff"/><stop offset=".999" stop-color="#fff" stop-opacity=".4"/></linearGradient><circle cx="16" cy="22" r="1" fill="url(#dlC~lRlHeLdf9oA7JVKyok)"/><circle cx="15.5" cy="21.5" r=".5" fill="#fff"/></g><g><linearGradient id="dlC~lRlHeLdf9oA7JVKyol" x1="38.011" x2="25.741" y1="29.366" y2="17.097" gradientUnits="userSpaceOnUse"><stop offset=".284" stop-color="#5c5c5c"/><stop offset=".32" stop-color="#646464"/><stop offset=".377" stop-color="#7a7a7a"/><stop offset=".446" stop-color="#9e9e9e"/><stop offset=".526" stop-color="#d0d0d0"/><stop offset=".592" stop-color="#fff"/><stop offset=".622" stop-color="#f8f8f8"/><stop offset=".666" stop-color="#e5e5e5"/><stop offset=".718" stop-color="#c5c5c5"/><stop offset=".776" stop-color="#999"/><stop offset=".838" stop-color="#616161"/><stop offset=".884" stop-color="#343434"/></linearGradient><circle cx="31.833" cy="23.189" r="5" fill="url(#dlC~lRlHeLdf9oA7JVKyol)"/><linearGradient id="dlC~lRlHeLdf9oA7JVKyom" x1="20.605" x2="40.37" y1="11.961" y2="31.726" gradientUnits="userSpaceOnUse"><stop offset=".284" stop-color="#5c5c5c"/><stop offset=".508" stop-color="#fff"/><stop offset=".582" stop-color="#d1d1d1"/><stop offset=".681" stop-color="#999"/><stop offset=".773" stop-color="#6d6d6d"/><stop offset=".856" stop-color="#4e4e4e"/><stop offset=".925" stop-color="#3b3b3b"/><stop offset=".973" stop-color="#343434"/></linearGradient><circle cx="31.833" cy="23.189" r="4.5" fill="url(#dlC~lRlHeLdf9oA7JVKyom)"/><linearGradient id="dlC~lRlHeLdf9oA7JVKyon" x1="38.011" x2="28.783" y1="29.367" y2="20.139" gradientUnits="userSpaceOnUse"><stop offset=".07" stop-color="#5c5c5c"/><stop offset=".133" stop-color="#616161"/><stop offset=".204" stop-color="#6f6f6f"/><stop offset=".281" stop-color="#868686"/><stop offset=".361" stop-color="#a6a6a6"/><stop offset=".443" stop-color="#cfcfcf"/><stop offset=".522" stop-color="#fff"/><stop offset=".593" stop-color="#fbfbfb"/><stop offset=".66" stop-color="#f0f0f0"/><stop offset=".726" stop-color="#dcdcdc"/><stop offset=".792" stop-color="#c1c1c1"/><stop offset=".857" stop-color="#9f9f9f"/><stop offset=".921" stop-color="#747474"/><stop offset=".984" stop-color="#424242"/><stop offset="1" stop-color="#343434"/></linearGradient><circle cx="31.833" cy="23.189" r="3.5" fill="url(#dlC~lRlHeLdf9oA7JVKyon)"/><radialGradient id="dlC~lRlHeLdf9oA7JVKyoo" cx="31.833" cy="23.189" r="3.376" gradientUnits="userSpaceOnUse"><stop offset=".303" stop-color="#7abef2"/><stop offset=".39" stop-color="#74b6e9"/><stop offset=".534" stop-color="#629fd0"/><stop offset=".716" stop-color="#467ba7"/><stop offset=".928" stop-color="#1f4970"/><stop offset="1" stop-color="#11365b"/></radialGradient><circle cx="31.833" cy="23.189" r="3" fill="url(#dlC~lRlHeLdf9oA7JVKyoo)"/><circle cx="31.833" cy="23.189" r="2.167"/><linearGradient id="dlC~lRlHeLdf9oA7JVKyop" x1="30.431" x2="31.845" y1="21.431" y2="22.845" gradientUnits="userSpaceOnUse"><stop offset="0" stop-color="#fff"/><stop offset=".999" stop-color="#fff" stop-opacity=".4"/></linearGradient><circle cx="31" cy="22" r="1" fill="url(#dlC~lRlHeLdf9oA7JVKyop)"/><circle cx="30.5" cy="21.5" r=".5" fill="#fff"/></g><g><linearGradient id="dlC~lRlHeLdf9oA7JVKyoq" x1="17.007" x2="38.343" y1="24.79" y2="55.942" gradientUnits="userSpaceOnUse"><stop offset=".167" stop-color="#171714"/><stop offset=".324" stop-color="#40403f"/><stop offset=".482" stop-color="#666"/></linearGradient><path fill="url(#dlC~lRlHeLdf9oA7JVKyoq)" d="M32.5,36c0,1.103-0.897,2-2,2h-13c-1.103,0-2-0.897-2-2v-2c0-1.103,0.897-2,2-2h13 c1.103,0,2,0.897,2,2V36z"/><linearGradient id="dlC~lRlHeLdf9oA7JVKyor" x1="17.087" x2="40.487" y1="24.907" y2="59.072" gradientUnits="userSpaceOnUse"><stop offset=".205" stop-color="#171714"/><stop offset=".355" stop-color="#40403f"/><stop offset=".505" stop-color="#666"/></linearGradient><path fill="url(#dlC~lRlHeLdf9oA7JVKyor)" d="M17.5,38.5h-1v-7h1V38.5z M19.5,31.5h-1v7h1V31.5z M21.5,31.5h-1v7h1V31.5z M23.5,31.5h-1 v7h1V31.5z M25.5,31.5h-1v7h1V31.5z M27.5,31.5h-1v7h1V31.5z M29.5,31.5h-1v7h1V31.5z M31.5,31.5h-1v7h1V31.5z"/><linearGradient id="dlC~lRlHeLdf9oA7JVKyos" x1="16.726" x2="41.349" y1="24.379" y2="60.331" gradientUnits="userSpaceOnUse"><stop offset=".115" stop-color="#007780"/><stop offset=".21" stop-color="#2b96a0"/><stop offset=".389" stop-color="#79ced9"/><stop offset=".472" stop-color="#97e4f0"/><stop offset=".514" stop-color="#94e3ee"/><stop offset=".544" stop-color="#8bdee8"/><stop offset=".57" stop-color="#7cd6df"/><stop offset=".593" stop-color="#66cad1"/><stop offset=".614" stop-color="#4abbbf"/><stop offset=".62" stop-color="#42b7ba"/></linearGradient><path fill="url(#dlC~lRlHeLdf9oA7JVKyos)" d="M30.5,31h-13c-1.657,0-3,1.343-3,3v2c0,1.657,1.343,3,3,3h13c1.657,0,3-1.343,3-3v-2 C33.5,32.343,32.157,31,30.5,31z M32.5,36c0,1.103-0.897,2-2,2h-13c-1.103,0-2-0.897-2-2v-2c0-1.103,0.897-2,2-2h13 c1.103,0,2,0.897,2,2V36z"/></g></svg>