<svg version="1.1" id="Layer_1" xmlns="http://www.w3.org/2000/svg" xmlns:xlink="http://www.w3.org/1999/xlink" x="0px" y="0px"
	 width="100%" viewBox="0 0 256 256" enable-background="new 0 0 256 256" xml:space="preserve">
<path fill="#000000" opacity="1.000000" stroke="none" 
	d="
M1.000000,88.000000 
	C1.000000,58.666672 1.000000,29.833344 1.000000,1.000012 
	C86.333313,1.000008 171.666626,1.000008 256.999939,1.000004 
	C256.999969,86.333290 256.999969,171.666580 257.000000,256.999908 
	C171.666718,256.999939 86.333435,256.999939 1.000076,256.999969 
	C1.000000,200.833328 1.000000,144.666672 1.000000,88.000000 
M46.075405,17.032982 
	C37.727337,17.078024 29.379269,17.123066 20.301413,17.249138 
	C17.318705,18.512903 14.845161,20.088772 16.025869,24.785316 
	C17.402185,29.851044 18.778503,34.916771 20.219965,40.658203 
	C21.473875,42.483883 22.727783,44.309563 24.032984,46.562271 
	C24.032984,46.562271 24.171503,46.969456 24.124889,47.502010 
	C24.409441,47.696445 24.693993,47.890881 24.975836,48.023663 
	C24.975836,48.023663 24.921385,48.052998 25.007668,48.766014 
	C29.789867,57.366570 36.498116,63.730995 46.664066,66.975677 
	C47.111748,67.012047 47.559429,67.048416 47.978863,67.014000 
	C47.978863,67.014000 47.908730,67.043839 48.014904,67.797798 
	C52.755028,71.596985 71.464996,75.877060 77.084984,74.521797 
	C78.324478,74.222885 79.643707,74.254639 81.270157,74.755852 
	C90.811630,75.123680 100.353104,75.491516 110.667976,76.302086 
	C110.779388,78.116341 110.986435,79.930527 110.987846,81.744865 
	C111.008690,108.520615 111.002213,135.296387 111.002213,162.072144 
	C111.002213,163.794617 111.002220,165.517105 111.002220,167.239578 
	C111.863602,166.449905 111.988274,165.650391 111.988548,164.850845 
	C111.998726,135.913055 112.006157,106.975258 111.961525,78.037544 
	C111.959923,77.000191 111.428452,75.963661 111.240173,74.346062 
	C111.803596,74.259247 112.367027,74.172432 112.987839,75.010628 
	C112.938828,106.297966 112.889816,137.585312 112.044968,168.926590 
	C111.131920,169.263596 110.242958,169.789703 109.302261,169.909470 
	C93.213188,171.957764 79.627113,179.419006 68.763756,190.924225 
	C61.119095,199.020554 53.734867,207.862625 51.842102,219.690567 
	C51.025848,224.791382 50.034382,229.920334 48.458050,234.822861 
	C47.471359,237.891556 48.642929,239.059021 51.491974,240.806381 
	C70.744728,240.868912 89.997498,240.983185 109.250244,240.981018 
	C133.818420,240.978241 158.386597,240.881393 183.799713,240.962723 
	C187.202576,241.254837 190.605423,241.546967 194.651123,241.754410 
	C195.767014,241.129303 196.882889,240.504181 198.601227,240.006149 
	C199.076050,239.725189 199.550873,239.444229 200.841843,238.968903 
	C201.092102,236.710144 201.773483,234.400467 201.513840,232.201935 
	C200.648468,224.874161 198.327103,218.076675 195.219284,211.249268 
	C189.035126,197.663727 179.775208,187.331009 166.744797,179.238983 
	C157.489777,174.005859 148.176895,168.939148 137.028961,168.006851 
	C136.962479,151.677643 136.896011,135.348434 136.975449,118.215324 
	C136.999252,116.852432 137.023071,115.489548 137.858490,114.007164 
	C139.223755,114.027817 140.589035,114.048470 141.780365,114.663353 
	C141.191299,114.831512 140.602234,114.999672 139.144485,115.059410 
	C138.763748,116.490326 138.061539,117.919189 138.052383,119.352478 
	C137.967575,132.636810 138.002228,145.921921 138.002197,159.206802 
	C138.002197,161.856140 138.002197,164.505478 138.002197,167.154800 
	C138.997818,151.723801 138.966553,136.311203 139.042313,120.899139 
	C139.050629,119.208588 139.673645,117.521057 140.937851,115.974144 
	C149.262039,115.982536 157.591675,116.162849 165.907288,115.900047 
	C168.584137,115.815460 171.224106,114.563507 174.599045,113.801376 
	C175.788162,113.531677 176.977264,113.261978 178.166382,112.992271 
	C178.205582,113.204727 178.244797,113.417175 178.284012,113.629631 
	C177.681107,113.914459 177.078186,114.199287 176.475281,114.484116 
	C180.392883,114.547699 184.121033,112.909172 187.670410,113.232605 
	C196.355164,114.024010 203.996353,111.946381 211.806854,106.996140 
	C215.229431,104.697380 218.652008,102.398628 222.678879,99.813828 
	C225.480682,96.571693 228.282471,93.329567 231.056854,90.034630 
	C231.056854,90.034630 231.053116,90.092583 231.559433,89.926598 
	C231.651306,89.617653 231.743179,89.308716 232.129669,88.351990 
	C233.362610,85.899040 234.595551,83.446091 236.093628,80.390526 
	C237.092773,76.282555 238.091919,72.174576 239.863434,67.934944 
	C240.170166,66.306114 240.476913,64.677277 240.928879,62.281952 
	C240.879898,61.506657 240.830933,60.731365 240.880661,59.463913 
	C240.609924,59.286880 240.339188,59.109848 239.907455,58.438301 
	C239.620071,58.259830 239.332672,58.081364 238.628281,57.193436 
	C219.423004,57.186214 200.217728,57.178993 180.117706,57.035904 
	C169.469742,56.485065 160.334030,61.718483 150.679123,64.886681 
	C148.532501,65.591080 146.807892,67.581467 144.264893,68.992439 
	C143.571259,69.385933 142.877625,69.779434 141.448013,70.158432 
	C140.326370,70.426353 139.204742,70.694283 137.988113,70.253120 
	C137.602982,69.159966 137.217850,68.066811 136.971481,66.240555 
	C136.922775,65.499580 136.874084,64.758606 136.826202,63.369358 
	C136.148849,60.584141 135.471481,57.798927 134.811768,54.416348 
	C134.465469,53.940540 134.119171,53.464737 133.914764,52.526501 
	C133.914764,52.526501 133.744431,52.073772 133.700073,51.366665 
	C131.118591,47.563171 128.537109,43.759678 125.741982,39.295086 
	C123.531120,37.185482 121.320251,35.075878 118.823463,32.321796 
	C116.553505,31.167728 114.283554,30.013664 111.892197,28.438442 
	C111.727554,28.159355 111.483345,28.024813 110.974617,27.306366 
	C107.535759,25.817631 104.189240,24.041012 100.638206,22.901989 
	C93.905281,20.742348 87.157349,17.969139 80.228241,17.245598 
	C71.201828,16.303059 61.993038,17.107044 52.489910,17.037859 
	C52.489910,17.037859 52.116825,17.158619 51.503078,17.037439 
	C51.298485,17.077766 51.093887,17.118095 50.498699,17.037813 
	C50.498699,17.037813 50.108013,17.158113 49.331909,17.024139 
	C48.556038,17.072908 47.780167,17.121679 46.075405,17.032982 
M79.500000,242.000000 
	C70.315292,242.000000 61.130577,242.000000 51.945866,242.000000 
	C51.950035,242.257736 51.954208,242.515457 51.958378,242.773193 
	C91.340996,242.773193 130.723618,242.773193 170.106232,242.773193 
	C170.107239,242.515457 170.108246,242.257736 170.109253,242.000000 
	C140.239502,242.000000 110.369751,242.000000 79.500000,242.000000 
M28.584679,16.002491 
	C44.724300,16.002491 60.863918,16.002491 77.003540,16.002491 
	C77.000839,15.748477 76.998138,15.494464 76.995438,15.240450 
	C57.939175,15.240450 38.882912,15.240450 19.826651,15.240450 
	C19.820581,15.494464 19.814514,15.748477 19.808445,16.002491 
	C22.412098,16.002491 25.015749,16.002491 28.584679,16.002491 
z"/>
<path fill="#836862" opacity="1.000000" stroke="none" 
	d="
M50.928307,240.157990 
	C48.642929,239.059021 47.471359,237.891556 48.458050,234.822861 
	C50.034382,229.920334 51.025848,224.791382 51.842102,219.690567 
	C53.734867,207.862625 61.119095,199.020554 68.763756,190.924225 
	C79.627113,179.419006 93.213188,171.957764 109.302261,169.909470 
	C110.242958,169.789703 111.131920,169.263596 112.596764,169.126511 
	C113.439850,169.543045 113.731133,169.759659 114.283890,169.989914 
	C115.018097,171.656586 115.490822,173.309601 115.601463,174.981369 
	C112.492920,176.657791 109.746445,178.315460 106.585297,179.973175 
	C104.113182,180.310730 102.055756,180.648285 99.545319,180.982056 
	C93.333229,180.584244 87.902916,181.410187 82.922653,184.663315 
	C63.650139,197.252182 54.679474,215.580261 52.774925,238.138992 
	C52.342720,238.477646 52.152775,238.722794 51.796417,239.162506 
	C51.362583,239.598083 51.145443,239.878036 50.928307,240.157990 
z"/>
<path fill="#B3E95A" opacity="1.000000" stroke="none" 
	d="
M136.829529,119.019226 
	C136.896011,135.348434 136.962479,151.677643 136.792755,168.520523 
	C136.370728,169.035690 136.184906,169.037186 135.999847,168.566513 
	C135.997803,157.602554 136.085922,147.109451 135.934525,136.619827 
	C135.891418,133.633301 135.823013,130.060730 130.729706,131.256714 
	C129.969589,133.050873 129.069275,134.576996 129.048386,136.115067 
	C128.922226,145.410339 128.997162,154.708344 129.003632,164.413101 
	C129.015533,166.177338 129.028625,167.533890 128.655182,168.946960 
	C127.230751,168.932571 126.192879,168.861679 125.111473,168.445801 
	C125.035118,167.405045 125.002289,166.709274 124.982590,165.584122 
	C126.238937,159.743958 124.629829,154.492874 124.358826,149.192001 
	C123.942947,141.057617 125.697548,132.804291 126.637856,124.613693 
	C126.901482,122.317360 127.539543,120.064018 128.031815,117.664375 
	C131.411819,119.019768 133.403992,124.629150 136.829529,119.019226 
z"/>
<path fill="#A6E333" opacity="1.000000" stroke="none" 
	d="
M52.116825,17.158619 
	C52.116825,17.158619 52.489910,17.037859 52.823448,17.415745 
	C54.437466,18.181471 55.717953,18.569309 57.295078,19.204348 
	C60.061596,19.962858 62.531467,20.474169 64.984680,21.363482 
	C63.978539,24.827019 62.989067,27.912556 61.673939,31.053646 
	C59.898197,32.072884 58.448105,33.036568 56.642601,33.940277 
	C52.524715,32.253838 48.762245,30.627367 44.826916,28.704319 
	C43.101852,24.987822 41.549652,21.567900 40.377316,18.126633 
	C42.844711,18.096102 44.932243,18.086910 47.349503,18.062288 
	C48.488819,17.750608 49.298416,17.454359 50.108013,17.158112 
	C50.108013,17.158113 50.498699,17.037813 50.832230,17.217604 
	C51.482780,17.317802 51.799801,17.238211 52.116825,17.158619 
z"/>
<path fill="#C0F962" opacity="1.000000" stroke="none" 
	d="
M119.109390,32.966270 
	C121.320251,35.075878 123.531120,37.185482 125.465744,39.639931 
	C123.227325,39.212349 121.316193,38.246384 119.291161,37.712292 
	C116.158928,36.886181 112.948883,36.355118 109.771828,35.698936 
	C109.401398,36.471100 109.030960,37.243267 108.660522,38.015434 
	C111.267807,40.235222 113.974030,42.350231 116.460342,44.698124 
	C120.717766,48.718513 124.837601,52.884609 128.671097,56.932964 
	C120.682434,52.310982 113.031197,47.756702 105.395424,43.176643 
	C99.095009,39.397552 97.807762,36.462814 100.376595,31.186016 
	C104.540176,31.218361 108.331688,31.092182 112.486023,30.987633 
	C114.935692,31.661602 117.022537,32.313938 119.109390,32.966270 
z"/>
<path fill="#8BB348" opacity="1.000000" stroke="none" 
	d="
M46.002300,66.849358 
	C36.498116,63.730995 29.789867,57.366570 25.308773,48.453194 
	C30.407591,51.764835 35.205303,55.389294 40.246971,59.269608 
	C44.326378,60.351730 48.161835,61.178001 52.363106,62.066853 
	C59.814365,64.085266 66.899811,66.041100 74.254089,68.265381 
	C76.668716,69.022766 78.871895,69.343788 80.942833,70.051682 
	C82.725655,70.661079 84.357689,71.711624 85.642181,72.643044 
	C83.827225,72.766052 82.426476,72.813126 80.695221,72.644714 
	C74.190292,71.618965 67.993393,70.947548 61.848747,69.953270 
	C57.167713,69.195824 52.552967,68.028702 47.908730,67.043839 
	C47.908730,67.043839 47.978863,67.014000 47.835205,66.860992 
	C47.128464,66.755104 46.565384,66.802231 46.002300,66.849358 
z"/>
<path fill="#A3D749" opacity="1.000000" stroke="none" 
	d="
M136.902496,118.617279 
	C133.403992,124.629150 131.411819,119.019768 128.031815,117.664375 
	C127.539543,120.064018 126.901482,122.317360 126.637856,124.613693 
	C125.697548,132.804291 123.942947,141.057617 124.358826,149.192001 
	C124.629829,154.492874 126.238937,159.743958 124.626953,165.451996 
	C123.857559,165.064682 123.156799,164.403931 123.100258,163.692017 
	C121.757706,146.789581 120.466759,129.881271 124.467133,113.085785 
	C128.892044,113.062294 132.914490,113.024643 136.961639,113.272179 
	C137.006531,113.747116 137.026703,113.936882 137.046890,114.126656 
	C137.023071,115.489548 136.999252,116.852432 136.902496,118.617279 
z"/>
<path fill="#C8F972" opacity="1.000000" stroke="none" 
	d="
M129.015213,56.989517 
	C124.837601,52.884609 120.717766,48.718513 116.460342,44.698124 
	C113.974030,42.350231 111.267807,40.235222 108.660522,38.015434 
	C109.030960,37.243267 109.401398,36.471100 109.771828,35.698936 
	C112.948883,36.355118 116.158928,36.886181 119.291161,37.712292 
	C121.316193,38.246384 123.227325,39.212349 125.572563,39.970482 
	C128.537109,43.759678 131.118591,47.563171 133.536667,51.733135 
	C133.506454,52.396049 133.639664,52.692493 133.772873,52.988934 
	C134.119171,53.464737 134.465469,53.940540 134.487061,54.809975 
	C132.770126,55.808155 131.377930,56.412712 129.743103,57.009674 
	C129.500488,57.002079 129.015213,56.989517 129.015213,56.989517 
z"/>
<path fill="#89BD33" opacity="1.000000" stroke="none" 
	d="
M40.003014,59.013752 
	C35.205303,55.389294 30.407591,51.764835 25.265633,48.096687 
	C24.921385,48.052998 24.975836,48.023663 24.880112,47.843224 
	C24.624680,47.392262 24.420383,47.161152 24.171503,46.969456 
	C24.171503,46.969456 24.032984,46.562271 24.013609,45.952251 
	C23.856977,42.737198 23.687616,40.155159 20.154821,39.982498 
	C18.778503,34.916771 17.402185,29.851044 16.469549,24.397034 
	C18.083065,24.945827 19.891281,25.653538 20.323212,26.855732 
	C24.298103,37.919006 31.797012,46.114166 40.923805,53.386051 
	C40.575489,55.511261 40.289249,57.262505 40.003014,59.013752 
z"/>
<path fill="#92C82F" opacity="1.000000" stroke="none" 
	d="
M40.985886,53.012089 
	C31.797012,46.114166 24.298103,37.919006 20.323212,26.855732 
	C19.891281,25.653538 18.083065,24.945827 16.540760,24.000324 
	C14.845161,20.088772 17.318705,18.512903 20.667955,17.397623 
	C21.034498,17.546108 21.035728,17.924122 21.040863,18.310455 
	C22.479950,27.065226 28.713366,32.213932 34.056438,38.358578 
	C36.744816,42.143059 39.372688,45.569481 42.011002,49.343700 
	C42.342892,50.791996 42.664337,51.892494 42.652561,52.994720 
	C41.874851,53.001663 41.430370,53.006878 40.985886,53.012089 
z"/>
<path fill="#93B864" opacity="1.000000" stroke="none" 
	d="
M137.452698,114.066910 
	C137.026703,113.936882 137.006531,113.747116 137.306396,113.039352 
	C142.056732,112.297462 146.487015,112.073593 151.393707,111.894226 
	C158.922714,111.628387 165.975296,111.318047 173.492584,111.016006 
	C181.304794,110.348930 188.652298,109.673538 196.417694,108.996544 
	C199.580887,108.483147 202.313232,107.879288 205.075867,107.490623 
	C207.049698,107.212929 209.064148,107.224045 211.060471,107.106285 
	C203.996353,111.946381 196.355164,114.024010 187.670410,113.232605 
	C184.121033,112.909172 180.392883,114.547699 176.475281,114.484116 
	C177.078186,114.199287 177.681107,113.914459 178.284012,113.629631 
	C178.244797,113.417175 178.205582,113.204727 178.166382,112.992271 
	C176.977264,113.261978 175.788162,113.531677 173.949875,113.618423 
	C162.851898,113.646683 152.403107,113.857903 141.954300,114.069122 
	C140.589035,114.048470 139.223755,114.027817 137.452698,114.066910 
z"/>
<path fill="#A79486" opacity="1.000000" stroke="none" 
	d="
M167.040375,179.872131 
	C179.775208,187.331009 189.035126,197.663727 195.219284,211.249268 
	C198.327103,218.076675 200.648468,224.874161 201.513840,232.201935 
	C201.773483,234.400467 201.092102,236.710144 200.410095,238.662994 
	C199.644073,236.246841 199.309784,234.136627 198.980469,231.620300 
	C196.784348,219.067825 191.478439,208.254333 184.571152,198.180222 
	C183.434036,196.521759 181.524475,195.392944 179.730865,193.789368 
	C177.326553,191.373734 175.163269,189.188095 172.762344,186.775024 
	C170.684555,185.028549 168.844406,183.509460 167.006821,181.637268 
	C167.019699,180.813477 167.030045,180.342804 167.040375,179.872131 
z"/>
<path fill="#99D534" opacity="1.000000" stroke="none" 
	d="
M142.183990,70.172943 
	C142.877625,69.779434 143.571259,69.385933 144.961090,68.981628 
	C147.488495,68.289696 149.295837,67.533638 151.155426,66.941696 
	C156.426697,65.263756 161.719330,63.652958 166.997787,62.262924 
	C166.992020,62.510128 166.981018,63.004559 166.662140,63.157242 
	C164.657349,64.013428 163.012894,64.847778 161.278244,65.397400 
	C154.403519,67.575638 150.877563,72.964005 147.948334,79.354691 
	C146.591812,81.794052 145.292191,83.892502 143.629684,86.007065 
	C140.847870,87.679016 138.428955,89.334862 136.060944,90.650909 
	C136.408371,89.206085 136.704910,88.101059 137.290726,86.815262 
	C140.357895,81.793716 143.135773,76.952950 146.336624,71.375114 
	C144.284134,71.695427 143.207642,71.863419 142.138123,71.721573 
	C142.158051,70.998802 142.171021,70.585869 142.183990,70.172943 
z"/>
<path fill="#975581" opacity="1.000000" stroke="none" 
	d="
M51.210136,240.482178 
	C51.145443,239.878036 51.362583,239.598083 52.178352,239.325012 
	C54.572632,239.541122 56.367336,239.921783 58.164093,239.931747 
	C69.770042,239.996109 81.376434,239.979568 93.453339,239.994736 
	C117.417038,240.001022 140.910294,240.045914 164.402664,239.920074 
	C166.280640,239.910004 168.152313,238.721497 170.435852,238.051239 
	C172.204651,237.999603 173.564529,237.977386 174.938156,238.219788 
	C174.967392,238.660370 174.982895,238.836334 175.240204,239.232300 
	C176.326248,239.624710 177.170471,239.797119 178.388840,239.968323 
	C179.511200,239.964035 180.259430,239.960907 181.277359,240.001740 
	C182.016296,240.305481 182.485535,240.565277 182.954773,240.825073 
	C158.386597,240.881393 133.818420,240.978241 109.250244,240.981018 
	C89.997498,240.983185 70.744728,240.868912 51.210136,240.482178 
z"/>
<path fill="#AFE368" opacity="1.000000" stroke="none" 
	d="
M56.998436,18.957150 
	C55.717953,18.569309 54.437466,18.181471 53.009857,17.476543 
	C61.993038,17.107044 71.201828,16.303059 80.228241,17.245598 
	C87.157349,17.969139 93.905281,20.742348 100.638206,22.901989 
	C104.189240,24.041012 107.535759,25.817631 110.666992,27.658539 
	C105.233727,26.344412 100.108086,24.678116 94.579315,22.932970 
	C90.465836,22.552622 86.755508,22.251122 83.033958,21.942369 
	C83.022743,21.935118 83.032318,21.910135 82.907806,21.574074 
	C81.192368,20.826830 79.601448,20.415644 77.609535,19.996956 
	C76.139275,19.971472 75.070007,19.953489 73.687096,19.706791 
	C67.915115,19.304436 62.456776,19.130793 56.998436,18.957150 
z"/>
<path fill="#9DC74A" opacity="1.000000" stroke="none" 
	d="
M211.433655,107.051208 
	C209.064148,107.224045 207.049698,107.212929 205.075867,107.490623 
	C202.313232,107.879288 199.580887,108.483147 196.065308,108.840912 
	C191.197495,107.789413 187.099915,106.891937 183.336304,105.750427 
	C186.788345,105.337128 189.927109,105.336273 193.019363,104.956665 
	C197.031204,104.464180 201.006058,103.670158 205.396820,103.004227 
	C206.862900,102.998711 207.929016,102.994888 209.392883,102.988785 
	C212.577057,102.078133 215.336273,101.068764 218.162430,100.308113 
	C219.395828,99.976151 220.766327,100.153702 222.074570,100.099869 
	C218.652008,102.398628 215.229431,104.697380 211.433655,107.051208 
z"/>
<path fill="#C8FF6B" opacity="1.000000" stroke="none" 
	d="
M239.045288,57.902893 
	C239.332672,58.081364 239.620071,58.259830 240.057648,58.886139 
	C240.352463,59.584461 240.543839,59.791828 240.781952,59.956074 
	C240.830933,60.731365 240.879898,61.506657 240.593536,62.847748 
	C239.510010,64.944748 238.761841,66.475952 237.804596,68.203384 
	C237.385666,68.925484 237.175812,69.451363 236.669525,70.047104 
	C235.582474,70.744522 234.791885,71.372070 233.631592,72.014465 
	C232.457367,72.224800 231.653748,72.578102 230.848190,72.582573 
	C229.223053,72.591614 227.596863,72.411003 225.971100,72.308624 
	C226.361481,70.678650 226.434402,68.870171 227.224518,67.464951 
	C228.162231,65.797256 229.717194,64.476639 231.220337,62.789780 
	C232.288574,62.042900 233.141144,61.511852 234.317902,60.928394 
	C235.759155,60.248837 236.876236,59.621685 238.165176,58.906719 
	C238.555618,58.678631 238.734909,58.499138 238.953979,58.202499 
	C239.033035,58.124577 239.045288,57.902897 239.045288,57.902893 
z"/>
<path fill="#915D71" opacity="1.000000" stroke="none" 
	d="
M80.000000,242.000000 
	C110.369751,242.000000 140.239502,242.000000 170.109253,242.000000 
	C170.108246,242.257736 170.107239,242.515457 170.106232,242.773193 
	C130.723618,242.773193 91.340996,242.773193 51.958378,242.773193 
	C51.954208,242.515457 51.950035,242.257736 51.945866,242.000000 
	C61.130577,242.000000 70.315292,242.000000 80.000000,242.000000 
z"/>
<path fill="#B9F74C" opacity="1.000000" stroke="none" 
	d="
M94.982452,23.011818 
	C100.108086,24.678116 105.233727,26.344412 110.759460,28.022762 
	C111.483345,28.024813 111.727554,28.159355 111.959869,29.001232 
	C112.059425,30.031347 112.091316,30.498674 112.123199,30.966002 
	C108.331688,31.092182 104.540176,31.218361 99.976227,31.182547 
	C95.136650,32.347492 91.069527,33.674427 86.749161,34.881569 
	C85.996338,34.508621 85.496765,34.255470 84.987465,33.654125 
	C84.651711,32.204426 84.325684,31.102922 84.387970,29.982674 
	C90.603081,29.585466 96.429871,29.207005 103.618385,28.740099 
	C99.846359,26.238089 97.414406,24.624954 94.982452,23.011818 
z"/>
<path fill="#AAE25D" opacity="1.000000" stroke="none" 
	d="
M181.012451,57.171768 
	C200.217728,57.178993 219.423004,57.186214 238.836792,57.548164 
	C239.045288,57.902897 239.033035,58.124577 238.723679,58.123962 
	C238.414322,58.123348 237.932327,58.052448 237.486542,58.042496 
	C234.358902,58.028465 231.677078,58.024384 228.535629,58.013641 
	C214.469437,58.340008 200.862259,58.652306 187.257401,59.045208 
	C186.163574,59.076794 185.085770,59.663078 183.652588,59.979023 
	C182.201477,59.643646 181.098297,59.320843 180.108459,58.762589 
	C180.485352,58.075352 180.748901,57.623562 181.012451,57.171768 
z"/>
<path fill="#A4D73E" opacity="1.000000" stroke="none" 
	d="
M222.376724,99.956848 
	C220.766327,100.153702 219.395828,99.976151 218.162430,100.308113 
	C215.336273,101.068764 212.577057,102.078133 209.408081,102.631592 
	C209.683319,100.521561 210.341095,98.766449 211.357544,96.993210 
	C213.476120,96.312904 215.236023,95.650719 217.350601,94.836121 
	C222.164948,93.151627 226.624603,91.619530 231.084259,90.087433 
	C228.282471,93.329567 225.480682,96.571693 222.376724,99.956848 
z"/>
<path fill="#8BBB5E" opacity="1.000000" stroke="none" 
	d="
M114.022415,169.976273 
	C113.731133,169.759659 113.439850,169.543045 112.994675,169.099548 
	C112.889816,137.585312 112.938828,106.297966 112.960144,74.295914 
	C112.931847,73.412819 112.931236,73.244453 113.211037,73.378510 
	C113.667908,75.643166 113.993416,77.604988 113.998489,79.567657 
	C114.075760,109.430084 114.111099,139.292618 114.127289,169.361145 
	C114.098335,169.567169 114.022415,169.976273 114.022415,169.976273 
z"/>
<path fill="#94B369" opacity="1.000000" stroke="none" 
	d="
M47.961815,67.420815 
	C52.552967,68.028702 57.167713,69.195824 61.848747,69.953270 
	C67.993393,70.947548 74.190292,71.618965 80.670166,72.963943 
	C80.959145,73.710480 80.942680,73.922302 80.926224,74.134125 
	C79.643707,74.254639 78.324478,74.222885 77.084984,74.521797 
	C71.464996,75.877060 52.755028,71.596985 47.961815,67.420815 
z"/>
<path fill="#91BD51" opacity="1.000000" stroke="none" 
	d="
M111.143929,74.926743 
	C111.428452,75.963661 111.959923,77.000191 111.961525,78.037544 
	C112.006157,106.975258 111.998726,135.913055 111.988548,164.850845 
	C111.988274,165.650391 111.863602,166.449905 111.002220,167.239578 
	C111.002220,165.517105 111.002213,163.794617 111.002213,162.072144 
	C111.002213,135.296387 111.008690,108.520615 110.987846,81.744865 
	C110.986435,79.930527 110.779388,78.116341 110.462662,75.889259 
	C110.552872,75.293205 110.848404,75.109970 111.143929,74.926743 
z"/>
<path fill="#A08980" opacity="1.000000" stroke="none" 
	d="
M166.892578,179.555557 
	C167.030045,180.342804 167.019699,180.813477 166.672882,181.640350 
	C165.891205,181.998764 165.446030,182.000977 164.805969,181.705536 
	C155.286469,176.194458 145.619843,171.867096 135.143616,169.793915 
	C135.489426,169.380997 135.730194,169.191940 135.999084,169.038696 
	C136.184906,169.037186 136.370728,169.035690 136.830505,168.983612 
	C148.176895,168.939148 157.489777,174.005859 166.892578,179.555557 
z"/>
<path fill="#A3D760" opacity="1.000000" stroke="none" 
	d="
M180.565079,57.103836 
	C180.748901,57.623562 180.485352,58.075352 179.703476,58.789001 
	C175.124603,60.039143 171.064087,61.027428 167.003555,62.015713 
	C161.719330,63.652958 156.426697,65.263756 151.155426,66.941696 
	C149.295837,67.533638 147.488495,68.289696 145.273132,68.975281 
	C146.807892,67.581467 148.532501,65.591080 150.679123,64.886681 
	C160.334030,61.718483 169.469742,56.485065 180.565079,57.103836 
z"/>
<path fill="#ACEB36" opacity="1.000000" stroke="none" 
	d="
M231.070557,90.061035 
	C226.624603,91.619530 222.164948,93.151627 217.374237,94.480118 
	C220.026337,91.848709 223.009491,89.420898 226.333893,86.933327 
	C229.726242,84.913422 232.777374,82.953285 235.828506,80.993141 
	C234.595551,83.446091 233.362610,85.899040 231.814545,88.829788 
	C231.283020,89.530792 231.134247,89.792458 231.053116,90.092583 
	C231.053116,90.092583 231.056854,90.034630 231.070557,90.061035 
z"/>
<path fill="#A1B17F" opacity="1.000000" stroke="none" 
	d="
M111.192047,74.636398 
	C110.848404,75.109970 110.552872,75.293205 110.075958,75.667892 
	C100.353104,75.491516 90.811630,75.123680 81.098190,74.444992 
	C80.942680,73.922302 80.959145,73.710480 81.000671,73.179428 
	C82.426476,72.813126 83.827225,72.766052 86.094986,72.729523 
	C90.937241,72.786438 94.912476,72.832809 99.352348,72.916718 
	C102.891563,72.957787 105.966156,72.961319 109.430313,72.979439 
	C110.856796,73.021378 111.893707,73.048729 112.930626,73.076080 
	C112.931236,73.244453 112.931847,73.412819 112.931458,73.833405 
	C112.367027,74.172432 111.803596,74.259247 111.192047,74.636398 
z"/>
<path fill="#AD7B75" opacity="1.000000" stroke="none" 
	d="
M198.975494,232.026398 
	C199.309784,234.136627 199.644073,236.246841 200.002029,238.760162 
	C199.550873,239.444229 199.076050,239.725189 198.206024,239.578796 
	C194.536560,238.423630 191.262299,237.695816 188.011780,236.617401 
	C190.357498,233.509796 192.679489,230.752777 195.241898,228.215881 
	C196.646698,229.632782 197.811096,230.829590 198.975494,232.026398 
z"/>
<path fill="#A4BA7C" opacity="1.000000" stroke="none" 
	d="
M141.867340,114.366241 
	C152.403107,113.857903 162.851898,113.646683 173.590820,113.640533 
	C171.224106,114.563507 168.584137,115.815460 165.907288,115.900047 
	C157.591675,116.162849 149.262039,115.982536 140.475220,115.737061 
	C140.012573,115.499985 140.013168,115.167839 140.013168,115.167831 
	C140.602234,114.999672 141.191299,114.831512 141.867340,114.366241 
z"/>
<path fill="#B2F13E" opacity="1.000000" stroke="none" 
	d="
M235.961060,80.691833 
	C232.777374,82.953285 229.726242,84.913422 226.330887,86.676590 
	C225.981796,86.308456 225.976944,86.137299 226.143616,85.681076 
	C229.865417,80.256416 233.415680,75.116821 236.965973,69.977234 
	C237.175812,69.451363 237.385666,68.925484 238.073975,68.216125 
	C238.731979,68.043961 238.911514,68.055283 239.091049,68.066605 
	C238.091919,72.174576 237.092773,76.282555 235.961060,80.691833 
z"/>
<path fill="#A6CD6B" opacity="1.000000" stroke="none" 
	d="
M28.102039,16.002491 
	C25.015749,16.002491 22.412098,16.002491 19.808445,16.002491 
	C19.814514,15.748477 19.820581,15.494464 19.826651,15.240450 
	C38.882912,15.240450 57.939175,15.240450 76.995438,15.240450 
	C76.998138,15.494464 77.000839,15.748477 77.003540,16.002491 
	C60.863918,16.002491 44.724300,16.002491 28.102039,16.002491 
z"/>
<path fill="#B3EC4B" opacity="1.000000" stroke="none" 
	d="
M136.825394,64.017632 
	C136.874084,64.758606 136.922775,65.499580 136.521454,66.535416 
	C133.711716,66.550415 131.351990,66.270554 128.777679,65.776276 
	C127.708321,65.039200 126.853554,64.516548 125.917412,63.673908 
	C124.890236,61.903095 123.944435,60.452263 123.332840,59.001129 
	C124.112694,58.999058 124.558342,58.997292 125.364304,59.010811 
	C127.486641,59.679100 129.248672,60.332100 131.295868,61.150955 
	C133.329163,62.217083 135.077271,63.117355 136.825394,64.017632 
z"/>
<path fill="#A16469" opacity="1.000000" stroke="none" 
	d="
M187.988052,236.968018 
	C191.262299,237.695816 194.536560,238.423630 197.904785,239.515259 
	C196.882889,240.504181 195.767014,241.129303 194.282944,241.409515 
	C189.917496,237.137802 185.421967,239.021439 181.007660,239.957794 
	C180.259430,239.960907 179.511200,239.964035 178.143967,239.752655 
	C176.682770,239.362885 175.840591,239.187592 174.998398,239.012299 
	C174.982895,238.836334 174.967392,238.660370 175.152985,238.019989 
	C175.900543,237.365845 176.447037,237.176147 177.452057,236.998032 
	C181.269730,236.995758 184.628891,236.981888 187.988052,236.968018 
z"/>
<path fill="#91BD51" opacity="1.000000" stroke="none" 
	d="
M139.578827,115.113625 
	C140.013168,115.167839 140.012573,115.499985 140.012070,115.666061 
	C139.673645,117.521057 139.050629,119.208588 139.042313,120.899139 
	C138.966553,136.311203 138.997818,151.723801 138.002197,167.154800 
	C138.002197,164.505478 138.002197,161.856140 138.002197,159.206802 
	C138.002228,145.921921 137.967575,132.636810 138.052383,119.352478 
	C138.061539,117.919189 138.763748,116.490326 139.578827,115.113625 
z"/>
<path fill="#A4D73E" opacity="1.000000" stroke="none" 
	d="
M128.992279,65.990685 
	C131.351990,66.270554 133.711716,66.550415 136.452057,66.901970 
	C137.217850,68.066811 137.602982,69.159966 138.011871,70.633514 
	C138.035645,71.013916 137.968857,71.035316 137.636292,70.940994 
	C136.126389,70.337479 134.947159,69.392326 133.772003,69.397324 
	C129.515533,69.415474 125.260445,69.752586 121.004013,69.640442 
	C121.004570,68.872635 121.005951,68.433723 121.380356,67.995224 
	C122.499435,67.996948 123.245483,67.998253 124.192154,67.868820 
	C124.644302,67.534203 124.846947,67.289787 125.359642,67.002571 
	C126.809799,66.663757 127.901039,66.327217 128.992279,65.990685 
z"/>
<path fill="#C0F962" opacity="1.000000" stroke="none" 
	d="
M136.825806,63.693497 
	C135.077271,63.117355 133.329163,62.217083 131.240479,60.813156 
	C130.595169,59.212093 130.290451,58.114685 129.985718,57.017273 
	C131.377930,56.412712 132.770126,55.808155 134.478241,55.108654 
	C135.471481,57.798927 136.148849,60.584141 136.825806,63.693497 
z"/>
<path fill="#995472" opacity="1.000000" stroke="none" 
	d="
M181.277359,240.001740 
	C185.421967,239.021439 189.917496,237.137802 193.961517,241.451874 
	C190.605423,241.546967 187.202576,241.254837 183.377243,240.893890 
	C182.485535,240.565277 182.016296,240.305481 181.277359,240.001740 
z"/>
<path fill="#AAE25D" opacity="1.000000" stroke="none" 
	d="
M21.035728,17.924122 
	C21.035728,17.924122 21.034498,17.546108 21.032848,17.357109 
	C29.379269,17.123066 37.727337,17.078024 46.542789,17.328550 
	C47.010174,17.624119 47.019779,18.077723 47.019779,18.077721 
	C44.932243,18.086910 42.844711,18.096102 39.917564,18.091209 
	C35.382629,18.085699 31.687300,18.094273 27.557243,18.072510 
	C25.093586,18.002823 23.064657,17.963472 21.035728,17.924122 
z"/>
<path fill="#AFE368" opacity="1.000000" stroke="none" 
	d="
M112.486023,30.987633 
	C112.091316,30.498674 112.059425,30.031347 112.020569,29.211809 
	C114.283554,30.013664 116.553505,31.167728 118.966431,32.644035 
	C117.022537,32.313938 114.935692,31.661602 112.486023,30.987633 
z"/>
<path fill="#BBF257" opacity="1.000000" stroke="none" 
	d="
M239.477234,68.000778 
	C238.911514,68.055283 238.731979,68.043961 238.283051,68.019897 
	C238.761841,66.475952 239.510010,64.944748 240.520920,63.230995 
	C240.476913,64.677277 240.170166,66.306114 239.477234,68.000778 
z"/>
<path fill="#8BB348" opacity="1.000000" stroke="none" 
	d="
M20.187393,40.320351 
	C23.687616,40.155159 23.856977,42.737198 23.987963,45.738739 
	C22.727783,44.309563 21.473875,42.483883 20.187393,40.320351 
z"/>
<path fill="#A6CD6B" opacity="1.000000" stroke="none" 
	d="
M141.816010,70.165688 
	C142.171021,70.585869 142.158051,70.998802 141.808273,71.741516 
	C140.303925,71.725967 139.136383,71.380638 137.968857,71.035309 
	C137.968857,71.035316 138.035645,71.013916 138.059372,70.988060 
	C139.204742,70.694283 140.326370,70.426353 141.816010,70.165688 
z"/>
<path fill="#AFE368" opacity="1.000000" stroke="none" 
	d="
M47.349503,18.062290 
	C47.019779,18.077723 47.010174,17.624119 47.007233,17.397285 
	C47.780167,17.121679 48.556038,17.072908 49.719963,17.091125 
	C49.298416,17.454359 48.488819,17.750608 47.349503,18.062290 
z"/>
<path fill="#C0F962" opacity="1.000000" stroke="none" 
	d="
M133.843811,52.757717 
	C133.639664,52.692493 133.506454,52.396049 133.558838,52.086689 
	C133.744431,52.073772 133.914764,52.526501 133.843811,52.757717 
z"/>
<path fill="#94B369" opacity="1.000000" stroke="none" 
	d="
M46.333183,66.912521 
	C46.565384,66.802231 47.128464,66.755104 47.849327,66.896385 
	C47.559429,67.048416 47.111748,67.012047 46.333183,66.912521 
z"/>
<path fill="#BBF257" opacity="1.000000" stroke="none" 
	d="
M240.831299,59.709991 
	C240.543839,59.791828 240.352463,59.584461 240.138153,59.133400 
	C240.339188,59.109848 240.609924,59.286880 240.831299,59.709991 
z"/>
<path fill="#AFE368" opacity="1.000000" stroke="none" 
	d="
M51.809952,17.098030 
	C51.799801,17.238211 51.482780,17.317802 51.027523,17.277908 
	C51.093887,17.118095 51.298485,17.077766 51.809952,17.098030 
z"/>
<path fill="#8BB348" opacity="1.000000" stroke="none" 
	d="
M24.148197,47.235733 
	C24.420383,47.161152 24.624680,47.392262 24.881468,47.874046 
	C24.693993,47.890881 24.409441,47.696445 24.148197,47.235733 
z"/>
<path fill="#A4D73E" opacity="1.000000" stroke="none" 
	d="
M231.306274,90.009590 
	C231.134247,89.792458 231.283020,89.530792 231.667236,89.153679 
	C231.743179,89.308716 231.651306,89.617653 231.306274,90.009590 
z"/>
<path fill="#77514D" opacity="1.000000" stroke="none" 
	d="
M52.966904,238.006531 
	C54.679474,215.580261 63.650139,197.252182 82.922653,184.663315 
	C87.902916,181.410187 93.333229,180.584244 99.530655,181.348526 
	C97.855598,184.343033 95.541489,186.831955 93.664780,189.615768 
	C86.832863,199.749924 80.012993,209.897430 73.461159,220.213028 
	C70.018539,225.633316 67.141518,231.412827 63.739346,237.222305 
	C59.968704,237.611832 56.467804,237.809174 52.966904,238.006531 
z"/>
<path fill="#82504C" opacity="1.000000" stroke="none" 
	d="
M64.009094,237.030136 
	C67.141518,231.412827 70.018539,225.633316 73.461159,220.213028 
	C80.012993,209.897430 86.832863,199.749924 93.664780,189.615768 
	C95.541489,186.831955 97.855598,184.343033 99.983658,181.352325 
	C102.055756,180.648285 104.113182,180.310730 106.585052,180.415237 
	C105.945900,185.312576 105.611511,190.117874 103.656647,194.134521 
	C101.214050,199.153351 97.224998,203.393494 94.294380,208.207703 
	C90.971207,213.666779 88.080498,219.389099 84.853561,225.299393 
	C82.136909,229.404053 79.568474,233.206299 76.742126,237.201874 
	C72.325851,237.273529 68.167473,237.151840 64.009094,237.030136 
z"/>
<path fill="#89564D" opacity="1.000000" stroke="none" 
	d="
M85.001755,224.996964 
	C88.080498,219.389099 90.971207,213.666779 94.294380,208.207703 
	C97.224998,203.393494 101.214050,199.153351 103.656647,194.134521 
	C105.611511,190.117874 105.945900,185.312576 106.999725,180.415222 
	C109.746445,178.315460 112.492920,176.657791 115.913544,175.165512 
	C119.062675,176.552292 121.537659,177.773651 123.858063,179.337463 
	C123.802025,182.119949 123.900558,184.559967 123.751221,187.223984 
	C119.335167,191.632172 115.166969,195.816391 110.656273,200.062347 
	C107.956345,202.123077 105.441551,203.965775 103.271362,206.150742 
	C97.106163,212.358002 91.081657,218.704987 85.001755,224.996964 
z"/>
<path fill="#826944" opacity="1.000000" stroke="none" 
	d="
M124.012642,178.995010 
	C121.537659,177.773651 119.062675,176.552292 116.275620,175.146774 
	C115.490822,173.309601 115.018097,171.656586 114.283890,169.989914 
	C114.022415,169.976273 114.098335,169.567169 114.435287,169.345123 
	C115.183815,169.077606 115.595390,169.032120 116.459915,169.002960 
	C119.660240,168.943130 122.407616,168.866959 125.154999,168.790802 
	C126.192879,168.861679 127.230751,168.932571 128.640579,169.059036 
	C129.012527,169.114609 128.973038,169.336945 128.982971,169.674469 
	C129.010223,170.691422 129.027542,171.370850 128.796616,172.152832 
	C127.036469,174.501923 125.524551,176.748459 124.012642,178.995010 
z"/>
<path fill="#844B62" opacity="1.000000" stroke="none" 
	d="
M63.739349,237.222305 
	C68.167473,237.151840 72.325851,237.273529 76.981827,237.295166 
	C79.649788,237.132507 81.820152,237.069901 84.200989,237.314240 
	C86.599960,238.074631 88.788460,238.528076 91.264008,239.027695 
	C92.028267,239.379089 92.505470,239.684326 92.982681,239.989563 
	C81.376434,239.979568 69.770042,239.996109 58.164093,239.931747 
	C56.367336,239.921783 54.572632,239.541122 52.395050,239.169403 
	C52.152775,238.722794 52.342720,238.477646 52.774925,238.138992 
	C56.467804,237.809174 59.968704,237.611832 63.739349,237.222305 
z"/>
<path fill="#90CC30" opacity="1.000000" stroke="none" 
	d="
M125.111473,168.445801 
	C122.407616,168.866959 119.660240,168.943130 116.457413,168.535629 
	C116.001854,153.896667 116.109619,139.740143 115.948975,125.586655 
	C115.883926,119.856361 118.505737,115.960670 123.298126,112.998619 
	C123.724464,113.033737 123.894569,113.052673 124.064674,113.071617 
	C120.466759,129.881271 121.757706,146.789581 123.100258,163.692017 
	C123.156799,164.403931 123.857559,165.064682 124.613823,165.881378 
	C125.002289,166.709274 125.035118,167.405045 125.111473,168.445801 
z"/>
<path fill="#BBF654" opacity="1.000000" stroke="none" 
	d="
M135.999847,168.566513 
	C135.730194,169.191940 135.489426,169.380997 134.895081,169.812561 
	C134.513397,170.019272 134.018539,170.074783 133.725815,169.840378 
	C131.946411,169.516296 130.459717,169.426620 128.973038,169.336945 
	C128.973038,169.336945 129.012527,169.114609 129.027130,169.002533 
	C129.028625,167.533890 129.015533,166.177338 129.402878,164.372192 
	C130.534943,162.488113 131.813110,161.087387 131.906952,159.611359 
	C132.408829,151.717102 132.731552,143.805466 132.827576,135.896332 
	C132.847321,134.269943 131.638474,132.628616 130.995926,130.994186 
	C135.823013,130.060730 135.891418,133.633301 135.934525,136.619827 
	C136.085922,147.109451 135.997803,157.602554 135.999847,168.566513 
z"/>
<path fill="#BCF45B" opacity="1.000000" stroke="none" 
	d="
M130.729706,131.256714 
	C131.638474,132.628616 132.847321,134.269943 132.827576,135.896332 
	C132.731552,143.805466 132.408829,151.717102 131.906952,159.611359 
	C131.813110,161.087387 130.534943,162.488113 129.404083,163.964508 
	C128.997162,154.708344 128.922226,145.410339 129.048386,136.115067 
	C129.069275,134.576996 129.969589,133.050873 130.729706,131.256714 
z"/>
<path fill="#A0DB31" opacity="1.000000" stroke="none" 
	d="
M27.991970,18.102848 
	C31.687300,18.094273 35.382629,18.085699 39.537704,18.112551 
	C41.549652,21.567900 43.101852,24.987822 44.535423,28.887520 
	C43.610687,31.244967 42.804581,33.122635 41.619442,34.997570 
	C38.827045,33.996353 36.413677,32.997871 33.850441,31.686527 
	C31.797709,26.950060 29.894838,22.526453 27.991970,18.102848 
z"/>
<path fill="#A4DB37" opacity="1.000000" stroke="none" 
	d="
M41.998474,35.000305 
	C42.804581,33.122635 43.610687,31.244967 44.708282,29.184095 
	C48.762245,30.627367 52.524715,32.253838 56.643341,34.368713 
	C56.999130,36.571434 56.998756,38.285755 56.658386,40.053761 
	C55.213135,40.405922 54.107883,40.704395 52.643951,41.158546 
	C50.191017,41.542286 48.096764,41.770348 45.714951,41.814774 
	C44.284424,39.420856 43.141449,37.210583 41.998474,35.000305 
z"/>
<path fill="#ACEB36" opacity="1.000000" stroke="none" 
	d="
M74.000732,19.935505 
	C75.070007,19.953489 76.139275,19.971472 77.721832,20.342699 
	C79.834190,21.100674 81.433250,21.505405 83.032318,21.910137 
	C83.032318,21.910135 83.022743,21.935118 83.000847,22.326942 
	C81.779320,23.816360 80.586990,24.922083 79.377914,26.009174 
	C78.260674,27.013697 77.125488,27.998255 75.627319,28.995701 
	C73.835945,29.334639 72.415474,29.669479 70.573914,30.003506 
	C67.435089,30.334492 64.717346,30.666292 61.999596,30.998093 
	C62.989067,27.912556 63.978539,24.827019 65.422348,21.364723 
	C68.584694,20.637144 71.292709,20.286325 74.000732,19.935505 
z"/>
<path fill="#AAE23E" opacity="1.000000" stroke="none" 
	d="
M61.673943,31.053650 
	C64.717346,30.666292 67.435089,30.334492 70.456009,30.256767 
	C70.508713,31.010525 70.258247,31.510204 70.006126,32.255577 
	C70.004471,32.501270 70.004509,32.992668 70.002426,32.996101 
	C70.000336,32.999531 69.997566,33.006271 69.703842,33.175575 
	C67.272758,36.561527 65.135384,39.778168 62.616272,42.992870 
	C60.489151,41.993977 58.743767,40.997025 56.998386,40.000072 
	C56.998756,38.285755 56.999130,36.571434 56.998756,34.428680 
	C58.448105,33.036568 59.898197,32.072884 61.673943,31.053650 
z"/>
<path fill="#AEE248" opacity="1.000000" stroke="none" 
	d="
M73.687096,19.706791 
	C71.292709,20.286325 68.584694,20.637144 65.439011,20.986721 
	C62.531467,20.474169 60.061596,19.962858 57.295078,19.204350 
	C62.456776,19.130793 67.915115,19.304436 73.687096,19.706791 
z"/>
<path fill="#BBF257" opacity="1.000000" stroke="none" 
	d="
M129.743103,57.009674 
	C130.290451,58.114685 130.595169,59.212093 130.955307,60.647301 
	C129.248672,60.332100 127.486641,59.679100 125.274643,58.681232 
	C119.368416,55.330982 114.067062,51.987209 108.418678,49.401531 
	C100.449425,45.753418 92.126907,42.810795 87.002396,35.001366 
	C91.069527,33.674427 95.136650,32.347492 99.604156,31.024021 
	C97.807762,36.462814 99.095009,39.397552 105.395424,43.176643 
	C113.031197,47.756702 120.682434,52.310982 128.671097,56.932961 
	C129.015213,56.989517 129.500488,57.002079 129.743103,57.009674 
z"/>
<path fill="#9BC44A" opacity="1.000000" stroke="none" 
	d="
M73.985252,67.996933 
	C66.899811,66.041100 59.814365,64.085266 52.155472,61.828968 
	C50.393372,60.349239 49.204720,59.169975 48.383968,57.928032 
	C50.834938,57.243950 52.918007,56.622543 55.297806,56.170982 
	C61.047596,58.579418 66.320602,61.802139 71.993340,62.840015 
	C82.033043,64.676872 92.321045,65.139862 102.490112,66.308502 
	C103.710052,66.448700 104.836670,67.400978 105.537819,67.985077 
	C98.285660,67.686966 91.504257,67.226814 84.717949,67.137001 
	C81.144806,67.089706 77.563095,67.689384 73.985252,67.996933 
z"/>
<path fill="#8FBD37" opacity="1.000000" stroke="none" 
	d="
M74.254089,68.265381 
	C77.563095,67.689384 81.144806,67.089706 84.717949,67.137001 
	C91.504257,67.226814 98.285660,67.686966 105.870743,67.990250 
	C107.116409,67.989151 107.560417,67.991119 108.138405,68.196220 
	C108.482620,68.651726 108.729645,68.860626 109.008842,69.411209 
	C108.983086,70.566414 108.961922,71.336456 108.617584,72.078445 
	C107.862175,72.025169 107.429939,71.999954 106.893478,71.861458 
	C106.482552,71.593689 106.223412,71.664558 105.596268,71.975250 
	C103.083038,72.286217 100.985374,72.582695 98.887718,72.879181 
	C94.912476,72.832809 90.937241,72.786438 86.509201,72.653595 
	C84.357689,71.711624 82.725655,70.661079 80.942833,70.051682 
	C78.871895,69.343788 76.668716,69.022766 74.254089,68.265381 
z"/>
<path fill="#8FBD37" opacity="1.000000" stroke="none" 
	d="
M48.016068,57.990711 
	C49.204720,59.169975 50.393372,60.349239 51.789658,61.766388 
	C48.161835,61.178001 44.326378,60.351730 40.246967,59.269608 
	C40.289249,57.262505 40.575489,55.511261 40.923805,53.386051 
	C41.430370,53.006878 41.874851,53.001663 42.935776,53.155743 
	C45.040165,54.873596 46.528118,56.432152 48.016068,57.990711 
z"/>
<path fill="#89C224" opacity="1.000000" stroke="none" 
	d="
M124.467133,113.085785 
	C123.894569,113.052673 123.724464,113.033737 123.543213,112.736420 
	C126.026711,111.315880 128.521332,110.173714 131.457870,109.027748 
	C135.265060,108.689270 138.630341,108.354584 142.240509,108.021805 
	C142.485413,108.023712 142.975159,108.032890 143.188599,108.336044 
	C145.907120,109.709373 148.412201,110.779541 150.917282,111.849716 
	C146.487015,112.073593 142.056732,112.297462 137.281708,112.754166 
	C132.914490,113.024643 128.892044,113.062294 124.467133,113.085785 
z"/>
<path fill="#9CD136" opacity="1.000000" stroke="none" 
	d="
M41.619442,34.997570 
	C43.141449,37.210583 44.284424,39.420856 45.536709,42.122772 
	C45.101810,44.407658 44.557602,46.200897 43.759010,48.113861 
	C43.003273,48.487690 42.501915,48.741798 42.000561,48.995907 
	C39.372688,45.569481 36.744816,42.143059 34.057625,37.930046 
	C33.998970,35.428764 33.999641,33.714077 34.000309,31.999390 
	C36.413677,32.997871 38.827045,33.996353 41.619442,34.997570 
z"/>
<path fill="#98D22E" opacity="1.000000" stroke="none" 
	d="
M33.850441,31.686527 
	C33.999641,33.714077 33.998970,35.428764 33.997116,37.571983 
	C28.713366,32.213932 22.479950,27.065226 21.040863,18.310455 
	C23.064657,17.963472 25.093586,18.002823 27.557243,18.072510 
	C29.894838,22.526453 31.797709,26.950060 33.850441,31.686527 
z"/>
<path fill="#9DCE40" opacity="1.000000" stroke="none" 
	d="
M42.011002,49.343700 
	C42.501915,48.741798 43.003273,48.487690 44.055809,48.286964 
	C47.735348,49.887524 50.863705,51.434696 54.245556,53.104080 
	C54.999649,53.483162 55.500252,53.740032 55.881348,54.250198 
	C55.508247,55.002705 55.254658,55.501919 55.001068,56.001137 
	C52.918007,56.622543 50.834938,57.243950 48.383968,57.928032 
	C46.528118,56.432152 45.040165,54.873596 43.269001,53.154015 
	C42.664337,51.892494 42.342892,50.791996 42.011002,49.343700 
z"/>
<path fill="#94C041" opacity="1.000000" stroke="none" 
	d="
M183.002350,105.994469 
	C187.099915,106.891937 191.197495,107.789413 195.647430,108.842514 
	C188.652298,109.673538 181.304794,110.348930 173.376801,110.655762 
	C170.585129,109.523758 168.422729,108.351135 166.152771,108.080421 
	C161.130386,107.481445 156.053940,107.335876 151.332748,106.758667 
	C154.097794,106.341499 156.530243,106.179008 158.961365,105.998840 
	C163.308517,105.676666 167.654877,105.343857 172.396545,105.018089 
	C176.195114,105.345276 179.598740,105.669876 183.002350,105.994469 
z"/>
<path fill="#8FBD37" opacity="1.000000" stroke="none" 
	d="
M150.999542,107.005386 
	C156.053940,107.335876 161.130386,107.481445 166.152771,108.080421 
	C168.422729,108.351135 170.585129,109.523758 172.912094,110.647453 
	C165.975296,111.318047 158.922714,111.628387 151.393707,111.894226 
	C148.412201,110.779541 145.907120,109.709373 143.591278,108.301773 
	C146.186874,107.644691 148.593201,107.325035 150.999542,107.005386 
z"/>
<path fill="#B3867F" opacity="1.000000" stroke="none" 
	d="
M198.980469,231.620300 
	C197.811096,230.829590 196.646698,229.632782 195.226822,227.855865 
	C194.088074,226.012238 193.204803,224.748703 192.321533,223.485168 
	C191.208542,224.334045 190.101379,225.190689 188.981522,226.030396 
	C184.990433,229.022980 180.994995,232.009781 177.085892,234.672379 
	C178.812866,232.984451 180.522583,231.695572 182.083771,230.246643 
	C185.593521,226.989288 189.649597,224.049088 188.588303,218.231232 
	C186.951904,209.260773 178.510651,203.901276 169.619751,206.734146 
	C164.289490,208.432526 159.199554,210.885147 154.170868,212.706116 
	C162.109314,204.908081 171.765427,202.560883 183.817291,202.830490 
	C181.935562,200.451294 180.965958,199.225342 179.997360,197.601074 
	C179.989563,196.141632 179.980728,195.080475 179.971909,194.019348 
	C181.524475,195.392944 183.434036,196.521759 184.571152,198.180222 
	C191.478439,208.254333 196.784348,219.067825 198.980469,231.620300 
z"/>
<path fill="#A9756E" opacity="1.000000" stroke="none" 
	d="
M165.000854,182.003174 
	C165.446030,182.000977 165.891205,181.998764 166.670319,181.993469 
	C168.844406,183.509460 170.684555,185.028549 172.761002,187.179932 
	C173.460892,191.770920 171.367493,193.607742 167.897919,195.149078 
	C157.291718,199.860733 147.368591,205.671738 139.651993,215.065399 
	C137.204361,216.092682 135.102890,217.049713 132.999939,217.753754 
	C132.997330,217.332108 132.996216,217.163467 133.017090,216.636871 
	C133.355286,215.537903 133.556702,214.717697 134.004990,214.067764 
	C140.070816,205.273544 149.208832,200.242996 157.804611,194.503159 
	C159.850021,193.137344 161.287186,190.860672 163.360123,188.987823 
	C169.807648,187.693436 164.443588,184.302551 165.000854,182.003174 
z"/>
<path fill="#AD7B75" opacity="1.000000" stroke="none" 
	d="
M139.998169,214.995117 
	C147.368591,205.671738 157.291718,199.860733 167.897919,195.149078 
	C171.367493,193.607742 173.460892,191.770920 172.998657,187.407349 
	C175.163269,189.188095 177.326553,191.373734 179.730865,193.789368 
	C179.980728,195.080475 179.989563,196.141632 179.572296,197.601044 
	C164.378250,199.674622 151.852890,205.731384 141.748322,217.129349 
	C140.999222,217.501236 140.502792,217.755264 140.004883,217.632568 
	C140.001648,216.502274 139.999908,215.748703 139.998169,214.995117 
z"/>
<path fill="#A6E337" opacity="1.000000" stroke="none" 
	d="
M166.997787,62.262917 
	C171.064087,61.027428 175.124603,60.039143 179.590118,59.024445 
	C181.098297,59.320843 182.201477,59.643646 183.865295,60.223557 
	C183.769485,61.766788 183.433167,63.464550 182.400864,64.267403 
	C178.046097,67.654213 173.483887,70.774239 168.614456,74.012100 
	C164.489609,75.355728 160.747849,76.679108 156.807693,77.866837 
	C156.359787,77.523651 156.155609,77.278389 156.175339,76.709320 
	C161.285080,72.565132 166.216263,68.707024 171.147430,64.848915 
	C170.863495,64.386375 170.579575,63.923840 170.295639,63.461304 
	C169.190765,63.309055 168.085892,63.156807 166.981018,63.004559 
	C166.981018,63.004559 166.992020,62.510128 166.997787,62.262917 
z"/>
<path fill="#8FCE27" opacity="1.000000" stroke="none" 
	d="
M137.636292,70.940994 
	C139.136383,71.380638 140.303925,71.725967 141.801300,72.051361 
	C143.207642,71.863419 144.284134,71.695427 146.336624,71.375114 
	C143.135773,76.952950 140.357895,81.793716 136.915070,86.815704 
	C135.498932,86.995911 134.747742,86.994896 133.898010,86.715965 
	C134.554825,84.927208 135.309067,83.415817 136.065765,81.905655 
	C137.049881,79.941650 138.035934,77.978630 139.102814,75.968246 
	C139.184479,75.921318 139.190231,75.688522 139.190231,75.688522 
	C139.190231,75.688522 138.984009,75.978058 138.619293,75.981720 
	C137.527435,75.996033 136.800293,76.006683 136.028168,75.640701 
	C135.239563,74.565506 134.528610,73.308479 133.746826,73.262772 
	C129.885437,73.036980 126.005295,73.131767 121.722626,73.087708 
	C118.872688,72.370255 116.431892,71.678574 114.212585,70.758926 
	C114.632584,69.723450 114.831078,68.915939 115.255203,68.096054 
	C115.480843,68.083672 115.931786,68.053619 116.137894,68.344116 
	C117.897606,69.079514 119.451225,69.524429 121.004837,69.969337 
	C125.260445,69.752586 129.515533,69.415474 133.772003,69.397324 
	C134.947159,69.392326 136.126389,70.337479 137.636292,70.940994 
z"/>
<path fill="#A0DB31" opacity="1.000000" stroke="none" 
	d="
M166.662140,63.157242 
	C168.085892,63.156807 169.190765,63.309055 170.295639,63.461304 
	C170.579575,63.923840 170.863495,64.386375 171.147430,64.848915 
	C166.216263,68.707024 161.285080,72.565132 155.805969,76.774757 
	C152.840439,77.755447 150.422852,78.384613 148.005264,79.013779 
	C150.877563,72.964005 154.403519,67.575638 161.278244,65.397400 
	C163.012894,64.847778 164.657349,64.013428 166.662140,63.157242 
z"/>
<path fill="#9DCE40" opacity="1.000000" stroke="none" 
	d="
M136.010040,90.990707 
	C138.428955,89.334862 140.847870,87.679016 143.920563,86.141403 
	C145.384308,86.506355 146.194290,86.753082 146.945511,87.348129 
	C146.259323,89.464096 145.631897,91.231743 144.867462,93.196304 
	C144.521622,93.640587 144.275909,93.843193 143.623245,94.025620 
	C140.503967,95.035851 137.754715,96.021484 134.806213,96.797523 
	C134.072311,96.391266 133.537659,96.194611 133.143524,95.700165 
	C134.192703,93.931824 135.101364,92.461266 136.010040,90.990707 
z"/>
<path fill="#A4D73E" opacity="1.000000" stroke="none" 
	d="
M147.004288,86.999809 
	C146.194290,86.753082 145.384308,86.506355 144.283447,86.125290 
	C145.292191,83.892502 146.591812,81.794052 147.948334,79.354691 
	C150.422852,78.384613 152.840439,77.755447 155.627396,77.060837 
	C156.155609,77.278389 156.359787,77.523651 156.803589,78.234894 
	C156.332352,80.492104 155.666794,82.245598 154.646881,84.059029 
	C151.863098,85.079247 149.433701,86.039528 147.004288,86.999809 
z"/>
<path fill="#92C82F" opacity="1.000000" stroke="none" 
	d="
M136.060944,90.650909 
	C135.101364,92.461266 134.192703,93.931824 132.985687,95.976593 
	C131.457520,97.702545 130.227676,98.854279 128.994797,99.623047 
	C129.661224,95.835083 130.330704,92.430092 131.262451,88.873734 
	C132.348648,88.146217 133.172592,87.570045 133.996552,86.993881 
	C134.747742,86.994896 135.498932,86.995911 136.625778,86.996483 
	C136.704910,88.101059 136.408371,89.206085 136.060944,90.650909 
z"/>
<path fill="#BA8783" opacity="1.000000" stroke="none" 
	d="
M154.001617,212.998779 
	C159.199554,210.885147 164.289490,208.432526 169.619751,206.734146 
	C178.510651,203.901276 186.951904,209.260773 188.588303,218.231232 
	C189.649597,224.049088 185.593521,226.989288 182.083771,230.246643 
	C180.522583,231.695572 178.812866,232.984451 177.084656,235.003754 
	C176.997009,236.103165 176.995270,236.544800 176.993530,236.986435 
	C176.447037,237.176147 175.900543,237.365845 175.139221,237.755371 
	C173.564529,237.977386 172.204651,237.999603 170.154312,237.819580 
	C161.303391,237.431381 153.142944,237.245438 144.988770,236.595123 
	C144.404922,228.176331 145.689270,220.874619 152.059402,215.249741 
	C152.607376,214.765884 152.697403,213.763397 153.250519,213.001251 
	C153.667801,213.000046 153.834702,212.999405 154.001617,212.998779 
M179.896561,225.171997 
	C180.403122,221.882095 182.210297,217.960419 181.014023,215.497681 
	C180.016541,213.444214 175.544464,212.344406 172.527954,212.156021 
	C165.898651,211.742004 160.261932,214.840042 155.486023,219.202499 
	C152.126511,222.271118 151.992020,226.767792 153.729279,230.286407 
	C154.696274,232.244919 158.395279,233.511765 161.027863,233.866241 
	C168.635406,234.890579 174.324112,230.783310 179.896561,225.171997 
z"/>
<path fill="#995472" opacity="1.000000" stroke="none" 
	d="
M144.982483,237.059494 
	C153.142944,237.245438 161.303391,237.431381 169.745392,237.848984 
	C168.152313,238.721497 166.280640,239.910004 164.402664,239.920074 
	C140.910294,240.045914 117.417038,240.001022 93.453339,239.994736 
	C92.505470,239.684326 92.028267,239.379089 91.484184,238.721573 
	C93.939178,237.904739 96.461044,237.440201 99.293289,237.214447 
	C101.727089,237.619873 103.850517,237.786514 106.311554,237.961151 
	C107.099411,237.971359 107.549675,237.973602 108.253731,237.983093 
	C108.676796,237.990967 108.846062,237.991608 109.341476,237.994598 
	C110.102493,237.997375 110.537369,237.997787 111.084602,238.117859 
	C111.196968,238.237503 111.650528,238.298080 111.650528,238.298080 
	C111.650528,238.298080 112.023804,237.998306 112.260452,237.995972 
	C112.497093,237.993637 112.970367,237.987427 113.302528,238.232819 
	C118.090744,238.324142 122.546799,238.170074 127.335854,238.012024 
	C128.112885,238.005524 128.556931,238.003036 129.250397,238.000702 
	C129.499832,238.000854 129.998703,238.000870 130.320969,238.237823 
	C133.448669,238.581100 136.254089,238.687408 139.388550,238.804398 
	C140.525482,238.245300 141.333389,237.675507 142.328781,237.094147 
	C142.516251,237.082581 142.891785,237.072296 143.240295,237.086212 
	C144.053375,237.086578 144.517929,237.073029 144.982483,237.059494 
z"/>
<path fill="#995472" opacity="1.000000" stroke="none" 
	d="
M175.240204,239.232300 
	C175.840591,239.187592 176.682770,239.362885 177.769836,239.753845 
	C177.170471,239.797119 176.326248,239.624710 175.240204,239.232300 
z"/>
<path fill="#B2F13E" opacity="1.000000" stroke="none" 
	d="
M75.998207,28.991604 
	C77.125488,27.998255 78.260674,27.013697 79.377914,26.009174 
	C80.586990,24.922083 81.779320,23.816360 83.012062,22.334194 
	C86.755508,22.251122 90.465836,22.552622 94.579315,22.932970 
	C97.414406,24.624954 99.846359,26.238089 103.618385,28.740099 
	C96.429871,29.207005 90.603081,29.585466 84.042084,30.134008 
	C80.871330,29.866594 78.434769,29.429100 75.998207,28.991604 
z"/>
<path fill="#AEE248" opacity="1.000000" stroke="none" 
	d="
M82.907806,21.574076 
	C81.433250,21.505405 79.834190,21.100674 78.122818,20.350201 
	C79.601448,20.415644 81.192368,20.826830 82.907806,21.574076 
z"/>
<path fill="#A4CE50" opacity="1.000000" stroke="none" 
	d="
M143.993286,94.001030 
	C144.275909,93.843193 144.521622,93.640587 145.302887,93.196686 
	C151.583145,93.665962 157.290955,94.331772 163.244659,95.256531 
	C164.971451,96.259796 166.389603,97.462341 167.943314,97.675140 
	C179.278610,99.227608 190.641174,100.581177 202.325073,102.008804 
	C203.435623,102.348686 204.216232,102.677307 204.996826,103.005928 
	C201.006058,103.670158 197.031204,104.464180 193.019363,104.956665 
	C189.927109,105.336273 186.788345,105.337128 183.336304,105.750427 
	C179.598740,105.669876 176.195114,105.345276 172.065521,104.769554 
	C165.144424,104.005493 158.943207,103.556343 152.755981,102.961533 
	C146.677414,102.377174 144.210907,99.778076 143.993286,94.001030 
z"/>
<path fill="#A7D54A" opacity="1.000000" stroke="none" 
	d="
M205.396820,103.004227 
	C204.216232,102.677307 203.435623,102.348686 202.266144,101.649101 
	C201.586258,99.854233 201.295258,98.430321 201.372589,96.844704 
	C204.492096,96.454155 207.243301,96.225311 210.192841,96.133011 
	C210.640747,96.478287 210.843323,96.725548 210.998871,97.011337 
	C210.341095,98.766449 209.683319,100.521561 209.010315,102.633865 
	C207.929016,102.994888 206.862900,102.998711 205.396820,103.004227 
z"/>
<path fill="#C2FB62" opacity="1.000000" stroke="none" 
	d="
M231.004669,63.005608 
	C229.717194,64.476639 228.162231,65.797256 227.224518,67.464951 
	C226.434402,68.870171 226.361481,70.678650 225.971100,72.308624 
	C227.596863,72.411003 229.223053,72.591614 230.848190,72.582573 
	C231.653748,72.578102 232.457367,72.224800 233.485504,72.316864 
	C231.805008,75.068932 229.900864,77.533447 227.541565,79.998146 
	C224.592285,79.987587 222.075684,80.188461 219.608276,79.926369 
	C212.248718,79.144615 209.428604,74.379066 213.342773,68.850800 
	C219.458069,66.800903 225.231369,64.903259 231.004669,63.005608 
z"/>
<path fill="#BBF257" opacity="1.000000" stroke="none" 
	d="
M227.996719,79.997963 
	C229.900864,77.533447 231.805008,75.068932 233.855225,72.302017 
	C234.791885,71.372070 235.582474,70.744522 236.669510,70.047104 
	C233.415680,75.116821 229.865417,80.256416 225.764145,85.708206 
	C222.475037,87.013382 219.736938,88.006363 216.675934,88.758759 
	C214.736938,88.345070 213.120697,88.173317 211.504791,87.998657 
	C203.100983,87.090317 195.972610,84.108437 192.015488,75.633629 
	C192.989716,71.664162 195.050903,69.285866 198.999847,69.258316 
	C199.000854,69.675621 199.001404,69.842537 198.845978,70.332565 
	C195.550217,74.905510 197.837311,78.197266 200.747925,81.170723 
	C207.560532,88.130394 221.535614,87.472191 227.996719,79.997963 
z"/>
<path fill="#BBF654" opacity="1.000000" stroke="none" 
	d="
M199.001953,70.009460 
	C199.001404,69.842537 199.000854,69.675621 199.001556,68.927032 
	C199.004730,67.903862 199.006638,67.462364 199.382935,67.016975 
	C200.506378,67.013077 201.255432,67.013069 202.228394,67.215714 
	C203.303619,66.952942 204.154968,66.487503 205.404205,65.947540 
	C211.869690,64.584778 217.937286,63.296532 224.375305,62.003975 
	C226.162704,61.665478 227.579681,61.331303 229.336456,60.989624 
	C231.115402,60.981686 232.554550,60.981243 233.993713,60.980797 
	C233.141144,61.511852 232.288574,62.042900 231.220337,62.789780 
	C225.231369,64.903259 219.458069,66.800903 212.925339,68.850723 
	C207.777924,69.338409 203.389938,69.673935 199.001953,70.009460 
z"/>
<path fill="#B2F13E" opacity="1.000000" stroke="none" 
	d="
M234.317902,60.928391 
	C232.554550,60.981243 231.115402,60.981686 229.337067,60.617340 
	C228.996994,59.508469 228.996109,58.764385 228.995239,58.020298 
	C231.677078,58.024384 234.358902,58.028465 237.505615,58.277542 
	C237.970505,58.522541 237.993317,58.994541 237.993317,58.994537 
	C236.876236,59.621685 235.759155,60.248837 234.317902,60.928391 
z"/>
<path fill="#BBF654" opacity="1.000000" stroke="none" 
	d="
M238.165176,58.906723 
	C237.993317,58.994541 237.970505,58.522541 237.951416,58.287495 
	C237.932327,58.052448 238.414322,58.123348 238.644623,58.201885 
	C238.734909,58.499138 238.555618,58.678631 238.165176,58.906723 
z"/>
<path fill="#B5EA53" opacity="1.000000" stroke="none" 
	d="
M86.749161,34.881569 
	C92.126907,42.810795 100.449425,45.753418 108.418678,49.401531 
	C114.067062,51.987209 119.368416,55.330982 124.914337,58.665947 
	C124.558342,58.997292 124.112694,58.999058 122.951637,58.983612 
	C116.387161,56.781006 110.527802,54.622662 104.691772,52.402973 
	C98.271172,49.960953 91.817879,47.590435 85.494957,44.914394 
	C83.473152,44.058712 81.821404,42.328632 80.019348,40.648598 
	C81.691299,38.199821 83.344246,36.101074 84.997192,34.002319 
	C85.496765,34.255470 85.996338,34.508621 86.749161,34.881569 
z"/>
<path fill="#B3EC4B" opacity="1.000000" stroke="none" 
	d="
M84.987473,33.654129 
	C83.344246,36.101074 81.691299,38.199821 79.581909,40.648933 
	C77.084206,40.998425 75.042946,40.997547 72.983513,40.616966 
	C71.976074,37.826931 70.986816,35.416603 69.997566,33.006271 
	C69.997566,33.006271 70.000336,32.999531 70.118958,32.893120 
	C70.393379,32.474041 70.316788,32.215099 70.007782,32.009884 
	C70.258247,31.510204 70.508713,31.010525 70.877090,30.257584 
	C72.415474,29.669479 73.835945,29.334639 75.627319,28.995701 
	C78.434769,29.429100 80.871330,29.866594 83.653770,30.152756 
	C84.325684,31.102922 84.651711,32.204426 84.987473,33.654129 
z"/>
<path fill="#ADEC3A" opacity="1.000000" stroke="none" 
	d="
M228.535614,58.013641 
	C228.996109,58.764385 228.996994,59.508469 228.997269,60.624840 
	C227.579681,61.331303 226.162704,61.665478 224.074829,61.766571 
	C216.268265,62.279118 209.098602,62.798340 202.010742,63.862473 
	C198.265549,64.424767 194.662827,65.936119 190.744537,67.137077 
	C189.997559,67.504944 189.501816,67.754723 188.670593,68.002594 
	C187.887833,68.001770 187.440552,68.002869 186.664520,68.153702 
	C181.225067,70.535606 176.114365,72.767769 170.803833,74.790863 
	C170.068512,74.385147 169.533035,74.188499 168.997559,73.991852 
	C173.483887,70.774239 178.046097,67.654213 182.400864,64.267403 
	C183.433167,63.464550 183.769485,61.766788 184.213226,60.236130 
	C185.085770,59.663078 186.163574,59.076794 187.257401,59.045208 
	C200.862259,58.652306 214.469437,58.340008 228.535614,58.013641 
z"/>
<path fill="#B1E848" opacity="1.000000" stroke="none" 
	d="
M216.998856,88.999344 
	C219.736938,88.006363 222.475037,87.013382 225.592621,85.993271 
	C225.976944,86.137299 225.981796,86.308456 225.989655,86.736351 
	C223.009491,89.420898 220.026337,91.848709 217.019531,94.632530 
	C215.236023,95.650719 213.476120,96.312904 211.357544,96.993210 
	C210.843323,96.725548 210.640747,96.478287 210.194702,95.734009 
	C209.999176,94.134125 210.000092,93.069771 210.323303,91.860031 
	C212.763336,90.809540 214.881088,89.904442 216.998856,88.999344 
z"/>
<path fill="#85BC33" opacity="1.000000" stroke="none" 
	d="
M131.000183,89.025093 
	C130.330704,92.430092 129.661224,95.835083 128.935028,99.976852 
	C128.511551,101.623024 128.258575,102.601036 127.758591,103.430092 
	C125.404388,107.333786 126.370567,109.234009 131.015961,109.031540 
	C128.521332,110.173714 126.026711,111.315880 123.286987,112.720245 
	C118.505737,115.960670 115.883926,119.856361 115.948975,125.586655 
	C116.109619,139.740143 116.001854,153.896667 116.004471,168.519302 
	C115.595390,169.032120 115.183815,169.077606 114.464233,169.139114 
	C114.111099,139.292618 114.075760,109.430084 113.998489,79.567657 
	C113.993416,77.604988 113.667908,75.643166 113.211037,73.378510 
	C111.893707,73.048729 110.856796,73.021378 109.403618,72.765167 
	C108.987358,72.536308 108.940758,72.106506 108.940758,72.106506 
	C108.961922,71.336456 108.983086,70.566414 109.406227,69.403427 
	C110.869156,69.023834 111.930107,69.037186 113.037964,69.327988 
	C113.386948,70.065926 113.689026,70.526405 113.991104,70.986893 
	C116.431892,71.678574 118.872688,72.370255 121.685898,73.540207 
	C122.042442,76.987244 121.799156,79.978622 122.091270,82.916771 
	C122.283577,84.850868 123.247406,86.708260 123.865753,88.599998 
	C125.246399,87.394463 126.627045,86.188927 128.010773,85.239441 
	C129.009293,86.672028 130.004730,87.848557 131.000183,89.025093 
z"/>
<path fill="#9E746B" opacity="1.000000" stroke="none" 
	d="
M164.805969,181.705536 
	C164.443588,184.302551 169.807648,187.693436 163.141052,188.731995 
	C160.713242,186.993805 158.860504,185.496292 156.990173,183.629074 
	C155.787170,181.830170 154.883667,179.745026 153.364609,179.092163 
	C148.386902,176.952896 143.130707,175.469543 138.102402,173.435349 
	C136.543121,172.804565 135.369003,171.221741 134.018539,170.074783 
	C134.018539,170.074783 134.513397,170.019272 134.761948,170.000610 
	C145.619843,171.867096 155.286469,176.194458 164.805969,181.705536 
z"/>
<path fill="#94B369" opacity="1.000000" stroke="none" 
	d="
M108.617584,72.078445 
	C108.940758,72.106506 108.987358,72.536308 109.014053,72.750580 
	C105.966156,72.961319 102.891563,72.957787 99.352348,72.916718 
	C100.985374,72.582695 103.083038,72.286217 105.842506,71.987350 
	C106.504318,71.984978 106.997696,71.974739 106.997696,71.974739 
	C107.429939,71.999954 107.862175,72.025169 108.617584,72.078445 
z"/>
<path fill="#B2807B" opacity="1.000000" stroke="none" 
	d="
M177.452057,236.998032 
	C176.995270,236.544800 176.997009,236.103165 176.999985,235.330154 
	C180.994995,232.009781 184.990433,229.022980 188.981522,226.030396 
	C190.101379,225.190689 191.208542,224.334045 192.321533,223.485168 
	C193.204803,224.748703 194.088074,226.012238 194.986404,227.635773 
	C192.679489,230.752777 190.357498,233.509796 188.011780,236.617416 
	C184.628891,236.981888 181.269730,236.995758 177.452057,236.998032 
z"/>
<path fill="#AAD951" opacity="1.000000" stroke="none" 
	d="
M128.777679,65.776276 
	C127.901039,66.327217 126.809799,66.663757 125.161469,67.135910 
	C124.355370,67.476540 124.151093,67.719215 123.991539,67.999550 
	C123.245483,67.998253 122.499435,67.996948 121.376022,67.997047 
	C120.998665,67.998451 120.993507,67.990257 120.878418,67.646973 
	C120.103645,66.862640 119.496109,66.165817 118.776421,66.019081 
	C108.726105,63.969967 98.605492,62.234467 88.615242,59.931343 
	C80.002190,57.945717 71.533348,55.334541 63.065231,52.651161 
	C63.753685,50.535927 64.377647,48.769455 65.429947,47.002258 
	C67.572601,47.000362 69.286911,46.999191 71.234055,47.248253 
	C75.701859,49.343666 79.793320,51.698071 84.198418,52.939671 
	C98.068558,56.849037 112.056458,60.340599 125.998779,63.993889 
	C126.853554,64.516548 127.708321,65.039200 128.777679,65.776276 
z"/>
<path fill="#B0E251" opacity="1.000000" stroke="none" 
	d="
M125.917412,63.673904 
	C112.056458,60.340599 98.068558,56.849037 84.198418,52.939671 
	C79.793320,51.698071 75.701859,49.343666 71.235954,46.879997 
	C71.670578,44.506561 72.336136,42.751617 73.001694,40.996674 
	C75.042946,40.997547 77.084206,40.998425 79.562897,40.998962 
	C81.821404,42.328632 83.473152,44.058712 85.494957,44.914394 
	C91.817879,47.590435 98.271172,49.960953 104.691772,52.402973 
	C110.527802,54.622662 116.387161,56.781006 122.617432,58.983913 
	C123.944435,60.452263 124.890236,61.903095 125.917412,63.673904 
z"/>
<path fill="#9BC44A" opacity="1.000000" stroke="none" 
	d="
M121.004013,69.640442 
	C119.451225,69.524429 117.897606,69.079514 116.562042,68.327484 
	C118.184570,68.010330 119.589035,68.000298 120.993507,67.990257 
	C120.993507,67.990257 120.998665,67.998451 121.002998,67.996628 
	C121.005951,68.433723 121.004570,68.872635 121.004013,69.640442 
z"/>
<path fill="#A4CE50" opacity="1.000000" stroke="none" 
	d="
M124.192154,67.868820 
	C124.151093,67.719215 124.355370,67.476540 124.802551,67.138184 
	C124.846947,67.289787 124.644302,67.534203 124.192154,67.868820 
z"/>
<path fill="#8D5452" opacity="1.000000" stroke="none" 
	d="
M83.990524,237.007309 
	C81.820152,237.069901 79.649788,237.132507 77.239723,237.101837 
	C79.568474,233.206299 82.136909,229.404053 84.853554,225.299393 
	C91.081657,218.704987 97.106163,212.358002 103.271362,206.150742 
	C105.441551,203.965775 107.956345,202.123077 110.641006,200.434509 
	C106.979942,207.496689 102.991646,214.248444 98.756493,221.222778 
	C93.669930,226.632706 88.830231,231.820007 83.990524,237.007309 
z"/>
<path fill="#925A53" opacity="1.000000" stroke="none" 
	d="
M99.003357,221.000183 
	C102.991646,214.248444 106.979942,207.496689 110.983505,200.372772 
	C115.166969,195.816391 119.335167,191.632172 124.077034,187.368622 
	C126.766914,187.191818 128.883118,187.094360 131.142410,187.314362 
	C131.523666,188.754730 131.761826,189.877670 131.714355,191.177719 
	C126.285606,196.903427 121.142517,202.452026 115.657646,208.062042 
	C112.458946,210.538498 109.657745,213.023773 106.728081,215.347061 
	C104.229874,217.328156 101.583946,219.122971 99.003357,221.000183 
z"/>
<path fill="#8D624F" opacity="1.000000" stroke="none" 
	d="
M130.999313,186.996918 
	C128.883118,187.094360 126.766914,187.191818 124.324898,187.144623 
	C123.900558,184.559967 123.802025,182.119949 123.858063,179.337463 
	C125.524551,176.748459 127.036469,174.501923 129.028931,172.386963 
	C130.673782,174.014145 131.838120,175.509766 132.763000,177.316223 
	C132.015488,180.750351 131.507401,183.873627 130.999313,186.996918 
z"/>
<path fill="#996C60" opacity="1.000000" stroke="none" 
	d="
M133.002441,177.005371 
	C131.838120,175.509766 130.673782,174.014145 129.277161,172.284409 
	C129.027542,171.370850 129.010223,170.691422 128.982971,169.674469 
	C130.459717,169.426620 131.946411,169.516296 133.725815,169.840378 
	C135.369003,171.221741 136.543121,172.804565 138.102402,173.435349 
	C143.130707,175.469543 148.386902,176.952896 153.364609,179.092163 
	C154.883667,179.745026 155.787170,181.830170 156.920441,183.972992 
	C155.579071,185.457748 154.289841,186.228882 152.734955,186.771255 
	C148.980942,185.361877 145.492615,184.181244 141.770508,182.750824 
	C138.691971,180.669159 135.847198,178.837265 133.002441,177.005371 
z"/>
<path fill="#94595A" opacity="1.000000" stroke="none" 
	d="
M98.756493,221.222778 
	C101.583946,219.122971 104.229874,217.328156 106.728081,215.347061 
	C109.657745,213.023773 112.458946,210.538498 115.599136,208.414764 
	C114.588440,211.804443 113.294464,214.902832 111.866089,218.198059 
	C111.525955,218.642303 111.282585,218.844406 110.700912,219.073853 
	C109.934189,219.764664 109.468124,220.382782 108.834030,221.290894 
	C105.438301,226.712463 102.210602,231.844055 98.982910,236.975647 
	C96.461044,237.440201 93.939178,237.904739 91.197144,238.675415 
	C88.788460,238.528076 86.599960,238.074631 84.200989,237.314240 
	C88.830231,231.820007 93.669930,226.632706 98.756493,221.222778 
z"/>
<path fill="#A6D745" opacity="1.000000" stroke="none" 
	d="
M65.001610,47.002983 
	C64.377647,48.769455 63.753685,50.535927 62.672569,52.670410 
	C60.143894,53.357918 58.072376,53.677410 56.000854,53.996902 
	C55.500252,53.740032 54.999649,53.483162 54.248005,52.704910 
	C53.665520,48.456642 53.334076,44.729755 53.002632,41.002869 
	C54.107883,40.704395 55.213135,40.405922 56.658386,40.053761 
	C58.743767,40.997025 60.489151,41.993977 62.667995,43.313225 
	C63.734844,44.758007 64.368225,45.880497 65.001610,47.002983 
z"/>
<path fill="#A4D73E" opacity="1.000000" stroke="none" 
	d="
M52.643951,41.158546 
	C53.334076,44.729755 53.665520,48.456642 53.994514,52.582703 
	C50.863705,51.434696 47.735348,49.887524 44.310188,48.167244 
	C44.557602,46.200897 45.101810,44.407658 45.824265,42.306416 
	C48.096764,41.770348 50.191017,41.542286 52.643951,41.158546 
z"/>
<path fill="#AEE248" opacity="1.000000" stroke="none" 
	d="
M65.429947,47.002258 
	C64.368225,45.880497 63.734844,44.758007 63.049736,43.315166 
	C65.135384,39.778168 67.272758,36.561527 69.703842,33.175575 
	C70.986816,35.416603 71.976074,37.826931 72.983513,40.616966 
	C72.336136,42.751617 71.670578,44.506561 71.003128,46.629761 
	C69.286911,46.999191 67.572601,47.000362 65.429947,47.002258 
z"/>
<path fill="#AEE248" opacity="1.000000" stroke="none" 
	d="
M70.006126,32.255577 
	C70.316788,32.215099 70.393379,32.474041 70.121040,32.889687 
	C70.004509,32.992668 70.004471,32.501270 70.006126,32.255577 
z"/>
<path fill="#A4CE50" opacity="1.000000" stroke="none" 
	d="
M55.881348,54.250198 
	C58.072376,53.677410 60.143894,53.357918 62.608078,53.019173 
	C71.533348,55.334541 80.002190,57.945717 88.615242,59.931343 
	C98.605492,62.234467 108.726105,63.969967 118.776421,66.019081 
	C119.496109,66.165817 120.103645,66.862640 120.878418,67.646973 
	C119.589035,68.000298 118.184570,68.010330 116.355942,68.036987 
	C115.931786,68.053619 115.480843,68.083672 114.918915,68.066109 
	C113.907997,68.038826 113.459007,68.029099 112.672424,67.960587 
	C110.891357,67.932236 109.447899,67.962662 108.004433,67.993088 
	C107.560417,67.991119 107.116409,67.989151 106.339462,67.982018 
	C104.836670,67.400978 103.710052,66.448700 102.490112,66.308502 
	C92.321045,65.139862 82.033043,64.676872 71.993340,62.840015 
	C66.320602,61.802139 61.047596,58.579418 55.297802,56.170982 
	C55.254658,55.501919 55.508247,55.002705 55.881348,54.250198 
z"/>
<path fill="#9BC44A" opacity="1.000000" stroke="none" 
	d="
M108.138405,68.196213 
	C109.447899,67.962662 110.891357,67.932236 112.668190,68.218277 
	C112.998055,68.706665 112.994560,68.878601 112.991058,69.050537 
	C111.930107,69.037186 110.869156,69.023834 109.410820,69.018272 
	C108.729645,68.860626 108.482620,68.651726 108.138405,68.196213 
z"/>
<path fill="#85BC33" opacity="1.000000" stroke="none" 
	d="
M106.893478,71.861458 
	C106.997696,71.974739 106.504318,71.984978 106.258087,71.972878 
	C106.223412,71.664558 106.482552,71.593689 106.893478,71.861458 
z"/>
<path fill="#9DC74A" opacity="1.000000" stroke="none" 
	d="
M143.623245,94.025620 
	C144.210907,99.778076 146.677414,102.377174 152.755981,102.961533 
	C158.943207,103.556343 165.144424,104.005493 171.670547,104.766960 
	C167.654877,105.343857 163.308517,105.676666 158.961365,105.998840 
	C156.530243,106.179008 154.097794,106.341499 151.332748,106.758667 
	C148.593201,107.325035 146.186874,107.644691 143.377838,107.998627 
	C142.975159,108.032890 142.485413,108.023712 142.112244,107.663567 
	C140.433716,106.868149 139.155060,106.186859 137.818176,106.041679 
	C132.941360,105.512085 132.294876,104.499634 134.100037,99.772858 
	C134.445709,98.867699 134.705872,97.929878 135.005478,97.007126 
	C137.754715,96.021484 140.503967,95.035851 143.623245,94.025620 
z"/>
<path fill="#94C041" opacity="1.000000" stroke="none" 
	d="
M134.806213,96.797523 
	C134.705872,97.929878 134.445709,98.867699 134.100037,99.772858 
	C132.294876,104.499634 132.941360,105.512085 137.818176,106.041679 
	C139.155060,106.186859 140.433716,106.868149 141.867355,107.661659 
	C138.630341,108.354584 135.265060,108.689270 131.457870,109.027740 
	C126.370567,109.234009 125.404388,107.333786 127.758591,103.430092 
	C128.258575,102.601036 128.511551,101.623024 128.938080,100.359825 
	C130.227676,98.854279 131.457520,97.702545 132.845184,96.274384 
	C133.537659,96.194611 134.072311,96.391266 134.806213,96.797523 
z"/>
<path fill="#B2807B" opacity="1.000000" stroke="none" 
	d="
M154.170868,212.706116 
	C153.834702,212.999405 153.667801,213.000046 152.906708,213.062866 
	C149.824982,214.661636 147.400650,216.321869 144.805771,217.648529 
	C144.150665,217.983475 142.950623,217.252594 142.000992,217.011475 
	C151.852890,205.731384 164.378250,199.674622 179.571274,197.999359 
	C180.965958,199.225342 181.935562,200.451294 183.817291,202.830490 
	C171.765427,202.560883 162.109314,204.908081 154.170868,212.706116 
z"/>
<path fill="#A46D66" opacity="1.000000" stroke="none" 
	d="
M153.000610,187.000000 
	C154.289841,186.228882 155.579071,185.457748 156.938019,184.342697 
	C158.860504,185.496292 160.713242,186.993805 162.785065,188.747147 
	C161.287186,190.860672 159.850021,193.137344 157.804611,194.503159 
	C149.208832,200.242996 140.070816,205.273544 134.004990,214.067764 
	C133.556702,214.717697 133.355286,215.537903 132.650955,216.653107 
	C130.840393,217.351196 129.417938,217.675140 128.011978,217.637207 
	C128.351349,215.182983 128.674210,213.090622 129.081665,210.673645 
	C131.811752,207.666656 134.414093,204.940002 137.111969,202.311386 
	C142.379944,197.178604 147.701340,192.100662 153.000610,187.000000 
z"/>
<path fill="#A86A74" opacity="1.000000" stroke="none" 
	d="
M127.995491,217.999084 
	C129.417938,217.675140 130.840393,217.351196 132.628967,217.011032 
	C132.996216,217.163467 132.997330,217.332108 132.938080,218.112625 
	C130.919922,224.150269 128.962158,229.576035 127.003334,235.252350 
	C127.002739,235.669891 127.003197,235.836914 127.002815,236.252304 
	C127.001976,236.500671 127.001167,236.997391 127.000351,237.252045 
	C127.000633,237.676453 127.001747,237.846222 127.002853,238.015991 
	C122.546799,238.170074 118.090744,238.324142 113.536270,237.987625 
	C114.676262,236.026413 116.003586,234.620880 117.136703,233.073151 
	C120.794754,228.076614 124.381355,223.027771 127.995491,217.999084 
M119.505424,237.469254 
	C119.505424,237.469254 119.524109,237.514557 119.505424,237.469254 
z"/>
<path fill="#AF7577" opacity="1.000000" stroke="none" 
	d="
M127.001167,236.997391 
	C127.001167,236.997391 127.001976,236.500671 127.119904,236.146332 
	C127.394272,235.474731 127.316452,235.211349 127.004387,235.001816 
	C128.962158,229.576035 130.919922,224.150269 132.939545,218.365601 
	C135.102890,217.049713 137.204361,216.092682 139.651993,215.065399 
	C139.999908,215.748703 140.001648,216.502274 140.004700,217.964294 
	C140.005615,219.115234 140.005219,219.557755 139.794800,220.198303 
	C139.391693,220.931046 139.198608,221.465759 138.848358,222.327133 
	C138.124191,224.768188 137.557205,226.882599 136.630585,229.020050 
	C134.180511,231.695450 132.090118,234.347809 129.749939,237.000153 
	C129.500168,237.000122 129.000336,237.000046 128.666946,236.999786 
	C127.889427,236.998810 127.445297,236.998108 127.001167,236.997391 
z"/>
<path fill="#B67F7F" opacity="1.000000" stroke="none" 
	d="
M140.004822,220.000275 
	C140.005219,219.557755 140.005615,219.115234 140.006195,218.341003 
	C140.502792,217.755264 140.999222,217.501236 141.748322,217.129333 
	C142.950623,217.252594 144.150665,217.983475 144.805771,217.648529 
	C147.400650,216.321869 149.824982,214.661636 152.656342,213.063446 
	C152.697403,213.763397 152.607376,214.765884 152.059402,215.249741 
	C145.689270,220.874619 144.404922,228.176331 144.988770,236.595123 
	C144.517929,237.073029 144.053375,237.086578 143.170502,236.960358 
	C142.752182,236.820572 142.374969,236.769806 142.374969,236.769806 
	C142.374969,236.769806 142.141312,237.105728 142.141312,237.105728 
	C141.333389,237.675507 140.525482,238.245300 139.365967,238.434479 
	C138.339661,235.034912 137.664948,232.015961 136.990234,228.997009 
	C137.557205,226.882599 138.124191,224.768188 139.109085,222.275055 
	C139.686264,221.264328 139.845535,220.632294 140.004822,220.000275 
z"/>
<path fill="#AADF44" opacity="1.000000" stroke="none" 
	d="
M168.614456,74.012100 
	C169.533035,74.188499 170.068512,74.385147 170.742569,75.151161 
	C170.588654,77.146843 170.296158,78.573151 169.999908,80.384743 
	C169.664505,82.513657 169.332855,84.257286 168.584320,86.000488 
	C166.777695,86.000343 165.387924,86.000626 163.705658,85.767181 
	C160.609177,85.021988 157.805206,84.510536 155.001221,83.999084 
	C155.666794,82.245598 156.332352,80.492104 157.002014,78.370552 
	C160.747849,76.679108 164.489609,75.355728 168.614456,74.012100 
z"/>
<path fill="#94CF49" opacity="1.000000" stroke="none" 
	d="
M128.007690,84.983391 
	C126.627045,86.188927 125.246399,87.394463 123.865753,88.599998 
	C123.247406,86.708260 122.283577,84.850868 122.091270,82.916771 
	C121.799156,79.978622 122.042442,76.987244 122.095047,73.565979 
	C126.005295,73.131767 129.885437,73.036980 133.746826,73.262772 
	C134.528610,73.308479 135.239563,74.565506 135.856537,75.901520 
	C131.005920,77.387733 129.755219,81.412727 128.007690,84.983391 
z"/>
<path fill="#89CB1F" opacity="1.000000" stroke="none" 
	d="
M128.010773,85.239441 
	C129.755219,81.412727 131.005920,77.387733 135.901520,76.278145 
	C136.800293,76.006683 137.527435,75.996033 138.627380,75.992233 
	C139.000198,75.999092 139.021149,76.015182 139.021149,76.015182 
	C138.035934,77.978630 137.049881,79.941650 136.065765,81.905655 
	C135.309067,83.415817 134.554825,84.927208 133.898010,86.715965 
	C133.172592,87.570045 132.348648,88.146217 131.262436,88.873734 
	C130.004730,87.848557 129.009293,86.672028 128.010773,85.239441 
z"/>
<path fill="#8FBD37" opacity="1.000000" stroke="none" 
	d="
M113.037964,69.327988 
	C112.994560,68.878601 112.998055,68.706665 113.005791,68.277054 
	C113.459007,68.029099 113.907997,68.038826 114.693275,68.078491 
	C114.831078,68.915939 114.632584,69.723450 114.212593,70.758926 
	C113.689026,70.526405 113.386948,70.065926 113.037964,69.327988 
z"/>
<path fill="#89CB1F" opacity="1.000000" stroke="none" 
	d="
M138.992096,75.988571 
	C138.984009,75.978058 139.190231,75.688522 139.190231,75.688522 
	C139.190231,75.688522 139.184479,75.921318 139.102814,75.968246 
	C139.021149,76.015182 139.000198,75.999092 138.992096,75.988571 
z"/>
<path fill="#A7D54A" opacity="1.000000" stroke="none" 
	d="
M154.646866,84.059021 
	C157.805206,84.510536 160.609177,85.021988 163.650513,86.117966 
	C163.591507,89.467522 163.295135,92.232544 162.998749,94.997574 
	C157.290955,94.331772 151.583145,93.665962 145.439911,92.999771 
	C145.631897,91.231743 146.259323,89.464096 146.945511,87.348129 
	C149.433701,86.039528 151.863098,85.079247 154.646866,84.059021 
z"/>
<path fill="#BF8B87" opacity="1.000000" stroke="none" 
	d="
M179.689728,225.485840 
	C174.324112,230.783310 168.635406,234.890579 161.027863,233.866241 
	C158.395279,233.511765 154.696274,232.244919 153.729279,230.286407 
	C151.992020,226.767792 152.126511,222.271118 155.486023,219.202499 
	C160.261932,214.840042 165.898651,211.742004 172.527954,212.156021 
	C175.544464,212.344406 180.016541,213.444214 181.014023,215.497681 
	C182.210297,217.960419 180.403122,221.882095 179.689728,225.485840 
z"/>
<path fill="#A16469" opacity="1.000000" stroke="none" 
	d="
M128.011978,217.637207 
	C124.381355,223.027771 120.794754,228.076614 117.136703,233.073151 
	C116.003586,234.620880 114.676262,236.026413 113.204109,237.742233 
	C112.970367,237.987427 112.497093,237.993637 111.997406,237.994400 
	C111.322556,237.996185 111.147392,237.997192 110.972237,237.998199 
	C110.537369,237.997787 110.102493,237.997375 109.233871,237.878113 
	C108.484917,237.599182 108.218193,237.671371 107.999931,237.975830 
	C107.549675,237.973602 107.099411,237.971359 106.334412,237.595703 
	C107.077751,235.214447 107.899902,233.030396 109.241333,231.234177 
	C112.360954,227.056946 115.730896,223.066650 119.338875,218.939545 
	C121.007973,217.761276 122.340691,216.647720 123.666435,215.525940 
	C125.446129,214.020050 127.220436,212.507797 128.997070,210.998260 
	C128.674210,213.090622 128.351349,215.182983 128.011978,217.637207 
z"/>
<path fill="#9B5E62" opacity="1.000000" stroke="none" 
	d="
M118.999390,219.000610 
	C115.730896,223.066650 112.360954,227.056946 109.241333,231.234177 
	C107.899902,233.030396 107.077751,235.214447 105.996811,237.587738 
	C103.850517,237.786514 101.727089,237.619873 99.293289,237.214447 
	C102.210602,231.844055 105.438301,226.712463 109.134224,221.217667 
	C110.068825,220.236694 110.535194,219.618927 111.001572,219.001175 
	C111.282585,218.844406 111.525955,218.642303 112.190384,218.113037 
	C116.099686,215.220337 119.550301,212.609482 122.937706,210.344177 
	C121.582794,213.460022 120.291084,216.230316 118.999390,219.000610 
z"/>
<path fill="#AF747E" opacity="1.000000" stroke="none" 
	d="
M136.630585,229.020050 
	C137.664948,232.015961 138.339661,235.034912 139.036942,238.423798 
	C136.254089,238.687408 133.448669,238.581100 130.321533,237.987442 
	C129.999832,237.500092 129.999710,237.000168 129.999710,237.000168 
	C132.090118,234.347809 134.180511,231.695450 136.630585,229.020050 
z"/>
<path fill="#AF747E" opacity="1.000000" stroke="none" 
	d="
M127.000351,237.252045 
	C127.445297,236.998108 127.889427,236.998810 128.666870,237.249908 
	C129.000458,237.667023 129.000702,237.833771 129.000961,238.000549 
	C128.556931,238.003036 128.112885,238.005524 127.335854,238.012009 
	C127.001747,237.846222 127.000633,237.676453 127.000351,237.252045 
z"/>
<path fill="#A86A74" opacity="1.000000" stroke="none" 
	d="
M111.084602,238.117859 
	C111.147392,237.997192 111.322556,237.996185 111.760765,237.996735 
	C112.023804,237.998306 111.650528,238.298080 111.650528,238.298080 
	C111.650528,238.298080 111.196968,238.237503 111.084602,238.117859 
z"/>
<path fill="#A86A74" opacity="1.000000" stroke="none" 
	d="
M129.250397,238.000702 
	C129.000702,237.833771 129.000458,237.667023 129.000275,237.250153 
	C129.000336,237.000046 129.500168,237.000122 129.749939,237.000153 
	C129.999710,237.000168 129.999832,237.500092 129.999268,237.750488 
	C129.998703,238.000870 129.499832,238.000854 129.250397,238.000702 
z"/>
<path fill="#A86A74" opacity="1.000000" stroke="none" 
	d="
M108.253731,237.983093 
	C108.218193,237.671371 108.484917,237.599182 108.907715,237.875763 
	C108.846062,237.991608 108.676796,237.990967 108.253731,237.983093 
z"/>
<path fill="#A86A74" opacity="1.000000" stroke="none" 
	d="
M142.328781,237.094147 
	C142.141312,237.105728 142.374969,236.769806 142.374969,236.769806 
	C142.374969,236.769806 142.752182,236.820572 142.821991,236.946442 
	C142.891785,237.072296 142.516251,237.082581 142.328781,237.094147 
z"/>
<path fill="#AAD951" opacity="1.000000" stroke="none" 
	d="
M163.244644,95.256531 
	C163.295135,92.232544 163.591507,89.467522 163.943024,86.351700 
	C165.387924,86.000626 166.777695,86.000343 168.766541,86.291161 
	C178.961349,92.941887 190.035767,94.813438 201.004272,97.006409 
	C201.295258,98.430321 201.586258,99.854233 201.936188,101.637848 
	C190.641174,100.581177 179.278610,99.227608 167.943314,97.675140 
	C166.389603,97.462341 164.971451,96.259796 163.244644,95.256531 
z"/>
<path fill="#AFE250" opacity="1.000000" stroke="none" 
	d="
M201.372589,96.844704 
	C190.035767,94.813438 178.961349,92.941887 169.183426,86.291595 
	C169.332855,84.257286 169.664505,82.513657 170.446655,80.385010 
	C175.597092,80.333534 180.297012,80.667068 185.245148,81.225212 
	C192.277008,88.185287 200.265182,92.124199 210.001022,92.005424 
	C210.000092,93.069771 209.999176,94.134125 209.996384,95.597473 
	C207.243301,96.225311 204.492096,96.454155 201.372589,96.844704 
z"/>
<path fill="#BCF45B" opacity="1.000000" stroke="none" 
	d="
M198.845978,70.332565 
	C203.389938,69.673935 207.777924,69.338409 212.583344,69.002968 
	C209.428604,74.379066 212.248718,79.144615 219.608276,79.926369 
	C222.075684,80.188461 224.592285,79.987587 227.541565,79.998146 
	C221.535614,87.472191 207.560532,88.130394 200.747925,81.170723 
	C197.837311,78.197266 195.550217,74.905510 198.845978,70.332565 
z"/>
<path fill="#B5EA53" opacity="1.000000" stroke="none" 
	d="
M210.323303,91.860031 
	C200.265182,92.124199 192.277008,88.185287 185.297501,80.905579 
	C185.734451,79.240562 186.367233,78.119781 187.336029,76.849640 
	C189.114685,76.466141 190.557343,76.232002 192.000000,75.997864 
	C195.972610,84.108437 203.100983,87.090317 211.504791,87.998657 
	C213.120697,88.173317 214.736938,88.345070 216.675934,88.758759 
	C214.881088,89.904442 212.763336,90.809540 210.323303,91.860031 
z"/>
<path fill="#B7F14E" opacity="1.000000" stroke="none" 
	d="
M192.015488,75.633629 
	C190.557343,76.232002 189.114685,76.466141 187.191162,76.524353 
	C186.807678,74.234665 186.905060,72.120918 187.302673,69.932549 
	C188.070618,69.240120 188.538361,68.622307 189.006088,68.004501 
	C189.501816,67.754723 189.997559,67.504944 191.033844,67.364380 
	C194.052429,67.322693 196.530487,67.171783 199.008545,67.020874 
	C199.006638,67.462364 199.004730,67.903862 199.001114,68.676651 
	C195.050903,69.285866 192.989716,71.664162 192.015488,75.633629 
z"/>
<path fill="#B2F13E" opacity="1.000000" stroke="none" 
	d="
M199.382919,67.016983 
	C196.530487,67.171783 194.052429,67.322693 191.285095,67.246292 
	C194.662827,65.936119 198.265549,64.424767 202.010742,63.862473 
	C209.098602,62.798340 216.268265,62.279118 223.704407,61.770889 
	C217.937286,63.296532 211.869690,64.584778 205.073517,65.950897 
	C203.564804,66.356865 202.784653,66.684959 202.004501,67.013054 
	C201.255432,67.013069 200.506378,67.013077 199.382919,67.016983 
z"/>
<path fill="#B7F14E" opacity="1.000000" stroke="none" 
	d="
M202.228394,67.215714 
	C202.784653,66.684959 203.564804,66.356865 204.675629,66.025406 
	C204.154968,66.487503 203.303619,66.952942 202.228394,67.215714 
z"/>
<path fill="#B1E848" opacity="1.000000" stroke="none" 
	d="
M187.002441,70.007164 
	C186.905060,72.120918 186.807678,74.234665 186.855164,76.673714 
	C186.367233,78.119781 185.734451,79.240562 185.049316,80.680977 
	C180.297012,80.667068 175.597092,80.333534 170.450409,79.999725 
	C170.296158,78.573151 170.588654,77.146843 170.942413,75.360237 
	C176.114365,72.767769 181.225067,70.535606 186.666779,68.487465 
	C186.999329,69.116714 187.000885,69.561935 187.002441,70.007164 
z"/>
<path fill="#B2F13E" opacity="1.000000" stroke="none" 
	d="
M187.302658,69.932549 
	C187.000885,69.561935 186.999329,69.116714 186.995529,68.337723 
	C187.440552,68.002869 187.887833,68.001770 188.670593,68.002594 
	C188.538361,68.622307 188.070618,69.240120 187.302658,69.932549 
z"/>
<path fill="#985E59" opacity="1.000000" stroke="none" 
	d="
M123.000908,209.998642 
	C119.550301,212.609482 116.099686,215.220337 112.324783,217.916199 
	C113.294464,214.902832 114.588440,211.804443 115.940918,208.353333 
	C121.142517,202.452026 126.285606,196.903427 132.079208,191.181305 
	C133.819809,191.671860 134.909912,192.335922 135.939880,193.338501 
	C134.792084,195.079193 133.715698,196.490326 132.614609,197.881866 
	C129.415344,201.924988 126.206184,205.960281 123.000908,209.998642 
z"/>
<path fill="#956356" opacity="1.000000" stroke="none" 
	d="
M136.000000,193.000000 
	C134.909912,192.335922 133.819809,191.671860 132.364868,191.004196 
	C131.761826,189.877670 131.523666,188.754730 131.142410,187.314362 
	C131.507401,183.873627 132.015488,180.750351 132.763000,177.316223 
	C135.847198,178.837265 138.691971,180.669159 141.765808,183.137589 
	C139.996597,186.849411 137.998291,189.924713 136.000000,193.000000 
z"/>
<path fill="#9C655D" opacity="1.000000" stroke="none" 
	d="
M135.939880,193.338501 
	C137.998291,189.924713 139.996597,186.849411 141.999573,183.387360 
	C145.492615,184.181244 148.980942,185.361877 152.734955,186.771255 
	C147.701340,192.100662 142.379944,197.178604 137.111969,202.311386 
	C134.414093,204.940002 131.811752,207.666656 129.081650,210.673630 
	C127.220436,212.507797 125.446129,214.020050 123.666435,215.525940 
	C122.340691,216.647720 121.007973,217.761276 119.338867,218.939545 
	C120.291084,216.230316 121.582794,213.460022 122.937706,210.344177 
	C126.206184,205.960281 129.415344,201.924988 132.614609,197.881866 
	C133.715698,196.490326 134.792084,195.079193 135.939880,193.338501 
z"/>
<path fill="#985E59" opacity="1.000000" stroke="none" 
	d="
M110.700912,219.073853 
	C110.535194,219.618927 110.068825,220.236694 109.302254,220.927673 
	C109.468124,220.382782 109.934189,219.764664 110.700912,219.073853 
z"/>
<path fill="#AF747E" opacity="1.000000" stroke="none" 
	d="
M127.003334,235.252350 
	C127.316452,235.211349 127.394272,235.474731 127.120743,235.897949 
	C127.003197,235.836914 127.002739,235.669891 127.003334,235.252350 
z"/>
<path fill="#AF747E" opacity="1.000000" stroke="none" 
	d="
M119.514771,237.491913 
	C119.524109,237.514557 119.505424,237.469254 119.514771,237.491913 
z"/>
<path fill="#B2807B" opacity="1.000000" stroke="none" 
	d="
M139.794800,220.198303 
	C139.845535,220.632294 139.686264,221.264328 139.266266,221.948425 
	C139.198608,221.465759 139.391693,220.931046 139.794800,220.198303 
z"/>
</svg>