<svg xmlns="http://www.w3.org/2000/svg"  viewBox="0 0 48 48" width="48px" height="48px"><path fill="#4d7317" d="M22.758,14.984l-1.501,0.571C28.843,30.863,22,42,22,42h4C26,42,29.735,27.58,22.758,14.984z"/><path fill="#4e7417" d="M22.749,14.987l-1.48,0.564C28.853,30.849,22.029,42,22.029,42h3.938 C25.967,42,29.73,27.645,22.749,14.987z"/><path fill="#4e7518" d="M22.74,14.99l-1.459,0.558C28.864,30.835,22.057,42,22.057,42h3.876 C25.934,42,29.724,27.71,22.74,14.99z"/><path fill="#4f7618" d="M22.731,14.993l-1.439,0.551C28.875,30.821,22.086,42,22.086,42h3.815 C25.901,42,29.719,27.776,22.731,14.993z"/><path fill="#507718" d="M22.722,14.996l-1.418,0.545C28.886,30.807,22.115,42,22.115,42h3.753 C25.868,42,29.713,27.841,22.722,14.996z"/><path fill="#507818" d="M22.713,14.998l-1.397,0.538C28.896,30.793,22.144,42,22.144,42h3.691 C25.835,42,29.708,27.906,22.713,14.998z"/><path fill="#517919" d="M22.704,15.001l-1.377,0.532C28.907,30.78,22.172,42,22.172,42h3.629 C25.802,42,29.703,27.971,22.704,15.001z"/><path fill="#527a19" d="M22.695,15.004l-1.356,0.525C28.918,30.766,22.201,42,22.201,42h3.568 C25.769,42,29.697,28.037,22.695,15.004z"/><path fill="#537b19" d="M22.686,15.007l-1.335,0.518C28.929,30.752,22.23,42,22.23,42h3.506 C25.736,42,29.692,28.102,22.686,15.007z"/><path fill="#537c19" d="M22.676,15.01l-1.315,0.512C28.939,30.738,22.258,42,22.258,42h3.444 C25.703,42,29.687,28.167,22.676,15.01z"/><path fill="#547d1a" d="M22.667,15.013l-1.294,0.505C28.95,30.724,22.287,42,22.287,42h3.382 C25.67,42,29.681,28.233,22.667,15.013z"/><path fill="#557e1a" d="M22.658,15.016l-1.273,0.499C28.961,30.71,22.316,42,22.316,42h3.321 C25.637,42,29.676,28.298,22.658,15.016z"/><path fill="#557f1a" d="M22.649,15.019l-1.252,0.492C28.972,30.697,22.345,42,22.345,42h3.259 C25.603,42,29.67,28.363,22.649,15.019z"/><path fill="#56801a" d="M22.64,15.022l-1.232,0.486C28.982,30.683,22.373,42,22.373,42h3.197 C25.57,42,29.665,28.428,22.64,15.022z"/><path fill="#57811b" d="M22.631,15.025l-1.211,0.479C28.993,30.669,22.402,42,22.402,42h3.135 C25.537,42,29.66,28.494,22.631,15.025z"/><path fill="#57821b" d="M22.622,15.028l-1.19,0.473C29.004,30.655,22.431,42,22.431,42h3.074 C25.504,42,29.654,28.559,22.622,15.028z"/><path fill="#58831b" d="M22.613,15.03l-1.17,0.466C29.015,30.641,22.46,42,22.46,42h3.012 C25.471,42,29.649,28.624,22.613,15.03z"/><path fill="#59841c" d="M22.604,15.033l-1.149,0.46C29.026,30.627,22.488,42,22.488,42h2.95 C25.438,42,29.644,28.689,22.604,15.033z"/><path fill="#59851c" d="M22.594,15.036l-1.128,0.453C29.036,30.613,22.517,42,22.517,42h2.888 C25.405,42,29.638,28.755,22.594,15.036z"/><path fill="#5a861c" d="M22.585,15.039l-1.108,0.446C29.047,30.6,22.546,42,22.546,42h2.826 C25.372,42,29.633,28.82,22.585,15.039z"/><path fill="#5b871c" d="M22.576,15.042l-1.087,0.44C29.058,30.586,22.574,42,22.574,42h2.765 C25.339,42,29.628,28.885,22.576,15.042z"/><path fill="#5c881d" d="M22.567,15.045l-1.066,0.433C29.069,30.572,22.603,42,22.603,42h2.703 C25.306,42,29.622,28.951,22.567,15.045z"/><path fill="#5c891d" d="M22.558,15.048l-1.045,0.427C29.079,30.558,22.632,42,22.632,42h2.641 C25.273,42,29.617,29.016,22.558,15.048z"/><path fill="#5d8a1d" d="M22.549,15.051l-1.025,0.42C29.09,30.544,22.661,42,22.661,42h2.579 C25.24,42,29.611,29.081,22.549,15.051z"/><path fill="#5e8b1d" d="M22.54,15.054l-1.004,0.414C29.101,30.53,22.689,42,22.689,42h2.518 C25.207,42,29.606,29.146,22.54,15.054z"/><path fill="#5e8b1e" d="M22.531,15.057l-0.983,0.407C29.112,30.517,22.718,42,22.718,42h2.456 C25.174,42,29.601,29.212,22.531,15.057z"/><path fill="#5f8c1e" d="M22.522,15.06l-0.963,0.401C29.122,30.503,22.747,42,22.747,42h2.394 C25.141,42,29.595,29.277,22.522,15.06z"/><path fill="#608d1e" d="M22.513,15.063l-0.942,0.394C29.133,30.489,22.775,42,22.775,42h2.332 C25.108,42,29.59,29.342,22.513,15.063z"/><path fill="#608e1e" d="M22.503,15.065l-0.921,0.387C29.144,30.475,22.804,42,22.804,42h2.271 C25.075,42,29.585,29.408,22.503,15.065z"/><path fill="#618f1f" d="M22.494,15.068l-0.901,0.381C29.155,30.461,22.833,42,22.833,42h2.209 C25.042,42,29.579,29.473,22.494,15.068z"/><path fill="#62901f" d="M22.485,15.071l-0.88,0.374C29.165,30.447,22.862,42,22.862,42h2.147 C25.009,42,29.574,29.538,22.485,15.071z"/><path fill="#63911f" d="M22.476,15.074l-0.859,0.368C29.176,30.434,22.89,42,22.89,42h2.085 C24.976,42,29.568,29.603,22.476,15.074z"/><path fill="#63921f" d="M22.467,15.077l-0.839,0.361C29.187,30.42,22.919,42,22.919,42h2.023 C24.943,42,29.563,29.669,22.467,15.077z"/><path fill="#649320" d="M22.458,15.08l-0.818,0.355C29.198,30.406,22.948,42,22.948,42h1.962 C24.91,42,29.558,29.734,22.458,15.08z"/><path fill="#659420" d="M22.449,15.083l-0.797,0.348C29.208,30.392,22.977,42,22.977,42h1.9 C24.876,42,29.552,29.799,22.449,15.083z"/><path fill="#659520" d="M22.44,15.086l-0.776,0.342C29.219,30.378,23.005,42,23.005,42h1.838 C24.843,42,29.547,29.864,22.44,15.086z"/><path fill="#669621" d="M22.431,15.089l-0.756,0.335C29.23,30.364,23.034,42,23.034,42h1.776 C24.81,42,29.542,29.93,22.431,15.089z"/><path fill="#679721" d="M22.421,15.092l-0.735,0.328C29.241,30.351,23.063,42,23.063,42h1.715 C24.777,42,29.536,29.995,22.421,15.092z"/><path fill="#679821" d="M22.412,15.095l-0.714,0.322C29.251,30.337,23.091,42,23.091,42h1.653 C24.744,42,29.531,30.06,22.412,15.095z"/><path fill="#689921" d="M22.403,15.097l-0.694,0.315C29.262,30.323,23.12,42,23.12,42h1.591 C24.711,42,29.525,30.126,22.403,15.097z"/><path fill="#699a22" d="M22.394,15.1l-0.673,0.309C29.273,30.309,23.149,42,23.149,42h1.529 C24.678,42,29.52,30.191,22.394,15.1z"/><path fill="#699b22" d="M22.385,15.103l-0.652,0.302C29.284,30.295,23.178,42,23.178,42h1.468 C24.645,42,29.515,30.256,22.385,15.103z"/><path fill="#6a9c22" d="M22.376,15.106l-0.632,0.296C29.295,30.281,23.206,42,23.206,42h1.406 C24.612,42,29.509,30.321,22.376,15.106z"/><path fill="#6b9d22" d="M22.367,15.109l-0.611,0.289C29.305,30.268,23.235,42,23.235,42h1.344 C24.579,42,29.504,30.387,22.367,15.109z"/><path fill="#6c9e23" d="M22.358,15.112l-0.59,0.283C29.316,30.254,23.264,42,23.264,42h1.282 C24.546,42,29.499,30.452,22.358,15.112z"/><path fill="#6c9f23" d="M22.349,15.115l-0.57,0.276C29.327,30.24,23.292,42,23.292,42h1.221 C24.513,42,29.493,30.517,22.349,15.115z"/><path fill="#6da023" d="M22.34,15.118l-0.549,0.269C29.338,30.226,23.321,42,23.321,42h1.159 C24.48,42,29.488,30.583,22.34,15.118z"/><path fill="#6ea123" d="M22.33,15.121l-0.528,0.263C29.348,30.212,23.35,42,23.35,42h1.097 C24.447,42,29.483,30.648,22.33,15.121z"/><path fill="#6ea224" d="M22.321,15.124l-0.507,0.256C29.359,30.198,23.379,42,23.379,42h1.035 C24.414,42,29.477,30.713,22.321,15.124z"/><path fill="#6fa324" d="M22.312,15.127l-0.487,0.25C29.37,30.185,23.407,42,23.407,42h0.973 C24.381,42,29.472,30.778,22.312,15.127z"/><linearGradient id="oBngi0p~nfv4ljQ0Ju~sHa" x1="21.966" x2="23.534" y1="14.521" y2="14.026" gradientUnits="userSpaceOnUse"><stop offset="0" stop-color="#59841b"/><stop offset="1" stop-color="#6ea321"/></linearGradient><path fill="url(#oBngi0p~nfv4ljQ0Ju~sHa)" d="M27.29,7.398C27.29,7.398,28.821,6,32,6c5.496,0,6.87,4.231,10,5	c-0.223,1.397-3.641,5.355-9.097,5.355c-5.535,0-7.419-4.044-6.395-7.788c-5.551,0-2.38,9.225-2.38,9.225s-1.258-0.543-2.206-2.5	C22.914,14.305,20.5,7.398,27.29,7.398z"/><linearGradient id="oBngi0p~nfv4ljQ0Ju~sHb" x1="35.976" x2="33.137" y1="21.813" y2="5.332" gradientUnits="userSpaceOnUse"><stop offset="0" stop-color="#4d7317"/><stop offset=".274" stop-color="#59841b"/><stop offset=".718" stop-color="#689b1f"/><stop offset="1" stop-color="#6ea321"/></linearGradient><path fill="url(#oBngi0p~nfv4ljQ0Ju~sHb)" d="M42,11c-0.223,1.397-3.544,6-9,6c-5.535,0-7.515-4.689-6.492-8.433	c0,0,0.459,0.51,1.419,1.125c0.159,0.102,0.704,1.393,1.237,2.604c0.063,0.143-0.024,1.811-0.024,1.811s0.312-1.166,0.361-1.059	c0.336,0.736,0.857,1.879,0.995,1.949c0.064-0.085-1.823-4.836-1.43-4.681c0.356,0.14,1.855,0.739,2.267,0.861	c0.189,0.056,0.954,1.1,1.691,2.083c0.076,0.101,0.278,1.575,0.353,1.674c0.073,0.097,0.019-1.181,0.089-1.089	c0.479,0.625,1.268,1.626,1.413,1.657c-0.275-0.508-2.413-3.894-2.371-4.085c0.474,0.062,2.089,0.359,2.613,0.382	c0.181,0.097,0.655,0.572,1.159,1.084c0.058,0.059,0.314,1.377,0.314,1.377s-0.026-1.085,0.03-1.028	c0.54,0.547,1.046,1.044,1.192,1.067c-0.176-0.186-1.691-2.141-1.916-2.483c0.44-0.043,2.621-0.163,3.088-0.236	c0.462-0.072,1.448,0.745,1.81,0.755c-0.068-0.059-0.968-0.792-0.968-0.792S41.315,11.107,42,11z"/><linearGradient id="oBngi0p~nfv4ljQ0Ju~sHc" x1="47.714" x2="49.291" y1="20.102" y2="19.605" gradientTransform="scale(-1 1) rotate(49.201 19 -57.911)" gradientUnits="userSpaceOnUse"><stop offset="0" stop-color="#59841b"/><stop offset="1" stop-color="#6ea321"/></linearGradient><path fill="url(#oBngi0p~nfv4ljQ0Ju~sHc)" d="M12.528,14.219c0,0-2.539-0.167-4.616,2.24C4.321,20.619,7.323,24.394,5,27	c2.499,1.708,7.602,1.451,11.167-2.679c3.616-4.19,1.261-8.258-2.242-9.93c3.237-4.525,8.82,4.565,8.82,4.565	s0.041-1.665-0.821-3.662C20.616,15.975,17.261,8.439,12.528,14.219z"/><linearGradient id="oBngi0p~nfv4ljQ0Ju~sHd" x1="20.717" x2="6.528" y1="28.71" y2="18.502" gradientUnits="userSpaceOnUse"><stop offset="0" stop-color="#4d7317"/><stop offset=".274" stop-color="#59841b"/><stop offset=".718" stop-color="#689b1f"/><stop offset="1" stop-color="#6ea321"/></linearGradient><path fill="url(#oBngi0p~nfv4ljQ0Ju~sHd)" d="M5,27c2.499,1.708,7.602,1.451,11.167-2.679c3.616-4.19,1.261-8.258-2.242-9.93	c0.007,0.51-0.01,0.999-0.047,1.467c-0.028,0.357,2.695,4.297,2.647,5.538c-0.382-1.003-2.734-4.358-2.818-4.012	c-0.079,0.325-0.332,1.228-0.432,1.53c-0.111,0.335,1.889,4.822,1.626,5.61c-0.31-0.692-1.982-4.444-2.125-4.179	c-0.197,0.365-0.588,0.918-0.812,1.242c-0.232,0.336,0.884,3.439,0.43,4.418c-0.287-0.597-0.716-3.534-1.027-3.534	c-0.229,0.221-1.008,1.046-1.242,1.242c-0.242,0.203,0.048,2.818-0.31,3.104c-0.239,0.096-0.269-2.659-0.501-2.412	c-0.382,0.406-1.254,1.121-1.552,1.289c-0.146,0.083,0.114,1.203-0.167,1.361c-0.191,0.024-0.167-1.146-0.358-1.027	C7.045,26.149,5.326,26.798,5,27z"/><g><radialGradient id="oBngi0p~nfv4ljQ0Ju~sHe" cx="25.528" cy="65.185" r="28.413" gradientUnits="userSpaceOnUse"><stop offset="0" stop-color="#806923"/><stop offset=".678" stop-color="#4e342e"/><stop offset="1" stop-color="#7e6723"/></radialGradient><path fill="url(#oBngi0p~nfv4ljQ0Ju~sHe)" d="M33.7,39.234c-0.778-0.934-2.021-1.913-3.946-2.215c-0.919-0.144-1.709-0.021-2.386,0.243 c-1.03-0.616-2.466-1.097-4.402-0.949c-3.017,0.23-4.591,1.82-5.338,2.944c-2.619,1.139-3.173,2.75-3.173,2.75h24.489 C38.233,40.956,36.429,39.954,33.7,39.234z"/></g><radialGradient id="oBngi0p~nfv4ljQ0Ju~sHf" cx="20.88" cy="33.904" r="5.884" gradientTransform="rotate(-15.992 20.932 38.697)" gradientUnits="userSpaceOnUse"><stop offset="0" stop-color="#806923"/><stop offset=".678" stop-color="#4e342e"/><stop offset="1" stop-color="#7e6723"/></radialGradient><path fill="url(#oBngi0p~nfv4ljQ0Ju~sHf)" d="M21.921,38.7c0.145,0.505-1.683,1.029-1.828,0.524c-0.145-0.505,0.147-1.031,0.652-1.176	C21.25,37.904,21.777,38.196,21.921,38.7z"/><radialGradient id="oBngi0p~nfv4ljQ0Ju~sHg" cx="27.967" cy="37.983" r="3.698" gradientTransform="matrix(1.027 .3065 -.286 .9582 11.648 -8.686)" gradientUnits="userSpaceOnUse"><stop offset="0" stop-color="#806923"/><stop offset=".678" stop-color="#4e342e"/><stop offset="1" stop-color="#7e6723"/></radialGradient><path fill="url(#oBngi0p~nfv4ljQ0Ju~sHg)" d="M29.118,39.699c-0.094,0.316-1.322-0.05-1.227-0.366c0.094-0.316,0.446-0.491,0.785-0.389	C29.015,39.044,29.213,39.383,29.118,39.699z"/><radialGradient id="oBngi0p~nfv4ljQ0Ju~sHh" cx="32.108" cy="37.839" r="2.393" gradientTransform="matrix(1.3693 .3109 -.2214 .9752 -1.357 -8.969)" gradientUnits="userSpaceOnUse"><stop offset="0" stop-color="#806923"/><stop offset=".678" stop-color="#4e342e"/><stop offset="1" stop-color="#7e6723"/></radialGradient><path fill="url(#oBngi0p~nfv4ljQ0Ju~sHh)" d="M34.133,40.827c-0.047,0.208-1.106-0.032-1.059-0.24c0.047-0.208,0.323-0.323,0.615-0.257	S34.18,40.619,34.133,40.827z"/><radialGradient id="oBngi0p~nfv4ljQ0Ju~sHi" cx="23.202" cy="36.864" r="3.698" gradientTransform="matrix(1.6604 .4956 -.3481 1.1663 .258 -21.55)" gradientUnits="userSpaceOnUse"><stop offset="0" stop-color="#806923"/><stop offset=".678" stop-color="#4e342e"/><stop offset="1" stop-color="#7e6723"/></radialGradient><path fill="url(#oBngi0p~nfv4ljQ0Ju~sHi)" d="M25.3,38.669c-0.115,0.385-2.099-0.207-1.984-0.592c0.115-0.385,0.652-0.564,1.2-0.401	C25.064,37.84,25.415,38.284,25.3,38.669z"/></svg>