<?xml version="1.0" encoding="utf-8"?>
<!-- Generator: Adobe Illustrator 24.0.0, SVG Export Plug-In . SVG Version: 6.00 Build 0)  -->
<svg version="1.1" xmlns="http://www.w3.org/2000/svg" xmlns:xlink="http://www.w3.org/1999/xlink" x="0px" y="0px"
	 viewBox="0 0 64 64" enable-background="new 0 0 64 64" xml:space="preserve">
<g id="Captions">
</g>
<g id="Icons">
	<g>
		<g>
			<g>
				<path fill="#D2AA82" d="M26,50L26,50c1.105,0,2-0.895,2-2v-6h-4v6C24,49.105,24.895,50,26,50z"/>
			</g>
			<g>
				<path fill="#F0C8A0" d="M29,48h-2c-1.657,0-3-1.343-3-3v-5c0-1.105,0.895-2,2-2h4c1.105,0,2,0.895,2,2v5
					C32,46.657,30.657,48,29,48z"/>
			</g>
			<g>
				<path fill="#0A5078" d="M26,38h4c1.105,0,2,0.895,2,2h-3c-0.552,0-1,0.448-1,1v1h-1c-0.552,0-1,0.448-1,1s0.448,1,1,1h1v1
					c0,0.55-0.45,1-1,1h-2c-0.55,0-1-0.45-1-1v-5C24,38.895,24.895,38,26,38z"/>
			</g>
		</g>
		<g>
			<path fill="#F0C8A0" d="M16,56h-4v2c0,1.105,0.895,2,2,2h0c1.105,0,2-0.895,2-2V56z"/>
		</g>
		<path fill="#00A0C8" d="M36,50v1.172l-2.58-2.58C33.058,48.227,32.556,48,32,48H16c-2.209,0-4,1.791-4,4v4h4v-4h4v8h12v-7.172
			l4.586,4.586C36.968,57.797,37.48,58,38,58c0.257,0,0.518-0.05,0.765-0.152C39.513,57.538,40,56.809,40,56v-6H36z"/>
		<g>
			<path fill="#F0C8A0" d="M38,46L38,46c-1.105,0-2,0.895-2,2v2h4v-2C40,46.895,39.105,46,38,46z"/>
		</g>
		<g>
			<rect x="36" y="46" fill="#0A5078" width="2" height="4"/>
		</g>
		<g>
			<rect x="34" y="42" fill="#C80A50" width="4" height="4"/>
		</g>
		<g>
			<path fill="#FAB400" d="M38,42h1.515c1.591,0,3.117-0.632,4.243-1.757L44,40v8l-0.243-0.243C42.632,46.632,41.106,46,39.515,46
				H38V42z"/>
		</g>
		<g>
			<path fill="#0A5078" d="M45,50L45,50c-0.552,0-1-0.448-1-1V39c0-0.552,0.448-1,1-1l0,0c0.552,0,1,0.448,1,1v10
				C46,49.552,45.552,50,45,50z"/>
		</g>
		<g>
			<path fill="#00A0C8" d="M34,46L34,46v-4l0,0c-1.105,0-2,0.895-2,2v0C32,45.105,32.895,46,34,46z"/>
		</g>
		<g>
			<path fill="#FAB400" d="M53,42c-0.256,0-0.512-0.098-0.707-0.293L51,40.414l-1.293,1.293c-0.391,0.391-1.023,0.391-1.414,0
				s-0.391-1.023,0-1.414l2-2c0.391-0.391,1.023-0.391,1.414,0L53,39.586l1.293-1.293c0.391-0.391,1.023-0.391,1.414,0
				s0.391,1.023,0,1.414l-2,2C53.512,41.902,53.256,42,53,42z"/>
		</g>
		<g>
			<path fill="#FAB400" d="M55,50c-0.256,0-0.512-0.098-0.707-0.293L53,48.414l-1.293,1.293c-0.391,0.391-1.023,0.391-1.414,0l-2-2
				c-0.391-0.391-0.391-1.023,0-1.414s1.023-0.391,1.414,0L51,47.586l1.293-1.293c0.391-0.391,1.023-0.391,1.414,0l2,2
				c0.391,0.391,0.391,1.023,0,1.414C55.512,49.902,55.256,50,55,50z"/>
		</g>
		<path fill="#FAB400" d="M48,4H16c-2.206,0-4,1.794-4,4v20c0,2.206,1.794,4,4,4h18v5c0,0.404,0.244,0.77,0.617,0.924
			C34.741,37.976,34.871,38,35,38c0.26,0,0.516-0.102,0.707-0.293L41.414,32H48c2.206,0,4-1.794,4-4V8C52,5.794,50.206,4,48,4z"/>
		<g>
			<path fill="#0A5078" d="M32,28L32,28c-3.314,0-6-2.686-6-6v0c0-3.314,2.686-6,6-6h0c3.314,0,6,2.686,6,6v0
				C38,25.314,35.314,28,32,28z"/>
		</g>
		<g>
			<path fill="#00A0C8" d="M44.003,28c-0.128,0-0.259-0.024-0.385-0.077c-0.509-0.213-0.75-0.798-0.538-1.308
				C43.69,25.152,44,23.6,44,22s-0.31-3.152-0.919-4.615c-0.213-0.51,0.028-1.095,0.538-1.308c0.51-0.214,1.095,0.028,1.308,0.538
				C45.639,18.322,46,20.135,46,22s-0.361,3.678-1.074,5.385C44.766,27.769,44.395,28,44.003,28z"/>
		</g>
		<g>
			<path fill="#00A0C8" d="M19.997,28c-0.392,0-0.763-0.231-0.923-0.615C18.361,25.678,18,23.865,18,22s0.361-3.678,1.074-5.385
				c0.212-0.51,0.797-0.753,1.308-0.538c0.509,0.213,0.75,0.798,0.538,1.308C20.31,18.848,20,20.4,20,22s0.31,3.152,0.919,4.615
				c0.213,0.51-0.028,1.095-0.538,1.308C20.256,27.976,20.125,28,19.997,28z"/>
		</g>
		<g>
			<path fill="#00A0C8" d="M40.48,26c-0.113,0-0.228-0.019-0.34-0.06c-0.52-0.188-0.789-0.761-0.601-1.28
				C39.845,23.814,40,22.92,40,22s-0.155-1.814-0.46-2.66c-0.188-0.52,0.081-1.093,0.601-1.28c0.52-0.191,1.093,0.081,1.28,0.601
				C41.805,19.725,42,20.848,42,22s-0.195,2.275-0.58,3.34C41.273,25.747,40.889,26,40.48,26z"/>
		</g>
		<g>
			<path fill="#00A0C8" d="M23.52,26c-0.409,0-0.793-0.253-0.94-0.66C22.195,24.275,22,23.152,22,22s0.195-2.275,0.58-3.34
				c0.187-0.52,0.76-0.792,1.28-0.601c0.52,0.188,0.789,0.761,0.601,1.28C24.155,20.186,24,21.08,24,22s0.155,1.814,0.46,2.66
				c0.188,0.52-0.081,1.093-0.601,1.28C23.748,25.981,23.633,26,23.52,26z"/>
		</g>
		<g>
			<path fill="#F0F0F0" d="M27.528,18h8.943c-1.099-1.227-2.695-2-4.472-2S28.627,16.773,27.528,18z"/>
		</g>
		<g>
			<g>
				<path fill="#0A5078" d="M27,14c-0.256,0-0.512-0.098-0.707-0.293l-0.414-0.414C25.69,13.104,25.438,13,25.171,13h-0.343
					c-0.267,0-0.519,0.104-0.708,0.293l-0.414,0.414c-0.391,0.391-1.023,0.391-1.414,0s-0.391-1.023,0-1.414l0.414-0.414
					C23.273,11.313,24.027,11,24.829,11h0.343c0.801,0,1.555,0.313,2.122,0.879l0.414,0.414c0.391,0.391,0.391,1.023,0,1.414
					C27.512,13.902,27.256,14,27,14z"/>
			</g>
			<g>
				<path fill="#0A5078" d="M29,12c-0.256,0-0.512-0.098-0.707-0.293l-2-2c-0.391-0.391-0.391-1.023,0-1.414s1.023-0.391,1.414,0
					l2,2c0.391,0.391,0.391,1.023,0,1.414C29.512,11.902,29.256,12,29,12z"/>
			</g>
		</g>
		<g>
			<g>
				<path fill="#0A5078" d="M41,14c-0.256,0-0.512-0.098-0.707-0.293l-0.414-0.414C39.69,13.104,39.438,13,39.171,13h-0.343
					c-0.267,0-0.519,0.104-0.708,0.293l-0.414,0.414c-0.391,0.391-1.023,0.391-1.414,0s-0.391-1.023,0-1.414l0.414-0.414
					C37.273,11.313,38.027,11,38.829,11h0.343c0.801,0,1.555,0.313,2.122,0.879l0.414,0.414c0.391,0.391,0.391,1.023,0,1.414
					C41.512,13.902,41.256,14,41,14z"/>
			</g>
			<g>
				<path fill="#0A5078" d="M35,12c-0.256,0-0.512-0.098-0.707-0.293c-0.391-0.391-0.391-1.023,0-1.414l2-2
					c0.391-0.391,1.023-0.391,1.414,0s0.391,1.023,0,1.414l-2,2C35.512,11.902,35.256,12,35,12z"/>
			</g>
		</g>
	</g>
</g>
</svg>
